<!-- <svg width="32" height="32" viewBox="0 0 32 32" fill="none" xmlns="http://www.w3.org/2000/svg">
<path d="M27.2806 19.6929L15.9145 15.1958C15.9407 15.0853 15.9407 14.9644 15.8987 14.8592C15.8461 14.733 15.7409 14.6331 15.6094 14.5805L14.384 14.0966L15.0151 12.5029L15.2781 12.6081C15.3413 12.6343 15.4095 12.6449 15.4727 12.6449C15.6832 12.6449 15.8778 12.5187 15.9619 12.3136L16.8087 10.1728C16.8613 10.0414 16.856 9.89939 16.8034 9.76776C16.7508 9.64162 16.6456 9.54168 16.5142 9.48907L10.5124 7.10658C10.239 7.00136 9.93392 7.13278 9.8287 7.40112L8.98187 9.54191C8.92926 9.67332 8.93454 9.81531 8.98715 9.94695C9.03977 10.0731 9.14499 10.173 9.27641 10.2256L9.53947 10.3309L6.87279 17.0629L6.60973 16.9577C6.33632 16.8525 6.0365 16.9839 5.92599 17.2522L5.07915 19.393C5.02654 19.5244 5.03182 19.6664 5.08444 19.7981C5.14233 19.9242 5.24227 20.0294 5.37369 20.0768L11.3748 22.4489C11.438 22.4751 11.501 22.4857 11.5694 22.4857C11.6432 22.4857 11.7114 22.4698 11.7799 22.4436C11.906 22.391 12.006 22.2858 12.0586 22.1544L12.9054 20.0136C13.0106 19.7453 12.8792 19.4404 12.6109 19.3299L12.3478 19.2246L12.9789 17.6309L14.2044 18.1147C14.2676 18.1409 14.3358 18.1515 14.399 18.1515C14.5883 18.1515 14.762 18.0463 14.8566 17.8781L26.2227 22.3752C26.3962 22.4437 26.5751 22.4751 26.7539 22.4751C27.3324 22.4751 27.8794 22.128 28.1005 21.5601C28.3899 20.8288 28.0275 19.9822 27.2806 19.6929ZM10.6127 8.27441L15.6358 10.2626L15.1728 11.4249L11.1175 9.82083L10.4126 9.54214L10.1496 9.43692L10.6127 8.27441ZM13.9947 15.0702L14.731 15.3594L14.0999 16.9532L13.3636 16.6639L13.4373 16.4799L13.5267 16.2485L13.9947 15.0702ZM11.2703 21.2821L6.24728 19.2938L6.71021 18.1315L6.97327 18.2368L11.4704 20.0199L11.7335 20.1251L11.2703 21.2821ZM7.85139 17.4531L10.5181 10.721L14.0369 12.1149L13.0427 14.6238V14.6291L11.3701 18.8525L7.85139 17.4531ZM27.1177 21.1822C27.0389 21.3873 26.8074 21.482 26.6022 21.4032L15.2463 16.9061L15.5355 16.1697L26.8914 20.6615C27.0968 20.7509 27.1968 20.9823 27.1177 21.1822Z" fill="black" stroke="black" stroke-width="0.1"/>
<path d="M15.8615 23.8322H4.2903C4.00105 23.8322 3.7644 24.0688 3.7644 24.358V27.5139C3.7644 27.8031 4.00105 28.0398 4.2903 28.0398H15.8615C16.1507 28.0398 16.3874 27.8031 16.3874 27.5139V24.358C16.3874 24.069 16.156 23.8322 15.8615 23.8322ZM15.3354 26.988H4.81575V24.8842H15.3354V26.988Z" fill="black"/>
<path d="M23.7404 2.79346C20.8423 2.79346 18.4807 5.15503 18.4807 8.0531C18.4807 10.9512 20.8423 13.3127 23.7404 13.3127C26.6384 13.3127 29 10.9512 29 8.0531C29 5.15503 26.6384 2.79346 23.7404 2.79346V2.79346ZM23.7404 12.2609C21.4208 12.2609 19.5325 10.3726 19.5325 8.0531C19.5325 5.73356 21.4208 3.84525 23.7404 3.84525C26.0599 3.84525 27.9482 5.73356 27.9482 8.0531C27.948 10.3726 26.0599 12.2609 23.7404 12.2609V12.2609Z" fill="black"/>
<path d="M23.7405 6.47508C24.0297 6.47508 24.2664 6.71172 24.2664 7.00097C24.2664 7.29023 24.503 7.52687 24.7923 7.52687C25.0815 7.52687 25.3182 7.29023 25.3182 7.00097C25.3182 6.31723 24.8764 5.73875 24.2662 5.51773V5.11269C24.2662 4.82343 24.0295 4.58679 23.7403 4.58679C23.451 4.58679 23.2144 4.82343 23.2144 5.11269V5.51773C22.6042 5.73346 22.1624 6.31199 22.1624 7.00097C22.1624 7.86871 22.8725 8.57889 23.7403 8.57889C24.0295 8.57889 24.2662 8.81553 24.2662 9.10479C24.2662 9.39404 24.0295 9.63068 23.7403 9.63068C23.451 9.63068 23.2144 9.39404 23.2144 9.10479C23.2144 8.81553 22.9777 8.57889 22.6885 8.57889C22.3992 8.57889 22.1626 8.81553 22.1626 9.10479C22.1626 9.78853 22.6044 10.367 23.2146 10.588V10.9931C23.2146 11.2823 23.4512 11.519 23.7405 11.519C24.0297 11.519 24.2664 11.2823 24.2664 10.9931V10.588C24.8766 10.3723 25.3184 9.79377 25.3184 9.10479C25.3184 8.23704 24.6082 7.52687 23.7405 7.52687C23.4512 7.52687 23.2146 7.29023 23.2146 7.00097C23.2144 6.71194 23.4512 6.47508 23.7405 6.47508V6.47508Z" fill="black"/>
</svg> -->


<!-- <svg width="24" height="24" viewBox="0 0 24 24" fill="none" xmlns="http://www.w3.org/2000/svg">
<path d="M5.28096 15.3392C5.11132 15.1773 4.84448 15.1773 4.67502 15.3392C4.50807 15.5065 4.50807 15.7773 4.67502 15.9447L6.49308 17.763C6.61556 17.8859 6.80009 17.9228 6.96024 17.8565C7.12056 17.7901 7.2251 17.6336 7.22493 17.4602C7.22546 17.3466 7.18009 17.2376 7.09939 17.1576L5.28096 15.3392Z" fill="#6A6A6A"/>
<path d="M4.67565 17.1562L0.130925 21.7012C0.0482534 21.781 0.00109193 21.8907 1.30923e-05 22.0055C-0.00088354 22.1204 0.044307 22.2311 0.125544 22.3123C0.206779 22.3935 0.317427 22.4387 0.432197 22.4377C0.547147 22.4368 0.656895 22.3896 0.736697 22.3069L5.28124 17.7626L4.97835 17.4597L4.67565 17.1562Z" fill="#6A6A6A"/>
<path d="M16.2873 23.1377H10.2889C10.0522 23.1377 9.86035 23.3294 9.86035 23.5661V23.9945H16.7163V23.5661C16.7163 23.4524 16.6711 23.3436 16.5907 23.263C16.5104 23.1827 16.4014 23.1377 16.2877 23.1377L16.2873 23.1377Z" fill="#6A6A6A"/>
<path d="M10.432 16.2477L10.7348 15.9448L13.1592 13.5213L13.4621 13.2184C13.5426 13.1379 13.5878 13.0289 13.5878 12.9152C13.5878 12.8015 13.5426 12.6925 13.4621 12.6121L9.82566 8.97607C9.65835 8.80876 9.3872 8.80876 9.21991 8.97607L8.91702 9.27896L7.70477 10.491L6.19016 12.0062C6.10964 12.0865 6.06445 12.1956 6.06445 12.3094C6.06445 12.4231 6.10964 12.5322 6.19016 12.6125L8.61361 15.0359L9.82568 16.2477C9.90602 16.3282 10.015 16.3734 10.1289 16.3734C10.2426 16.3734 10.3517 16.3282 10.432 16.2477L10.432 16.2477ZM9.21989 11.3998L8.61394 12.0061C8.44663 12.1734 8.17513 12.1734 8.00782 12.0059C7.84051 11.8384 7.84069 11.5671 8.00818 11.3998L8.61412 10.7938L8.61394 10.794C8.77462 10.6333 8.99268 10.5431 9.21988 10.5431C9.44708 10.5431 9.66498 10.6333 9.82564 10.794L11.0377 12.0061H11.0379C11.1206 12.0859 11.1675 12.1956 11.1686 12.3106C11.1697 12.4255 11.1243 12.536 11.0431 12.6172C10.9619 12.6985 10.8514 12.7438 10.7364 12.7428C10.6215 12.7417 10.5117 12.6947 10.4319 12.612L9.21989 11.3998Z" fill="#6A6A6A"/>
<path d="M6.49316 15.3387L6.79605 15.6417L7.09948 15.9446L7.70524 15.3387L7.09893 14.7329L6.49316 15.3387Z" fill="#6A6A6A"/>
<path d="M7.40281 6.55246C7.2355 6.38551 6.96471 6.38551 6.79737 6.55246L3.7667 9.58222C3.6044 9.75025 3.60673 10.0174 3.7719 10.1828C3.93724 10.3481 4.20444 10.3505 4.37265 10.188L4.67554 9.8851L7.09991 7.46129L7.40279 7.1584V7.15822C7.57011 6.99091 7.57011 6.71976 7.40279 6.55246L7.40281 6.55246Z" fill="#6A6A6A"/>
<path d="M16.0106 15.3391C16.0106 15.1659 15.9063 15.0097 15.7461 14.9433C15.586 14.877 15.4018 14.9135 15.2793 15.0362L12.2496 18.066C12.1669 18.1458 12.1197 18.2555 12.1187 18.3703C12.1178 18.4852 12.163 18.5957 12.2442 18.6771C12.3254 18.7583 12.4359 18.8035 12.5508 18.8025C12.6658 18.8016 12.7755 18.7544 12.8553 18.6717L15.8851 15.642C15.9658 15.5618 16.011 15.4528 16.0106 15.3391V15.3391Z" fill="#6A6A6A"/>
<path d="M5.58398 10.1879L7.40254 8.37061L8.00798 8.97655L6.18942 10.7939L5.58398 10.1879Z" fill="#6A6A6A"/>
<path d="M11.1457 21.4233C10.9092 21.4233 10.7173 21.6152 10.7173 21.8519V22.2804H15.859V21.8519C15.859 21.7382 15.8138 21.6292 15.7335 21.5489C15.6531 21.4685 15.5441 21.4233 15.4306 21.4233L11.1457 21.4233Z" fill="#6A6A6A"/>
<path d="M11.6445 16.2482L13.4619 14.4297L14.068 15.0354L12.2507 16.854L11.6445 16.2482Z" fill="#6A6A6A"/>
<path d="M20.3834 3.85623H22.2902C22.5267 3.85623 22.7186 3.66434 22.7186 3.42763C22.7186 3.1911 22.5267 2.99922 22.2902 2.99922H20.5163L21.1762 1.45252C21.2322 1.32018 21.2182 1.16865 21.1389 1.04885C21.0596 0.92906 20.9255 0.856971 20.7819 0.856792H19.7407L19.8393 1.1525C19.9125 1.37738 19.7898 1.61893 19.5651 1.69248C19.5221 1.70575 19.4772 1.71292 19.4322 1.71382C19.2471 1.71292 19.0832 1.59384 19.0251 1.4181L18.7423 0.565405L18.5539 0H18.2368C18.0915 0.000179317 17.9563 0.0740636 17.8776 0.196005C17.7989 0.31813 17.7874 0.471633 17.8469 0.604156L18.9095 2.99928H17.1485C16.9118 2.99928 16.7201 3.19116 16.7201 3.42769C16.7201 3.6644 16.9118 3.85629 17.1485 3.85629H19.0637L19.0551 3.86059C17.0199 4.47764 15.4388 7.36986 15.4302 9.47378H15.4304C15.4352 10.6014 15.8873 11.681 16.6875 12.4754C17.4876 13.27 18.5704 13.7144 19.6978 13.7113H19.7237C20.8479 13.7162 21.9287 13.2774 22.7316 12.4903C23.5387 11.7129 23.9962 10.6415 23.9998 9.52093C24.0084 7.38712 22.4359 4.4692 20.3835 3.85632L20.3834 3.85623ZM20.1478 10.6346V10.7117C20.1478 10.9484 19.9559 11.1401 19.7194 11.1401C19.4826 11.1401 19.2909 10.9484 19.2909 10.7117V10.626C19.0031 10.528 18.7602 10.3304 18.6053 10.069C18.5481 9.97015 18.5325 9.85269 18.5623 9.7424C18.5921 9.63229 18.6647 9.5385 18.7639 9.48201C18.862 9.42462 18.9789 9.4092 19.0885 9.43897C19.198 9.46892 19.2909 9.54137 19.3465 9.64054C19.4231 9.77288 19.5642 9.85448 19.7172 9.85466C19.8702 9.85484 20.0115 9.77342 20.0882 9.64126C20.165 9.50891 20.1653 9.34572 20.0893 9.21302C20.0133 9.0805 19.8723 8.99836 19.7193 8.99783C19.3142 8.9946 18.9342 8.80056 18.6939 8.47438C18.4538 8.148 18.3815 7.72746 18.499 7.33976C18.6165 6.95187 18.91 6.64219 19.2909 6.50409V6.42698C19.2909 6.19027 19.4826 5.99839 19.7193 5.99839C19.9559 5.99839 20.1477 6.19027 20.1477 6.42698V6.5127C20.4354 6.61061 20.6785 6.80806 20.8333 7.06971C20.9501 7.27576 20.8794 7.53742 20.6748 7.65664C20.47 7.77284 20.2098 7.70219 20.0922 7.49812C20.0156 7.36559 19.8745 7.284 19.7215 7.28382C19.5686 7.28382 19.4271 7.36505 19.3505 7.4974C19.2737 7.62974 19.2732 7.79275 19.3494 7.92545C19.4254 8.05815 19.5664 8.14029 19.7194 8.14083C20.1245 8.14405 20.5045 8.33791 20.7446 8.66427C20.9849 8.99065 21.057 9.41101 20.9395 9.79889C20.8221 10.1866 20.5287 10.4963 20.1478 10.6346L20.1478 10.6346Z" fill="#6A6A6A"/>
</svg> -->

<!-- <svg width="25" height="20" viewBox="0 0 25 20" fill="none" xmlns="http://www.w3.org/2000/svg">
<path d="M9.68619 2.81014C9.36727 3.34401 9.19851 3.95438 9.19783 4.57633C9.2057 5.41574 9.56061 6.21447 10.1782 6.78297C10.8288 7.41748 11.5489 7.73921 12.319 7.73921C12.3671 7.73921 12.4155 7.73804 12.4639 7.73552V7.73536C12.9766 7.69819 13.4806 7.58251 13.9583 7.3925L12.7446 8.64873C12.6485 8.74834 12.5817 8.8724 12.5518 9.0075C12.5218 9.14243 12.5298 9.28322 12.5749 9.41397L12.5884 9.45332C12.6249 9.55962 12.6848 9.65622 12.7639 9.73624C13.4821 10.4638 14.2679 10.8326 15.0993 10.8326C15.1647 10.8326 15.231 10.8303 15.2968 10.8256C15.939 10.7767 16.5581 10.5651 17.096 10.2108L17.5071 10.6121C17.6472 10.7487 17.8352 10.8252 18.031 10.8252L18.042 10.8251V10.8252C18.2416 10.8222 18.4316 10.7399 18.5702 10.5964L19.2522 9.89041H19.2524C19.3902 9.74777 19.4658 9.55642 19.4628 9.3582C19.46 9.15999 19.3786 8.97098 19.2368 8.83234L18.8163 8.42202L18.8161 8.42219C19.136 7.89453 19.3095 7.29131 19.3187 6.67442C19.3145 5.82747 18.9548 5.02141 18.3275 4.45252C17.6735 3.8145 16.9416 3.49106 16.1518 3.49106C16.1133 3.49106 16.0744 3.49189 16.0356 3.4934C15.489 3.52588 14.9518 3.64943 14.446 3.85869L15.4895 2.77839C15.5933 2.67091 15.6626 2.53497 15.6887 2.38781C15.7147 2.24082 15.6961 2.08915 15.6355 1.95272L15.6219 1.92226C15.5849 1.83905 15.533 1.76322 15.4689 1.69859C14.8853 1.06426 14.0799 0.678714 13.2197 0.621971C13.1692 0.619627 13.1193 0.618455 13.0692 0.618455C12.4985 0.621636 11.9384 0.772978 11.4437 1.05757L10.9187 0.545469V0.545637C10.7787 0.409029 10.5907 0.33252 10.395 0.33252L10.3838 0.332687C10.1844 0.335533 9.9942 0.4179 9.85576 0.56137L9.17373 1.26736H9.17356C9.03578 1.40999 8.96011 1.60135 8.96295 1.79973C8.96597 1.99795 9.04733 2.18696 9.18929 2.32542L9.68619 2.81014ZM10.395 1.0826L11.3538 2.01775H11.3539C11.8346 1.6116 12.4401 1.38243 13.0692 1.36854C13.1074 1.36854 13.1457 1.36938 13.1841 1.37122C13.8565 1.42044 14.4842 1.7268 14.9365 2.22687L14.9501 2.25734L13.7275 3.52279V3.52295C13.4802 3.24723 13.1424 3.06892 12.7751 3.02054C12.7513 3.01886 12.7277 3.01803 12.7043 3.01803H12.7044C12.4039 3.02456 12.1202 3.15715 11.9225 3.38348C11.6538 3.66189 11.5316 3.93343 11.5557 4.19846C11.594 4.49076 11.7373 4.75929 11.9588 4.95382C12.149 5.1589 12.4136 5.27877 12.6932 5.2863H12.6953C13.1011 5.24847 13.4965 5.13663 13.862 4.95617C14.7089 4.50599 15.4437 4.26826 16.0659 4.24298C16.0946 4.2418 16.1232 4.2413 16.1517 4.2413L16.1518 4.24113C16.7806 4.25804 17.3763 4.52774 17.8037 4.9893C18.2838 5.41754 18.5616 6.02807 18.5688 6.67145C18.544 7.35232 18.2879 8.0044 17.8427 8.52019L18.7131 9.36928L18.0311 10.0753L17.1607 9.22618C16.6335 9.7142 15.9594 10.0135 15.244 10.0775C15.1956 10.0808 15.1474 10.0825 15.0995 10.0826C14.4731 10.0826 13.8725 9.79151 13.2976 9.20925L13.2841 9.16991L14.5022 7.90913C14.8522 8.25065 15.1859 8.42141 15.5033 8.42141C15.5279 8.42141 15.5523 8.4204 15.5768 8.41823H15.5766C15.9389 8.37838 16.2732 8.20477 16.5145 7.93158C16.7621 7.7116 16.9124 7.40272 16.9328 7.07208C16.9236 6.77157 16.7902 6.48831 16.5642 6.28993C16.3611 6.07145 16.0797 5.94271 15.7817 5.93183L15.7705 5.93167L15.7703 5.93183C15.376 5.96347 14.9925 6.07581 14.6433 6.2618C13.7732 6.71232 13.0336 6.95386 12.4243 6.98635C12.3891 6.98819 12.3539 6.98919 12.3191 6.98919C11.7489 6.98919 11.2098 6.74143 10.7021 6.24605H10.7019C10.2292 5.81632 9.95597 5.20928 9.94791 4.57041C9.96197 3.88688 10.2133 3.22944 10.6586 2.71078L9.71305 1.78849L10.395 1.0826ZM13.578 4.2579C13.565 4.2646 13.5521 4.27146 13.539 4.27833C12.9737 4.51739 12.7507 4.53631 12.6951 4.53631C12.6722 4.53631 12.6047 4.53614 12.4825 4.41694H12.4827C12.3939 4.34277 12.331 4.24233 12.3027 4.13016C12.3369 4.04311 12.3916 3.9656 12.4622 3.90433C12.5938 3.76805 12.6713 3.76805 12.7045 3.76805C12.7109 3.76805 12.7174 3.76839 12.7237 3.76872H12.7236C12.9106 3.81191 13.0788 3.91387 13.2037 4.05969C13.3068 4.1603 13.4369 4.22927 13.578 4.2579L13.578 4.2579ZM14.515 7.15913C14.664 7.09083 14.8169 7.01616 14.9735 6.9353C15.2198 6.79919 15.4907 6.71298 15.7703 6.68184C15.8061 6.68217 15.8933 6.68318 16.0403 6.82665C16.1823 6.9651 16.1826 7.04529 16.1826 7.07542H16.1828C16.152 7.20684 16.079 7.32436 15.9752 7.41041C15.8615 7.55422 15.6961 7.64781 15.5143 7.67074L15.5032 7.67124C15.3157 7.62637 15.1482 7.52141 15.0259 7.37224C14.889 7.23865 14.7063 7.16248 14.5152 7.15912L14.515 7.15913Z" fill="#6A6A6A"/>
<path d="M22.7383 15.0575V14.9575L22.7383 13.0828L22.7383 13.0825M22.7383 15.0575L22.0883 12.3325C22.287 12.333 22.4775 12.4122 22.6179 12.5528C22.7586 12.6933 22.8378 12.8838 22.8383 13.0825H22.7383M22.7383 15.0575H22.8383M22.7383 15.0575H22.8383M22.7383 13.0825C22.7378 12.9103 22.6691 12.7453 22.5473 12.6236L22.5472 12.6235C22.4255 12.5016 22.2604 12.433 22.0881 12.4325M22.7383 13.0825L22.0881 12.4325M22.0881 12.4325H14.9634C14.7911 12.433 14.626 12.5016 14.5043 12.6235L14.5042 12.6236C14.3824 12.7453 14.3137 12.9104 14.3132 13.0826V14.9575V15.0575H14.2132L13.4635 15.0575C13.4635 15.0575 13.4634 15.0575 13.4634 15.0575C13.2911 15.058 13.126 15.1266 13.0043 15.2485L13.0042 15.2486C12.8824 15.3703 12.8137 15.5354 12.8132 15.7076V17.5824C12.8137 17.7546 12.8824 17.9197 13.0042 18.0414L13.0043 18.0415C13.1261 18.1634 13.2912 18.2321 13.4635 18.2325H23.588C23.7603 18.2321 23.9255 18.1634 24.0472 18.0415L24.0473 18.0414C24.1691 17.9198 24.2378 17.7547 24.2383 17.5825C24.2383 17.5824 24.2383 17.5823 24.2383 17.5823M22.0881 12.4325L24.3383 17.5825L24.2383 17.5823M24.2383 17.5823V15.7078M24.2383 17.5823V15.7078M24.2383 15.7078L24.2383 15.7075L24.2383 15.7078ZM22.8383 15.0575L23.588 15.0575L22.8383 15.0575ZM16.2755 17.3075C16.5378 17.3075 16.7505 17.0948 16.7505 16.8325V16.4575C16.7505 16.1952 16.5378 15.9825 16.2755 15.9825C16.0132 15.9825 15.8005 16.1952 15.8005 16.4575V16.8325C15.8005 17.0948 16.0132 17.3075 16.2755 17.3075ZM16.5505 14.2075C16.5505 14.4698 16.7632 14.6825 17.0255 14.6825C17.2878 14.6825 17.5005 14.4698 17.5005 14.2075V13.8325C17.5005 13.5702 17.2878 13.3575 17.0255 13.3575C16.7632 13.3575 16.5505 13.5702 16.5505 13.8325V14.2075ZM17.7755 17.3075C18.0378 17.3075 18.2505 17.0948 18.2505 16.8325V16.4575C18.2505 16.1952 18.0378 15.9825 17.7755 15.9825C17.5132 15.9825 17.3005 16.1952 17.3005 16.4575V16.8325C17.3005 17.0948 17.5132 17.3075 17.7755 17.3075ZM18.0505 14.2075C18.0505 14.4698 18.2632 14.6825 18.5255 14.6825C18.7878 14.6825 19.0005 14.4698 19.0005 14.2075V13.8325C19.0005 13.5702 18.7878 13.3575 18.5255 13.3575C18.2632 13.3575 18.0505 13.5702 18.0505 13.8325V14.2075ZM19.2755 17.3075C19.5378 17.3075 19.7505 17.0948 19.7505 16.8325V16.4575C19.7505 16.1952 19.5378 15.9825 19.2755 15.9825C19.0132 15.9825 18.8005 16.1952 18.8005 16.4575V16.8325C18.8005 17.0948 19.0132 17.3075 19.2755 17.3075ZM19.5505 14.2075C19.5505 14.4698 19.7632 14.6825 20.0255 14.6825C20.2878 14.6825 20.5005 14.4698 20.5005 14.2075V13.8325C20.5005 13.5702 20.2878 13.3575 20.0255 13.3575C19.7632 13.3575 19.5505 13.5702 19.5505 13.8325V14.2075ZM20.7755 17.3075C21.0378 17.3075 21.2505 17.0948 21.2505 16.8325V16.4575C21.2505 16.1952 21.0378 15.9825 20.7755 15.9825C20.5132 15.9825 20.3005 16.1952 20.3005 16.4575V16.8325C20.3005 17.0948 20.5132 17.3075 20.7755 17.3075Z" stroke="#6A6A6A" stroke-width="0.2"/>
<path d="M2.42828 19.2395C2.56824 19.3813 2.75993 19.4599 2.95916 19.4574C3.15838 19.4547 3.34789 19.371 3.48416 19.2257L12.1478 10.1691L12.1476 10.1689C12.0303 10.0293 11.9394 9.86943 11.8796 9.69699L11.866 9.65765C11.7311 9.26574 11.7642 8.83564 11.9578 8.46921C11.1554 8.37178 10.4049 8.0214 9.81507 7.46875L0.569875 16.3072C0.424562 16.4438 0.341024 16.6335 0.338346 16.8329C0.335835 17.0323 0.414349 17.2242 0.55598 17.3644L2.42828 19.2395ZM2.27091 15.7185V15.7186C2.28565 15.7426 2.30323 15.765 2.32298 15.7851L4.06809 17.5302L2.9493 18.6999L1.09486 16.843L2.27091 15.7185Z" fill="#6A6A6A"/>
</svg> -->

<svg width="25" height="25" viewBox="0 0 699 699" fill="none" xmlns="http://www.w3.org/2000/svg">
<path d="M416.173 239.613C428.517 251.957 448.72 251.957 461.064 239.613C473.408 227.27 473.408 207.067 461.064 194.723L275.677 9.33593C263.334 -3.00781 243.131 -3.00781 230.787 9.33593C218.443 21.6797 218.443 41.8826 230.787 54.2266L416.173 239.613Z" fill="#6A6A6A"/>
<path d="M54.56 230.453C42.2162 218.109 22.0133 218.109 9.6693 230.453C-2.67443 242.797 -2.67443 263 9.6693 275.344L195.043 460.717C207.386 473.061 227.589 473.061 239.933 460.717C252.277 448.373 252.277 428.17 239.933 415.826L54.56 230.453Z" fill="#6A6A6A"/>
<path d="M675.933 578.68L384.96 318.813L319.231 384.543L578.977 675.636C604.999 704.824 650.592 706.636 678.759 678.464C706.701 650.751 705.456 604.934 675.931 578.683L675.933 578.68Z" fill="#6A6A6A"/>
<path d="M207.68 61.4478L61.7466 207.381C69.5539 212.391 257.96 400.901 263.12 408.648L409.053 262.714C401.595 257.917 212.467 68.9011 207.68 61.4478V61.4478ZM284.888 243.088C280.466 247.51 273.315 247.51 268.893 243.088C264.471 238.666 264.471 231.515 268.893 227.093C276.076 219.9 276.076 208.65 268.893 201.457C252.139 184.712 226.404 210.056 243.347 227.004C276.576 260.217 235.633 313.785 195.049 291.296L191.034 295.301C186.622 299.723 179.45 299.712 175.039 295.301C170.628 290.879 170.628 283.718 175.049 279.306L179.065 275.291C175.805 269.374 173.893 262.78 173.893 255.832C173.893 244.973 178.122 234.78 185.794 227.097C190.216 222.675 197.367 222.675 201.789 227.097C206.211 231.519 206.211 238.67 201.789 243.092C194.773 250.118 194.773 261.519 201.778 268.545H201.789L201.799 268.556C218.846 285.55 244.211 259.868 227.33 242.988C194.341 209.998 234.387 156.19 275.601 178.728L279.637 174.691C284.059 170.27 291.21 170.27 295.632 174.691C300.054 179.113 300.054 186.264 295.632 190.686L291.606 194.712C300.106 210.196 297.981 229.983 284.887 243.087L284.888 243.088Z" fill="#6A6A6A"/>
</svg>