<!-- <svg width="35" height="35" viewBox="0 0 35 35" fill="none" xmlns="http://www.w3.org/2000/svg">
<path d="M26.25 24.0625C25.9944 24.063 25.7468 23.974 25.55 23.8109L20.6063 19.6875H18.5938C16.2731 19.6875 14.0475 18.7656 12.4066 17.1247C10.7656 15.4837 9.84375 13.2581 9.84375 10.9375C9.84375 8.61686 10.7656 6.39126 12.4066 4.75032C14.0475 3.10937 16.2731 2.1875 18.5938 2.1875H25.1563C27.2816 2.19357 29.332 2.97297 30.9247 4.38016C32.5175 5.78736 33.5436 7.72615 33.8115 9.83452C34.0794 11.9429 33.5707 14.0767 32.3806 15.8375C31.1904 17.5983 29.4 18.8657 27.3438 19.4031V22.9688C27.3443 23.1779 27.2848 23.3829 27.1723 23.5593C27.0599 23.7357 26.8992 23.8762 26.7094 23.9641C26.5652 24.0298 26.4084 24.0633 26.25 24.0625ZM18.5938 4.375C16.8533 4.375 15.1841 5.0664 13.9534 6.29711C12.7227 7.52782 12.0313 9.19702 12.0313 10.9375C12.0313 12.678 12.7227 14.3472 13.9534 15.5779C15.1841 16.8086 16.8533 17.5 18.5938 17.5H21C21.2556 17.4995 21.5032 17.5885 21.7 17.7516L25.1563 20.6281V18.5063C25.1536 18.2408 25.2476 17.9836 25.4207 17.7823C25.5937 17.5811 25.8341 17.4496 26.0969 17.4125C27.7132 17.1476 29.1721 16.2879 30.1868 15.0022C31.2016 13.7165 31.6989 12.0978 31.581 10.4641C31.4632 8.83049 30.7387 7.29996 29.5499 6.17325C28.361 5.04655 26.7939 4.40512 25.1563 4.375H18.5938Z" fill="#6A6A6A"/>
<path d="M22.9688 9.84375H20.7812V12.0312H22.9688V9.84375Z" fill="#6A6A6A"/>
<path d="M17.5 9.84375H15.3125V12.0312H17.5V9.84375Z" fill="#6A6A6A"/>
<path d="M28.4375 9.84375H26.25V12.0312H28.4375V9.84375Z" fill="#6A6A6A"/>
<path d="M8.75035 32.8129C8.5919 32.8137 8.43516 32.7801 8.29098 32.7144C8.10112 32.6266 7.94045 32.4861 7.82801 32.3097C7.71557 32.1333 7.65608 31.9283 7.6566 31.7191V28.1535C5.9163 27.6898 4.36147 26.7005 3.2043 25.3204C2.04713 23.9404 1.344 22.2368 1.19087 20.4424C1.03774 18.6479 1.44208 16.8499 2.34869 15.2937C3.2553 13.7375 4.62002 12.499 6.2566 11.7472C6.38869 11.6776 6.53364 11.6358 6.68251 11.6243C6.83138 11.6129 6.98103 11.632 7.12222 11.6806C7.26342 11.7291 7.39317 11.8061 7.5035 11.9067C7.61383 12.0073 7.70238 12.1294 7.76372 12.2656C7.82505 12.4017 7.85787 12.5489 7.86013 12.6982C7.8624 12.8475 7.83408 12.9957 7.77691 13.1336C7.71974 13.2716 7.63493 13.3963 7.52771 13.5003C7.42049 13.6042 7.29313 13.685 7.15348 13.7379C5.86277 14.3231 4.79619 15.3104 4.11323 16.5521C3.43028 17.7939 3.16765 19.2234 3.36462 20.6268C3.56159 22.0302 4.20758 23.3322 5.20598 24.338C6.20438 25.3437 7.50154 25.9993 8.90348 26.2066C9.16628 26.2437 9.40661 26.3752 9.57967 26.5764C9.75273 26.7777 9.84671 27.0349 9.8441 27.3004V29.4222L13.3003 26.5457C13.4909 26.3667 13.7392 26.262 14.0003 26.2504H16.4066C17.2825 26.252 18.1497 26.0765 18.9561 25.7344C19.7624 25.3923 20.4913 24.8907 21.0988 24.2597C21.3018 24.0509 21.5796 23.9312 21.8708 23.9271C22.015 23.9251 22.1582 23.9515 22.2923 24.0048C22.4263 24.0581 22.5485 24.1373 22.6519 24.2379C22.7553 24.3384 22.8379 24.4583 22.895 24.5908C22.9521 24.7233 22.9825 24.8657 22.9845 25.0099C22.9865 25.1541 22.9601 25.2973 22.9068 25.4313C22.8535 25.5654 22.7743 25.6876 22.6738 25.791C21.8588 26.6283 20.8844 27.2939 19.808 27.7485C18.7316 28.2031 17.575 28.4375 16.4066 28.4379H14.3941L9.45035 32.5613C9.25357 32.7243 9.00591 32.8134 8.75035 32.8129Z" fill="#6A6A6A"/>
</svg> -->

<svg width="24" height="22" viewBox="0 0 24 22" fill="none" xmlns="http://www.w3.org/2000/svg">
<path d="M24 8.22359V16.0496C24 17.2918 23.1056 18.3353 21.9379 18.5838V20.8943C21.9379 21.4408 21.4908 21.8632 20.969 21.8632C20.7204 21.8632 20.4721 21.7639 20.2733 21.5899L17.3416 18.6583H8.47207C7.08082 18.6583 5.96282 17.5651 5.88833 16.2236L7.37909 14.7329H7.67717V16.0744C7.67717 16.4967 8.02498 16.8695 8.47228 16.8695H18.0871L20.1245 18.9068V16.8695H21.4164C21.8388 16.8695 22.2115 16.5217 22.2115 16.0744L22.2112 8.22349C22.2112 7.80116 21.8634 7.42838 21.4161 7.42838H19.8508V5.61477H21.4161C22.8323 5.63955 24 6.80736 24 8.22359ZM0.000168563 10.4098V2.58374C0.000168563 1.14276 1.16786 0 2.58391 0H15.5031C16.9441 0 18.0868 1.16769 18.0868 2.58374V10.4098C18.0868 11.8508 16.9191 12.9935 15.5031 12.9935L6.65842 12.9937L3.72667 15.9502C3.55285 16.1241 3.30434 16.2235 3.05583 16.2235C2.80731 16.2235 2.58374 16.1242 2.38498 15.9502C2.1862 15.7762 2.0869 15.5031 2.0869 15.2298V12.9194C0.894404 12.6956 0.000168563 11.652 0.000168563 10.4098ZM11.528 6.48447C11.528 7.17053 12.0842 7.7267 12.7703 7.7267V7.7267C13.4563 7.7267 14.0125 7.17053 14.0125 6.48447V6.48447C14.0125 5.79841 13.4563 5.24224 12.7703 5.24224V5.24224C12.0842 5.24224 11.528 5.79841 11.528 6.48447V6.48447ZM7.82629 6.48447C7.82629 7.17053 8.38245 7.7267 9.06852 7.7267V7.7267C9.75458 7.7267 10.3107 7.17053 10.3107 6.48447V6.48447C10.3107 5.79841 9.75458 5.24224 9.06852 5.24224V5.24224C8.38245 5.24224 7.82629 5.79841 7.82629 6.48447V6.48447ZM4.12441 6.48447C4.12441 7.17053 4.68057 7.7267 5.36664 7.7267V7.7267C6.0527 7.7267 6.60886 7.17053 6.60886 6.48447V6.48447C6.60886 5.79841 6.0527 5.24224 5.36664 5.24224V5.24224C4.68057 5.24224 4.12441 5.79841 4.12441 6.48447V6.48447Z" fill="#6A6A6A"/>
</svg>