<svg width="33" height="15" viewBox="0 0 33 15" fill="none" xmlns="http://www.w3.org/2000/svg">
<path d="M22.6274 12H21.4468V4.17334L19.0791 5.04297V3.97656L22.4434 2.71338H22.6274V12ZM26.9974 7.36621L27.4671 2.75781H32.2025V3.84326H28.4637L28.1844 6.36328C28.6372 6.09668 29.1514 5.96338 29.7269 5.96338C30.569 5.96338 31.2377 6.24268 31.7328 6.80127C32.2279 7.35563 32.4754 8.10677 32.4754 9.05469C32.4754 10.0068 32.2173 10.758 31.701 11.3081C31.189 11.854 30.4717 12.127 29.5492 12.127C28.7324 12.127 28.0659 11.9006 27.5497 11.4478C27.0334 10.995 26.7393 10.3687 26.6673 9.56885H27.7782C27.8501 10.0978 28.0384 10.4977 28.3431 10.7686C28.6478 11.0352 29.0498 11.1685 29.5492 11.1685C30.0951 11.1685 30.5225 10.9823 30.8314 10.6099C31.1446 10.2375 31.3011 9.72331 31.3011 9.06738C31.3011 8.44954 31.1319 7.95443 30.7933 7.58203C30.459 7.2054 30.0126 7.01709 29.454 7.01709C28.9419 7.01709 28.5399 7.12923 28.2479 7.35352L27.9369 7.60742L26.9974 7.36621Z" fill="#808080"/>
<path d="M13.125 9.375C13.125 9.70652 12.9933 10.0245 12.7589 10.2589C12.5245 10.4933 12.2065 10.625 11.875 10.625H4.375L1.875 13.125V3.125C1.875 2.79348 2.0067 2.47554 2.24112 2.24112C2.47554 2.0067 2.79348 1.875 3.125 1.875H11.875C12.2065 1.875 12.5245 2.0067 12.7589 2.24112C12.9933 2.47554 13.125 2.79348 13.125 3.125V9.375Z" stroke="#808080" stroke-linecap="round" stroke-linejoin="round"/>
</svg>
