<svg width="1043" height="740" viewBox="0 0 1043 740" fill="none" xmlns="http://www.w3.org/2000/svg">
<path d="M381.241 119.684L290.03 139.381L316.986 264.198L408.196 244.501L381.241 119.684Z" fill="#F5F5F5"/>
<path d="M1037.41 500.28H730.12C727.366 500.28 725.13 498.044 725.13 495.29V219.44C725.13 216.686 727.366 214.45 730.12 214.45H1037.41C1040.16 214.45 1042.4 216.686 1042.4 219.44V495.29C1042.4 498.044 1040.16 500.28 1037.41 500.28Z" fill="#F5F5F5" stroke="#529573"/>
<path d="M1042.4 220.36V245.48H725.14V220.36C725.14 217.096 727.786 214.45 731.05 214.45H1036.49C1039.75 214.45 1042.4 217.096 1042.4 220.36Z" fill="#529573" stroke="#529573"/>
<path d="M746.07 230.02C746.07 231.13 745.17 232.03 744.06 232.03C742.95 232.03 742.05 231.13 742.05 230.02C742.05 228.91 742.95 228.01 744.06 228.01C745.17 228.01 746.07 228.91 746.07 230.02Z" fill="#E0EEE7" stroke="#529573"/>
<path d="M761.129 230.02C761.129 231.134 760.233 232.03 759.119 232.03C758.006 232.03 757.109 231.134 757.109 230.02C757.109 228.906 758.006 228.01 759.119 228.01C760.223 228.01 761.129 228.916 761.129 230.02Z" fill="#E0EEE7" stroke="#529573"/>
<path d="M776.19 230.02C776.19 231.13 775.29 232.03 774.18 232.03C773.07 232.03 772.17 231.13 772.17 230.02C772.17 228.91 773.07 228.01 774.18 228.01C775.29 228.01 776.19 228.91 776.19 230.02Z" fill="#E0EEE7" stroke="#529573"/>
<path d="M884.95 272.3H1004.13V275.65H884.95V272.3Z" fill="#E0EEE7" stroke="#529573"/>
<path d="M884.95 290.2H1004.13V293.55H884.95V290.2Z" fill="#E0EEE7" stroke="#529573"/>
<path d="M884.95 308.1H1004.13V311.45H884.95V308.1Z" fill="#E0EEE7" stroke="#529573"/>
<path d="M884.95 326H1004.13V329.35H884.95V326Z" fill="#E0EEE7" stroke="#529573"/>
<path d="M884.95 343.9H944.04V347.25H884.95V343.9Z" fill="#E0EEE7" stroke="#529573"/>
<path d="M876.48 382.452H757.301V379.102H876.48V382.452Z" fill="#E0EEE7" stroke="#529573"/>
<path d="M876.48 400.349H757.301V396.999H876.48V400.349Z" fill="#E0EEE7" stroke="#529573"/>
<path d="M876.48 418.247H757.301V414.897H876.48V418.247Z" fill="#E0EEE7" stroke="#529573"/>
<path d="M876.48 436.144H757.301V432.794H876.48V436.144Z" fill="#E0EEE7" stroke="#529573"/>
<path d="M876.479 454.042H817.39V450.692H876.479V454.042Z" fill="#E0EEE7" stroke="#529573"/>
<path d="M898.25 374.29H1000.09V458.86H898.25V374.29Z" fill="#E0EEE7" stroke="#529573"/>
<path d="M948.886 427.301L949.201 427.519L949.493 427.272L982.494 399.347L1000.09 416.778V458.86H898.247L898.072 433.779L927.962 412.829L948.886 427.301Z" fill="#529573" stroke="#529573"/>
<path d="M959.05 398.67C959.05 403.149 955.419 406.78 950.94 406.78C946.461 406.78 942.83 403.149 942.83 398.67C942.83 394.191 946.461 390.56 950.94 390.56C955.419 390.56 959.05 394.191 959.05 398.67Z" fill="#529573" stroke="#529573"/>
<path d="M757.31 269.66H859.15V354.23H757.31V269.66Z" fill="#E0EEE7" stroke="#529573"/>
<path d="M807.946 322.682L808.261 322.899L808.553 322.652L841.553 294.728L859.15 312.159V354.23H757.306L757.132 329.149L787.022 308.209L807.946 322.682Z" fill="#529573" stroke="#529573"/>
<path d="M818.11 294.05C818.11 298.529 814.479 302.16 810 302.16C805.521 302.16 801.89 298.529 801.89 294.05C801.89 289.571 805.521 285.94 810 285.94C814.479 285.94 818.11 289.571 818.11 294.05Z" fill="#529573" stroke="#529573"/>
<path d="M378.23 555.01H4.65002C2.08002 555.01 0 552.93 0 550.36V347.63H382.88V550.36C382.88 552.93 380.8 555.01 378.23 555.01Z" fill="#E0EEE7"/>
<path d="M382.88 347.63H0V386.16H382.88V347.63Z" fill="#5A9A79"/>
<path d="M23.3598 369.98C25.0277 369.98 26.3798 368.628 26.3798 366.96C26.3798 365.292 25.0277 363.94 23.3598 363.94C21.6919 363.94 20.3398 365.292 20.3398 366.96C20.3398 368.628 21.6919 369.98 23.3598 369.98Z" fill="#FAFAFA"/>
<path d="M41.4799 369.98C43.1479 369.98 44.4999 368.628 44.4999 366.96C44.4999 365.292 43.1479 363.94 41.4799 363.94C39.812 363.94 38.46 365.292 38.46 366.96C38.46 368.628 39.812 369.98 41.4799 369.98Z" fill="#FAFAFA"/>
<path d="M59.6001 369.98C61.268 369.98 62.6201 368.628 62.6201 366.96C62.6201 365.292 61.268 363.94 59.6001 363.94C57.9322 363.94 56.5801 365.292 56.5801 366.96C56.5801 368.628 57.9322 369.98 59.6001 369.98Z" fill="#FAFAFA"/>
<path d="M336.84 417.22H192.26V422.45H336.84V417.22Z" fill="#ECECEC"/>
<path d="M336.84 438.75H192.26V443.98H336.84V438.75Z" fill="#ECECEC"/>
<path d="M336.84 460.28H192.26V465.51H336.84V460.28Z" fill="#ECECEC"/>
<path d="M336.84 481.81H192.26V487.04H336.84V481.81Z" fill="#ECECEC"/>
<path d="M264.55 503.35H192.26V508.58H264.55V503.35Z" fill="#ECECEC"/>
<path d="M155.57 413.55H31.8496V516.49H155.57V413.55Z" fill="#5A9A79"/>
<path d="M31.6299 485.4L68.1899 459.79L93.7099 477.44L133.83 443.49L155.56 465.02V516.49H31.8499L31.6299 485.4Z" fill="#E0EEE7"/>
<path d="M106.21 443.49C106.21 449.21 101.57 453.85 95.8502 453.85C90.1302 453.85 85.4902 449.21 85.4902 443.49C85.4902 437.77 90.1302 433.13 95.8502 433.13C101.57 433.12 106.21 437.76 106.21 443.49Z" fill="#E0EEE7"/>
<path d="M369.73 142.214L278.52 161.912L305.475 286.729L396.685 267.031L369.73 142.214Z" fill="white"/>
<path d="M396.66 267.01C396.66 267.01 396.6 266.8 396.51 266.4C396.41 265.98 396.28 265.4 396.11 264.64C395.76 263.07 395.25 260.79 394.59 257.83C393.28 251.87 391.37 243.19 388.95 232.22C384.16 210.27 377.37 179.13 369.33 142.28L369.79 142.58C342.33 148.52 311.31 155.24 278.6 162.32H278.59L278.92 161.81C288.96 208.44 298.26 251.61 305.8 286.64L305.38 286.37C332.99 280.48 355.76 275.63 371.66 272.24C379.61 270.56 385.83 269.25 390.11 268.35C392.22 267.91 393.85 267.57 394.97 267.34C396.07 267.12 396.66 267.01 396.66 267.01C396.66 267.01 396.13 267.15 395.05 267.4C393.94 267.65 392.35 268.01 390.27 268.47C386.03 269.41 379.84 270.78 371.94 272.52C356.01 276.01 333.19 281 305.52 287.05L305.18 287.12L305.11 286.78C297.52 251.76 288.17 208.6 278.08 161.98L277.99 161.56L278.41 161.47H278.42C311.14 154.42 342.16 147.73 369.63 141.81L370.01 141.73L370.09 142.11C378 179.09 384.68 210.35 389.39 232.38C391.71 243.34 393.55 252 394.81 257.95C395.42 260.88 395.9 263.14 396.22 264.7C396.37 265.44 396.49 266.01 396.57 266.43C396.63 266.83 396.66 267.01 396.66 267.01Z" fill="#1A2E35"/>
<path d="M339.69 174.94C339.74 175.17 329.86 177.5 317.62 180.15C305.38 182.79 295.42 184.75 295.37 184.52C295.32 184.29 305.2 181.96 317.44 179.31C329.68 176.66 339.64 174.71 339.69 174.94Z" fill="#1A2E35"/>
<path d="M366.01 180.61C366.06 180.84 350.81 184.33 331.95 188.4C313.09 192.47 297.76 195.59 297.71 195.36C297.66 195.13 312.91 191.64 331.77 187.57C350.63 183.49 365.96 180.38 366.01 180.61Z" fill="#1A2E35"/>
<path d="M368.451 191.92C368.501 192.15 353.251 195.64 334.391 199.71C315.531 203.78 300.201 206.9 300.151 206.67C300.101 206.44 315.351 202.95 334.211 198.88C353.071 194.8 368.401 191.69 368.451 191.92Z" fill="#1A2E35"/>
<path d="M370.89 203.24C370.94 203.47 355.69 206.96 336.83 211.03C317.97 215.1 302.64 218.22 302.59 217.99C302.54 217.76 317.79 214.27 336.65 210.2C355.51 206.12 370.84 203 370.89 203.24Z" fill="#1A2E35"/>
<path d="M373.34 214.55C373.39 214.78 358.14 218.27 339.28 222.34C320.42 226.41 305.09 229.53 305.04 229.3C304.99 229.07 320.24 225.58 339.1 221.51C357.96 217.43 373.29 214.32 373.34 214.55Z" fill="#1A2E35"/>
<path d="M375.781 225.86C375.831 226.09 360.581 229.58 341.721 233.65C322.861 237.72 307.531 240.84 307.481 240.61C307.431 240.38 322.681 236.89 341.541 232.82C360.401 228.75 375.731 225.63 375.781 225.86Z" fill="#1A2E35"/>
<path d="M378.22 237.18C378.27 237.41 363.02 240.9 344.16 244.97C325.3 249.04 309.97 252.16 309.92 251.93C309.87 251.7 325.12 248.21 343.98 244.14C362.84 240.06 378.17 236.95 378.22 237.18Z" fill="#1A2E35"/>
<path d="M349.08 255.32C349.13 255.55 340.95 257.51 330.82 259.7C320.68 261.89 312.42 263.48 312.37 263.25C312.32 263.02 320.5 261.06 330.64 258.87C340.77 256.67 349.03 255.08 349.08 255.32Z" fill="#1A2E35"/>
<path d="M253.39 471.89C253.24 471.91 253.44 469.23 252.29 464.64C251.75 462.34 250.66 459.63 248.96 456.77C247.24 453.91 244.77 450.93 241.41 448.4C238.06 445.9 233.84 443.77 228.97 442.91C224.14 442.09 218.68 442.24 213.49 444.22C210.88 445.13 208.36 446.5 206.04 448.24C204.84 449.06 203.8 450.09 202.7 451.08C201.71 452.18 200.67 453.25 199.82 454.49C196.2 459.31 194.16 465.5 194.1 471.88C194.16 478.26 196.2 484.46 199.82 489.28C200.67 490.52 201.71 491.6 202.7 492.69C203.8 493.68 204.84 494.71 206.04 495.53C208.36 497.26 210.88 498.64 213.49 499.55C218.68 501.53 224.14 501.68 228.97 500.86C233.84 500 238.06 497.88 241.41 495.37C244.77 492.84 247.24 489.86 248.96 487C250.66 484.13 251.75 481.42 252.29 479.13C253.45 474.55 253.24 471.88 253.39 471.89ZM253.39 471.89C253.4 471.89 253.41 472.05 253.41 472.37C253.4 472.74 253.39 473.21 253.38 473.79C253.38 474.42 253.34 475.19 253.19 476.1C253.07 477.01 252.95 478.06 252.62 479.21C252.13 481.54 251.07 484.31 249.38 487.25C247.67 490.18 245.19 493.24 241.79 495.85C238.4 498.44 234.1 500.65 229.12 501.55C224.17 502.43 218.58 502.29 213.24 500.29C210.55 499.37 207.96 497.96 205.57 496.19C204.34 495.35 203.26 494.29 202.13 493.28C201.11 492.16 200.04 491.05 199.16 489.78C195.43 484.83 193.31 478.45 193.26 471.88C193.32 465.31 195.43 458.94 199.16 453.99C200.04 452.71 201.11 451.61 202.13 450.49C203.26 449.47 204.34 448.42 205.57 447.58C207.95 445.81 210.55 444.4 213.24 443.48C218.58 441.47 224.17 441.34 229.12 442.22C234.1 443.13 238.4 445.34 241.79 447.92C245.19 450.53 247.68 453.6 249.38 456.52C251.07 459.46 252.13 462.22 252.62 464.56C252.95 465.71 253.07 466.76 253.19 467.67C253.34 468.58 253.38 469.35 253.38 469.98C253.39 470.57 253.4 471.03 253.41 471.4C253.42 471.73 253.41 471.89 253.39 471.89Z" stroke="#529573" stroke-width="2" stroke-miterlimit="10"/>
<path d="M223.539 486.88C223.299 486.88 223.109 480.17 223.109 471.89C223.109 463.61 223.299 456.9 223.539 456.9C223.779 456.9 223.969 463.61 223.969 471.89C223.969 480.17 223.779 486.88 223.539 486.88Z" stroke="#529573" stroke-width="2" stroke-miterlimit="10"/>
<path d="M238.53 471.89C238.53 472.13 231.82 472.32 223.54 472.32C215.26 472.32 208.55 472.13 208.55 471.89C208.55 471.65 215.26 471.46 223.54 471.46C231.82 471.46 238.53 471.65 238.53 471.89Z" stroke="#529573" stroke-width="2" stroke-miterlimit="10"/>
<path d="M756.31 638.62H286.59C282.64 638.62 279.44 635.42 279.44 631.47V103.34C279.44 99.39 282.64 96.1899 286.59 96.1899H756.31C760.26 96.1899 763.46 99.39 763.46 103.34V631.47C763.46 635.42 760.26 638.62 756.31 638.62Z" fill="#E0EEE7"/>
<path d="M279.44 144.28H763.46" stroke="#006230" stroke-width="1.9411" stroke-miterlimit="10"/>
<path d="M756.31 640.42H286.59C282.64 640.42 279.44 637.22 279.44 633.27V103.34C279.44 99.39 282.64 96.1899 286.59 96.1899H756.31C760.26 96.1899 763.46 99.39 763.46 103.34V633.28C763.46 637.22 760.26 640.42 756.31 640.42Z" stroke="#E1E1E1" stroke-width="1.9411" stroke-miterlimit="10"/>
<path d="M320.36 127.43C324.127 127.43 327.18 124.426 327.18 120.72C327.18 117.014 324.127 114.01 320.36 114.01C316.593 114.01 313.54 117.014 313.54 120.72C313.54 124.426 316.593 127.43 320.36 127.43Z" fill="#789E8B"/>
<path d="M346.881 127.43C350.647 127.43 353.701 124.426 353.701 120.72C353.701 117.014 350.647 114.01 346.881 114.01C343.114 114.01 340.061 117.014 340.061 120.72C340.061 124.426 343.114 127.43 346.881 127.43Z" fill="#789E8B"/>
<path d="M373.4 127.43C377.167 127.43 380.22 124.426 380.22 120.72C380.22 117.014 377.167 114.01 373.4 114.01C369.634 114.01 366.58 117.014 366.58 120.72C366.58 124.426 369.634 127.43 373.4 127.43Z" fill="#789E8B"/>
<path d="M724.09 124.99C724.09 125.78 724 126.55 723.83 127.27C722.8 131.73 718.8 135.04 714.03 135.04C709.26 135.04 705.27 131.72 704.23 127.27C704.05 126.55 703.97 125.78 703.97 124.99C703.97 119.43 708.47 114.93 714.03 114.93C719.59 114.93 724.09 119.43 724.09 124.99Z" fill="#E1E1E1"/>
<path d="M724.089 124.99C724.089 125.78 723.999 126.55 723.829 127.27H704.239C704.059 126.55 703.979 125.78 703.979 124.99C703.979 119.43 708.479 114.93 714.039 114.93C719.589 114.93 724.089 119.43 724.089 124.99Z" fill="#FFBBD5"/>
<path d="M747.18 122.33H680.88C679.29 122.33 678.17 120.82 678.59 119.29C679.05 117.63 679.82 115.51 681.08 113.54C684.51 108.18 689.16 105.85 690.46 92.1299C691.73 78.3999 695.91 56.1699 714.03 56.1699C732.15 56.1699 736.32 78.4099 737.6 92.1299C738.9 105.86 743.55 108.18 746.98 113.54C748.24 115.5 749.01 117.62 749.47 119.29C749.89 120.82 748.77 122.33 747.18 122.33Z" fill="#E1E1E1"/>
<path d="M714.04 43.5498C709.19 43.5498 705.26 47.4798 705.26 52.3298C705.26 57.1798 709.19 61.1098 714.04 61.1098C718.89 61.1098 722.82 57.1798 722.82 52.3298C722.82 47.4798 718.89 43.5498 714.04 43.5498ZM714.04 56.3098C711.84 56.3098 710.09 54.5298 710.09 52.3298C710.09 50.1598 711.85 48.3798 714.04 48.3798C716.24 48.3798 717.99 50.1598 717.99 52.3298C717.99 54.5298 716.23 56.3098 714.04 56.3098Z" fill="#E1E1E1"/>
<path d="M736.6 75.7399C742.62 75.7399 747.5 70.8599 747.5 64.84C747.5 58.82 742.62 53.9399 736.6 53.9399C730.58 53.9399 725.7 58.82 725.7 64.84C725.7 70.8599 730.58 75.7399 736.6 75.7399Z" fill="#FFBBD5"/>
<path d="M738.74 56.335V70.7744H736.991V58.1681H736.907L733.382 60.5089V58.7322L736.991 56.335H738.74Z" fill="white"/>
<path d="M89.5303 735.83H567.79" stroke="#5A9A79" stroke-width="8" stroke-miterlimit="10" stroke-linecap="round"/>
<path d="M717.061 735.83H799.671" stroke="#5A9A79" stroke-width="8" stroke-miterlimit="10" stroke-linecap="round"/>
<path d="M829.681 0H518.811V202.16H829.681V0Z" fill="#CEE1D8"/>
<path d="M715.367 102.405C720.794 79.6837 706.774 56.8648 684.052 51.4379C661.331 46.011 638.512 60.0311 633.085 82.7526C627.658 105.474 641.678 128.293 664.4 133.72C687.121 139.147 709.94 125.127 715.367 102.405Z" fill="#5A9A79"/>
<path d="M688.46 92.53L677.41 98.91L666.37 105.29V92.53V79.77L677.41 86.15L688.46 92.53Z" fill="#CEE1D8"/>
<path d="M829.681 165.84H518.811V202.15H829.681V165.84Z" fill="#5A9A79"/>
<path d="M549.021 184L544.541 186.59L540.051 189.17V184V178.82L544.541 181.41L549.021 184Z" fill="#CEE1D8"/>
<path d="M804.09 183.17H574.78V184.82H804.09V183.17Z" fill="#CEE1D8"/>
<path d="M579.431 184C579.431 185.89 577.901 187.42 576.011 187.42C574.121 187.42 572.591 185.89 572.591 184C572.591 182.11 574.121 180.58 576.011 180.58C577.901 180.58 579.431 182.11 579.431 184Z" fill="#CEE1D8"/>
<path d="M648.85 447.56L654.91 410.33L660.92 447.56H648.85ZM661.51 391.18H648.54L632.56 473.6V473.81H644.74L647.22 458.15H662.67L665.15 473.81H677.38L661.51 391.18ZM629.29 391.29H589.79V402.21H603.4V473.82H615.69V402.21H629.3V391.29H629.29ZM557.99 447.56L564.05 410.33L570.06 447.56H557.99ZM570.65 391.18H557.68L541.7 473.6V473.81H553.88L556.36 458.15H571.81L574.29 473.81H586.52L570.65 391.18ZM515.22 463.22H506.36V401.89H515.54C520.36 401.89 522.76 404.19 522.76 408.8V456.21C522.77 460.88 520.25 463.22 515.22 463.22ZM535.16 406.95C535.16 402.1 533.72 398.28 530.84 395.48C527.96 392.69 524.07 391.29 519.19 391.29H494.04V473.82H519.19C524.08 473.82 527.96 472.44 530.84 469.68C533.72 466.92 535.16 463.11 535.16 458.26V406.95ZM432.59 463.22V401.89H449.52V463.22H432.59ZM461.86 398.88C461.86 393.82 459.36 391.29 454.37 391.29H427.58C422.69 391.29 420.25 393.82 420.25 398.88V466.27C420.25 471.3 422.69 473.81 427.58 473.81H454.37C459.36 473.81 461.86 471.3 461.86 466.27V398.88ZM410.34 391.29H398.32V436.22C398.32 437.66 398.58 439.65 399.11 442.18L379.33 391.29H368.52V473.82H380.54V427.84C380.54 426.4 380.28 424.41 379.75 421.88L399.53 473.82H410.34V391.29Z" fill="#5A9A79"/>
<path d="M522.95 342.2C550.851 342.2 573.47 319.582 573.47 291.68C573.47 263.779 550.851 241.16 522.95 241.16C495.048 241.16 472.43 263.779 472.43 291.68C472.43 319.582 495.048 342.2 522.95 342.2Z" stroke="#5A9A79" stroke-width="5" stroke-miterlimit="10"/>
<path d="M539.97 274.66L505.92 308.71" stroke="#FF3434" stroke-width="5" stroke-miterlimit="10" stroke-linecap="round"/>
<path d="M539.97 308.71L505.92 274.66" stroke="#FF3434" stroke-width="5" stroke-miterlimit="10" stroke-linecap="round"/>
</svg>
