<svg width="35" height="34" viewBox="0 0 35 34" fill="none" xmlns="http://www.w3.org/2000/svg">
<path d="M32.1674 13.1333C31.2546 9.55304 29.3885 6.38565 26.8445 4.09356C26.9815 3.78594 27.0172 3.43866 26.9284 3.11154C26.8241 2.72793 26.5763 2.41239 26.2305 2.2235C23.5669 0.769368 20.5482 0 17.5001 0C14.4939 0 11.5114 0.748892 8.87596 2.16553C8.52807 2.35229 8.27874 2.66632 8.17223 3.04927C8.08343 3.37001 8.11303 3.7115 8.24212 4.01543C5.65362 6.3137 3.757 9.50883 2.8338 13.1333C1.26429 13.1779 0 14.4611 0 16.0413V21.8747C0 23.4833 1.30796 24.7913 2.91654 24.7913H4.37496C5.98354 24.7913 7.2915 23.4833 7.2915 21.8747V16.0413C7.2915 14.4328 5.98354 13.1248 4.37496 13.1248H4.34353C5.19805 10.0383 6.81452 7.31642 8.98677 5.30691L9.44332 6.07472C9.83791 6.73969 10.6924 6.97526 11.3888 6.60908C15.1586 4.62425 19.9324 4.64105 23.6879 6.65058C23.9119 6.7702 24.153 6.82697 24.3901 6.82697C24.886 6.82697 25.3651 6.57673 25.6361 6.12843L26.0896 5.3774C28.2231 7.38027 29.8127 10.0777 30.6571 13.1248L30.6251 13.1245C29.0165 13.1245 27.7085 14.4325 27.7085 16.0411V21.8744C27.7085 22.9331 28.281 23.8535 29.1276 24.3647C27.072 28.4473 23.6866 29.9478 20.9441 30.4495C20.5989 29.6942 19.8412 29.1663 18.9583 29.1663H16.0418C14.8357 29.1663 13.8543 30.1477 13.8543 31.3537C13.8543 32.5598 14.8357 33.5412 16.0418 33.5412H18.9583C19.9712 33.5412 20.8177 32.8457 21.0655 31.9094C23.7874 31.4312 28.0977 29.8474 30.542 24.7833C30.5704 24.7839 30.5967 24.7913 30.625 24.7913H32.0835C33.692 24.7913 35 23.4833 35 21.8747V16.0413C35 14.4611 33.7363 13.1785 32.1671 13.1333L32.1674 13.1333ZM5.83399 16.0413V21.8747C5.83399 22.6789 5.18 23.3332 4.37556 23.3332H2.91714C2.113 23.3332 1.45871 22.6792 1.45871 21.8747V16.0413C1.45871 15.2372 2.1127 14.5829 2.91714 14.5829H4.37556C5.1797 14.5829 5.83399 15.2369 5.83399 16.0413ZM24.387 5.37503L24.3754 5.36405C20.2015 3.13141 14.9122 3.10305 10.6966 5.32895L9.5665 3.44912C11.9908 2.14663 14.7346 1.4582 17.5 1.4582C20.3043 1.4582 23.0811 2.1656 25.5187 3.50131L24.387 5.37503ZM18.9586 32.0826H16.042C15.6395 32.0826 15.313 31.7561 15.313 31.3536C15.313 30.951 15.6395 30.6245 16.042 30.6245H18.9586C19.3611 30.6245 19.6876 30.951 19.6876 31.3536C19.6876 31.7561 19.3611 32.0826 18.9586 32.0826ZM33.5413 21.8741C33.5413 22.6782 32.8873 23.3325 32.0828 23.3325H30.6244C29.8203 23.3325 29.166 22.6785 29.166 21.8741V16.0407C29.166 15.2366 29.82 14.5823 30.6244 14.5823H32.0828C32.887 14.5823 33.5413 15.2363 33.5413 16.0407V21.8741Z" fill="#006230"/>
<path d="M18.594 18.2285C18.594 18.8324 18.1042 19.3222 17.5003 19.3222C16.8964 19.3222 16.4066 18.8324 16.4066 18.2285C16.4066 17.6243 16.8964 17.1348 17.5003 17.1348C18.1042 17.1348 18.594 17.6243 18.594 18.2285Z" fill="#006230"/>
<path d="M13.1253 18.2285C13.1253 18.8324 12.6355 19.3222 12.0316 19.3222C11.4277 19.3222 10.9379 18.8324 10.9379 18.2285C10.9379 17.6243 11.4277 17.1348 12.0316 17.1348C12.6355 17.1348 13.1253 17.6243 13.1253 18.2285Z" fill="#006230"/>
<path d="M24.0627 18.2285C24.0627 18.8324 23.5729 19.3222 22.969 19.3222C22.365 19.3222 21.8752 18.8324 21.8752 18.2285C21.8752 17.6243 22.365 17.1348 22.969 17.1348C23.5729 17.1348 24.0627 17.6243 24.0627 18.2285Z" fill="#006230"/>
<rect x="1.40002" y="14" width="4.9" height="9.8" rx="2" fill="#006230"/>
<rect x="28.7" y="14" width="4.9" height="9.8" rx="2" fill="#006230"/>
</svg>