<!-- <svg width="34" height="34" viewBox="0 0 34 34" fill="none" xmlns="http://www.w3.org/2000/svg">
<path d="M17.0293 10.0001L17.0132 12.0001" stroke="black" stroke-width="1.5" stroke-linecap="round" stroke-linejoin="round"/>
<path d="M16.9867 22L16.9706 23.9999" stroke="black" stroke-width="1.5" stroke-linecap="round" stroke-linejoin="round"/>
<path d="M16.9045 28.9996C23.5317 29.0524 28.9468 23.7227 28.9996 17.0955C29.0523 10.4683 23.7227 5.05315 17.0954 5.0004C10.4682 4.94766 5.05307 10.2773 5.00033 16.9045C4.94759 23.5317 10.2772 28.9469 16.9045 28.9996Z" stroke="black" stroke-width="1.5" stroke-linecap="round" stroke-linejoin="round"/>
<path d="M13.96 21.9756L18.4598 22.0117C19.1228 22.0171 19.7608 21.7588 20.2334 21.2937C20.706 20.8287 20.9745 20.1949 20.9798 19.5319C20.9851 18.8689 20.7269 18.2309 20.2618 17.7583C19.7967 17.2857 19.163 17.0172 18.5 17.0119L15.5001 16.9878C14.837 16.9825 14.2033 16.714 13.7382 16.2414C13.2732 15.7688 13.0149 15.1308 13.0202 14.4678C13.0255 13.8048 13.294 13.171 13.7666 12.706C14.2392 12.2409 14.8772 11.9826 15.5402 11.988L20.0401 12.0241" stroke="black" stroke-width="1.5" stroke-linecap="round" stroke-linejoin="round"/>
</svg> -->

<svg width="24" height="24" viewBox="0 0 24 24" fill="none" xmlns="http://www.w3.org/2000/svg">
<path d="M12 0C8.81736 0 5.7651 1.26426 3.51461 3.51461C1.26426 5.7651 0 8.81741 0 12C0 15.1826 1.26426 18.2349 3.51461 20.4854C5.7651 22.7357 8.81741 24 12 24C15.1826 24 18.2349 22.7357 20.4854 20.4854C22.7357 18.2349 24 15.1826 24 12C23.9962 8.8186 22.7309 5.7683 20.4813 3.51873C18.2317 1.26911 15.1817 0.00374853 12 0V0ZM15.6619 16.9817C14.9626 17.6025 13.953 17.9846 12.633 18.128V20.2758H11.3169L11.3171 18.1901C9.93803 18.2128 8.56858 17.9567 7.29093 17.4371V15.3473C7.92699 15.6485 8.59272 15.8828 9.27715 16.0467C9.94375 16.2212 10.6282 16.3185 11.3171 16.3364V12.6371L10.4854 12.3309C9.58681 12.0348 8.77411 11.5234 8.11844 10.8412C7.61166 10.2459 7.34469 9.48322 7.36951 8.70178C7.35308 7.82787 7.74665 6.99643 8.43309 6.45504C9.26645 5.81953 10.2707 5.44774 11.317 5.3874V3.72383H12.633V5.35846C13.9418 5.39685 15.2328 5.67167 16.4439 6.16952L15.72 7.97772C14.7337 7.57969 13.693 7.33275 12.633 7.24539V10.8453L13.3861 11.135C14.6398 11.615 15.5046 12.1239 15.9888 12.6577H15.9889C16.4698 13.1944 16.7275 13.8946 16.7089 14.6149C16.7328 15.521 16.3486 16.3899 15.662 16.9817L15.6619 16.9817ZM10.1091 7.77088C10.4574 7.49767 10.8767 7.32964 11.3174 7.28677V10.3614C10.8471 10.2053 10.4144 9.95318 10.0471 9.62069C9.8105 9.36623 9.68408 9.02856 9.69533 8.68141C9.68854 8.33088 9.84068 7.99625 10.1091 7.77088H10.1091ZM13.9738 13.8206C14.239 14.0614 14.3856 14.406 14.3753 14.7639C14.3753 15.5831 13.7945 16.0811 12.6333 16.2576L12.6331 13.1048C13.121 13.2574 13.5756 13.5003 13.9738 13.8206H13.9738Z" fill="#6A6A6A"/>
</svg>