<svg width="23" height="31" viewBox="0 0 23 31" fill="none" xmlns="http://www.w3.org/2000/svg">
<path d="M1.87516 10.2639L1.87519 10.2638C2.53606 9.60323 3.43204 9.23203 4.3666 9.23203H7.50458C7.87487 9.23203 8.17512 9.53227 8.17512 9.90257C8.17512 10.2729 7.87487 10.5731 7.50458 10.5731H4.3666C3.78798 10.5731 3.23293 10.803 2.82352 11.2122C2.8235 11.2122 2.82349 11.2122 2.82348 11.2122M1.87516 10.2639L2.75279 28.6326C2.32488 28.2044 2.08444 27.624 2.08444 27.0188V12.7553C2.08444 12.1501 2.32488 11.5696 2.75279 11.1415L2.82348 11.2122M1.87516 10.2639C1.21456 10.9247 0.843359 11.8207 0.843359 12.7553V27.0188C0.843359 27.9534 1.21456 28.8493 1.87515 29.5102L1.87518 29.5102C2.53605 30.1708 3.43204 30.542 4.3666 30.542H18.6301C19.5647 30.542 20.4607 30.1708 21.1215 29.5102L21.1216 29.5102C21.7822 28.8493 22.1534 27.9534 22.1534 27.0188V12.7553C22.1534 11.8207 21.7822 10.9247 21.1216 10.2639L21.1215 10.2638C20.4607 9.60323 19.5647 9.23203 18.6301 9.23203H15.4921C15.1218 9.23203 14.8216 9.53227 14.8216 9.90257C14.8216 10.2729 15.1218 10.5731 15.4921 10.5731H18.6301C19.2088 10.5731 19.7638 10.803 20.1732 11.2122C20.5824 11.6216 20.8123 12.1767 20.8123 12.7553V27.0188C20.8123 27.5974 20.5824 28.1525 20.1732 28.5619C19.7638 28.9711 19.2087 29.201 18.6301 29.201H4.3666C3.78797 29.201 3.23291 28.9711 2.82352 28.5619C2.82351 28.5619 2.82349 28.5619 2.82348 28.5619M1.87516 10.2639L2.82348 28.5619M2.82348 11.2122C2.41433 11.6216 2.18444 12.1766 2.18444 12.7553V27.0188C2.18444 27.5974 2.41433 28.1525 2.82348 28.5619M2.82348 11.2122L2.82348 28.5619" fill="#006230" stroke="#006230" stroke-width="0.2"/>
<path d="M11.2405 20.2239L11.2312 20.2188L11.1807 20.1911C11.1599 20.1831 11.1405 20.1724 11.1225 20.1592C11.0853 20.1352 11.0511 20.1073 11.0202 20.0762C11.0202 20.0761 11.0201 20.0761 11.02 20.076L6.98661 16.0426C6.72469 15.7806 6.72468 15.3559 6.98661 15.094C7.24854 14.8321 7.67328 14.8321 7.9352 15.094L10.8255 17.984V1.34593C10.8255 0.975634 11.1258 0.675391 11.4961 0.675391C11.8664 0.675391 12.1666 0.975634 12.1666 1.34593V17.984L15.0569 15.094C15.3189 14.8321 15.7436 14.832 16.0055 15.094C16.2674 15.3559 16.2674 15.7806 16.0055 16.0426L11.9721 20.076C11.972 20.0761 11.9719 20.0762 11.9718 20.0762L11.9718 20.0763L11.9011 20.0056C11.8743 20.0326 11.8448 20.0566 11.8127 20.0769L11.2405 20.2239ZM11.2405 20.2239L11.2507 20.227L11.3077 20.2441L11.3217 20.2482H11.3364H11.3749C11.4549 20.2635 11.5372 20.2635 11.6172 20.2482H11.6558H11.6704L11.6844 20.2441L11.7415 20.227L11.7516 20.2239L11.761 20.2188L11.8114 20.1911C11.8322 20.1831 11.8517 20.1724 11.8697 20.1592L11.2405 20.2239Z" fill="#006230" stroke="#006230" stroke-width="0.2"/>
</svg>
