<svg width="62" height="55" viewBox="0 0 62 55" fill="none" xmlns="http://www.w3.org/2000/svg">
<path d="M31 10.9792L15.75 21.1458L0.5 10.9792L15.75 0.8125L31 10.9792Z" fill="#007EE5"/>
<path d="M31 10.9792L46.25 21.1458L61.5 10.9792L46.25 0.8125L31 10.9792Z" fill="#007EE5"/>
<path d="M31 31.3132L46.25 41.4798L61.5 31.3132L46.25 21.1465L31 31.3132Z" fill="#007EE5"/>
<path d="M15.75 44.0202L31 54.1868L46.25 44.0202L31 33.8535L15.75 44.0202Z" fill="#007EE5"/>
<path d="M31 31.3132L15.75 41.4798L0.5 31.3132L15.75 21.1465L31 31.3132Z" fill="#007EE5"/>
<path d="M15.75 0.8125L0.5 10.9792L15.75 21.1458L31 10.9792L15.75 0.8125ZM61.5 10.9792L46.25 0.8125L31 10.9792L46.25 21.1458L61.5 10.9792ZM31 31.3125L46.25 41.4792L61.5 31.3125L46.25 21.1458L31 31.3125ZM15.75 44.0208L31 54.1875L46.25 44.0208L31 33.8542L15.75 44.0208ZM0.5 31.3125L15.75 41.4792L31 31.3125L15.75 21.1458L0.5 31.3125Z" fill="url(#paint0_linear_1573_605)"/>
<defs>
<linearGradient id="paint0_linear_1573_605" x1="0.981515" y1="9.94656" x2="58.8747" y2="36.9426" gradientUnits="userSpaceOnUse">
<stop stop-color="white" stop-opacity="0.2"/>
<stop offset="1" stop-color="white" stop-opacity="0"/>
</linearGradient>
</defs>
</svg>
