<svg width="68" height="58" viewBox="0 0 68 58" fill="none" xmlns="http://www.w3.org/2000/svg">
<path d="M64 20C64 16.7529 61.4243 15 59 15C57.0908 15 55.4648 15.7126 53.9849 16.6641C53.9857 16.521 54 16.394 54 16.25C54 15.5591 53.4409 15 52.75 15H10.25C9.55908 15 9 15.5591 9 16.25C9 28.5861 11.9669 37.3691 17.779 42.5H5.25C4.55908 42.5 4 43.0591 4 43.75C4 47.196 6.80396 50 10.25 50H52.75C56.196 50 59 47.196 59 43.75C59 43.0591 58.4409 42.5 57.75 42.5H45.221C48.3575 39.731 50.6602 35.8929 52.1136 31.0037C60.8417 27.2565 64 22.7612 64 20ZM53.87 19.8219C55.4882 18.5677 57.1175 17.5 59 17.5C59.929 17.5 61.5 18.0261 61.5 20C61.5 21.1238 59.8636 24.5451 52.8588 27.932C53.38 25.453 53.7208 22.7534 53.87 19.8219Z" fill="#303C42"/>
<path d="M52.7512 47.5H10.2512C8.62158 47.5 7.2312 46.4551 6.71484 45H56.2876C55.7712 46.4551 54.3809 47.5 52.7512 47.5Z" fill="#A6714D"/>
<path opacity="0.1" d="M54.031 45C53.3447 45.752 52.3828 46.25 51.287 46.25H8.78702C8.1965 46.25 7.65955 46.0753 7.16211 45.8311C7.83701 46.8292 8.95807 47.5 10.2506 47.5H52.7506C54.3803 47.5 55.7707 46.4551 56.287 45H54.031Z" fill="black"/>
<path d="M41.0183 42.5H21.9793C15.2534 38.5153 11.7245 30.1219 11.5098 17.5H51.4878C51.2731 30.1219 47.7442 38.5153 41.0183 42.5Z" fill="#A6714D"/>
<path opacity="0.1" d="M48.7935 17.5C48.3478 23.342 47.0986 28.1506 45.0342 31.8703C42.6589 36.1504 38.0967 38.75 33.2017 38.75H17.5986C18.8657 40.2638 20.3242 41.5186 21.9808 42.5H41.0198C47.7457 38.5153 51.2746 30.1219 51.4893 17.5H48.7935Z" fill="black"/>
<path d="M30.25 11.25C30.25 11.9409 30.8091 12.5 31.5 12.5C32.1909 12.5 32.75 11.9409 32.75 11.25C32.75 10.5469 33.021 10.2466 33.6338 9.63379C34.3162 8.95142 35.25 8.01758 35.25 6.25C35.25 4.48242 34.3162 3.54858 33.6338 2.86621C33.021 2.25342 32.75 1.95312 32.75 1.25C32.75 0.559082 32.1909 0 31.5 0C30.8091 0 30.25 0.559082 30.25 1.25C30.25 3.01758 31.1838 3.95142 31.8662 4.63379C32.479 5.24658 32.75 5.54688 32.75 6.25C32.75 6.95312 32.479 7.25342 31.8662 7.86621C31.1838 8.54858 30.25 9.48242 30.25 11.25Z" fill="#303C42"/>
<path d="M19 11.25C19 11.9409 19.5591 12.5 20.25 12.5C20.9409 12.5 21.5 11.9409 21.5 11.25C21.5 10.5469 21.771 10.2466 22.3838 9.63379C23.0662 8.95142 24 8.01758 24 6.25C24 4.48242 23.0662 3.54858 22.3838 2.86621C21.771 2.25342 21.5 1.95312 21.5 1.25C21.5 0.559082 20.9409 0 20.25 0C19.5591 0 19 0.559082 19 1.25C19 3.01758 19.9338 3.95142 20.6162 4.63379C21.229 5.24658 21.5 5.54688 21.5 6.25C21.5 6.95312 21.229 7.25342 20.6162 7.86621C19.9338 8.54858 19 9.48242 19 11.25Z" fill="#303C42"/>
<path d="M41.5 11.25C41.5 11.9409 42.0591 12.5 42.75 12.5C43.4409 12.5 44 11.9409 44 11.25C44 10.5469 44.271 10.2466 44.8838 9.63379C45.5662 8.95142 46.5 8.01758 46.5 6.25C46.5 4.48242 45.5662 3.54858 44.8838 2.86621C44.271 2.25342 44 1.95312 44 1.25C44 0.559082 43.4409 0 42.75 0C42.0591 0 41.5 0.559082 41.5 1.25C41.5 3.01758 42.4338 3.95142 43.1162 4.63379C43.729 5.24658 44 5.54688 44 6.25C44 6.95312 43.729 7.25342 43.1162 7.86621C42.4338 8.54858 41.5 9.48242 41.5 11.25Z" fill="#303C42"/>
<g filter="url(#filter0_d_2889_5330)">
<path d="M64 20C64 16.7529 61.4243 15 59 15C57.0908 15 55.4648 15.7126 53.9849 16.6641C53.9857 16.521 54 16.394 54 16.25C54 15.5591 53.4409 15 52.75 15H10.25C9.55908 15 9 15.5591 9 16.25C9 28.5861 11.9669 37.3691 17.779 42.5H5.25C4.55908 42.5 4 43.0591 4 43.75C4 47.196 6.80396 50 10.25 50H52.75C56.196 50 59 47.196 59 43.75C59 43.0591 58.4409 42.5 57.75 42.5H45.221C48.3575 39.731 50.6602 35.8929 52.1136 31.0037C60.8417 27.2565 64 22.7612 64 20ZM53.87 19.8219C55.4882 18.5677 57.1175 17.5 59 17.5C59.929 17.5 61.5 18.0261 61.5 20C61.5 21.1238 59.8636 24.5451 52.8588 27.932C53.38 25.453 53.7208 22.7534 53.87 19.8219ZM30.25 11.25C30.25 11.9409 30.8091 12.5 31.5 12.5C32.1909 12.5 32.75 11.9409 32.75 11.25C32.75 10.5469 33.021 10.2466 33.6338 9.63379C34.3162 8.95142 35.25 8.01758 35.25 6.25C35.25 4.48242 34.3162 3.54858 33.6338 2.86621C33.021 2.25342 32.75 1.95312 32.75 1.25C32.75 0.559082 32.1909 0 31.5 0C30.8091 0 30.25 0.559082 30.25 1.25C30.25 3.01758 31.1838 3.95142 31.8662 4.63379C32.479 5.24658 32.75 5.54688 32.75 6.25C32.75 6.95312 32.479 7.25342 31.8662 7.86621C31.1838 8.54858 30.25 9.48242 30.25 11.25ZM19 11.25C19 11.9409 19.5591 12.5 20.25 12.5C20.9409 12.5 21.5 11.9409 21.5 11.25C21.5 10.5469 21.771 10.2466 22.3838 9.63379C23.0662 8.95142 24 8.01758 24 6.25C24 4.48242 23.0662 3.54858 22.3838 2.86621C21.771 2.25342 21.5 1.95312 21.5 1.25C21.5 0.559082 20.9409 0 20.25 0C19.5591 0 19 0.559082 19 1.25C19 3.01758 19.9338 3.95142 20.6162 4.63379C21.229 5.24658 21.5 5.54688 21.5 6.25C21.5 6.95312 21.229 7.25342 20.6162 7.86621C19.9338 8.54858 19 9.48242 19 11.25ZM41.5 11.25C41.5 11.9409 42.0591 12.5 42.75 12.5C43.4409 12.5 44 11.9409 44 11.25C44 10.5469 44.271 10.2466 44.8838 9.63379C45.5662 8.95142 46.5 8.01758 46.5 6.25C46.5 4.48242 45.5662 3.54858 44.8838 2.86621C44.271 2.25342 44 1.95312 44 1.25C44 0.559082 43.4409 0 42.75 0C42.0591 0 41.5 0.559082 41.5 1.25C41.5 3.01758 42.4338 3.95142 43.1162 4.63379C43.729 5.24658 44 5.54688 44 6.25C44 6.95312 43.729 7.25342 43.1162 7.86621C42.4338 8.54858 41.5 9.48242 41.5 11.25Z" fill="url(#paint0_linear_2889_5330)" shape-rendering="crispEdges"/>
</g>
<g clip-path="url(#clip0_2889_5330)">
<path d="M36.8415 33.659C35.6367 36.0734 33.1407 37.7294 30.2607 37.7294C29.5695 37.7294 28.8927 37.6334 28.2591 37.4558L24.8703 40.763L26.0751 36.4238C24.1551 35.099 22.8975 32.8766 22.8975 30.3662C22.8975 26.3006 26.1903 23.0078 30.2559 23.0078C30.5199 23.0078 30.7791 23.0222 31.0335 23.051C30.5343 24.0446 30.2559 25.1582 30.2559 26.3438C30.2559 26.867 30.3087 27.3806 30.4143 27.875C31.0719 30.9518 33.6495 33.323 36.8415 33.659Z" fill="#EFFEF6"/>
<g filter="url(#filter1_d_2889_5330)">
<path d="M36.8413 33.6589C37.0957 33.7117 37.3597 33.7021 37.6189 33.7021C38.3101 33.7021 38.9869 33.6061 39.6205 33.4285L43.0093 36.7357L41.8045 32.3965C43.7245 31.0717 44.9821 28.8493 44.9821 26.3389C44.9821 22.2733 41.6893 18.9805 37.6237 18.9805C34.7437 18.9805 32.2477 20.6365 31.0429 23.0509C31.0429 23.0509 28.7965 27.0445 31.6861 30.6877C31.6813 30.6829 32.9581 32.8141 36.8413 33.6589Z" fill="#FDE34F"/>
</g>
</g>
<defs>
<filter id="filter0_d_2889_5330" x="0" y="0" width="68" height="58" filterUnits="userSpaceOnUse" color-interpolation-filters="sRGB">
<feFlood flood-opacity="0" result="BackgroundImageFix"/>
<feColorMatrix in="SourceAlpha" type="matrix" values="0 0 0 0 0 0 0 0 0 0 0 0 0 0 0 0 0 0 127 0" result="hardAlpha"/>
<feOffset dy="4"/>
<feGaussianBlur stdDeviation="2"/>
<feComposite in2="hardAlpha" operator="out"/>
<feColorMatrix type="matrix" values="0 0 0 0 0 0 0 0 0 0 0 0 0 0 0 0 0 0 0.25 0"/>
<feBlend mode="normal" in2="BackgroundImageFix" result="effect1_dropShadow_2889_5330"/>
<feBlend mode="normal" in="SourceGraphic" in2="effect1_dropShadow_2889_5330" result="shape"/>
</filter>
<filter id="filter1_d_2889_5330" x="26.2109" y="18.9805" width="22.7715" height="25.7539" filterUnits="userSpaceOnUse" color-interpolation-filters="sRGB">
<feFlood flood-opacity="0" result="BackgroundImageFix"/>
<feColorMatrix in="SourceAlpha" type="matrix" values="0 0 0 0 0 0 0 0 0 0 0 0 0 0 0 0 0 0 127 0" result="hardAlpha"/>
<feOffset dy="4"/>
<feGaussianBlur stdDeviation="2"/>
<feComposite in2="hardAlpha" operator="out"/>
<feColorMatrix type="matrix" values="0 0 0 0 0 0 0 0 0 0 0 0 0 0 0 0 0 0 0.25 0"/>
<feBlend mode="normal" in2="BackgroundImageFix" result="effect1_dropShadow_2889_5330"/>
<feBlend mode="normal" in="SourceGraphic" in2="effect1_dropShadow_2889_5330" result="shape"/>
</filter>
<linearGradient id="paint0_linear_2889_5330" x1="8.56878" y1="16.8965" x2="60.8085" y2="41.2563" gradientUnits="userSpaceOnUse">
<stop stop-color="white" stop-opacity="0.2"/>
<stop offset="1" stop-color="white" stop-opacity="0"/>
</linearGradient>
<clipPath id="clip0_2889_5330">
<rect width="24" height="24" fill="white" transform="translate(22 18)"/>
</clipPath>
</defs>
</svg>
