<!-- <svg width="54" height="54" viewBox="0 0 54 54" fill="none" xmlns="http://www.w3.org/2000/svg">
<path d="M14.625 19.25C14.0727 19.25 13.625 19.6977 13.625 20.25C13.625 20.8023 14.0727 21.25 14.625 21.25V19.25ZM23.6315 11.8287L22.703 12.2001H22.703L23.6315 11.8287ZM24.5315 14.0787L25.46 13.7073L24.5315 14.0787ZM46.25 29.25V36H48.25V29.25H46.25ZM38.25 44H15.75V46H38.25V44ZM7.75 36V13.5H5.75V36H7.75ZM11.25 10H19.4534V8H11.25V10ZM22.703 12.2001L23.603 14.4501L25.46 13.7073L24.56 11.4574L22.703 12.2001ZM20.3534 19.25H14.625V21.25H20.3534V19.25ZM14.625 21.25H38.25V19.25H14.625V21.25ZM19.4534 10C20.2131 10 20.7024 10.0014 21.0756 10.0424C21.4243 10.0807 21.5748 10.1454 21.6775 10.2149L22.7987 8.55878C22.33 8.24145 21.826 8.11276 21.294 8.05433C20.7865 7.9986 20.1691 8 19.4534 8V10ZM24.56 11.4574C24.2941 10.7928 24.0661 10.219 23.8259 9.76857C23.5741 9.29633 23.2674 8.87612 22.7987 8.55878L21.6775 10.2149C21.7801 10.2844 21.8961 10.4002 22.0612 10.7096C22.2378 11.0409 22.4208 11.4947 22.703 12.2001L24.56 11.4574ZM23.603 14.4501C24.1744 15.8787 24.5585 16.8459 24.7333 17.5796C24.9033 18.2933 24.8147 18.5487 24.7118 18.7008L26.3679 19.822C26.9342 18.9855 26.9007 18.0476 26.6788 17.1162C26.4617 16.2047 26.007 15.0749 25.46 13.7073L23.603 14.4501ZM20.3534 21.25C21.8262 21.25 23.0441 21.2526 23.971 21.1157C24.9183 20.9758 25.8016 20.6585 26.3679 19.822L24.7118 18.7008C24.6088 18.8529 24.4045 19.0299 23.6788 19.1372C22.9326 19.2474 21.8919 19.25 20.3534 19.25V21.25ZM15.75 44C13.6004 44 12.0888 43.9979 10.9455 43.8442C9.831 43.6943 9.21737 43.4171 8.77513 42.9749L7.36091 44.3891C8.23669 45.2649 9.34273 45.6467 10.679 45.8263C11.9866 46.0021 13.6569 46 15.75 46V44ZM5.75 36C5.75 38.0931 5.74788 39.7634 5.92367 41.071C6.10333 42.4073 6.48513 43.5133 7.36091 44.3891L8.77513 42.9749C8.33289 42.5326 8.05568 41.919 7.90584 40.8045C7.75212 39.6612 7.75 38.1496 7.75 36H5.75ZM46.25 36C46.25 38.1496 46.2479 39.6612 46.0942 40.8045C45.9443 41.919 45.6671 42.5326 45.2249 42.9749L46.6391 44.3891C47.5149 43.5133 47.8967 42.4073 48.0763 41.071C48.2521 39.7634 48.25 38.0931 48.25 36H46.25ZM38.25 46C40.3431 46 42.0134 46.0021 43.321 45.8263C44.6573 45.6467 45.7633 45.2649 46.6391 44.3891L45.2249 42.9749C44.7826 43.4171 44.169 43.6943 43.0545 43.8442C41.9112 43.9979 40.3996 44 38.25 44V46ZM48.25 29.25C48.25 27.1569 48.2521 25.4866 48.0763 24.179C47.8967 22.8427 47.5149 21.7367 46.6391 20.8609L45.2249 22.2751C45.6671 22.7174 45.9443 23.331 46.0942 24.4455C46.2479 25.5888 46.25 27.1004 46.25 29.25H48.25ZM38.25 21.25C40.3996 21.25 41.9112 21.2521 43.0545 21.4058C44.169 21.5557 44.7826 21.8329 45.2249 22.2751L46.6391 20.8609C45.7633 19.9851 44.6573 19.6033 43.321 19.4237C42.0134 19.2479 40.3431 19.25 38.25 19.25V21.25ZM7.75 13.5C7.75 12.4111 7.75212 11.695 7.82346 11.1644C7.89093 10.6626 8.00338 10.4789 8.11612 10.3661L6.7019 8.9519C6.15563 9.49818 5.93858 10.1743 5.84129 10.8979C5.74788 11.5927 5.75 12.4676 5.75 13.5H7.75ZM11.25 8C10.2176 8 9.34272 7.99788 8.64789 8.09129C7.9243 8.18858 7.24818 8.40563 6.7019 8.9519L8.11612 10.3661C8.22885 10.2534 8.41257 10.1409 8.91439 10.0735C9.44497 10.0021 10.1611 10 11.25 10V8Z" fill="#6A6A6A"/>
</svg> -->

<svg width="24" height="24" viewBox="0 0 24 24" fill="none" xmlns="http://www.w3.org/2000/svg">
<g clip-path="url(#clip0_1195_8116)">
<path d="M10 4H4C2.9 4 2.01 4.9 2.01 6L2 18C2 19.1 2.9 20 4 20H20C21.1 20 22 19.1 22 18V8C22 6.9 21.1 6 20 6H12L10 4Z" fill="#6A6A6A"/>
</g>
<defs>
<clipPath id="clip0_1195_8116">
<rect width="24" height="24" fill="white"/>
</clipPath>
</defs>
</svg>