<svg width="18" height="19" viewBox="0 0 18 19" fill="none" xmlns="http://www.w3.org/2000/svg">
<path d="M9 17C13.1421 17 16.5 13.6421 16.5 9.5C16.5 5.35786 13.1421 2 9 2C4.85786 2 1.5 5.35786 1.5 9.5C1.5 13.6421 4.85786 17 9 17Z" stroke="#006230" stroke-width="2" stroke-linecap="round" stroke-linejoin="round"/>
<path d="M9 17C13.1421 17 16.5 13.6421 16.5 9.5C16.5 5.35786 13.1421 2 9 2C4.85786 2 1.5 5.35786 1.5 9.5C1.5 13.6421 4.85786 17 9 17Z" stroke="black" stroke-opacity="0.2" stroke-width="2" stroke-linecap="round" stroke-linejoin="round"/>
<path d="M6.81738 7.24945C6.99371 6.7482 7.34175 6.32553 7.79985 6.0563C8.25795 5.78707 8.79655 5.68865 9.32027 5.77848C9.84398 5.86831 10.319 6.14059 10.6612 6.5471C11.0034 6.9536 11.1907 7.46809 11.1899 7.99945C11.1899 9.49945 8.93988 10.2495 8.93988 10.2495" stroke="#006230" stroke-width="2" stroke-linecap="round" stroke-linejoin="round"/>
<path d="M6.81738 7.24945C6.99371 6.7482 7.34175 6.32553 7.79985 6.0563C8.25795 5.78707 8.79655 5.68865 9.32027 5.77848C9.84398 5.86831 10.319 6.14059 10.6612 6.5471C11.0034 6.9536 11.1907 7.46809 11.1899 7.99945C11.1899 9.49945 8.93988 10.2495 8.93988 10.2495" stroke="black" stroke-opacity="0.2" stroke-width="2" stroke-linecap="round" stroke-linejoin="round"/>
<path d="M9 13.25H9.0075" stroke="#006230" stroke-width="2" stroke-linecap="round" stroke-linejoin="round"/>
<path d="M9 13.25H9.0075" stroke="black" stroke-opacity="0.2" stroke-width="2" stroke-linecap="round" stroke-linejoin="round"/>
</svg>
