<svg width="26" height="24" viewBox="0 0 26 24" fill="none" xmlns="http://www.w3.org/2000/svg">
<path d="M10 24C9.81278 24.0006 9.62915 23.9486 9.47001 23.85C9.3259 23.7599 9.20711 23.6346 9.12488 23.4859C9.04264 23.3372 8.99967 23.1699 9.00001 23V13.38L1.28001 4.81C0.453783 3.89003 -0.0022404 2.69653 8.27676e-06 1.46V1C8.27676e-06 0.734784 0.105365 0.48043 0.292901 0.292893C0.480438 0.105357 0.734792 0 1.00001 0H25C25.2652 0 25.5196 0.105357 25.7071 0.292893C25.8947 0.48043 26 0.734784 26 1V1.46C26.0023 2.69653 25.5462 3.89003 24.72 4.81L17 13.38V18.76C17.0011 19.3184 16.8463 19.8661 16.553 20.3414C16.2598 20.8166 15.8397 21.2006 15.34 21.45L10.45 23.89C10.3107 23.9614 10.1566 23.9991 10 24ZM2.05001 2C2.14911 2.54727 2.39839 3.05621 2.77001 3.47L10.77 12.33C10.9259 12.5178 11.0077 12.7561 11 13V21.38L14.45 19.66C14.6164 19.5761 14.7561 19.4474 14.8533 19.2884C14.9505 19.1294 15.0013 18.9464 15 18.76V13C15.0007 12.7522 15.0933 12.5134 15.26 12.33L23.26 3.47C23.6389 3.05856 23.8952 2.5494 24 2H2.05001Z" fill="#6A6A6A"/>
</svg>
