<!-- <svg width="32" height="32" viewBox="0 0 32 32" fill="none" xmlns="http://www.w3.org/2000/svg">
<path fill-rule="evenodd" clip-rule="evenodd" d="M15.9968 4.89697C9.96961 4.90697 5.08558 9.74348 5.00115 15.7289C4.91321 21.9333 9.88066 26.7654 15.7409 26.8951C21.9093 27.032 26.8722 22.0909 26.9976 16.1399C27.1261 9.99686 22.1753 4.90038 15.9976 4.89612L15.9968 4.89697ZM15.8632 25.5612C10.6049 25.4899 6.28242 21.1635 6.33785 15.7928C6.39316 10.4939 10.7373 6.22996 16.0099 6.23763C21.3398 6.2433 25.6598 10.5771 25.6598 15.9208C25.6568 21.2373 21.278 25.6329 15.8632 25.5612Z" fill="black"/>
<path fill-rule="evenodd" clip-rule="evenodd" d="M15.8945 13.3418C15.4168 13.3405 15.0603 13.6613 15.0603 14.0977C15.0603 16.5616 15.0603 19.0275 15.0613 21.4914C15.0613 21.9438 15.3938 22.2493 15.8822 22.2513C16.3845 22.2526 16.7163 21.9474 16.7163 21.4834C16.7173 20.2534 16.7163 19.0258 16.7163 17.7959C16.7163 16.5619 16.7173 15.3263 16.7163 14.0907C16.716 13.663 16.3635 13.3458 15.8945 13.3418V13.3418Z" fill="black"/>
<path fill-rule="evenodd" clip-rule="evenodd" d="M15.9516 10.1531C15.3473 10.1494 14.8735 10.6078 14.8735 11.1959C14.8735 11.7995 15.3309 12.2652 15.9256 12.2652C16.5223 12.2672 16.9997 11.7978 17.0006 11.2112C17.0006 10.6332 16.5279 10.1558 15.9515 10.1532L15.9516 10.1531Z" fill="black"/>
</svg> -->

<!-- <svg width="25" height="25" viewBox="0 0 416.979 416.979" xmlns="http://www.w3.org/2000/svg" >
    <g>
	    <path d="M356.004,61.156c-81.37-81.47-213.377-81.551-294.848-0.182c-81.47,81.371-81.552,213.379-0.181,294.85
		c81.369,81.47,213.378,81.551,294.849,0.181C437.293,274.636,437.375,142.626,356.004,61.156z M237.6,340.786
		c0,3.217-2.607,5.822-5.822,5.822h-46.576c-3.215,0-5.822-2.605-5.822-5.822V167.885c0-3.217,2.607-5.822,5.822-5.822h46.576
		c3.215,0,5.822,2.604,5.822,5.822V340.786z M208.49,137.901c-18.618,0-33.766-15.146-33.766-33.765
		c0-18.617,15.147-33.766,33.766-33.766c18.619,0,33.766,15.148,33.766,33.766C242.256,122.755,227.107,137.901,208.49,137.901z" fill="gray" />
    </g>
</svg> -->

<svg width="25" height="25" viewBox="0 0 673 673" fill="none" xmlns="http://www.w3.org/2000/svg">
<path d="M336.64 0.333008C151.08 0.333008 0.666626 150.76 0.666626 336.306C0.666626 521.866 151.093 672.333 336.64 672.333C522.2 672.333 672.667 521.88 672.667 336.306C672.667 150.746 522.213 0.333008 336.64 0.333008V0.333008ZM336.64 124.213C365.567 124.213 389.052 147.656 389.052 176.582C389.052 205.509 365.568 228.952 336.64 228.952C307.712 228.952 284.271 205.509 284.271 176.582C284.271 147.656 307.713 124.213 336.64 124.213V124.213ZM336.64 263.88C349.442 263.88 362.176 268.973 371.161 277.686C380.151 286.4 385.271 298.64 385.093 310.874V501.461C385.276 513.815 380.062 526.158 370.921 534.893C361.781 543.627 348.833 548.642 335.916 548.461C323.239 548.284 310.755 543.107 301.916 534.409C293.083 525.711 288.009 513.586 288.187 501.461V310.874C288.004 298.635 293.171 286.401 302.156 277.686C311.146 268.973 323.839 263.88 336.64 263.88V263.88Z" fill="#6A6A6A"/>
</svg>