<svg width="19" height="19" viewBox="0 0 19 19" fill="none" xmlns="http://www.w3.org/2000/svg">
    <path fill-rule="evenodd" clip-rule="evenodd" d="M6.66309 16.4709L9.13636 18.9641L16.1173 12.0411C15.5529 11.9265 14.9695 11.8652 14.3715 11.8652C11.0478 11.8652 8.15595 13.7263 6.66309 16.4709Z" fill="#00984A"/>
    <path fill-rule="evenodd" clip-rule="evenodd" d="M13.3732 10.3865C14.6584 10.3865 15.8796 10.6545 16.9923 11.1281L17.5179 10.6122C15.8194 9.39302 13.7422 8.67188 11.495 8.67188C8.08156 8.67188 5.0535 10.327 3.16162 12.8814L5.33179 15.0608C6.93697 12.27 9.93318 10.3865 13.3732 10.3865Z"fill="#00984A"/>
    <path fill-rule="evenodd" clip-rule="evenodd" d="M18.0666 8.08407L10.6864 0.659026C10.015 -0.0165503 8.91591 -0.0165503 8.24442 0.659026L0.864303 8.08407C0.192368 8.75965 0.192368 9.86538 0.864303 10.541L1.82798 11.5105C1.92537 11.3828 2.025 11.2565 2.12776 11.1329C4.1516 8.70391 7.18872 7.15813 10.5859 7.15813C13.573 7.15813 16.2773 8.35781 18.2631 10.2982C18.7269 9.62221 18.663 8.68413 18.0666 8.08407Z" fill="#0194D2"/>
</svg>