<svg width="14" height="14" viewBox="0 0 14 14" fill="none" xmlns="http://www.w3.org/2000/svg">
<path d="M4.08317 12.8346H2.33317C2.02375 12.8346 1.72701 12.7117 1.50821 12.4929C1.28942 12.2741 1.1665 11.9774 1.1665 11.668V7.58464C1.1665 7.27522 1.28942 6.97847 1.50821 6.75968C1.72701 6.54089 2.02375 6.41797 2.33317 6.41797H4.08317M8.1665 5.2513V2.91797C8.1665 2.45384 7.98213 2.00872 7.65394 1.68053C7.32575 1.35234 6.88063 1.16797 6.4165 1.16797L4.08317 6.41797V12.8346H10.6632C10.9445 12.8378 11.2176 12.7392 11.4319 12.557C11.6463 12.3747 11.7876 12.1212 11.8298 11.843L12.6348 6.59297C12.6602 6.42576 12.6489 6.25503 12.6018 6.09262C12.5546 5.9302 12.4727 5.77997 12.3618 5.65235C12.2508 5.52473 12.1134 5.42276 11.9591 5.35351C11.8048 5.28426 11.6373 5.24939 11.4682 5.2513H8.1665Z" stroke="#808080" stroke-linecap="round" stroke-linejoin="round"/>
</svg>
