<svg width="1920" height="1080" viewBox="0 0 1920 1080" fill="none" xmlns="http://www.w3.org/2000/svg">
<g clip-path="url(#clip0_471_72664)">
<path d="M1365.39 516.99H1199.55C1196.82 516.99 1194.61 514.78 1194.61 512.05V376.19C1194.61 373.46 1196.82 371.25 1199.55 371.25H1365.39C1368.12 371.25 1370.33 373.46 1370.33 376.19V512.06C1370.33 514.78 1368.12 516.99 1365.39 516.99Z" fill="#CCE0D6"/>
<path d="M1234.74 429.6H1225.27V501.11H1234.74V429.6Z" fill="#A1C5B3"/>
<path d="M1277.8 423.8H1268.33V501.11H1277.8V423.8Z" fill="#A1C5B3"/>
<g opacity="0.2">
<path d="M1322.39 413.98H1312.92V501.11H1322.39V413.98Z" fill="#88A496"/>
</g>
<path d="M1301.44 466.3H1291.97V501.12H1301.44V466.3Z" fill="#B5CCC1"/>
<g opacity="0.2">
<path d="M1245.78 421.94H1236.31V501.11H1245.78V421.94Z" fill="#97B9A8"/>
</g>
<g opacity="0.2">
<path d="M1289.61 405.36H1280.14V501.12H1289.61V405.36Z" fill="#97D2B6"/>
</g>
<path d="M1346.82 405.36H1337.35V501.12H1346.82V405.36Z" fill="#A1C5B3"/>
<path d="M1334.46 386.44H1324.99V501.11H1334.46V386.44Z" fill="#C1DDCF"/>
<path d="M1257.37 450.87H1247.9V501.12H1257.37V450.87Z" fill="#B5CCC1"/>
<g opacity="0.45">
<path d="M1210.79 488.4H1205.01V490.31H1210.79V488.4Z" fill="black"/>
</g>
<g opacity="0.45">
<path d="M1210.79 462.95H1205.01V464.86H1210.79V462.95Z" fill="black"/>
</g>
<g opacity="0.45">
<path d="M1210.79 415.05H1205.01V416.96H1210.79V415.05Z" fill="black"/>
</g>
<g opacity="0.45">
<path d="M1210.79 390.98H1205.01V392.89H1210.79V390.98Z" fill="black"/>
</g>
<g opacity="0.45">
<path d="M1211.08 439H1205.3V440.91H1211.08V439Z" fill="black"/>
</g>
<path d="M1208.97 506.78H1361.83" stroke="#E1E1E1" stroke-width="2" stroke-miterlimit="10"/>
<path d="M1209.39 698.82H739.67C735.72 698.82 732.52 695.62 732.52 691.67V299.58C732.52 295.63 735.72 292.43 739.67 292.43H1209.39C1213.34 292.43 1216.54 295.63 1216.54 299.58V691.67C1216.54 695.62 1213.34 698.82 1209.39 698.82Z" fill="#CCE0D6"/>
<path d="M732.52 341.33H1216.54" stroke="#97B9A8" stroke-width="1.9411" stroke-miterlimit="10"/>
<path d="M1209.39 698.82H739.67C735.72 698.82 732.52 695.62 732.52 691.67V299.58C732.52 295.63 735.72 292.43 739.67 292.43H1209.39C1213.34 292.43 1216.54 295.63 1216.54 299.58V691.67C1216.54 695.62 1213.34 698.82 1209.39 698.82Z" stroke="#A1C5B3" stroke-width="1.9411" stroke-miterlimit="10"/>
<path d="M773.44 324.19C777.207 324.19 780.26 321.137 780.26 317.37C780.26 313.604 777.207 310.55 773.44 310.55C769.674 310.55 766.62 313.604 766.62 317.37C766.62 321.137 769.674 324.19 773.44 324.19Z" fill="#97B9A8"/>
<path d="M799.96 324.19C803.727 324.19 806.78 321.137 806.78 317.37C806.78 313.604 803.727 310.55 799.96 310.55C796.194 310.55 793.14 313.604 793.14 317.37C793.14 321.137 796.194 324.19 799.96 324.19Z" fill="#97B9A8"/>
<path d="M826.48 324.19C830.247 324.19 833.3 321.137 833.3 317.37C833.3 313.604 830.247 310.55 826.48 310.55C822.714 310.55 819.66 313.604 819.66 317.37C819.66 321.137 822.714 324.19 826.48 324.19Z" fill="#97B9A8"/>
<path d="M1002.61 515.43L984.65 533.38" stroke="#F2F2F2" stroke-width="3" stroke-miterlimit="10" stroke-linecap="round"/>
<path d="M1002.61 533.38L984.65 515.43" stroke="#F2F2F2" stroke-width="3" stroke-miterlimit="10" stroke-linecap="round"/>
<path d="M993.63 546.11C1005.61 546.11 1015.33 536.395 1015.33 524.41C1015.33 512.425 1005.61 502.71 993.63 502.71C981.645 502.71 971.93 512.425 971.93 524.41C971.93 536.395 981.645 546.11 993.63 546.11Z" stroke="#F2F2F2" stroke-width="3" stroke-miterlimit="10"/>
<path d="M542.61 845.07H1020.87" stroke="#A1C5B3" stroke-width="4" stroke-miterlimit="10" stroke-linecap="round"/>
<path d="M1170.14 845.07H1252.75" stroke="#A1C5B3" stroke-width="4" stroke-miterlimit="10" stroke-linecap="round"/>
<path d="M780.792 368.852H785.245L795.715 394.425H796.076L806.546 368.852H810.999V399.66H807.509V376.253H807.208L797.58 399.66H794.21L784.583 376.253H784.282V399.66H780.792V368.852ZM820.284 408.325C819.682 408.325 819.146 408.275 818.674 408.175C818.203 408.084 817.877 407.994 817.697 407.904L818.599 404.775C819.462 404.995 820.224 405.076 820.886 405.016C821.548 404.955 822.134 404.659 822.646 404.128C823.167 403.606 823.644 402.759 824.075 401.586L824.737 399.781L816.192 376.554H820.043L826.422 394.967H826.662L833.041 376.554H836.892L827.084 403.03C826.642 404.223 826.096 405.211 825.444 405.993C824.792 406.786 824.035 407.372 823.172 407.753C822.32 408.134 821.357 408.325 820.284 408.325ZM855.237 399.66H851.326L862.638 368.852H866.489L877.801 399.66H873.89L864.684 373.726H864.443L855.237 399.66ZM856.681 387.626H872.446V390.935H856.681V387.626ZM891.506 400.142C889.34 400.142 887.474 399.63 885.91 398.607C884.345 397.584 883.142 396.175 882.299 394.38C881.457 392.585 881.036 390.534 881.036 388.227C881.036 385.881 881.467 383.81 882.329 382.015C883.202 380.209 884.415 378.8 885.97 377.787C887.534 376.764 889.36 376.253 891.446 376.253C893.07 376.253 894.534 376.554 895.838 377.156C897.142 377.757 898.21 378.6 899.042 379.683C899.875 380.766 900.391 382.03 900.592 383.474H897.042C896.771 382.421 896.169 381.488 895.236 380.676C894.314 379.853 893.07 379.442 891.506 379.442C890.122 379.442 888.908 379.803 887.865 380.525C886.832 381.237 886.025 382.245 885.443 383.549C884.872 384.843 884.586 386.362 884.586 388.107C884.586 389.892 884.867 391.447 885.428 392.77C886 394.094 886.802 395.122 887.835 395.854C888.878 396.586 890.102 396.952 891.506 396.952C892.428 396.952 893.266 396.792 894.018 396.471C894.77 396.15 895.407 395.689 895.928 395.087C896.45 394.485 896.821 393.763 897.042 392.921H900.592C900.391 394.285 899.895 395.513 899.103 396.606C898.32 397.69 897.282 398.552 895.989 399.194C894.705 399.826 893.211 400.142 891.506 400.142ZM915.831 376.554V379.563H903.856V376.554H915.831ZM907.346 371.018H910.896V393.041C910.896 394.044 911.042 394.796 911.333 395.298C911.634 395.789 912.015 396.12 912.476 396.29C912.947 396.451 913.444 396.531 913.965 396.531C914.356 396.531 914.677 396.511 914.928 396.471C915.179 396.421 915.379 396.381 915.53 396.351L916.252 399.54C916.011 399.63 915.675 399.72 915.244 399.811C914.813 399.911 914.266 399.961 913.604 399.961C912.601 399.961 911.618 399.745 910.656 399.314C909.703 398.883 908.911 398.226 908.279 397.344C907.657 396.461 907.346 395.348 907.346 394.004V371.018ZM921.171 399.66V376.554H924.721V399.66H921.171ZM922.976 372.703C922.284 372.703 921.687 372.467 921.186 371.996C920.694 371.524 920.449 370.958 920.449 370.296C920.449 369.634 920.694 369.067 921.186 368.596C921.687 368.125 922.284 367.889 922.976 367.889C923.668 367.889 924.26 368.125 924.751 368.596C925.253 369.067 925.503 369.634 925.503 370.296C925.503 370.958 925.253 371.524 924.751 371.996C924.26 372.467 923.668 372.703 922.976 372.703ZM950.118 376.554L941.573 399.66H937.963L929.418 376.554H933.269L939.648 394.967H939.888L946.267 376.554H950.118ZM954.804 399.66V376.554H958.354V399.66H954.804ZM956.609 372.703C955.917 372.703 955.32 372.467 954.819 371.996C954.327 371.524 954.082 370.958 954.082 370.296C954.082 369.634 954.327 369.067 954.819 368.596C955.32 368.125 955.917 367.889 956.609 367.889C957.301 367.889 957.892 368.125 958.384 368.596C958.885 369.067 959.136 369.634 959.136 370.296C959.136 370.958 958.885 371.524 958.384 371.996C957.892 372.467 957.301 372.703 956.609 372.703ZM974.905 376.554V379.563H962.931V376.554H974.905ZM966.421 371.018H969.971V393.041C969.971 394.044 970.116 394.796 970.407 395.298C970.708 395.789 971.089 396.12 971.55 396.29C972.022 396.451 972.518 396.531 973.04 396.531C973.431 396.531 973.752 396.511 974.002 396.471C974.253 396.421 974.454 396.381 974.604 396.351L975.326 399.54C975.086 399.63 974.75 399.72 974.318 399.811C973.887 399.911 973.34 399.961 972.679 399.961C971.676 399.961 970.693 399.745 969.73 399.314C968.777 398.883 967.985 398.226 967.353 397.344C966.732 396.461 966.421 395.348 966.421 394.004V371.018ZM980.245 399.66V376.554H983.795V399.66H980.245ZM982.05 372.703C981.358 372.703 980.762 372.467 980.26 371.996C979.769 371.524 979.523 370.958 979.523 370.296C979.523 369.634 979.769 369.067 980.26 368.596C980.762 368.125 981.358 367.889 982.05 367.889C982.742 367.889 983.334 368.125 983.826 368.596C984.327 369.067 984.578 369.634 984.578 370.296C984.578 370.958 984.327 371.524 983.826 371.996C983.334 372.467 982.742 372.703 982.05 372.703ZM999.986 400.142C997.759 400.142 995.839 399.65 994.224 398.667C992.62 397.674 991.381 396.29 990.508 394.515C989.646 392.73 989.215 390.654 989.215 388.288C989.215 385.921 989.646 383.835 990.508 382.03C991.381 380.214 992.594 378.8 994.149 377.787C995.713 376.764 997.539 376.253 999.625 376.253C1000.83 376.253 1002.02 376.454 1003.19 376.855C1004.36 377.256 1005.43 377.908 1006.39 378.81C1007.36 379.703 1008.12 380.886 1008.7 382.361C1009.27 383.835 1009.55 385.65 1009.55 387.806V389.31H991.742V386.242H1005.94C1005.94 384.938 1005.68 383.775 1005.16 382.752C1004.65 381.729 1003.92 380.921 1002.96 380.33C1002.02 379.738 1000.91 379.442 999.625 379.442C998.211 379.442 996.987 379.793 995.954 380.495C994.931 381.187 994.144 382.09 993.592 383.203C993.041 384.316 992.765 385.51 992.765 386.783V388.829C992.765 390.574 993.066 392.053 993.668 393.267C994.279 394.47 995.127 395.388 996.21 396.02C997.293 396.641 998.552 396.952 999.986 396.952C1000.92 396.952 1001.76 396.822 1002.51 396.561C1003.28 396.29 1003.93 395.889 1004.48 395.358C1005.04 394.816 1005.46 394.144 1005.76 393.342L1009.19 394.305C1008.83 395.468 1008.22 396.491 1007.37 397.374C1006.52 398.246 1005.47 398.928 1004.21 399.419C1002.96 399.901 1001.55 400.142 999.986 400.142ZM1031.32 381.729L1028.13 382.631C1027.93 382.1 1027.63 381.583 1027.24 381.082C1026.86 380.57 1026.34 380.149 1025.68 379.818C1025.02 379.487 1024.17 379.322 1023.14 379.322C1021.72 379.322 1020.54 379.648 1019.6 380.3C1018.67 380.941 1018.2 381.759 1018.2 382.752C1018.2 383.634 1018.52 384.331 1019.17 384.843C1019.81 385.354 1020.81 385.78 1022.17 386.121L1025.6 386.964C1027.67 387.465 1029.21 388.232 1030.22 389.265C1031.24 390.288 1031.74 391.607 1031.74 393.222C1031.74 394.545 1031.36 395.729 1030.6 396.772C1029.85 397.815 1028.79 398.637 1027.44 399.239C1026.09 399.841 1024.51 400.142 1022.72 400.142C1020.36 400.142 1018.41 399.63 1016.86 398.607C1015.32 397.584 1014.34 396.09 1013.93 394.124L1017.3 393.282C1017.62 394.525 1018.23 395.458 1019.12 396.08C1020.02 396.702 1021.2 397.013 1022.66 397.013C1024.31 397.013 1025.62 396.662 1026.6 395.96C1027.58 395.247 1028.07 394.395 1028.07 393.402C1028.07 392.6 1027.79 391.928 1027.23 391.386C1026.67 390.835 1025.8 390.424 1024.64 390.153L1020.79 389.25C1018.67 388.749 1017.12 387.972 1016.13 386.919C1015.14 385.856 1014.65 384.527 1014.65 382.932C1014.65 381.628 1015.02 380.475 1015.75 379.472C1016.49 378.469 1017.5 377.682 1018.77 377.11C1020.06 376.539 1021.51 376.253 1023.14 376.253C1025.42 376.253 1027.22 376.754 1028.52 377.757C1029.84 378.76 1030.77 380.084 1031.32 381.729Z" fill="#A1C5B3"/>
<path d="M760.36 412.81H568.88C567.715 412.81 566.76 411.863 566.76 410.69V334.23C566.76 333.065 567.707 332.11 568.88 332.11H760.37C761.535 332.11 762.49 333.058 762.49 334.23L762.49 410.687C762.49 410.688 762.49 410.688 762.49 410.689C762.481 411.857 761.531 412.81 760.36 412.81Z" fill="#CCE0D6" stroke="#A1C5B3"/>
<path d="M607.13 357.43C607.13 362.49 603.02 366.6 597.96 366.6C592.9 366.6 588.79 362.49 588.79 357.43C588.79 352.37 592.9 348.26 597.96 348.26C603.02 348.26 607.13 352.37 607.13 357.43Z" fill="#97B9A8"/>
<path d="M678.425 351.1H618.075C617.094 351.1 616.3 351.895 616.3 352.875C616.3 353.856 617.094 354.65 618.075 354.65H678.425C679.405 354.65 680.2 353.856 680.2 352.875C680.2 351.895 679.405 351.1 678.425 351.1Z" fill="#E1EDE6"/>
<path d="M738.835 359.16H618.075C617.094 359.16 616.3 359.955 616.3 360.935C616.3 361.915 617.094 362.71 618.075 362.71H738.835C739.815 362.71 740.61 361.915 740.61 360.935C740.61 359.955 739.815 359.16 738.835 359.16Z" fill="#E1EDE6"/>
<path d="M607.13 385.62C607.13 390.68 603.02 394.79 597.96 394.79C592.9 394.79 588.79 390.68 588.79 385.62C588.79 380.56 592.9 376.45 597.96 376.45C603.02 376.45 607.13 380.56 607.13 385.62Z" fill="#97B9A8"/>
<path d="M647.155 379.291H618.075C617.094 379.291 616.3 380.085 616.3 381.066C616.3 382.046 617.094 382.841 618.075 382.841H647.155C648.135 382.841 648.93 382.046 648.93 381.066C648.93 380.085 648.135 379.291 647.155 379.291Z" fill="#E1EDE6"/>
<path d="M738.835 387.35H618.075C617.094 387.35 616.3 388.145 616.3 389.125C616.3 390.106 617.094 390.9 618.075 390.9H738.835C739.815 390.9 740.61 390.106 740.61 389.125C740.61 388.145 739.815 387.35 738.835 387.35Z" fill="#E1EDE6"/>
<path d="M1196.13 425.81H751.29V562.03H1196.13V425.81Z" fill="#A1C5B3"/>
<path d="M774.41 450.24H982.61" stroke="#CCE0D6" stroke-width="5" stroke-miterlimit="10" stroke-linecap="round"/>
<path d="M774.41 470.24H885.39" stroke="#CCE0D6" stroke-width="5" stroke-miterlimit="10" stroke-linecap="round"/>
<path d="M774.18 490.43H844.86" stroke="#CCE0D6" stroke-width="5" stroke-miterlimit="10" stroke-linecap="round"/>
<path d="M774.18 510.43H844.23" stroke="#CCE0D6" stroke-width="5" stroke-miterlimit="10" stroke-linecap="round"/>
<path d="M798.85 546.83H830.07" stroke="#CCE0D6" stroke-width="5" stroke-miterlimit="10" stroke-linecap="round"/>
<path d="M1131.35 546.83H1166.06" stroke="#CCE0D6" stroke-width="5" stroke-miterlimit="10" stroke-linecap="round"/>
<path d="M777.43 531.24H1178.24" stroke="#CCE0D6" stroke-miterlimit="10" stroke-linecap="round"/>
<path d="M1197.58 582.33H752.74V698.85H1197.58V582.33Z" fill="#A1C5B3"/>
<path d="M775.86 606.76H984.06" stroke="#CCE0D6" stroke-width="5" stroke-miterlimit="10" stroke-linecap="round"/>
<path d="M775.86 626.76H886.84" stroke="#CCE0D6" stroke-width="5" stroke-miterlimit="10" stroke-linecap="round"/>
<path d="M775.63 646.95H846.31" stroke="#CCE0D6" stroke-width="5" stroke-miterlimit="10" stroke-linecap="round"/>
<path d="M775.63 666.95H845.68" stroke="#CCE0D6" stroke-width="5" stroke-miterlimit="10" stroke-linecap="round"/>
<path d="M778.88 687.76H1179.69" stroke="#F2F2F2" stroke-miterlimit="10" stroke-linecap="round"/>
<path d="M853.37 764.25H612.07C608.61 764.25 605.81 761.45 605.81 757.99V662.62C605.81 659.16 608.61 656.36 612.07 656.36H853.37C856.83 656.36 859.63 659.16 859.63 662.62V757.99C859.62 761.45 856.82 764.25 853.37 764.25Z" fill="#CCE0D6"/>
<path d="M652.25 708.5L652.11 686.62C645.67 686.66 639.1 689.21 634.06 693.66C628.12 698.91 624.32 706.79 625.36 716.32C625.47 717.36 625.64 718.42 625.87 719.5C625.88 719.53 625.88 719.55 625.88 719.58L652.25 713.65V708.5Z" fill="#97B9A8"/>
<path d="M679.42 701.77C675.73 694.07 668.48 687.91 658.14 686.87C657.86 686.84 657.59 686.82 657.3 686.8C657.12 686.79 656.95 686.77 656.77 686.76C656.25 686.73 655.72 686.72 655.18 686.71C655.16 686.71 655.13 686.71 655.11 686.71C655.09 686.71 655.07 686.71 655.04 686.71L655.18 708.59L655.21 713.73L681.59 719.48L681.62 719.49C682.02 717.64 682.22 715.74 682.21 713.82C682.19 709.72 681.24 705.56 679.42 701.77Z" fill="#97B9A8"/>
<path d="M653.66 716.38L627.29 722.31C630 734.38 640.77 743.41 653.66 743.41C666.61 743.41 677.43 734.3 680.07 722.14L653.7 716.39" fill="#97B9A8"/>
<path d="M830.85 693.16H702.88C701.223 693.16 699.88 694.503 699.88 696.16V696.23C699.88 697.887 701.223 699.23 702.88 699.23H830.85C832.507 699.23 833.85 697.887 833.85 696.23V696.16C833.85 694.503 832.507 693.16 830.85 693.16Z" fill="#E1EDE6"/>
<path d="M830.85 709.16H702.88C701.223 709.16 699.88 710.503 699.88 712.16V712.23C699.88 713.887 701.223 715.23 702.88 715.23H830.85C832.507 715.23 833.85 713.887 833.85 712.23V712.16C833.85 710.503 832.507 709.16 830.85 709.16Z" fill="#E1EDE6"/>
<path d="M769.28 726.86H702.88C701.223 726.86 699.88 728.203 699.88 729.86V729.93C699.88 731.587 701.223 732.93 702.88 732.93H769.28C770.937 732.93 772.28 731.587 772.28 729.93V729.86C772.28 728.203 770.937 726.86 769.28 726.86Z" fill="#E1EDE6"/>
<path d="M666.24 583.47H476.91C474.09 583.47 471.8 581.18 471.8 578.36V532.63C471.8 529.81 474.09 527.52 476.91 527.52H666.24C669.06 527.52 671.35 529.81 671.35 532.63V578.36C671.35 581.18 669.06 583.47 666.24 583.47Z" fill="#CCE0D6"/>
<path d="M513.87 564.83C509.67 570.07 502.02 570.91 496.78 566.71C491.54 562.51 490.7 554.86 494.9 549.62C499.1 544.38 506.75 543.54 511.99 547.74C517.23 551.94 518.07 559.59 513.87 564.83Z" fill="#97B9A8"/>
<path d="M510.48 553.47L502.97 560.98L498.28 556.29" stroke="#CCE0D6" stroke-width="1.5" stroke-miterlimit="10"/>
<path d="M538.04 548.66H651.31" stroke="#E1EDE6" stroke-width="4" stroke-miterlimit="10"/>
<path d="M538.04 562.66H587.34" stroke="#E1EDE6" stroke-width="4" stroke-miterlimit="10"/>
<path d="M1194.55 364.68H1005.22C1002.68 364.68 1000.61 362.614 1000.61 360.07V314.34C1000.61 311.796 1002.68 309.73 1005.22 309.73H1194.55C1197.09 309.73 1199.16 311.796 1199.16 314.34V360.068C1199.15 362.615 1197.09 364.68 1194.55 364.68Z" fill="#CCE0D6" stroke="#A1C5B3"/>
<path d="M1042.17 346.54C1037.97 351.78 1030.32 352.62 1025.08 348.42C1019.84 344.22 1019 336.57 1023.2 331.33C1027.4 326.09 1035.05 325.25 1040.29 329.45C1045.53 333.64 1046.37 341.3 1042.17 346.54Z" fill="#97B9A8"/>
<path d="M1038.78 335.17L1031.27 342.69L1026.59 338" stroke="#A1C5B3" stroke-width="1.5" stroke-miterlimit="10"/>
<path d="M1066.34 330.37H1179.62" stroke="#E1EDE6" stroke-width="4" stroke-miterlimit="10" stroke-linecap="round"/>
<path d="M1066.34 344.37H1115.64" stroke="#E1EDE6" stroke-width="4" stroke-miterlimit="10" stroke-linecap="round"/>
</g>
<defs>
<clipPath id="clip0_471_72664">
<rect width="1920" height="1080" fill="white"/>
</clipPath>
</defs>
</svg>
