<svg width="827" height="465" viewBox="0 0 827 465" fill="none" xmlns="http://www.w3.org/2000/svg">
<g clip-path="url(#clip0_441_45863)">
<path d="M253.441 266.88H204.342V358.162H253.441V266.88Z" fill="#B3D1C1"/>
<path d="M255.823 264.361H201.965V266.88H255.823V264.361Z" fill="#CCE0D6"/>
<path d="M272.759 264.361H255.823V266.88H272.759V264.361Z" fill="#CCE0D6"/>
<path d="M270.076 266.88H253.441V358.162H270.076V266.88Z" fill="#CCE0D6"/>
<path d="M248.096 276.61H209.692V298.254H248.096V276.61Z" stroke="#338259" stroke-width="0.25" stroke-miterlimit="10"/>
<path d="M231.013 282.914H223.514V287.224H231.013V282.914Z" fill="#7FB097"/>
<path d="M233.231 283.237H225.732V286.896H233.231V283.237Z" stroke="#CCE0D6" stroke-width="0.25" stroke-miterlimit="10"/>
<path d="M248.096 303.955H209.692V325.599H248.096V303.955Z" stroke="#338259" stroke-width="0.25" stroke-miterlimit="10"/>
<path d="M231.013 310.258H223.514V314.568H231.013V310.258Z" fill="#7FB097"/>
<path d="M233.231 310.581H225.732V314.241H233.231V310.581Z" stroke="#CCE0D6" stroke-width="0.25" stroke-miterlimit="10"/>
<path d="M248.096 331.299H209.692V352.944H248.096V331.299Z" stroke="#338259" stroke-width="0.25" stroke-miterlimit="10"/>
<path d="M231.013 337.603H223.514V341.913H231.013V337.603Z" fill="#7FB097"/>
<path d="M233.231 337.926H225.732V341.586H233.231V337.926Z" stroke="#CCE0D6" stroke-width="0.25" stroke-miterlimit="10"/>
<path d="M668.449 292.98H619.35V357.662H668.449V292.98Z" fill="#B3D1C1"/>
<path d="M670.826 290.461H616.968V292.98H670.826V290.461Z" fill="#CCE0D6"/>
<path d="M687.762 290.461H670.826V292.98H687.762V290.461Z" fill="#CCE0D6"/>
<path d="M685.083 292.98H668.449V357.662H685.083V292.98Z" fill="#CCE0D6"/>
<path d="M663.099 302.711H624.695V324.355H663.099V302.711Z" fill="#7FB097"/>
<path d="M659.36 297.169H630.122V318.353H659.36V297.169Z" fill="#97B9A8"/>
<path d="M640.456 294.974H630.122V297.169H641.046L640.456 294.974Z" fill="#97B9A8"/>
<path d="M659.283 318.353H630.049L627.792 298.926H657.03L659.283 318.353Z" fill="#CCE0D6"/>
<path d="M637.888 296.915H627.559L627.792 298.926H638.715L637.888 296.915Z" fill="#CCE0D6"/>
<path d="M644.599 302.711H606.195V324.355H644.599V302.711Z" fill="#B3D1C1" stroke="#338259" stroke-width="0.25" stroke-miterlimit="10"/>
<path d="M627.516 309.014H620.017V313.324H627.516V309.014Z" fill="#7FB097"/>
<path d="M629.735 309.337H622.236V312.997H629.735V309.337Z" stroke="#CCE0D6" stroke-width="0.25" stroke-miterlimit="10"/>
<path d="M663.103 305.953H644.694V324.355H663.103V305.953Z" fill="#7FB097"/>
<path d="M663.099 330.055H624.695V351.699H663.099V330.055Z" stroke="#338259" stroke-width="0.25" stroke-miterlimit="10"/>
<path d="M646.021 336.354H638.522V340.664H646.021V336.354Z" fill="#7FB097"/>
<path d="M648.239 336.682H640.74V340.341H648.239V336.682Z" stroke="#CCE0D6" stroke-width="0.25" stroke-miterlimit="10"/>
<path d="M535.418 359.079H701.003" stroke="#CCE0D6" stroke-width="5" stroke-miterlimit="10" stroke-linecap="round"/>
<path d="M178.529 359.079H506.99" stroke="#CCE0D6" stroke-width="5" stroke-miterlimit="10" stroke-linecap="round"/>
<path d="M423.493 141.003H350.674V234.442H423.493V141.003Z" fill="#B3D1C1"/>
<path d="M423.493 234.442C423.355 234.442 350.665 234.579 350.536 234.579C350.458 234.575 350.514 141.054 350.458 141.003V140.792H350.67C350.833 140.792 423.502 140.839 423.652 140.839C423.777 140.904 423.402 234.338 423.493 234.442ZM423.493 234.442L423.329 141.003C424.367 141.386 350.433 141.119 350.674 141.214L350.885 141.003L350.812 234.442C349.946 234.162 423.687 234.493 423.493 234.442Z" fill="#7FB097"/>
<path d="M358.638 160.972L387.083 160.898L415.524 160.972L387.083 161.045L358.638 160.972Z" fill="#338259"/>
<path d="M358.638 163.292L387.083 163.219L415.524 163.292L387.083 163.361L358.638 163.292Z" fill="#338259"/>
<path d="M358.638 165.609L387.083 165.54L415.524 165.609L387.083 165.682L358.638 165.609Z" fill="#338259"/>
<path d="M358.638 167.929L387.083 167.856L415.524 167.929L387.083 168.003L358.638 167.929Z" fill="#338259"/>
<path d="M358.638 170.246L387.083 170.177L415.524 170.246L387.083 170.319L358.638 170.246Z" fill="#338259"/>
<path d="M358.638 172.567L387.083 172.493L415.524 172.567L387.083 172.64L358.638 172.567Z" fill="#338259"/>
<path d="M358.638 174.887L387.083 174.814L415.524 174.887L387.083 174.956L358.638 174.887Z" fill="#338259"/>
<path d="M358.638 177.204L387.083 177.13L415.524 177.204L387.083 177.277L358.638 177.204Z" fill="#338259"/>
<path d="M358.638 179.524L387.083 179.451L415.524 179.524L387.083 179.593L358.638 179.524Z" fill="#338259"/>
<path d="M358.638 181.841L387.083 181.772L415.524 181.841L387.083 181.914L358.638 181.841Z" fill="#338259"/>
<path d="M358.638 184.161L387.083 184.088L415.524 184.161L387.083 184.235L358.638 184.161Z" fill="#338259"/>
<path d="M358.638 186.482L387.083 186.409L415.524 186.482L387.083 186.551L358.638 186.482Z" fill="#338259"/>
<path d="M358.638 188.798L387.083 188.725L415.524 188.798L387.083 188.872L358.638 188.798Z" fill="#338259"/>
<path d="M358.638 191.119L387.083 191.046L415.524 191.119L387.083 191.188L358.638 191.119Z" fill="#338259"/>
<path d="M358.638 193.436L387.083 193.367L415.524 193.436L387.083 193.509L358.638 193.436Z" fill="#338259"/>
<path d="M368.967 186.409H364.651V196.139H368.967V186.409Z" fill="#CCE0D6"/>
<path d="M376.97 181.216H372.654V196.139H376.97V181.216Z" fill="#CCE0D6"/>
<path d="M384.973 175.408H380.657V196.144H384.973V175.408Z" fill="#CCE0D6"/>
<path d="M392.976 172.911H388.66V196.139H392.976V172.911Z" fill="#CCE0D6"/>
<path d="M400.979 168.463H396.663V196.139H400.979V168.463Z" fill="#CCE0D6"/>
<path d="M408.982 164.067H404.666V196.139H408.982V164.067Z" fill="#CCE0D6"/>
<path d="M360.18 159.344L360.292 168.541L360.37 177.738C360.421 183.869 360.439 190.004 360.447 196.135L360.18 195.868L374.015 195.855L387.85 195.885L401.685 195.972L415.52 196.131L401.685 196.29L387.85 196.376L374.015 196.406L360.18 196.393H359.913V196.127C359.922 189.995 359.939 183.86 359.991 177.729L360.068 168.532L360.18 159.344Z" fill="#338259"/>
<path d="M368.967 198.086H364.651V198.477H368.967V198.086Z" fill="#338259"/>
<path d="M376.97 198.086H372.654V198.477H376.97V198.086Z" fill="#338259"/>
<path d="M384.973 198.086H380.657V198.477H384.973V198.086Z" fill="#338259"/>
<path d="M392.976 198.086H388.66V198.477H392.976V198.086Z" fill="#338259"/>
<path d="M400.979 198.086H396.663V198.477H400.979V198.086Z" fill="#338259"/>
<path d="M408.982 198.086H404.666V198.477H408.982V198.086Z" fill="#338259"/>
<path d="M365.138 187.636C367.248 187.606 369.35 187.438 371.439 187.158C373.528 186.887 375.6 186.521 377.646 186.039C381.734 185.07 385.752 183.757 389.5 181.867C393.269 180.037 396.788 177.677 399.859 174.818L400.44 174.289L400.992 173.729L402.09 172.605C402.771 171.809 403.498 171.047 404.119 170.198C405.454 168.571 406.565 166.776 407.651 164.972L407.685 164.989C405.768 168.748 403.27 172.248 400.19 175.176C398.683 176.674 396.995 177.979 395.259 179.197C393.519 180.42 391.671 181.475 389.771 182.422C385.955 184.291 381.893 185.63 377.75 186.504C373.602 187.348 369.363 187.813 365.138 187.636Z" fill="#66A183"/>
<path d="M408.874 167.968L408.275 168.119L407.543 165.174L404.661 166.121L404.468 165.536L407.982 164.382L408.874 167.968Z" fill="#66A183"/>
<path d="M357.42 213.007H416.74V210.609H357.42V213.007Z" fill="#7FB097"/>
<path d="M357.418 219.062H390.817V216.663H357.418V219.062Z" fill="#7FB097"/>
<path d="M370.38 153.727H403.779V151.329H370.38V153.727Z" fill="#7FB097"/>
<path d="M409.727 257.222L338.398 271.874L319.58 180.347L372.542 169.471L394.496 183.137L409.727 257.222Z" fill="#CCE0D6"/>
<path opacity="0.8" d="M409.727 257.222L338.398 271.874L319.58 180.347L372.542 169.471L394.496 183.137L409.727 257.222Z" fill="#E5EFEA"/>
<path d="M372.542 169.471L394.496 183.137L376.126 186.908L372.542 169.471Z" fill="#CCE0D6"/>
<path d="M330.185 196.638L369.844 188.491L369.361 186.142L329.702 194.289L330.185 196.638Z" fill="#7FB097"/>
<path d="M331.405 202.574L371.064 194.427L370.581 192.078L330.923 200.225L331.405 202.574Z" fill="#7FB097"/>
<path d="M332.625 208.505L372.284 200.358L371.801 198.009L332.142 206.156L332.625 208.505Z" fill="#7FB097"/>
<path d="M333.849 214.436L391.953 202.5L391.47 200.151L333.366 212.087L333.849 214.436Z" fill="#7FB097"/>
<path d="M335.069 220.367L393.172 208.431L392.69 206.082L334.586 218.018L335.069 220.367Z" fill="#7FB097"/>
<path d="M336.285 226.304L394.389 214.368L393.906 212.019L335.802 223.955L336.285 226.304Z" fill="#7FB097"/>
<path d="M337.505 232.235L395.609 220.299L395.126 217.95L337.022 229.886L337.505 232.235Z" fill="#7FB097"/>
<path d="M338.724 238.167L396.828 226.231L396.345 223.882L338.241 235.818L338.724 238.167Z" fill="#7FB097"/>
<path d="M339.944 244.098L398.048 232.162L397.565 229.813L339.461 241.749L339.944 244.098Z" fill="#7FB097"/>
<path d="M341.164 250.03L399.268 238.094L398.785 235.744L340.681 247.681L341.164 250.03Z" fill="#7FB097"/>
<path d="M342.385 255.965L400.488 244.029L400.006 241.68L341.902 253.616L342.385 255.965Z" fill="#7FB097"/>
<path d="M343.604 261.897L401.708 249.961L401.225 247.612L343.121 259.548L343.604 261.897Z" fill="#7FB097"/>
<path d="M555.998 190.702C529.31 192.639 502.678 194.577 476.106 196.514C466.984 161.936 476.757 127.363 469.641 92.7847C496.329 90.8472 522.961 88.9097 549.537 86.9722C558.651 121.55 548.878 156.124 555.998 190.702Z" fill="#B3D1C1"/>
<path d="M555.998 190.702C555.813 190.71 476.076 196.648 476.007 196.66C476.24 196.66 473.927 190.172 472.902 180.441C471.67 170.707 471.73 157.73 471.946 144.753C472.152 131.771 472.514 118.79 471.696 109.055C471.067 99.3162 469.249 92.8191 469.426 92.8105L469.383 92.5952C469.452 92.5909 469.525 92.5866 469.594 92.578C469.792 92.5651 549.554 86.8257 549.641 86.8171C549.425 86.8301 551.725 93.3228 552.729 103.058C553.935 112.793 553.845 125.77 553.595 138.746C553.353 151.723 552.957 164.705 553.75 174.444C554.361 184.179 556.162 190.68 555.998 190.702ZM555.998 190.702C548.831 156.128 558.548 121.559 549.386 86.9851C550.502 87.2563 469.486 92.9396 469.684 92.9999L469.852 92.7717C476.942 127.35 467.143 161.928 476.236 196.505C475.275 196.303 556.157 190.727 555.998 190.702Z" fill="#7FB097"/>
<path d="M479.374 108.616C479.33 108.06 479.746 107.572 480.302 107.531C494.608 106.502 508.905 105.473 523.191 104.44C523.727 104.401 524.197 104.793 524.252 105.327C524.276 105.558 524.299 105.789 524.321 106.021C524.375 106.578 523.958 107.069 523.4 107.109C509.111 108.137 494.806 109.165 480.498 110.198C479.947 110.237 479.469 109.823 479.426 109.273C479.409 109.054 479.392 108.835 479.374 108.616Z" fill="#7FB097"/>
<path d="M479.782 115.301C479.759 114.759 480.17 114.294 480.712 114.255C495.059 113.226 509.399 112.197 523.73 111.164C524.282 111.124 524.762 111.541 524.795 112.094C524.808 112.321 524.821 112.549 524.834 112.777C524.864 113.321 524.451 113.788 523.907 113.827C509.572 114.855 495.232 115.884 480.881 116.916C480.315 116.957 479.83 116.519 479.808 115.953C479.799 115.736 479.791 115.518 479.782 115.301Z" fill="#7FB097"/>
<path d="M479.962 121.995C479.955 121.465 480.362 121.021 480.891 120.983C495.27 119.954 509.646 118.925 524.009 117.892C524.577 117.851 525.064 118.292 525.079 118.86C525.084 119.085 525.09 119.309 525.095 119.533C525.107 120.065 524.699 120.512 524.168 120.55C509.798 121.578 495.423 122.607 481.045 123.639C480.468 123.681 479.976 123.225 479.97 122.647C479.968 122.429 479.965 122.212 479.962 121.995Z" fill="#7FB097"/>
<path d="M479.973 128.698C479.977 128.175 480.381 127.743 480.903 127.705C502.315 126.173 523.715 124.644 545.103 123.111C545.679 123.07 546.169 123.523 546.173 124.099C546.174 124.323 546.175 124.546 546.176 124.77C546.178 125.294 545.772 125.73 545.249 125.767C523.854 127.299 502.451 128.827 481.04 130.359C480.455 130.401 479.96 129.933 479.967 129.347C479.969 129.131 479.971 128.914 479.973 128.698Z" fill="#7FB097"/>
<path d="M479.869 135.41C479.881 134.893 480.283 134.469 480.799 134.432C502.231 132.899 523.654 131.371 545.074 129.838C545.657 129.796 546.151 130.261 546.143 130.845C546.14 131.068 546.137 131.29 546.133 131.513C546.125 132.03 545.722 132.454 545.206 132.491C523.783 134.023 502.357 135.551 480.926 137.084C480.337 137.126 479.84 136.652 479.854 136.062C479.859 135.844 479.864 135.627 479.869 135.41Z" fill="#7FB097"/>
<path d="M479.733 141.218C501.838 139.638 523.939 138.062 546.04 136.482C546.018 137.369 546.001 138.256 545.979 139.147C523.879 140.727 501.774 142.303 479.669 143.883C479.69 142.992 479.712 142.105 479.733 141.218Z" fill="#7FB097"/>
<path d="M479.574 147.939C501.67 146.359 523.775 144.783 545.876 143.203C545.854 144.09 545.833 144.977 545.811 145.868C523.711 147.448 501.614 149.024 479.522 150.604C479.539 149.717 479.557 148.83 479.574 147.939Z" fill="#7FB097"/>
<path d="M479.47 154.664C501.55 153.084 523.637 151.508 545.73 149.928C545.712 150.815 545.699 151.702 545.686 152.593C523.603 154.173 501.524 155.749 479.458 157.329C479.458 156.438 479.462 155.551 479.47 154.664Z" fill="#7FB097"/>
<path d="M479.479 161.385C501.524 159.805 523.581 158.229 545.652 156.649C545.648 157.536 545.648 158.423 545.652 159.314C523.594 160.894 501.554 162.47 479.522 164.05C479.505 163.163 479.488 162.276 479.479 161.385Z" fill="#7FB097"/>
<path d="M479.656 168.11C501.653 166.53 523.672 164.954 545.704 163.374C545.721 164.261 545.747 165.148 545.773 166.039C523.758 167.619 501.761 169.195 479.789 170.775C479.738 169.884 479.694 168.997 479.656 168.11Z" fill="#7FB097"/>
<path d="M480.065 174.831C502.002 173.251 523.96 171.675 545.945 170.095C545.992 170.982 546.044 171.869 546.104 172.76C524.146 174.34 502.213 175.916 480.302 177.496C480.216 176.609 480.134 175.723 480.065 174.831Z" fill="#7FB097"/>
<path d="M480.758 181.557C502.622 179.976 524.512 178.401 546.427 176.82C546.509 177.707 546.6 178.594 546.703 179.486C524.818 181.066 502.958 182.642 481.129 184.222C480.995 183.33 480.875 182.443 480.758 181.557Z" fill="#7FB097"/>
<path d="M544.627 227.708C517.077 223.036 489.868 218.369 462.913 213.698C466.398 179.555 483.679 145.411 482.791 111.268C510.341 115.94 537.55 120.607 564.505 125.279C561.025 159.422 543.744 193.565 544.627 227.708Z" fill="#CCE0D6"/>
<path opacity="0.8" d="M544.627 227.708C517.077 223.036 489.868 218.369 462.913 213.698C466.398 179.555 483.679 145.411 482.791 111.268C510.341 115.94 537.55 120.607 564.505 125.279C561.025 159.422 543.744 193.565 544.627 227.708Z" fill="#E5EFEA"/>
<path d="M489.446 128.777C489.519 128.208 490.051 127.811 490.616 127.91C504.873 130.388 519.06 132.867 533.192 135.345C533.734 135.44 534.098 135.956 534.001 136.499C533.96 136.726 533.919 136.953 533.877 137.18C533.778 137.717 533.263 138.072 532.725 137.977C518.601 135.494 504.429 133.01 490.186 130.526C489.654 130.433 489.292 129.934 489.364 129.399C489.392 129.192 489.419 128.984 489.446 128.777Z" fill="#7FB097"/>
<path d="M488.45 135.362C488.545 134.814 489.065 134.446 489.612 134.542C503.754 137.02 517.841 139.498 531.88 141.977C532.437 142.075 532.802 142.615 532.683 143.167C532.634 143.395 532.584 143.623 532.535 143.851C532.421 144.374 531.913 144.714 531.385 144.62C517.35 142.137 503.275 139.655 489.149 137.172C488.605 137.076 488.241 136.557 488.337 136.012C488.375 135.795 488.413 135.579 488.45 135.362Z" fill="#7FB097"/>
<path d="M487.187 141.964C487.298 141.432 487.81 141.082 488.345 141.177C502.391 143.655 516.395 146.133 530.363 148.611C530.928 148.711 531.293 149.266 531.158 149.824C531.102 150.055 531.046 150.285 530.989 150.516C530.864 151.028 530.362 151.355 529.843 151.262C515.883 148.781 501.89 146.3 487.855 143.819C487.296 143.72 486.932 143.176 487.049 142.621C487.096 142.402 487.142 142.183 487.187 141.964Z" fill="#7FB097"/>
<path d="M485.709 148.566C485.832 148.05 486.336 147.719 486.859 147.811C507.642 151.499 528.345 155.182 549.011 158.869C549.587 158.972 549.952 159.545 549.8 160.109C549.738 160.341 549.675 160.573 549.612 160.806C549.477 161.306 548.982 161.621 548.471 161.53C527.805 157.839 507.111 154.153 486.344 150.463C485.777 150.362 485.412 149.804 485.546 149.244C485.601 149.018 485.655 148.792 485.709 148.566Z" fill="#7FB097"/>
<path d="M484.064 155.185C484.195 154.678 484.694 154.356 485.209 154.448C505.911 158.136 526.56 161.819 547.197 165.507C547.776 165.61 548.141 166.188 547.985 166.756C547.921 166.987 547.857 167.218 547.794 167.45C547.656 167.948 547.162 168.26 546.653 168.169C526.015 164.48 505.369 160.795 484.678 157.106C484.105 157.003 483.74 156.434 483.886 155.87C483.945 155.641 484.005 155.413 484.064 155.185Z" fill="#7FB097"/>
<path d="M482.307 161.809C482.442 161.309 482.938 160.994 483.449 161.086C504.104 164.774 524.727 168.458 545.362 172.146C545.941 172.249 546.306 172.828 546.15 173.395C546.086 173.626 546.022 173.858 545.959 174.089C545.821 174.588 545.327 174.9 544.818 174.809C524.174 171.12 503.554 167.436 482.91 163.748C482.33 163.644 481.965 163.066 482.12 162.498C482.182 162.269 482.245 162.039 482.307 161.809Z" fill="#7FB097"/>
<path d="M480.486 168.444C480.623 167.945 481.118 167.633 481.627 167.724C502.265 171.413 522.891 175.097 543.557 178.786C544.135 178.889 544.5 179.465 544.349 180.031C544.288 180.259 544.228 180.486 544.168 180.713C544.035 181.218 543.537 181.538 543.023 181.446C522.345 177.758 501.712 174.075 481.083 170.387C480.504 170.284 480.139 169.705 480.295 169.138C480.359 168.907 480.423 168.675 480.486 168.444Z" fill="#7FB097"/>
<path d="M478.656 175.082C478.792 174.584 479.287 174.272 479.795 174.363C500.444 178.053 521.11 181.738 541.836 185.428C542.408 185.53 542.773 186.097 542.632 186.661C542.576 186.886 542.52 187.112 542.465 187.337C542.338 187.849 541.837 188.176 541.318 188.083C520.575 184.396 499.901 180.713 479.252 177.025C478.675 176.922 478.31 176.347 478.464 175.781C478.528 175.548 478.592 175.315 478.656 175.082Z" fill="#7FB097"/>
<path d="M476.867 181.731C476.999 181.228 477.495 180.912 478.007 181.003C498.697 184.694 519.432 188.381 540.248 192.072C540.812 192.172 541.176 192.724 541.05 193.282C541 193.503 540.95 193.724 540.901 193.946C540.784 194.471 540.275 194.812 539.746 194.719C518.911 191.032 498.169 187.349 477.477 183.662C476.903 183.56 476.537 182.99 476.685 182.426C476.745 182.194 476.806 181.963 476.867 181.731Z" fill="#7FB097"/>
<path d="M475.172 188.391C475.298 187.879 475.799 187.553 476.318 187.645C497.082 191.337 517.911 195.025 538.846 198.717C539.399 198.815 539.763 199.348 539.656 199.9C539.614 200.116 539.573 200.332 539.532 200.548C539.429 201.088 538.913 201.449 538.371 201.353C517.411 197.667 496.564 193.983 475.799 190.297C475.234 190.196 474.869 189.642 475.004 189.084C475.06 188.852 475.116 188.621 475.172 188.391Z" fill="#7FB097"/>
<path d="M473.627 195.056C473.741 194.533 474.248 194.194 474.775 194.287C495.641 197.981 516.596 201.67 537.685 205.364C538.224 205.458 538.586 205.968 538.503 206.509C538.47 206.721 538.438 206.932 538.406 207.144C538.322 207.702 537.796 208.085 537.24 207.987C516.127 204.301 495.151 200.618 474.281 196.931C473.725 196.832 473.36 196.293 473.479 195.74C473.528 195.512 473.577 195.284 473.627 195.056Z" fill="#7FB097"/>
<path d="M472.281 201.724C472.38 201.186 472.895 200.831 473.433 200.926C494.43 204.621 515.546 208.313 536.816 212.008C537.337 212.098 537.697 212.579 537.641 213.106C537.62 213.312 537.598 213.517 537.577 213.723C537.518 214.303 536.981 214.715 536.406 214.615C515.109 210.928 493.977 207.245 472.966 203.557C472.425 203.462 472.062 202.949 472.157 202.408C472.198 202.18 472.239 201.952 472.281 201.724Z" fill="#7FB097"/>
<path d="M511.293 213.71H370.087V316.028H511.293V213.71Z" fill="#D9EDE3"/>
<path d="M419.983 203.115H370.087V213.71H422.847L419.983 203.115Z" fill="#D9EDE3"/>
<g opacity="0.1">
<path d="M511.293 213.71H370.087V316.028H511.293V213.71Z" fill="#D9EDE3"/>
<path d="M419.983 203.115H370.087V213.71H422.847L419.983 203.115Z" fill="#D9EDE3"/>
</g>
<path d="M510.337 277.747C482.766 269.864 455.811 262.066 429.278 254.351C435.958 223.17 454.656 192.626 455.892 160.976C483.446 168.403 510.388 175.843 536.908 183.309C530.172 214.998 511.482 245.847 510.337 277.747Z" fill="#B3D1C1"/>
<path d="M510.337 277.747C509.716 277.674 428.817 254.437 429.123 254.432C429.209 254.432 430.152 248.564 432.982 239.85C435.674 231.118 440.257 219.532 444.414 207.902C448.596 196.26 452.36 184.575 453.976 175.736C455.776 166.901 455.427 160.92 455.673 160.92L455.681 160.722C455.755 160.744 455.828 160.761 455.901 160.782C456.547 160.851 537.382 183.201 537.089 183.214C537.016 183.231 536.043 189.203 533.182 198.068C530.456 206.934 525.843 218.679 521.656 230.433C517.448 242.175 513.662 253.929 512.038 262.824C510.229 271.702 510.578 277.738 510.337 277.747ZM510.337 277.747C511.431 245.834 530.077 214.972 536.762 183.266C538.097 183.882 456.155 161.058 455.888 161.17L456.116 161.032C454.837 192.674 436.109 223.213 429.411 254.385C428.179 253.877 510.026 277.807 510.337 277.747Z" fill="#7FB097"/>
<path d="M505.973 219.811C501.877 230.752 489.455 236.853 477.864 233.43C466.213 230.011 460.2 218.447 464.197 207.562C468.16 196.661 480.138 190.491 491.88 193.849C503.669 197.216 510.126 208.858 505.973 219.811Z" fill="#7FB097"/>
<path d="M485.101 213.672C480.345 219.097 475.538 224.513 470.848 229.926C463.775 224.634 461.234 215.717 464.197 207.562C468.134 196.734 480.22 190.512 491.88 193.849C503.587 197.199 510.096 208.936 505.974 219.812C499.017 217.762 492.061 215.713 485.101 213.672Z" fill="#7FB097"/>
<path d="M485.101 213.672C489.244 219.239 493.345 224.815 497.531 230.399C491.781 234.266 484.511 235.389 477.864 233.43C466.291 230.037 460.226 218.374 464.197 207.562C468.134 196.734 480.22 190.512 491.88 193.849C503.587 197.199 510.096 208.936 505.974 219.812C499.017 217.762 492.061 215.713 485.101 213.672Z" fill="#7FB097"/>
<path d="M485.101 213.672C477.804 214.891 470.499 216.109 463.198 217.323C462.703 214.068 463.06 210.723 464.202 207.562C468.138 196.734 480.225 190.512 491.885 193.849C503.592 197.199 510.1 208.936 505.978 219.812C499.017 217.762 492.061 215.713 485.101 213.672Z" fill="#CCE0D6"/>
<path d="M461.946 175.787C462.054 175.206 462.635 174.839 463.204 174.997C473.723 177.921 484.17 180.848 494.556 183.776C495.073 183.922 495.382 184.449 495.255 184.971C495.214 185.136 495.174 185.3 495.133 185.465C494.997 186.011 494.436 186.334 493.894 186.181C483.518 183.241 473.085 180.305 462.582 177.372C462.077 177.231 461.767 176.724 461.866 176.209C461.893 176.068 461.92 175.927 461.946 175.787Z" fill="#7FB097"/>
<path d="M459.631 237.047C474.375 241.391 489.188 245.752 504.108 250.14C503.884 250.945 503.665 251.75 503.454 252.56C488.481 248.168 473.626 243.793 458.847 239.445C459.106 238.644 459.364 237.843 459.631 237.047Z" fill="#7FB097"/>
<path d="M457.706 243.092C472.549 247.453 487.478 251.841 502.536 256.245C502.347 257.055 502.161 257.86 501.989 258.669C486.866 254.252 471.881 249.86 456.995 245.49C457.223 244.689 457.46 243.892 457.706 243.092Z" fill="#7FB097"/>
<path d="M455.979 249.15C470.942 253.533 486.018 257.941 501.244 262.372C501.093 263.181 500.951 263.991 500.822 264.805C485.522 260.361 470.382 255.948 455.363 251.556C455.556 250.751 455.763 249.95 455.979 249.15Z" fill="#7FB097"/>
<path d="M450.918 237.111C449.13 236.586 447.338 236.061 445.551 235.535C445.818 234.739 446.089 233.942 446.365 233.146C448.148 233.671 449.935 234.196 451.719 234.722C451.447 235.518 451.18 236.315 450.918 237.111Z" fill="#CCE0D6"/>
<path d="M449.005 243.148C447.205 242.618 445.404 242.093 443.604 241.563C443.849 240.767 444.099 239.97 444.353 239.174C446.149 239.699 447.941 240.228 449.737 240.754C449.492 241.555 449.246 242.351 449.005 243.148Z" fill="#7FB097"/>
<path d="M447.299 249.197C445.482 248.667 443.668 248.138 441.855 247.608C442.07 246.812 442.294 246.011 442.523 245.214C444.332 245.744 446.141 246.273 447.95 246.803C447.726 247.6 447.51 248.396 447.299 249.197Z" fill="#7FB097"/>
<path d="M510.922 316.028H369.716L358.828 222.201H500.034L510.922 316.028Z" fill="#CCE0D6"/>
<path d="M407.59 212.483H357.699L358.828 222.201H411.588L407.59 212.483Z" fill="#CCE0D6"/>
<path d="M455.388 150.38C455.096 148.705 455.091 147.026 455.388 145.351C455.686 147.026 455.686 148.71 455.388 150.38Z" fill="#66A183"/>
<path d="M450.267 151.861C449.173 150.561 448.333 149.106 447.752 147.508C448.85 148.809 449.686 150.264 450.267 151.861Z" fill="#66A183"/>
<path d="M446.576 155.706C444.978 155.125 443.522 154.285 442.221 153.192C443.815 153.769 445.271 154.612 446.576 155.706Z" fill="#66A183"/>
<path d="M445.296 160.877C443.621 161.17 441.941 161.174 440.266 160.877C441.941 160.58 443.621 160.584 445.296 160.877Z" fill="#66A183"/>
<path d="M446.778 165.996C445.477 167.09 444.022 167.93 442.424 168.511C443.724 167.417 445.18 166.578 446.778 165.996Z" fill="#66A183"/>
<path d="M450.62 169.69C450.039 171.288 449.199 172.743 448.105 174.043C448.686 172.446 449.526 170.991 450.62 169.69Z" fill="#66A183"/>
<path d="M455.793 170.965C456.086 172.64 456.091 174.319 455.793 175.994C455.496 174.319 455.5 172.64 455.793 170.965Z" fill="#66A183"/>
<path d="M460.915 169.484C462.009 170.784 462.849 172.239 463.43 173.837C462.336 172.541 461.496 171.081 460.915 169.484Z" fill="#66A183"/>
<path d="M464.61 165.643C466.208 166.225 467.664 167.064 468.965 168.158C467.367 167.581 465.911 166.737 464.61 165.643Z" fill="#66A183"/>
<path d="M465.89 160.472C467.565 160.18 469.245 160.175 470.921 160.472C469.245 160.769 467.561 160.765 465.89 160.472Z" fill="#66A183"/>
<path d="M464.408 155.353C465.709 154.259 467.165 153.42 468.763 152.839C467.462 153.932 466.006 154.772 464.408 155.353Z" fill="#66A183"/>
<path d="M460.566 151.659C461.147 150.061 461.987 148.606 463.081 147.306C462.5 148.903 461.656 150.359 460.566 151.659Z" fill="#66A183"/>
<path d="M437.987 263.655L423.144 278.492" stroke="#7FB097" stroke-width="5.5" stroke-miterlimit="10"/>
<path d="M437.987 278.492L423.144 263.655" stroke="#7FB097" stroke-width="5.5" stroke-miterlimit="10"/>
<path d="M431.044 291.103C442.374 291.103 451.559 281.921 451.559 270.595C451.559 259.27 442.374 250.088 431.044 250.088C419.713 250.088 410.528 259.27 410.528 270.595C410.528 281.921 419.713 291.103 431.044 291.103Z" stroke="#7FB097" stroke-width="5.5" stroke-miterlimit="10"/>
<path d="M275.628 90.7654H166.02V160.459H275.628V90.7654Z" fill="#CCE0D6"/>
<path d="M275.628 90.7654H166.02V95.4886H275.628V90.7654Z" fill="#97B9A8"/>
<path d="M274 93.1248C274 93.9127 273.362 94.5456 272.578 94.5456C271.794 94.5456 271.157 93.9084 271.157 93.1248C271.157 92.3412 271.794 91.704 272.578 91.704C273.362 91.704 274 92.3412 274 93.1248Z" fill="#7CA08D"/>
<path d="M269.27 93.1248C269.27 93.9127 268.633 94.5456 267.849 94.5456C267.065 94.5456 266.428 93.9084 266.428 93.1248C266.428 92.3412 267.065 91.704 267.849 91.704C268.633 91.704 269.27 92.3412 269.27 93.1248Z" fill="#7CA08D"/>
<path d="M264.541 93.1248C264.541 93.9127 263.903 94.5456 263.12 94.5456C262.331 94.5456 261.698 93.9084 261.698 93.1248C261.698 92.3412 262.336 91.704 263.12 91.704C263.903 91.704 264.541 92.3412 264.541 93.1248Z" fill="#7CA08D"/>
<path d="M221.576 115.94L220.624 114.618C220.275 114.136 219.719 113.843 219.142 113.843H212.449C211.871 113.843 211.35 114.132 211.057 114.618L210.26 115.94C209.968 116.422 209.446 116.715 208.869 116.715H204.872C203.92 116.715 203.192 117.494 203.248 118.454L204.54 140.805C204.596 141.765 205.415 142.544 206.367 142.544H238.03C238.981 142.544 239.709 141.765 239.653 140.805L238.361 118.454C238.305 117.494 237.487 116.715 236.535 116.715H223.049C222.48 116.715 221.925 116.426 221.576 115.94Z" fill="#CCE0D6"/>
<path d="M239.705 118.846H210.695C209.485 118.846 208.417 119.819 208.309 121.016L206.565 140.37C206.457 141.571 207.349 142.54 208.559 142.54H237.569C238.779 142.54 239.847 141.567 239.955 140.37L241.699 121.016C241.807 119.815 240.915 118.846 239.705 118.846Z" fill="#97B9A8"/>
<path d="M635.834 113.865L633.896 112.031C633.185 111.359 632.203 111.062 631.272 111.238L620.491 113.301C619.561 113.477 618.811 114.106 618.493 114.976L617.614 117.348C617.291 118.218 616.541 118.846 615.615 119.023L609.18 120.254C607.647 120.547 606.717 122.024 607.1 123.552L616.072 159.142C616.455 160.67 618.015 161.674 619.548 161.381L670.533 151.629C672.067 151.336 672.997 149.859 672.614 148.331L663.642 112.741C663.258 111.212 661.699 110.209 660.166 110.502L638.453 114.657C637.527 114.833 636.545 114.536 635.834 113.865Z" fill="#CCE0D6"/>
<path d="M665.924 112.956L619.216 121.89C617.269 122.265 615.848 124.159 616.046 126.123L619.203 157.824C619.397 159.788 621.137 161.079 623.084 160.705L669.792 151.771C671.739 151.396 673.161 149.502 672.963 147.538L669.805 115.837C669.607 113.873 667.871 112.582 665.924 112.956Z" fill="#97B9A8"/>
<path d="M645.68 134.54L639.245 143.453" stroke="#CCE0D6" stroke-width="2.5" stroke-miterlimit="10"/>
<path d="M646.921 142.213L638 135.78" stroke="#CCE0D6" stroke-width="2.5" stroke-miterlimit="10"/>
<path d="M642.669 149.454C648.605 149.454 653.416 144.645 653.416 138.712C653.416 132.779 648.605 127.97 642.669 127.97C636.734 127.97 631.923 132.779 631.923 138.712C631.923 144.645 636.734 149.454 642.669 149.454Z" stroke="#CCE0D6" stroke-width="2.5" stroke-miterlimit="10"/>
<path d="M564.29 298.009L563.902 296.3C563.76 295.675 563.329 295.15 562.756 294.909L556.106 292.102C555.533 291.861 554.891 291.93 554.4 292.287L553.052 293.264C552.561 293.622 551.919 293.691 551.346 293.449L547.379 291.775C546.432 291.374 545.385 291.843 545.036 292.821L536.943 315.563C536.594 316.54 537.08 317.655 538.028 318.056L569.48 331.334C570.427 331.734 571.474 331.265 571.823 330.288L579.916 307.546C580.265 306.568 579.779 305.453 578.831 305.053L565.435 299.4C564.862 299.159 564.432 298.638 564.29 298.009Z" fill="#CCE0D6"/>
<path d="M581.079 308.497L552.268 296.334C551.066 295.826 549.597 296.343 548.986 297.492L539.131 315.985C538.519 317.13 538.997 318.469 540.199 318.977L569.01 331.14C570.212 331.648 571.681 331.132 572.293 329.982L582.148 311.49C582.759 310.344 582.281 309.005 581.079 308.497Z" fill="#97B9A8"/>
<path d="M562.119 312.915L555.343 315.442" stroke="#CCE0D6" stroke-width="2.5" stroke-miterlimit="10"/>
<path d="M559.995 317.565L557.467 310.792" stroke="#CCE0D6" stroke-width="2.5" stroke-miterlimit="10"/>
<path d="M558.949 321.16C562.852 321.16 566.017 317.997 566.017 314.095C566.017 310.192 562.852 307.029 558.949 307.029C555.045 307.029 551.88 310.192 551.88 314.095C551.88 317.997 555.045 321.16 558.949 321.16Z" stroke="#CCE0D6" stroke-width="2.5" stroke-miterlimit="10"/>
<path d="M226.396 129.843L222.911 133.326" stroke="#CCE0D6" stroke-width="2" stroke-miterlimit="10"/>
<path d="M226.396 133.326L222.911 129.843" stroke="#CCE0D6" stroke-width="2" stroke-miterlimit="10"/>
<path d="M224.763 136.284C227.423 136.284 229.579 134.129 229.579 131.47C229.579 128.812 227.423 126.656 224.763 126.656C222.103 126.656 219.947 128.812 219.947 131.47C219.947 134.129 222.103 136.284 224.763 136.284Z" stroke="#CCE0D6" stroke-width="2" stroke-miterlimit="10"/>
</g>
<defs>
<clipPath id="clip0_441_45863">
<rect width="827" height="465" fill="white"/>
</clipPath>
</defs>
</svg>
