<svg width="642" height="276" viewBox="0 0 642 276" fill="none" xmlns="http://www.w3.org/2000/svg">
<path d="M125.715 98.3813H108.661C106.086 98.3813 104 96.2945 104 93.7193V76.662C104 74.0869 106.086 72 108.661 72H125.715C128.29 72 130.376 74.0869 130.376 76.662V93.7193C130.376 96.2945 128.29 98.3813 125.715 98.3813Z" stroke="#CCE0D6" stroke-width="2" stroke-miterlimit="10"/>
<path d="M461.31 273H607.945" stroke="#CCE0D6" stroke-width="5" stroke-miterlimit="10" stroke-linecap="round"/>
<path d="M145.265 273H436.135" stroke="#CCE0D6" stroke-width="5" stroke-miterlimit="10" stroke-linecap="round"/>
<path d="M484.94 220.07H197.666V48.6313C197.666 46.5864 199.322 44.9307 201.366 44.9307H481.244C483.288 44.9307 484.944 46.5864 484.944 48.6313V220.07H484.94Z" fill="#CCE0D6"/>
<path d="M484.94 59.4853H197.666V48.4254C197.666 46.4949 199.23 44.9346 201.156 44.9346H482.072C483.655 44.9346 484.94 46.2164 484.94 47.8035V59.4853Z" fill="#97B9A8"/>
<path d="M208.831 52.5113C208.831 53.6253 207.927 54.5295 206.813 54.5295C205.699 54.5295 204.795 53.6253 204.795 52.5113C204.795 51.3973 205.699 50.4932 206.813 50.4932C207.927 50.4932 208.831 51.3973 208.831 52.5113Z" fill="#CCE0D6"/>
<path d="M214.846 52.5113C214.846 53.6253 213.942 54.5295 212.828 54.5295C211.714 54.5295 210.81 53.6253 210.81 52.5113C210.81 51.3973 211.714 50.4932 212.828 50.4932C213.942 50.4932 214.846 51.3973 214.846 52.5113Z" fill="#CCE0D6"/>
<path d="M220.568 52.5113C220.568 53.6253 219.664 54.5295 218.55 54.5295C217.436 54.5295 216.532 53.6253 216.532 52.5113C216.532 51.3973 217.436 50.4932 218.55 50.4932C219.664 50.4932 220.568 51.3973 220.568 52.5113Z" fill="#CCE0D6"/>
<path d="M118.582 92.7997L118.788 93.0057C119.219 92.5785 119.444 92.0329 119.444 91.4263C119.448 90.8197 119.219 90.2741 118.788 89.8545C118.361 89.431 117.816 89.2097 117.213 89.2136C116.61 89.2097 116.065 89.4348 115.645 89.8583C115.222 90.278 115.001 90.8235 115.001 91.4263C114.997 92.0291 115.218 92.5785 115.642 93.0019C116.061 93.433 116.607 93.6619 117.213 93.6581C117.82 93.6619 118.365 93.433 118.792 93.0019L118.582 92.7997L118.376 92.5937C118.045 92.9218 117.675 93.0744 117.205 93.0782C116.736 93.0744 116.374 92.9218 116.05 92.5937C115.725 92.2618 115.577 91.8917 115.573 91.4225C115.577 90.9532 115.725 90.5908 116.046 90.2627C116.37 89.9422 116.736 89.7934 117.205 89.7896C117.675 89.7934 118.045 89.9422 118.376 90.2665C118.704 90.5908 118.857 90.957 118.861 91.4225C118.857 91.8917 118.704 92.258 118.376 92.5937L118.582 92.7997ZM118.708 87.8706H118.998V87.512C118.998 87.2602 119.021 87.0428 119.059 86.8558C119.097 86.6727 119.158 86.501 119.246 86.337C119.33 86.1767 119.448 86.0051 119.608 85.8258C119.772 85.6426 119.978 85.429 120.226 85.1963C120.501 84.9368 120.757 84.6774 121.001 84.4104C121.252 84.1357 121.474 83.8419 121.661 83.5253C121.851 83.2048 122.004 82.8652 122.114 82.499C122.229 82.1251 122.282 81.7093 122.282 81.2515C122.282 80.6182 122.153 80.0154 121.897 79.4546C121.641 78.8976 121.287 78.413 120.833 78.0048C120.379 77.5966 119.833 77.28 119.208 77.0549C118.579 76.826 117.888 76.7153 117.144 76.7153C116.443 76.7153 115.802 76.826 115.23 77.0472C114.665 77.2647 114.173 77.5547 113.75 77.9133C113.334 78.2681 112.987 78.6648 112.708 79.1074C112.434 79.5461 112.231 79.9887 112.106 80.4312C112.064 80.5724 112.136 80.7212 112.273 80.7784L114.844 81.8504C114.921 81.8848 115.008 81.881 115.085 81.8428C115.161 81.8047 115.214 81.736 115.237 81.6559C115.291 81.446 115.375 81.2362 115.489 81.034C115.6 80.8356 115.741 80.6601 115.912 80.4999C116.08 80.3435 116.275 80.2214 116.496 80.1298C116.71 80.0421 116.954 79.9963 117.236 79.9963C117.762 80.0001 118.128 80.1451 118.403 80.4236C118.693 80.725 118.823 81.034 118.823 81.4079C118.823 81.7932 118.727 82.087 118.544 82.3311C118.338 82.6058 118.037 82.9225 117.644 83.2735L117.835 83.4909L117.648 83.2696C117.255 83.6016 116.919 83.9182 116.649 84.212C116.374 84.5095 116.153 84.8109 115.981 85.1162C115.813 85.4214 115.687 85.7418 115.607 86.0699C115.527 86.4018 115.489 86.7566 115.489 87.1343V87.8706C115.489 87.9469 115.519 88.0194 115.573 88.0767C115.626 88.1339 115.699 88.1606 115.779 88.1606H118.708C118.785 88.1606 118.857 88.1301 118.914 88.0767C118.971 88.0232 118.998 87.9508 118.998 87.8706H118.708V87.5807H116.069V87.1343C116.069 86.7948 116.103 86.4896 116.172 86.2073C116.24 85.9288 116.347 85.6579 116.488 85.3946C116.633 85.1352 116.824 84.872 117.072 84.6011C117.32 84.3302 117.636 84.0327 118.018 83.7084L118.022 83.7046C118.434 83.3383 118.758 82.9988 118.998 82.6783C119.265 82.3273 119.391 81.8924 119.391 81.4079C119.395 80.8852 119.185 80.4045 118.807 80.0192C118.415 79.6148 117.861 79.4164 117.224 79.4164C116.881 79.4164 116.557 79.4736 116.263 79.5957C115.981 79.714 115.725 79.8742 115.508 80.0764C115.294 80.2748 115.115 80.4999 114.97 80.7517C114.833 80.9959 114.726 81.2515 114.661 81.5185L114.943 81.5872L115.054 81.3201L112.483 80.2481L112.373 80.5152L112.651 80.5953C112.762 80.2061 112.941 79.8132 113.189 79.4164C113.433 79.0273 113.742 78.6725 114.116 78.3558C114.482 78.043 114.921 77.7874 115.432 77.589C115.931 77.3944 116.496 77.2952 117.137 77.2952C117.823 77.2952 118.445 77.3982 119.006 77.6004C119.57 77.8064 120.047 78.0849 120.444 78.4398C120.84 78.7946 121.146 79.2104 121.367 79.6949C121.588 80.1794 121.699 80.6945 121.699 81.2515C121.699 81.6597 121.649 82.0183 121.554 82.3311C121.455 82.6516 121.325 82.9492 121.157 83.2277C120.989 83.51 120.791 83.7732 120.566 84.0212C120.333 84.2768 120.085 84.5286 119.822 84.7766C119.563 85.0208 119.345 85.242 119.166 85.4442C118.983 85.6541 118.834 85.8601 118.724 86.0737C118.613 86.2836 118.537 86.5048 118.483 86.7376C118.434 86.9703 118.411 87.2297 118.411 87.512V87.8706H118.708V87.5807V87.8706Z" fill="#A1C5B3"/>
<path d="M447.273 195.176H337.229C333.281 195.176 330.077 191.975 330.077 188.023V168.753C330.077 164.804 333.278 161.6 337.229 161.6H447.277C451.225 161.6 454.429 164.8 454.429 168.753V188.023C454.425 191.975 451.225 195.176 447.273 195.176Z" fill="#A1C5B3"/>
<path d="M465.201 70.8041H355.157C351.209 70.8041 348.005 67.6033 348.005 63.6509V59.3589H472.353V63.6509C472.353 67.6033 469.152 70.8041 465.201 70.8041Z" fill="#A1C5B3"/>
<path d="M354.108 219.974H229.76V213.393C229.76 209.444 232.96 206.24 236.912 206.24H346.96C350.908 206.24 354.112 209.441 354.112 213.393V219.974H354.108Z" fill="#A1C5B3"/>
<path d="M346.956 111.577H236.912C232.964 111.577 229.76 108.376 229.76 104.423V85.1533C229.76 81.2047 232.96 78 236.912 78H346.96C350.908 78 354.112 81.2009 354.112 85.1533V104.423C354.108 108.376 350.908 111.577 346.956 111.577Z" fill="#629D7F" fill-opacity="0.4"/>
<path d="M243.301 85.4434H340.185" stroke="#CCE0D6" stroke-width="2" stroke-miterlimit="10" stroke-linecap="round"/>
<path d="M243.301 92.1846H262.945" stroke="#CCE0D6" stroke-width="2" stroke-miterlimit="10" stroke-linecap="round"/>
<path d="M243.301 98.9219H307.954" stroke="#CCE0D6" stroke-width="2" stroke-miterlimit="10" stroke-linecap="round"/>
<path d="M243.301 105.663H337.706" stroke="#CCE0D6" stroke-width="2" stroke-miterlimit="10" stroke-linecap="round"/>
<path d="M346.574 169.417H443.459" stroke="#CCE0D6" stroke-width="2" stroke-miterlimit="10" stroke-linecap="round"/>
<path d="M346.574 176.158H443.459" stroke="#CCE0D6" stroke-width="2" stroke-miterlimit="10" stroke-linecap="round"/>
<path d="M394.445 182.895H443.459" stroke="#CCE0D6" stroke-width="2" stroke-miterlimit="10" stroke-linecap="round"/>
<path d="M394.445 189.636H443.459" stroke="#CCE0D6" stroke-width="2" stroke-miterlimit="10" stroke-linecap="round"/>
<path d="M373.37 64.5093H456.523" stroke="#CCE0D6" stroke-width="3" stroke-miterlimit="10" stroke-linecap="round"/>
<path d="M347.337 158.577H237.294C233.346 158.577 230.142 155.376 230.142 151.423V132.153C230.142 128.205 233.342 125 237.294 125H347.341C351.289 125 354.493 128.201 354.493 132.153V151.423C354.489 155.376 351.289 158.577 347.337 158.577Z" fill="#A1C5B3"/>
<path d="M243.301 131.68H340.185" stroke="#CCE0D6" stroke-width="2" stroke-miterlimit="10" stroke-linecap="round"/>
<path d="M243.301 138.421H312.913" stroke="#CCE0D6" stroke-width="2" stroke-miterlimit="10" stroke-linecap="round"/>
<path d="M243.301 145.159H313.294" stroke="#CCE0D6" stroke-width="2" stroke-miterlimit="10" stroke-linecap="round"/>
<path d="M243.301 151.9H314.057" stroke="#CCE0D6" stroke-width="2" stroke-miterlimit="10" stroke-linecap="round"/>
<path d="M331.794 150.565C335.481 150.565 338.469 147.576 338.469 143.888C338.469 140.201 335.481 137.212 331.794 137.212C328.107 137.212 325.119 140.201 325.119 143.888C325.119 147.576 328.107 150.565 331.794 150.565Z" stroke="#CCE0D6" stroke-width="2" stroke-miterlimit="10" stroke-linecap="round"/>
<path d="M343.046 151.71C344.731 151.71 346.098 150.343 346.098 148.658C346.098 146.972 344.731 145.605 343.046 145.605C341.361 145.605 339.995 146.972 339.995 148.658C339.995 150.343 341.361 151.71 343.046 151.71Z" stroke="#CCE0D6" stroke-width="2" stroke-miterlimit="10" stroke-linecap="round"/>
<path d="M239.487 214.442H300.898" stroke="#CCE0D6" stroke-width="2" stroke-miterlimit="10" stroke-linecap="round"/>
<path d="M138.956 242.047H6.70479C3.0926 242.047 0.166992 239.121 0.166992 235.508V196.701C0.166992 193.088 3.0926 190.162 6.70479 190.162H138.956C142.568 190.162 145.494 193.088 145.494 196.701V235.508C145.494 239.121 142.564 242.047 138.956 242.047Z" fill="#CCE0D6"/>
<path d="M16.0232 201.988H136.339" stroke="#E1EDE6" stroke-width="2" stroke-miterlimit="10" stroke-linecap="round"/>
<path d="M16.0232 229.838H66.5366" stroke="#E1EDE6" stroke-width="2" stroke-miterlimit="10" stroke-linecap="round"/>
<path d="M16.0232 211.274H90.6357" stroke="#E1EDE6" stroke-width="2" stroke-miterlimit="10" stroke-linecap="round"/>
<path d="M16.0232 220.556H90.6357" stroke="#E1EDE6" stroke-width="2" stroke-miterlimit="10" stroke-linecap="round"/>
<path d="M140.726 197.41C143.57 197.41 145.875 195.104 145.875 192.26C145.875 189.415 143.57 187.109 140.726 187.109C137.882 187.109 135.576 189.415 135.576 192.26C135.576 195.104 137.882 197.41 140.726 197.41Z" fill="#64A081" fill-opacity="0.6"/>
<path d="M142.477 190.509L138.971 194.015" stroke="#D0E7DC" stroke-miterlimit="10" stroke-linecap="round"/>
<path d="M142.477 194.015L138.971 190.509" stroke="#D0E7DC" stroke-miterlimit="10" stroke-linecap="round"/>
<path d="M131.602 235.802H103.334C100.824 235.802 98.7871 233.764 98.7871 231.254V211.549C98.7871 209.039 100.824 207.001 103.334 207.001H131.602C134.112 207.001 136.149 209.039 136.149 211.549V231.254C136.149 233.764 134.112 235.802 131.602 235.802Z" fill="#A1C5B3"/>
<path d="M102.498 227.962C102.636 227.952 102.772 227.912 102.894 227.846L113.966 221.892C114.323 221.7 114.76 221.742 115.073 221.998L119.704 225.787C120.012 226.039 120.441 226.084 120.796 225.901L135.033 218.554C135.699 218.211 136.492 218.694 136.492 219.443V237.373C136.492 237.925 136.044 238.373 135.492 238.373H99.6611C99.1088 238.373 98.6611 237.925 98.6611 237.373V229.185C98.6611 228.662 99.0632 228.228 99.5841 228.188L102.498 227.962Z" fill="#D0E7DC"/>
<path d="M120.041 218.146C121.366 218.146 122.44 217.071 122.44 215.746C122.44 214.421 121.366 213.346 120.041 213.346C118.716 213.346 117.641 214.421 117.641 215.746C117.641 217.071 118.716 218.146 120.041 218.146Z" fill="#CCE0D6"/>
<path d="M502.577 248.606H574.611C576.755 248.606 578.491 246.871 578.491 244.726V223.999C578.491 221.855 576.755 220.119 574.611 220.119H502.577C500.434 220.119 498.698 221.855 498.698 223.999V244.726C498.698 246.871 500.434 248.606 502.577 248.606Z" fill="#CCE0D6"/>
<path d="M572.649 224.178H506.592" stroke="#E1EDE6" stroke-width="2" stroke-miterlimit="10" stroke-linecap="round"/>
<path d="M572.648 240.73H544.914" stroke="#E1EDE6" stroke-width="2" stroke-miterlimit="10" stroke-linecap="round"/>
<path d="M572.648 229.88H531.682" stroke="#E1EDE6" stroke-width="2" stroke-miterlimit="10" stroke-linecap="round"/>
<path d="M572.648 235.305H531.682" stroke="#E1EDE6" stroke-width="2" stroke-miterlimit="10" stroke-linecap="round"/>
<path d="M514.089 244.734C518.254 244.734 521.63 241.357 521.63 237.191C521.63 233.026 518.254 229.649 514.089 229.649C509.925 229.649 506.548 233.026 506.548 237.191C506.548 241.357 509.925 244.734 514.089 244.734Z" fill="#006230" fill-opacity="0.3"/>
<path d="M498.586 223.503C500.147 223.503 501.412 222.237 501.412 220.676C501.412 219.115 500.147 217.849 498.586 217.849C497.025 217.849 495.759 219.115 495.759 220.676C495.759 222.237 497.025 223.503 498.586 223.503Z" fill="#8FBAA4"/>
<path d="M497.625 219.715L499.551 221.641" stroke="#D0E7DC" stroke-width="0.5" stroke-miterlimit="10" stroke-linecap="round"/>
<path d="M497.625 221.641L499.551 219.715" stroke="#D0E7DC" stroke-width="0.5" stroke-miterlimit="10" stroke-linecap="round"/>
<path d="M564.267 60.2534H542.987C540.889 60.2534 539.191 58.5519 539.191 56.4574V41.796C539.191 39.6977 540.893 38 542.987 38H564.267C566.365 38 568.062 39.7015 568.062 41.796V56.4574C568.062 58.5519 566.361 60.2534 564.267 60.2534Z" fill="#97B9A8"/>
<path d="M542.319 54.1837L551.375 49.2585L555.746 52.837L568.325 46.3438V59.2412C568.325 60.8981 566.982 62.2412 565.325 62.2412H542.195C540.538 62.2412 539.195 60.8981 539.195 59.2412V54.4241L542.319 54.1837Z" fill="#CCE0D6"/>
<path d="M555.612 46.6106C556.636 46.6106 557.466 45.7805 557.466 44.7565C557.466 43.7325 556.636 42.9023 555.612 42.9023C554.589 42.9023 553.759 43.7325 553.759 44.7565C553.759 45.7805 554.589 46.6106 555.612 46.6106Z" fill="white"/>
<rect x="204" y="86" width="16.7831" height="17.5494" rx="2" fill="#A1C5B3"/>
<path d="M213.063 92.684C213.644 92.684 214.116 92.2126 214.116 91.6311C214.116 91.0496 213.644 90.5781 213.063 90.5781C212.481 90.5781 212.01 91.0496 212.01 91.6311C212.01 92.2126 212.481 92.684 213.063 92.684Z" fill="#CCE0D6"/>
<path d="M206.159 99.9936L211.125 97.1933L213.608 99.2268L220.756 95.5376V101.423C220.756 102.528 219.861 103.423 218.756 103.423H206.163C205.148 103.423 204.293 102.662 204.177 101.653L204 100.127L206.159 99.9936Z" fill="#CCE0D6"/>
<rect x="204" y="133" width="16.7831" height="17.5494" rx="2" fill="#A1C5B3"/>
<path d="M213.063 139.684C213.644 139.684 214.116 139.213 214.116 138.631C214.116 138.05 213.644 137.578 213.063 137.578C212.481 137.578 212.01 138.05 212.01 138.631C212.01 139.213 212.481 139.684 213.063 139.684Z" fill="#CCE0D6"/>
<path d="M206.159 146.994L211.125 144.193L213.608 146.227L220.756 142.538V148.423C220.756 149.528 219.861 150.423 218.756 150.423H206.163C205.148 150.423 204.293 149.662 204.177 148.653L204 147.127L206.159 146.994Z" fill="#CCE0D6"/>
<path d="M204 210C204 208.895 204.895 208 206 208H218.783C219.888 208 220.783 208.895 220.783 210V220H204V210Z" fill="#A1C5B3"/>
<path d="M212.053 213.24C212.634 213.24 213.106 212.768 213.106 212.185C213.106 211.603 212.634 211.13 212.053 211.13C211.471 211.13 211 211.603 211 212.185C211 212.768 211.471 213.24 212.053 213.24Z" fill="#CCE0D6"/>
</svg>
