<svg width="495" height="278" viewBox="0 0 495 278" fill="none" xmlns="http://www.w3.org/2000/svg">
<g clip-path="url(#clip0_441_38225)">
<path d="M290.372 214.675H389.483" stroke="#CCE0D6" stroke-width="5" stroke-miterlimit="10" stroke-linecap="round"/>
<path d="M76.7566 214.675H273.357" stroke="#CCE0D6" stroke-width="5" stroke-miterlimit="10" stroke-linecap="round"/>
<path d="M110.679 171.392L84.2866 179.32C83.0053 179.706 81.6518 178.981 81.2676 177.699L70.5684 142.192C70.1817 140.913 70.9087 139.561 72.1926 139.178L90.6494 133.636L103.911 140.524L112.303 168.378C112.687 169.657 111.963 171.009 110.679 171.392Z" fill="#CCE0D6"/>
<path d="M90.6211 133.548L92.748 140.604C93.274 142.349 95.1148 143.337 96.8627 142.812L103.911 140.521L90.6211 133.548Z" fill="#CCE0D6"/>
<path d="M104.605 165.567C104.602 165.564 104.592 165.536 104.574 165.482C104.553 165.418 104.527 165.34 104.494 165.24C104.424 165.016 104.326 164.707 104.2 164.308C103.945 163.485 103.576 162.298 103.112 160.795C102.187 157.768 100.869 153.466 99.2913 148.303L99.4279 148.375C94.2098 149.948 88.0326 151.809 81.43 153.798C81.4094 153.832 81.5899 153.502 81.5151 153.644L81.5177 153.649L81.5203 153.659L81.5254 153.677L81.5357 153.713L81.5589 153.788L81.6028 153.935L81.693 154.231L81.8709 154.82C81.9895 155.212 82.1055 155.603 82.2241 155.991C82.4587 156.769 82.6907 157.538 82.9176 158.3C83.3765 159.824 83.8251 161.317 84.2608 162.769C85.1322 165.673 85.9546 168.417 86.71 170.942L86.5734 170.867C91.9514 169.276 96.4424 167.948 99.6032 167.011C101.178 166.55 102.421 166.187 103.285 165.935C103.702 165.814 104.03 165.721 104.264 165.655C104.37 165.626 104.453 165.603 104.52 165.585C104.571 165.572 104.602 165.567 104.605 165.567C104.607 165.57 104.582 165.577 104.53 165.595C104.466 165.616 104.388 165.642 104.29 165.675C104.063 165.747 103.746 165.848 103.339 165.974C102.486 166.236 101.256 166.617 99.6986 167.099C96.5275 168.064 92.0235 169.438 86.6327 171.081L86.527 171.112L86.496 171.006C85.7329 168.483 84.9028 165.742 84.0236 162.841C83.5853 161.389 83.1342 159.899 82.6753 158.375C82.4458 157.613 82.2138 156.843 81.9792 156.066C81.8632 155.677 81.7446 155.289 81.626 154.895L81.4481 154.305L81.3578 154.009L81.314 153.863L81.2908 153.788L81.2805 153.752L81.2753 153.734L81.2728 153.724L81.2702 153.719C81.1928 153.858 81.3707 153.523 81.3553 153.559C87.963 151.582 94.1428 149.731 99.3635 148.169L99.4692 148.138L99.5001 148.241C101.044 153.446 102.331 157.78 103.236 160.831C103.674 162.331 104.022 163.515 104.262 164.337C104.375 164.728 104.463 165.034 104.525 165.256C104.551 165.351 104.571 165.428 104.589 165.49C104.602 165.544 104.607 165.57 104.605 165.567Z" fill="#F2F2F2"/>
<path d="M95.4937 168.527C95.4267 168.548 94.2072 164.692 92.7686 159.917C91.33 155.139 90.2189 151.253 90.2833 151.232C90.3503 151.211 91.5698 155.067 93.011 159.842C94.447 164.62 95.5607 168.507 95.4937 168.527Z" fill="#F2F2F2"/>
<path d="M103.259 161.348C103.28 161.415 99.25 162.684 94.2588 164.182C89.2675 165.68 85.2044 166.841 85.1838 166.774C85.1632 166.707 89.1928 165.438 94.184 163.94C99.1779 162.445 103.241 161.281 103.259 161.348Z" fill="#F2F2F2"/>
<path d="M102.138 156.88C102.158 156.946 98.1286 158.215 93.1373 159.714C88.1461 161.212 84.083 162.373 84.0623 162.306C84.0417 162.239 88.0713 160.97 93.0626 159.472C98.0538 157.974 102.117 156.813 102.138 156.88Z" fill="#F2F2F2"/>
<path d="M100.671 152.511C100.691 152.578 96.6925 153.839 91.74 155.325C86.7848 156.813 82.7552 157.963 82.7346 157.896C82.714 157.829 86.7126 156.571 91.6678 155.08C96.6204 153.595 100.653 152.444 100.671 152.511Z" fill="#F2F2F2"/>
<path d="M375.695 100.855L356.66 97.4467C355.735 97.282 355.121 96.3991 355.286 95.475L359.886 69.8681C360.051 68.944 360.935 68.3314 361.86 68.4961L375.171 70.8797L381.279 79.3948L377.672 99.4828C377.505 100.407 376.62 101.022 375.695 100.855Z" fill="#CCE0D6"/>
<path d="M375.182 70.8179L374.269 75.9069C374.042 77.1656 374.883 78.3677 376.141 78.5916L381.279 79.3922L375.182 70.8179Z" fill="#CCE0D6"/>
<path d="M373.748 95.2845C373.743 95.2768 373.753 95.1944 373.777 95.0374C373.805 94.8546 373.838 94.6307 373.882 94.3527C373.985 93.7272 374.125 92.87 374.3 91.7966C374.676 89.5855 375.207 86.4915 375.839 82.7848L375.963 82.9624C372.191 82.2957 367.736 81.5055 362.974 80.6612C362.928 80.6921 363.363 80.3909 363.178 80.5196V80.5222V80.5299L363.175 80.5428L363.17 80.5685L363.16 80.6226L363.142 80.7281L363.103 80.9418L363.026 81.3665C362.974 81.6496 362.925 81.9302 362.874 82.2108C362.773 82.7719 362.673 83.3254 362.575 83.8762C362.376 84.9753 362.18 86.0487 361.992 87.0964C361.61 89.1865 361.249 91.1634 360.917 92.9859L360.793 92.8082C364.632 93.529 367.844 94.1313 370.141 94.5612C371.255 94.7774 372.145 94.9499 372.792 95.076C373.078 95.1352 373.312 95.1815 373.498 95.2202C373.655 95.2588 373.743 95.2794 373.748 95.2845C373.753 95.2922 373.676 95.2845 373.524 95.2613C373.343 95.233 373.117 95.1996 372.838 95.1558C372.196 95.0503 371.312 94.9061 370.208 94.7259C367.883 94.3295 364.624 93.7735 360.736 93.1094L360.584 93.0837L360.61 92.9318C360.932 91.1094 361.283 89.1299 361.652 87.0372C361.837 85.9895 362.031 84.9136 362.227 83.8144C362.325 83.2661 362.425 82.7102 362.526 82.149C362.575 81.8684 362.626 81.5878 362.678 81.3047L362.755 80.88L362.794 80.6663L362.812 80.5608L362.822 80.5067L362.827 80.481L362.83 80.4681V80.4604V80.4578C362.647 80.584 363.08 80.2802 363.036 80.3137C367.793 81.176 372.248 81.9817 376.017 82.6638L376.169 82.6921L376.141 82.8414C375.437 86.5738 374.852 89.6936 374.431 91.9202C374.225 92.973 374.06 93.8147 373.942 94.4273C373.887 94.6899 373.844 94.9035 373.808 95.076C373.771 95.2201 373.751 95.2922 373.748 95.2845Z" fill="#F2F2F2"/>
<path d="M367.104 94.2497C367.009 94.2317 367.432 91.426 368.051 87.9818C368.669 84.5377 369.249 81.7603 369.345 81.7758C369.44 81.7938 369.017 84.5995 368.399 88.0436C367.78 91.4877 367.2 94.2652 367.104 94.2497Z" fill="#F2F2F2"/>
<path d="M374.246 92.2188C374.228 92.314 371.296 91.8713 367.697 91.2252C364.098 90.5817 361.193 89.9793 361.211 89.8841C361.229 89.7889 364.16 90.2316 367.759 90.8777C371.361 91.5238 374.264 92.1235 374.246 92.2188Z" fill="#F2F2F2"/>
<path d="M374.965 89.0655C374.947 89.1608 372.016 88.718 368.417 88.0719C364.818 87.4284 361.912 86.8261 361.93 86.7308C361.948 86.6356 364.879 87.0783 368.479 87.7244C372.08 88.3705 374.983 88.9703 374.965 89.0655Z" fill="#F2F2F2"/>
<path d="M375.439 85.8686C375.421 85.9638 372.513 85.5236 368.94 84.8853C365.367 84.2469 362.484 83.6497 362.502 83.5519C362.52 83.4567 365.429 83.8968 369.002 84.5352C372.573 85.1761 375.455 85.7733 375.439 85.8686Z" fill="#F2F2F2"/>
<path d="M174.655 83.1941L152.148 90.9575C151.055 91.3334 149.861 90.7542 149.485 89.6628L139.007 59.3839C138.631 58.2925 139.211 57.1007 140.304 56.7249L156.044 51.2962L167.733 56.7816L175.952 80.5351C176.328 81.6265 175.748 82.8183 174.655 83.1941Z" fill="#CCE0D6"/>
<path d="M156.018 51.2241L158.101 57.2423C158.617 58.7301 160.241 59.5178 161.731 59.0055L167.735 56.7841L156.018 51.2241Z" fill="#CCE0D6"/>
<g opacity="0.2">
<path d="M156.018 51.2241L158.101 57.2423C158.617 58.7301 160.241 59.5178 161.731 59.0055L167.735 56.7841L156.018 51.2241Z" fill="#629D7F"/>
</g>
<path d="M169.207 78.378C169.202 78.3754 169.164 78.2802 169.097 78.1C169.024 77.9018 168.926 77.6367 168.805 77.3046C168.55 76.5916 168.189 75.5826 167.733 74.3084C166.82 71.7214 165.531 68.0637 163.984 63.6749L164.149 63.7547C159.699 65.2966 154.432 67.1216 148.804 69.0701C148.781 69.1113 148.979 68.7098 148.897 68.8822L148.9 68.8874L148.902 68.8951L148.907 68.9106L148.918 68.9414L148.938 69.0058L148.982 69.1319L149.07 69.3842L149.242 69.8861C149.358 70.2208 149.472 70.5528 149.588 70.8849C149.817 71.5464 150.044 72.2028 150.269 72.854C150.717 74.1539 151.155 75.4255 151.583 76.6637C152.434 79.1399 153.239 81.4823 153.981 83.6343L153.813 83.5519C158.39 82.0023 162.216 80.7075 164.923 79.7912C166.261 79.3459 167.32 78.9906 168.07 78.7409C168.424 78.6251 168.702 78.535 168.911 78.4681C169.099 78.4037 169.2 78.3754 169.207 78.378C169.215 78.3806 169.125 78.4166 168.944 78.4835C168.743 78.5556 168.475 78.6534 168.138 78.777C167.4 79.0395 166.359 79.4128 165.041 79.8813C162.326 80.8337 158.488 82.1825 153.896 83.7964L153.772 83.8402L153.728 83.7166C152.978 81.5647 152.166 79.2274 151.305 76.7538C150.874 75.5156 150.434 74.244 149.982 72.9467C149.758 72.298 149.529 71.6416 149.299 70.9775C149.186 70.6455 149.07 70.3134 148.954 69.9788L148.781 69.4769L148.693 69.2246L148.649 69.0985L148.629 69.0341L148.619 69.0032L148.613 68.9878L148.611 68.9801L148.608 68.9749C148.523 69.1448 148.722 68.7381 148.701 68.7793C154.334 66.8436 159.607 65.034 164.062 63.505L164.185 63.4612L164.227 63.5848C165.732 68.0225 166.99 71.724 167.877 74.3393C168.303 75.6109 168.638 76.6173 168.875 77.3304C168.981 77.6573 169.066 77.9172 169.13 78.1129C169.187 78.2905 169.213 78.3806 169.207 78.378Z" fill="#F2F2F2"/>
<path d="M161.445 81.2507C161.365 81.279 160.161 77.9996 158.751 73.9274C157.34 69.8552 156.263 66.5321 156.343 66.5038C156.423 66.4755 157.627 69.7548 159.037 73.8296C160.444 77.8992 161.522 81.2223 161.445 81.2507Z" fill="#F2F2F2"/>
<path d="M167.898 74.782C167.926 74.8618 164.497 76.1154 160.241 77.5826C155.984 79.0498 152.511 80.1773 152.486 80.0975C152.457 80.0177 155.886 78.7641 160.143 77.2969C164.399 75.8297 167.872 74.7048 167.898 74.782Z" fill="#F2F2F2"/>
<path d="M166.774 70.9621C166.802 71.0419 163.373 72.2955 159.117 73.7627C154.86 75.2299 151.387 76.3574 151.362 76.2776C151.333 76.1978 154.762 74.9442 159.019 73.477C163.273 72.0098 166.745 70.8849 166.774 70.9621Z" fill="#F2F2F2"/>
<path d="M165.356 67.2425C165.384 67.3223 161.981 68.5656 157.758 70.0225C153.532 71.4795 150.088 72.5966 150.06 72.5168C150.031 72.437 153.434 71.1937 157.66 69.7368C161.88 68.2825 165.327 67.1653 165.356 67.2425Z" fill="#F2F2F2"/>
<path d="M330.431 84.4476H167.532V172.635H330.431V84.4476Z" fill="#F5F5F5"/>
<path d="M330.431 84.4476H167.532V91.8738H330.431V84.4476Z" fill="#CCE0D6"/>
<path d="M172.041 88.9136C171.68 89.274 171.097 89.274 170.739 88.9136C170.378 88.5533 170.378 87.9715 170.739 87.6137C171.1 87.2534 171.682 87.2534 172.041 87.6137C172.399 87.9715 172.399 88.5533 172.041 88.9136Z" fill="#FAFAFA"/>
<path d="M174.743 89.1813C175.251 89.1813 175.663 88.7699 175.663 88.2624C175.663 87.7549 175.251 87.3434 174.743 87.3434C174.234 87.3434 173.822 87.7549 173.822 88.2624C173.822 88.7699 174.234 89.1813 174.743 89.1813Z" fill="#FAFAFA"/>
<path d="M178.097 89.1813C178.605 89.1813 179.017 88.7699 179.017 88.2624C179.017 87.7549 178.605 87.3434 178.097 87.3434C177.588 87.3434 177.176 87.7549 177.176 88.2624C177.176 88.7699 177.588 89.1813 178.097 89.1813Z" fill="#FAFAFA"/>
<path opacity="0.3" d="M173.214 104.644H167.289V172.635H173.214V104.644Z" fill="#629D7F"/>
<path opacity="0.3" d="M167.29 102.026V107.941L330.361 107.941V102.026L167.29 102.026Z" fill="#629D7F"/>
<path d="M173.216 168.849C173.157 168.849 173.106 153.888 173.106 135.437C173.106 116.981 173.155 102.023 173.216 102.023C173.276 102.023 173.325 116.981 173.325 135.437C173.325 153.888 173.276 168.849 173.216 168.849Z" fill="#006230" fill-opacity="0.6"/>
<path d="M196.512 172.635C196.453 172.635 196.404 156.828 196.404 137.332C196.404 117.828 196.453 102.026 196.512 102.026C196.572 102.026 196.621 117.831 196.621 137.332C196.621 156.828 196.572 172.635 196.512 172.635Z" fill="#006230" fill-opacity="0.6"/>
<path d="M221.224 172.635C221.164 172.635 221.113 156.879 221.113 137.448C221.113 118.008 221.162 102.258 221.224 102.258C221.283 102.258 221.332 118.011 221.332 137.448C221.332 156.879 221.283 172.635 221.224 172.635Z" fill="#006230" fill-opacity="0.6"/>
<path d="M245.35 172.635C245.29 172.635 245.239 156.879 245.239 137.448C245.239 118.008 245.288 102.258 245.35 102.258C245.409 102.258 245.461 118.011 245.461 137.448C245.458 156.879 245.409 172.635 245.35 172.635Z" fill="#006230" fill-opacity="0.6"/>
<path d="M270.043 172.635C269.984 172.635 269.932 156.828 269.932 137.332C269.932 117.828 269.981 102.026 270.043 102.026C270.102 102.026 270.151 117.831 270.151 137.332C270.154 156.828 270.105 172.635 270.043 172.635Z" fill="#006230" fill-opacity="0.6"/>
<path d="M294.739 172.635C294.68 172.635 294.628 156.828 294.628 137.332C294.628 117.828 294.677 102.026 294.739 102.026C294.798 102.026 294.847 117.831 294.847 137.332C294.85 156.828 294.798 172.635 294.739 172.635Z" fill="#006230" fill-opacity="0.6"/>
<path d="M319.435 172.635C319.375 172.635 319.324 156.879 319.324 137.448C319.324 118.008 319.373 102.258 319.435 102.258C319.494 102.258 319.543 118.011 319.543 137.448C319.543 156.879 319.494 172.635 319.435 172.635Z" fill="#006230" fill-opacity="0.6"/>
<path d="M329.464 113.336C329.464 113.396 293.159 113.447 248.384 113.447C203.594 113.447 167.297 113.398 167.297 113.336C167.297 113.277 203.594 113.228 248.384 113.228C293.159 113.228 329.464 113.277 329.464 113.336Z" fill="#006230" fill-opacity="0.6"/>
<path d="M329.464 107.941C329.464 108 293.159 108.052 248.384 108.052C203.594 108.052 167.297 108.003 167.297 107.941C167.297 107.879 203.594 107.831 248.384 107.831C293.159 107.833 329.464 107.882 329.464 107.941Z" fill="#006230" fill-opacity="0.6"/>
<path d="M329.464 119.02C329.464 119.079 293.159 119.131 248.384 119.131C203.594 119.131 167.297 119.082 167.297 119.02C167.297 118.961 203.594 118.912 248.384 118.912C293.159 118.912 329.464 118.961 329.464 119.02Z" fill="#006230" fill-opacity="0.6"/>
<path d="M329.464 124.704C329.464 124.763 293.159 124.814 248.384 124.814C203.594 124.814 167.297 124.765 167.297 124.704C167.297 124.644 203.594 124.595 248.384 124.595C293.159 124.593 329.464 124.644 329.464 124.704Z" fill="#006230" fill-opacity="0.6"/>
<path d="M329.464 130.387C329.464 130.446 293.159 130.498 248.384 130.498C203.594 130.498 167.297 130.449 167.297 130.387C167.297 130.325 203.594 130.276 248.384 130.276C293.159 130.276 329.464 130.325 329.464 130.387Z" fill="#006230" fill-opacity="0.6"/>
<path d="M329.464 136.071C329.464 136.13 293.159 136.181 248.384 136.181C203.594 136.181 167.297 136.132 167.297 136.071C167.297 136.011 203.594 135.963 248.384 135.963C293.159 135.96 329.464 136.009 329.464 136.071Z" fill="#006230" fill-opacity="0.6"/>
<path d="M329.464 141.754C329.464 141.813 293.159 141.865 248.384 141.865C203.594 141.865 167.297 141.816 167.297 141.754C167.297 141.695 203.594 141.646 248.384 141.646C293.159 141.644 329.464 141.692 329.464 141.754Z" fill="#006230" fill-opacity="0.6"/>
<path d="M329.464 147.438C329.464 147.497 293.159 147.548 248.384 147.548C203.594 147.548 167.297 147.5 167.297 147.438C167.297 147.379 203.594 147.33 248.384 147.33C293.159 147.327 329.464 147.376 329.464 147.438Z" fill="#006230" fill-opacity="0.6"/>
<path d="M329.464 153.121C329.464 153.181 293.159 153.232 248.384 153.232C203.594 153.232 167.297 153.183 167.297 153.121C167.297 153.06 203.594 153.011 248.384 153.011C293.159 153.011 329.464 153.06 329.464 153.121Z" fill="#006230" fill-opacity="0.6"/>
<path d="M329.464 158.805C329.464 158.864 293.159 158.916 248.384 158.916C203.594 158.916 167.297 158.867 167.297 158.805C167.297 158.743 203.594 158.694 248.384 158.694C293.159 158.694 329.464 158.743 329.464 158.805Z" fill="#006230" fill-opacity="0.6"/>
<path d="M329.464 164.488C329.464 164.548 293.159 164.599 248.384 164.599C203.594 164.599 167.297 164.55 167.297 164.488C167.297 164.429 203.594 164.378 248.384 164.378C293.159 164.378 329.464 164.427 329.464 164.488Z" fill="#006230" fill-opacity="0.6"/>
<path d="M329.464 170.169C329.464 170.229 293.159 170.28 248.384 170.28C203.594 170.28 167.297 170.231 167.297 170.169C167.297 170.11 203.594 170.061 248.384 170.061C293.159 170.061 329.464 170.11 329.464 170.169Z" fill="#006230" fill-opacity="0.6"/>
<path d="M330.361 107.941H173.216V119.02H330.361V107.941Z" fill="#CCE0D6"/>
<path d="M296.928 112.706C296.928 112.765 278.437 112.816 255.631 112.816C232.82 112.816 214.332 112.768 214.332 112.706C214.332 112.647 232.82 112.598 255.631 112.598C278.437 112.598 296.928 112.647 296.928 112.706Z" fill="#FAFAFA"/>
<path d="M304.75 115.864C304.75 115.923 281.627 115.975 253.107 115.975C224.578 115.975 201.46 115.926 201.46 115.864C201.46 115.805 224.58 115.756 253.107 115.756C281.627 115.754 304.75 115.802 304.75 115.864Z" fill="#FAFAFA"/>
<path d="M245.35 124.704H196.512V130.387H245.35V124.704Z" fill="#006230" fill-opacity="0.6"/>
<path d="M245.35 129.756H196.512V153.742H245.35V129.756Z" fill="#CCE0D6"/>
<path d="M217.171 132.977C217.171 133.036 213.141 133.087 208.171 133.087C203.2 133.087 199.17 133.038 199.17 132.977C199.17 132.917 203.2 132.866 208.171 132.866C213.141 132.868 217.171 132.917 217.171 132.977Z" fill="#006230" fill-opacity="0.6"/>
<path d="M209.983 139.216C209.983 139.275 207.562 139.327 204.577 139.327C201.591 139.327 199.17 139.278 199.17 139.216C199.17 139.157 201.591 139.108 204.577 139.108C207.562 139.108 209.983 139.157 209.983 139.216Z" fill="#006230" fill-opacity="0.6"/>
<path d="M218.911 143.759C218.911 143.819 214.492 143.87 209.042 143.87C203.589 143.87 199.17 143.821 199.17 143.759C199.17 143.7 203.589 143.651 209.042 143.651C214.492 143.651 218.911 143.7 218.911 143.759Z" fill="#006230" fill-opacity="0.6"/>
<path d="M209.983 134.673C209.983 134.732 207.562 134.784 204.577 134.784C201.591 134.784 199.17 134.735 199.17 134.673C199.17 134.614 201.591 134.565 204.577 134.565C207.562 134.562 209.983 134.611 209.983 134.673Z" fill="#006230" fill-opacity="0.6"/>
<path d="M243.535 132.977C243.535 133.036 242.248 133.087 240.665 133.087C239.08 133.087 237.796 133.038 237.796 132.977C237.796 132.917 239.08 132.866 240.665 132.866C242.251 132.868 243.535 132.917 243.535 132.977Z" fill="#006230" fill-opacity="0.6"/>
<path d="M243.535 138.081C243.535 138.14 242.248 138.192 240.665 138.192C239.08 138.192 237.796 138.143 237.796 138.081C237.796 138.022 239.08 137.973 240.665 137.973C242.251 137.97 243.535 138.019 243.535 138.081Z" fill="#006230" fill-opacity="0.6"/>
<path d="M243.535 143.759C243.535 143.819 242.248 143.87 240.665 143.87C239.08 143.87 237.796 143.821 237.796 143.759C237.796 143.7 239.08 143.651 240.665 143.651C242.251 143.651 243.535 143.7 243.535 143.759Z" fill="#006230" fill-opacity="0.6"/>
<path d="M243.22 150.707C243.22 150.766 241.189 150.818 238.68 150.818C236.172 150.818 234.14 150.769 234.14 150.707C234.14 150.648 236.172 150.599 238.68 150.599C241.189 150.596 243.22 150.645 243.22 150.707Z" fill="#006230" fill-opacity="0.6"/>
<path d="M221.224 153.327C221.164 153.327 221.113 148.146 221.113 141.754C221.113 135.36 221.162 130.179 221.224 130.179C221.283 130.179 221.332 135.36 221.332 141.754C221.332 148.146 221.283 153.327 221.224 153.327Z" fill="#006230" fill-opacity="0.6"/>
<path d="M244.94 146.933C244.94 146.992 239.541 147.044 232.882 147.044C226.22 147.044 220.824 146.995 220.824 146.933C220.824 146.874 226.223 146.823 232.882 146.823C239.541 146.823 244.94 146.871 244.94 146.933Z" fill="#006230" fill-opacity="0.6"/>
<path d="M245.35 164.275H196.512V170.169H245.35V164.275Z" fill="#F5F5F5"/>
<path d="M245.347 158.805H196.43V164.488H245.347V158.805Z" fill="#006230" fill-opacity="0.6"/>
<path d="M219.324 167.513C219.324 167.572 214.716 167.624 209.034 167.624C203.35 167.624 198.742 167.575 198.742 167.513C198.742 167.454 203.35 167.402 209.034 167.402C214.716 167.405 219.324 167.454 219.324 167.513Z" fill="#006230" fill-opacity="0.6"/>
<path d="M243.22 167.222C243.22 167.281 241.189 167.333 238.68 167.333C236.172 167.333 234.14 167.284 234.14 167.222C234.14 167.16 236.172 167.111 238.68 167.111C241.189 167.114 243.22 167.163 243.22 167.222Z" fill="#006230" fill-opacity="0.6"/>
<path d="M275.462 144.39H271.237V158.702H275.462V144.39Z" fill="#006230" fill-opacity="0.6"/>
<path d="M301.13 146.99H296.905V158.702H301.13V146.99Z" fill="#006230" fill-opacity="0.6"/>
<path d="M318.241 150.262H314.016V158.702H318.241V150.262Z" fill="#006230" fill-opacity="0.6"/>
<path opacity="0.3" d="M284.017 135.615H279.791V158.702H284.017V135.615Z" fill="black"/>
<path d="M292.573 135.615H288.348V158.702H292.573V135.615Z" fill="#006230" fill-opacity="0.6"/>
<path opacity="0.3" d="M309.684 130.284H305.459V158.702H309.684V130.284Z" fill="black"/>
<path d="M175.666 94.4736H171.917V98.2163H175.666V94.4736Z" fill="#006230" fill-opacity="0.6"/>
<path d="M177.849 99.8509H173.68V95.6886H177.849V99.8509ZM174.103 99.4313H177.429V96.1108H174.103V99.4313Z" fill="#006230" fill-opacity="0.6"/>
<path d="M186.839 95.4672H183.338V98.9628H186.839V95.4672Z" fill="#006230" fill-opacity="0.6"/>
<path d="M192.529 95.4672H189.028V98.9628H192.529V95.4672Z" fill="#006230" fill-opacity="0.6"/>
<path d="M198.222 95.4672H194.721V98.9628H198.222V95.4672Z" fill="#006230" fill-opacity="0.6"/>
<path d="M203.912 95.4672H200.41V98.9628H203.912V95.4672Z" fill="#006230" fill-opacity="0.6"/>
<path d="M209.604 95.4672H206.103V98.9628H209.604V95.4672Z" fill="#006230" fill-opacity="0.6"/>
<path d="M251.818 95.4312H214.812V98.9988H251.818V95.4312Z" fill="#006230" fill-opacity="0.6"/>
<path d="M293.904 95.4312H256.897V98.9988H293.904V95.4312Z" fill="#006230" fill-opacity="0.6"/>
<path d="M330.361 95.4312H298.454V98.9988H330.361V95.4312Z" fill="#CCE0D6"/>
<path d="M330.433 172.635C330.433 171.971 330.402 138.694 330.351 84.4476L330.433 84.53C287.195 84.5377 230.033 84.5454 167.545 84.5557H167.532L167.64 84.4476C167.637 115.607 167.635 145.438 167.632 172.635L167.529 172.532C262.85 172.594 329.495 172.635 330.433 172.635C329.495 172.635 262.853 172.677 167.534 172.738H167.431V172.635C167.429 145.438 167.426 115.607 167.423 84.4476V84.3369H167.534H167.547C230.036 84.3472 287.198 84.3575 330.436 84.3626H330.518V84.445C330.464 138.696 330.433 171.974 330.433 172.635Z" fill="#006230" fill-opacity="0.6"/>
<path d="M319.582 77.3226H156.683V165.51H319.582V77.3226Z" fill="#F5F5F5"/>
<path d="M319.582 77.3226H156.683V84.7488H319.582V77.3226Z" fill="#CCE0D6"/>
<g opacity="0.3">
<path d="M161.189 81.7886C160.829 82.149 160.246 82.149 159.888 81.7886C159.527 81.4283 159.527 80.8465 159.888 80.4887C160.248 80.1284 160.831 80.1284 161.189 80.4887C161.55 80.8465 161.55 81.4283 161.189 81.7886Z" fill="#CCE0D6"/>
</g>
<g opacity="0.3">
<path d="M163.894 82.0563C164.402 82.0563 164.814 81.6449 164.814 81.1374C164.814 80.6299 164.402 80.2184 163.894 80.2184C163.386 80.2184 162.974 80.6299 162.974 81.1374C162.974 81.6449 163.386 82.0563 163.894 82.0563Z" fill="#CCE0D6"/>
</g>
<g opacity="0.3">
<path d="M167.248 82.0563C167.756 82.0563 168.168 81.6449 168.168 81.1374C168.168 80.6299 167.756 80.2184 167.248 80.2184C166.74 80.2184 166.328 80.6299 166.328 81.1374C166.328 81.6449 166.74 82.0563 167.248 82.0563Z" fill="#CCE0D6"/>
</g>
<path opacity="0.3" d="M162.365 97.5188H156.441V165.51H162.365V97.5188Z" fill="#D2E1D9"/>
<g opacity="0.3">
<path d="M156.441 94.8992V100.814L319.513 100.814V94.8992L156.441 94.8992Z" fill="#7FB097"/>
</g>
<path d="M162.365 161.724C162.306 161.724 162.254 146.763 162.254 128.312C162.254 109.856 162.303 94.8984 162.365 94.8984C162.424 94.8984 162.473 109.856 162.473 128.312C162.476 146.763 162.427 161.724 162.365 161.724Z" fill="#006230" fill-opacity="0.6"/>
<path d="M185.661 165.51C185.602 165.51 185.55 149.703 185.55 130.207C185.55 110.703 185.599 94.8984 185.661 94.8984C185.72 94.8984 185.769 110.703 185.769 130.207C185.772 149.703 185.723 165.51 185.661 165.51Z" fill="#006230" fill-opacity="0.6"/>
<path d="M210.372 165.51C210.313 165.51 210.264 149.754 210.264 130.323C210.264 110.883 210.313 95.1326 210.372 95.1326C210.432 95.1326 210.483 110.886 210.483 130.323C210.483 149.754 210.434 165.51 210.372 165.51Z" fill="#006230" fill-opacity="0.6"/>
<path d="M234.501 165.51C234.442 165.51 234.39 149.754 234.39 130.323C234.39 110.883 234.439 95.1326 234.501 95.1326C234.56 95.1326 234.609 110.886 234.609 130.323C234.609 149.754 234.56 165.51 234.501 165.51Z" fill="#006230" fill-opacity="0.6"/>
<path d="M259.194 165.51C259.135 165.51 259.083 149.703 259.083 130.207C259.083 110.703 259.132 94.8984 259.194 94.8984C259.254 94.8984 259.303 110.703 259.303 130.207C259.305 149.703 259.256 165.51 259.194 165.51Z" fill="#006230" fill-opacity="0.6"/>
<path d="M283.89 165.51C283.831 165.51 283.779 149.703 283.779 130.207C283.779 110.703 283.828 94.8984 283.89 94.8984C283.949 94.8984 284.001 110.703 284.001 130.207C283.998 149.703 283.949 165.51 283.89 165.51Z" fill="#006230" fill-opacity="0.6"/>
<path d="M308.583 165.51C308.524 165.51 308.473 149.754 308.473 130.323C308.473 110.883 308.522 95.1326 308.583 95.1326C308.643 95.1326 308.692 110.886 308.692 130.323C308.694 149.754 308.645 165.51 308.583 165.51Z" fill="#006230" fill-opacity="0.6"/>
<path d="M318.615 106.211C318.615 106.271 282.31 106.322 237.535 106.322C192.746 106.322 156.448 106.273 156.448 106.211C156.448 106.15 192.746 106.103 237.535 106.103C282.31 106.101 318.615 106.15 318.615 106.211Z" fill="#006230" fill-opacity="0.6"/>
<path d="M318.615 100.816C318.615 100.875 282.31 100.927 237.535 100.927C192.746 100.927 156.448 100.878 156.448 100.816C156.448 100.757 192.746 100.708 237.535 100.708C282.31 100.705 318.615 100.754 318.615 100.816Z" fill="#006230" fill-opacity="0.6"/>
<path d="M318.615 111.895C318.615 111.954 282.31 112.006 237.535 112.006C192.746 112.006 156.448 111.957 156.448 111.895C156.448 111.836 192.746 111.787 237.535 111.787C282.31 111.784 318.615 111.833 318.615 111.895Z" fill="#006230" fill-opacity="0.6"/>
<path d="M318.615 117.579C318.615 117.638 282.31 117.689 237.535 117.689C192.746 117.689 156.448 117.64 156.448 117.579C156.448 117.519 192.746 117.47 237.535 117.47C282.31 117.468 318.615 117.517 318.615 117.579Z" fill="#006230" fill-opacity="0.6"/>
<path d="M318.615 123.262C318.615 123.321 282.31 123.373 237.535 123.373C192.746 123.373 156.448 123.324 156.448 123.262C156.448 123.2 192.746 123.151 237.535 123.151C282.31 123.151 318.615 123.2 318.615 123.262Z" fill="#006230" fill-opacity="0.6"/>
<path d="M318.615 128.946C318.615 129.005 282.31 129.056 237.535 129.056C192.746 129.056 156.448 129.007 156.448 128.946C156.448 128.884 192.746 128.835 237.535 128.835C282.31 128.835 318.615 128.884 318.615 128.946Z" fill="#006230" fill-opacity="0.6"/>
<path d="M318.615 134.627C318.615 134.686 282.31 134.737 237.535 134.737C192.746 134.737 156.448 134.688 156.448 134.627C156.448 134.567 192.746 134.519 237.535 134.519C282.31 134.519 318.615 134.567 318.615 134.627Z" fill="#006230" fill-opacity="0.6"/>
<path d="M318.615 140.31C318.615 140.369 282.31 140.421 237.535 140.421C192.746 140.421 156.448 140.372 156.448 140.31C156.448 140.251 192.746 140.202 237.535 140.202C282.31 140.202 318.615 140.251 318.615 140.31Z" fill="#006230" fill-opacity="0.6"/>
<path d="M318.615 145.994C318.615 146.053 282.31 146.102 237.535 146.102C192.746 146.102 156.448 146.053 156.448 145.994C156.448 145.935 192.746 145.883 237.535 145.883C282.31 145.886 318.615 145.935 318.615 145.994Z" fill="#006230" fill-opacity="0.6"/>
<path d="M318.615 151.677C318.615 151.736 282.31 151.785 237.535 151.785C192.746 151.785 156.448 151.736 156.448 151.677C156.448 151.618 192.746 151.567 237.535 151.567C282.31 151.569 318.615 151.618 318.615 151.677Z" fill="#006230" fill-opacity="0.6"/>
<path d="M318.615 157.361C318.615 157.42 282.31 157.469 237.535 157.469C192.746 157.469 156.448 157.42 156.448 157.361C156.448 157.302 192.746 157.25 237.535 157.25C282.31 157.253 318.615 157.302 318.615 157.361Z" fill="#006230" fill-opacity="0.6"/>
<path d="M318.615 163.044C318.615 163.104 282.31 163.155 237.535 163.155C192.746 163.155 156.448 163.106 156.448 163.044C156.448 162.985 192.746 162.936 237.535 162.936C282.31 162.936 318.615 162.985 318.615 163.044Z" fill="#006230" fill-opacity="0.6"/>
<path d="M319.51 100.816H162.365V111.895H319.51V100.816Z" fill="#AFCFBF"/>
<path d="M286.079 105.581C286.079 105.64 267.589 105.691 244.783 105.691C221.971 105.691 203.484 105.643 203.484 105.581C203.484 105.519 221.971 105.47 244.783 105.47C267.589 105.473 286.079 105.522 286.079 105.581Z" fill="#FAFAFA"/>
<path d="M293.901 108.737C293.901 108.796 270.778 108.847 242.259 108.847C213.729 108.847 190.611 108.798 190.611 108.737C190.611 108.677 213.732 108.628 242.259 108.628C270.778 108.628 293.901 108.677 293.901 108.737Z" fill="#FAFAFA"/>
<path d="M234.498 117.579H185.661V123.262H234.498V117.579Z" fill="#7DB99A"/>
<path d="M234.498 122.631H185.661V146.617H234.498V122.631Z" fill="#CCE0D6"/>
<path d="M206.322 125.852C206.322 125.911 202.293 125.962 197.322 125.962C192.351 125.962 188.322 125.913 188.322 125.852C188.322 125.79 192.351 125.741 197.322 125.741C202.293 125.741 206.322 125.79 206.322 125.852Z" fill="#006230" fill-opacity="0.6"/>
<path d="M199.134 132.091C199.134 132.15 196.713 132.202 193.728 132.202C190.743 132.202 188.322 132.153 188.322 132.091C188.322 132.032 190.743 131.983 193.728 131.983C196.713 131.98 199.134 132.029 199.134 132.091Z" fill="#006230" fill-opacity="0.6"/>
<path d="M208.062 136.634C208.062 136.694 203.643 136.745 198.193 136.745C192.741 136.745 188.322 136.696 188.322 136.634C188.322 136.575 192.741 136.526 198.193 136.526C203.643 136.526 208.062 136.575 208.062 136.634Z" fill="#006230" fill-opacity="0.6"/>
<path d="M199.134 127.545C199.134 127.605 196.713 127.656 193.728 127.656C190.743 127.656 188.322 127.607 188.322 127.545C188.322 127.486 190.743 127.437 193.728 127.437C196.713 127.437 199.134 127.486 199.134 127.545Z" fill="#006230" fill-opacity="0.6"/>
<path d="M232.686 125.852C232.686 125.911 231.4 125.962 229.817 125.962C228.231 125.962 226.947 125.913 226.947 125.852C226.947 125.79 228.231 125.741 229.817 125.741C231.402 125.741 232.686 125.79 232.686 125.852Z" fill="#006230" fill-opacity="0.6"/>
<path d="M232.686 130.953C232.686 131.013 231.4 131.064 229.817 131.064C228.231 131.064 226.947 131.015 226.947 130.953C226.947 130.892 228.231 130.843 229.817 130.843C231.402 130.845 232.686 130.894 232.686 130.953Z" fill="#006230" fill-opacity="0.6"/>
<path d="M232.686 136.634C232.686 136.694 231.4 136.745 229.817 136.745C228.231 136.745 226.947 136.696 226.947 136.634C226.947 136.575 228.231 136.526 229.817 136.526C231.402 136.526 232.686 136.575 232.686 136.634Z" fill="#006230" fill-opacity="0.6"/>
<path d="M232.371 143.579C232.371 143.638 230.34 143.69 227.831 143.69C225.323 143.69 223.291 143.641 223.291 143.579C223.291 143.517 225.323 143.469 227.831 143.469C230.337 143.471 232.371 143.52 232.371 143.579Z" fill="#006230" fill-opacity="0.6"/>
<path d="M210.372 146.202C210.313 146.202 210.264 141.021 210.264 134.629C210.264 128.235 210.313 123.054 210.372 123.054C210.432 123.054 210.483 128.235 210.483 134.629C210.483 141.021 210.434 146.202 210.372 146.202Z" fill="#006230" fill-opacity="0.6"/>
<path d="M234.091 139.806C234.091 139.865 228.693 139.914 222.033 139.914C215.371 139.914 209.975 139.865 209.975 139.806C209.975 139.746 215.374 139.695 222.033 139.695C228.693 139.698 234.091 139.746 234.091 139.806Z" fill="#006230" fill-opacity="0.6"/>
<path d="M234.498 157.15H185.661V163.044H234.498V157.15Z" fill="#F5F5F5"/>
<path d="M234.498 151.677H185.581V157.361H234.498V151.677Z" fill="#7DB99A"/>
<path d="M208.475 160.388C208.475 160.447 203.868 160.499 198.186 160.499C192.501 160.499 187.894 160.45 187.894 160.388C187.894 160.329 192.501 160.28 198.186 160.28C203.868 160.28 208.475 160.329 208.475 160.388Z" fill="#006230" fill-opacity="0.6"/>
<path d="M232.371 160.097C232.371 160.156 230.34 160.205 227.831 160.205C225.323 160.205 223.291 160.156 223.291 160.097C223.291 160.038 225.323 159.986 227.831 159.986C230.337 159.989 232.371 160.038 232.371 160.097Z" fill="#006230" fill-opacity="0.6"/>
<path d="M264.611 137.265H260.385V151.577H264.611V137.265Z" fill="#006230" fill-opacity="0.3"/>
<path d="M290.281 139.865H286.056V151.577H290.281V139.865Z" fill="#006230" fill-opacity="0.3"/>
<path d="M307.392 143.137H303.167V151.577H307.392V143.137Z" fill="#006230" fill-opacity="0.3"/>
<path opacity="0.3" d="M273.168 128.487H268.942V151.574H273.168V128.487Z" fill="#629D7F"/>
<path d="M281.725 128.487H277.499V151.574H281.725V128.487Z" fill="#006230" fill-opacity="0.3"/>
<path opacity="0.3" d="M298.836 123.159H294.61V151.577H298.836V123.159Z" fill="#629D7F"/>
<path d="M164.817 87.346H161.068V91.0887H164.817V87.346Z" fill="#006230" fill-opacity="0.6"/>
<path d="M167.001 92.7259H162.832V88.5636H167.001V92.7259ZM163.252 92.3063H166.578V88.9858H163.252V92.3063Z" fill="#006230" fill-opacity="0.6"/>
<path d="M175.99 88.3396H172.489V91.8352H175.99V88.3396Z" fill="#006230" fill-opacity="0.4"/>
<path d="M181.68 88.3396H178.179V91.8352H181.68V88.3396Z" fill="#006230" fill-opacity="0.4"/>
<path d="M187.373 88.3396H183.872V91.8352H187.373V88.3396Z" fill="#006230" fill-opacity="0.4"/>
<path d="M193.063 88.3396H189.562V91.8352H193.063V88.3396Z" fill="#006230" fill-opacity="0.4"/>
<path d="M198.753 88.3396H195.252V91.8352H198.753V88.3396Z" fill="#006230" fill-opacity="0.4"/>
<path d="M240.967 88.3036H203.961V91.8713H240.967V88.3036Z" fill="#006230" fill-opacity="0.4"/>
<path d="M283.055 88.3036H246.048V91.8713H283.055V88.3036Z" fill="#006230" fill-opacity="0.4"/>
<path d="M319.512 88.3036H287.605V91.8713H319.512V88.3036Z" fill="#006230" fill-opacity="0.4"/>
<path d="M319.584 165.51C319.584 164.846 319.553 131.569 319.502 77.3226L319.584 77.405C276.347 77.4127 219.184 77.4204 156.696 77.4307H156.683L156.791 77.3226C156.789 108.482 156.786 138.313 156.783 165.51L156.68 165.407C252.001 165.469 318.646 165.51 319.584 165.51C318.646 165.51 252.004 165.554 156.685 165.613H156.582V165.51C156.58 138.313 156.577 108.482 156.575 77.3226V77.2119H156.685H156.698C219.187 77.2222 276.349 77.2325 319.587 77.2377H319.669V77.32C319.615 131.569 319.584 164.846 319.584 165.51Z" fill="#006230" fill-opacity="0.6"/>
<path d="M366.393 181.483L348.895 178.762C348.044 178.63 347.464 177.835 347.596 176.986L351.267 153.446C351.398 152.596 352.195 152.017 353.046 152.148L365.281 154.051L371.051 161.719L368.172 180.185C368.038 181.032 367.241 181.614 366.393 181.483Z" fill="#CCE0D6"/>
<path d="M365.289 153.991L364.56 158.668C364.379 159.824 365.173 160.908 366.331 161.088L371.051 161.714L365.289 153.991Z" fill="#CCE0D6"/>
<g opacity="0.2">
<path d="M365.289 153.991L364.56 158.668C364.379 159.824 365.173 160.908 366.331 161.088L371.051 161.714L365.289 153.991Z" fill="#629D7F"/>
</g>
<path d="M364.49 176.422C364.485 176.417 364.493 176.34 364.511 176.195C364.531 176.028 364.56 175.822 364.593 175.567C364.673 174.993 364.784 174.206 364.923 173.22C365.222 171.189 365.642 168.344 366.145 164.936L366.259 165.093C362.791 164.561 358.694 163.932 354.319 163.261C354.278 163.289 354.665 163.008 354.5 163.129V163.132V163.137L354.497 163.15L354.495 163.176L354.487 163.225L354.471 163.322L354.441 163.518L354.379 163.909C354.337 164.169 354.299 164.427 354.257 164.684C354.178 165.199 354.098 165.709 354.018 166.213C353.858 167.222 353.703 168.211 353.551 169.173C353.247 171.096 352.958 172.913 352.69 174.587L352.574 174.427C356.103 175.006 359.061 175.49 361.169 175.835C362.193 176.01 363.013 176.149 363.606 176.252C363.869 176.301 364.085 176.34 364.255 176.37C364.408 176.399 364.487 176.417 364.49 176.422C364.495 176.427 364.423 176.422 364.284 176.406C364.116 176.386 363.91 176.358 363.655 176.324C363.064 176.242 362.252 176.128 361.236 175.984C359.099 175.67 356.106 175.228 352.53 174.702L352.393 174.682L352.414 174.543C352.672 172.867 352.95 171.047 353.244 169.124C353.394 168.162 353.546 167.173 353.703 166.162C353.781 165.657 353.86 165.145 353.94 164.63C353.982 164.373 354.02 164.113 354.062 163.855L354.123 163.464L354.154 163.268L354.17 163.171L354.178 163.122L354.18 163.096L354.183 163.083V163.078V163.075C354.02 163.194 354.404 162.911 354.366 162.941C358.741 163.629 362.835 164.275 366.297 164.821L366.434 164.841L366.411 164.978C365.846 168.411 365.374 171.279 365.037 173.325C364.869 174.296 364.738 175.068 364.64 175.632C364.596 175.874 364.56 176.069 364.531 176.229C364.511 176.363 364.495 176.43 364.49 176.422Z" fill="#F2F2F2"/>
<path d="M358.388 175.614C358.3 175.601 358.63 173.022 359.125 169.855C359.62 166.689 360.089 164.133 360.177 164.146C360.265 164.159 359.935 166.738 359.44 169.904C358.947 173.07 358.475 175.626 358.388 175.614Z" fill="#F2F2F2"/>
<path d="M364.885 173.606C364.872 173.693 362.178 173.346 358.87 172.831C355.559 172.316 352.889 171.83 352.901 171.742C352.914 171.655 355.608 172.002 358.919 172.517C362.227 173.029 364.897 173.518 364.885 173.606Z" fill="#F2F2F2"/>
<path d="M365.477 170.702C365.465 170.79 362.77 170.442 359.463 169.927C356.152 169.413 353.481 168.926 353.494 168.839C353.507 168.751 356.201 169.099 359.512 169.613C362.819 170.128 365.49 170.617 365.477 170.702Z" fill="#F2F2F2"/>
<path d="M365.841 167.765C365.828 167.853 363.155 167.508 359.87 166.998C356.586 166.489 353.935 166.002 353.948 165.915C353.961 165.827 356.635 166.169 359.919 166.682C363.204 167.194 365.856 167.68 365.841 167.765Z" fill="#F2F2F2"/>
<path d="M287.657 55.1084C287.5 45.314 295.316 37.216 305.082 37.059C314.848 36.9019 322.92 44.7426 323.078 54.5369C323.235 64.3313 315.418 72.4293 305.652 72.5863C295.886 72.7433 287.814 64.9027 287.657 55.1084ZM313.835 54.6862C313.76 50.004 309.901 46.2535 305.232 46.3282C300.563 46.4028 296.825 50.2743 296.899 54.9591C296.974 59.6413 300.834 63.3917 305.503 63.3171C310.172 63.2424 313.91 59.371 313.835 54.6862Z" fill="#8BBFA5"/>
<path d="M287.657 55.1084C287.5 45.314 295.316 37.216 305.082 37.059L305.232 46.3282C300.563 46.4028 296.825 50.2743 296.899 54.9591C296.974 59.6413 300.834 63.3917 305.503 63.3145L305.652 72.5838C295.886 72.7433 287.814 64.9027 287.657 55.1084Z" fill="#CCE0D6"/>
<path d="M303.492 35.6355C314.915 35.4527 324.029 44.305 324.212 55.7622L313.399 55.9372C313.312 50.4596 309.135 47.0077 303.675 47.0978L303.492 35.6355Z" fill="#CCE0D6"/>
<path d="M166.787 204.085L174.165 186.309C174.503 185.498 174.08 184.839 173.222 184.839H171.737C171.131 184.839 170.718 184.507 170.68 183.985L170.631 183.331C170.592 182.811 170.177 182.479 169.571 182.479H162.517C161.968 182.479 161.347 182.754 160.883 183.199L160.31 183.753C159.849 184.201 159.228 184.474 158.678 184.474H149.694C148.835 184.474 147.876 185.13 147.549 185.943L140.234 204.083H166.787V204.085Z" fill="#FF735D"/>
<path d="M166.787 204.085L174.165 186.309C174.503 185.498 174.08 184.839 173.222 184.839H171.737C171.131 184.839 170.718 184.507 170.68 183.985L170.631 183.331C170.592 182.811 170.177 182.479 169.571 182.479H162.517C161.968 182.479 161.347 182.754 160.883 183.199L160.31 183.753C159.849 184.201 159.228 184.474 158.678 184.474H149.694C148.835 184.474 147.876 185.13 147.549 185.943L140.234 204.083H166.787V204.085Z" fill="#F5F5F5"/>
<path d="M168.006 198.049L170.79 187.305C170.973 186.597 170.509 185.889 169.865 185.889H148.051C147.621 185.889 147.242 186.216 147.123 186.69L143.073 202.86C142.895 203.571 143.179 203.995 143.826 203.988L165.773 203.995C166.199 203.99 166.57 203.668 166.691 203.203L168.006 198.049Z" fill="#CCE0D6"/>
<path d="M166.498 203.599L167.684 186.68C167.725 186.08 167.251 185.57 166.647 185.57H144.045V203.599H166.498Z" fill="#CCE0D6"/>
<path d="M166.751 203.988L164.062 186.546C163.938 185.977 163.425 185.573 162.832 185.573H139.966C139.064 185.573 138.456 186.479 138.811 187.292L143.749 203.254L166.751 203.988Z" fill="#AFCFBF"/>
<path d="M166.787 204.078L161.241 187.743C161.009 187.063 160.393 186.607 159.699 186.607H136.128C135.367 186.607 134.833 187.385 135.076 188.134L140.234 204.088L166.787 204.078Z" fill="#CCE0D6"/>
</g>
<defs>
<clipPath id="clip0_441_38225">
<rect width="495" height="278" fill="white"/>
</clipPath>
</defs>
</svg>
