<svg width="290" height="187" viewBox="0 0 290 187" fill="none" xmlns="http://www.w3.org/2000/svg">
<g clip-path="url(#clip0_100_28388)">
<path d="M136.5 198.324C215.477 198.324 279.5 194.185 279.5 189.079C279.5 183.972 215.477 179.833 136.5 179.833C57.5233 179.833 -6.5 183.972 -6.5 189.079C-6.5 194.185 57.5233 198.324 136.5 198.324Z" fill="#DFFCE8" fill-opacity="0.54"/>
<path d="M217.001 29.999H85.4785C73.7737 29.999 64.2852 39.4922 64.2852 51.2027V145.105C64.2852 156.815 73.7737 166.308 85.4785 166.308H217.001C228.706 166.308 238.195 156.815 238.195 145.105V51.2027C238.195 39.4922 228.706 29.999 217.001 29.999Z" fill="#7BED9F"/>
<path d="M235.059 91.9441L273.176 80.2627L235.059 120.682V91.9441Z" fill="#7BED9F"/>
<path d="M188.992 134.01H100.5C100.5 129.278 102.374 124.745 105.722 121.414L107.486 119.63C110.361 116.773 111.962 112.877 111.962 108.818V88.2316C111.962 69.72 127.299 54.7942 145.947 55.4495C148.694 55.5587 151.332 55.9956 153.861 56.7418C152.879 59.3448 152.333 62.1843 152.333 65.1331C152.333 78.3114 163.012 89.0143 176.202 89.0143C176.657 89.0143 177.094 89.0143 177.531 88.9779V108.818C177.531 112.877 179.15 116.773 182.006 119.63L183.771 121.414C185.445 123.089 186.755 125.055 187.646 127.184C188.519 129.332 188.992 131.644 188.992 134.01Z" fill="white"/>
<path d="M162.249 138.808C161.813 148.346 153.808 155.881 144.092 155.535C135.014 155.226 127.846 147.781 127.264 138.808H162.249Z" fill="white"/>
<path d="M250.972 62.3141C250.972 62.3141 248.484 61.3084 240.568 64.9256C232.652 68.5429 231.664 68.0858 229.616 67.5419C227.567 66.998 226.424 66.8574 224.228 63.8355C224.228 63.8355 222.678 55.464 221.17 54.1653C219.663 52.8665 213.299 54.9061 213.299 54.9061C213.299 54.9061 205.658 56.6526 204.202 46.4665C204.202 46.4665 205.235 38.796 203.828 36.4423C203.828 36.4423 206.669 37.6613 211.354 35.6921C216.039 33.7229 219.79 37.8137 219.79 37.8137C219.79 37.8137 220.966 40.8613 220.848 42.6805C220.731 44.4997 221.474 45.1819 223.708 44.3027C223.708 44.3027 224.806 42.7461 223.252 40.1721C221.697 37.598 220.587 35.6827 221.02 33.6854C221.453 31.688 222.701 28.9147 226.711 27.5292C230.721 26.1437 236.165 25.8882 238.778 24.7934C241.391 23.6986 242.036 23 242.036 23C242.036 23 240.427 24.6059 244.216 31.4161C248.004 38.2263 245.589 41.1801 245.589 41.1801C245.589 41.1801 243.574 45.9696 234.674 45.5804C234.674 45.5804 226.1 45.8922 230.775 49.5165C230.775 49.5165 233.769 48.9093 238.244 47.491C242.72 46.0727 245.951 51.9264 246.753 55.9985C247.555 60.0706 250.972 62.3141 250.972 62.3141Z" fill="#00BFA6"/>
<path d="M239.446 28.1586L239.493 28.1445C239.836 29.4433 236.005 34.6664 232.729 38.8182L232.691 38.7877C237.31 32.941 239.712 29.1643 239.446 28.1586Z" fill="#444053"/>
<path d="M232.757 38.707L232.778 38.7586C230.16 42.0735 226.87 46.026 224.236 48.9634C223.984 49.2424 223.735 49.5354 223.495 49.8355L223.42 49.7745C223.655 49.4744 223.911 49.1791 224.163 48.9001C226.795 45.9744 230.137 42.0242 232.757 38.707Z" fill="#444053"/>
<path d="M223.484 49.6992L223.536 49.7883C218.743 55.7546 218.425 65.0263 218.414 65.099L217.402 63.9268C217.414 63.8518 218.658 55.7077 223.484 49.6992Z" fill="#444053"/>
<path d="M245.423 59.0805C245.423 59.0805 239.779 56.1501 235.367 57.205C230.955 58.2599 221.033 53.4776 221.033 53.4776C221.033 53.4776 216.823 51.7732 215.977 49.8298C215.977 49.8298 213.086 46.7822 212.919 45.2092C212.752 43.6361 209.942 39.6719 208.107 39.5195" stroke="#444053" stroke-miterlimit="10"/>
<path d="M244.594 61.8979C244.594 61.8979 241.748 59.9849 242.08 57.7578" stroke="#444053" stroke-miterlimit="10"/>
<path d="M240.228 64.3658C240.228 64.3658 236.157 62.8936 235.76 57.1172" stroke="#444053" stroke-miterlimit="10"/>
<path d="M233.666 65.8615C233.666 65.8615 229.776 62.6451 231.067 57.0234" stroke="#444053" stroke-miterlimit="10"/>
<path d="M225.766 64.2904C225.766 64.2904 223.179 58.8751 225.482 55.3516" stroke="#444053" stroke-miterlimit="10"/>
<path d="M245.478 55.5078C245.478 55.5078 242.536 56.4455 243.167 57.9834" stroke="#444053" stroke-miterlimit="10"/>
<path d="M241.926 50.1953C241.926 50.1953 237.986 51.4401 237.895 56.9938" stroke="#444053" stroke-miterlimit="10"/>
<path d="M236.433 48.8984C236.433 48.8984 232.846 53.3104 233.11 57.3192" stroke="#444053" stroke-miterlimit="10"/>
<path d="M230.155 50.6289C230.155 50.6289 226.594 54.0235 227.048 55.9106" stroke="#444053" stroke-miterlimit="10"/>
<path d="M228.007 49.4306C228.007 49.4306 224.667 50.026 224.199 48.9336" stroke="#444053" stroke-miterlimit="10"/>
<path d="M223.668 45.4141C223.668 45.4141 225.354 47.6412 225.785 47.1418" stroke="#444053" stroke-miterlimit="10"/>
<path d="M240.393 44.0044C240.393 44.0044 231.973 44.6139 230.068 42.082" stroke="#444053" stroke-miterlimit="10"/>
<path d="M221.906 34.1875C221.906 34.1875 225.855 42.6387 228.726 43.7148" stroke="#444053" stroke-miterlimit="10"/>
<path d="M226.039 30.1641C226.039 30.1641 228.464 37.9378 231.469 40.3642" stroke="#444053" stroke-miterlimit="10"/>
<path d="M243.936 37.5875C243.936 37.5875 237.534 40.3257 233.691 37.5547" stroke="#444053" stroke-width="0.75" stroke-miterlimit="10"/>
<path d="M231.74 28.5078C231.74 28.5078 233.203 34.2209 235.174 35.6017" stroke="#444053" stroke-width="0.75" stroke-miterlimit="10"/>
<path d="M242.968 31.1875C242.968 31.1875 239.37 32.5472 238.029 31.5063" stroke="#444053" stroke-width="0.75" stroke-miterlimit="10"/>
<path d="M220.584 47.2812C220.584 47.2812 220.584 52.2629 219.225 52.6169" stroke="#444053" stroke-miterlimit="10"/>
<path d="M209.463 53.7326C209.463 53.7326 214.872 54.2015 217.358 51.4141" stroke="#444053" stroke-miterlimit="10"/>
<path d="M219.193 41.3945C219.193 41.3945 217.885 46.4465 214.277 47.8086" stroke="#444053" stroke-miterlimit="10"/>
<path d="M206.223 48.4122C206.223 48.4122 210.047 49.7367 213.337 46.3633" stroke="#444053" stroke-miterlimit="10"/>
<path opacity="0.1" d="M107.5 91.5312C107.5 91.5312 109.56 92.197 111.305 94.5648L107.5 91.5312Z" fill="black"/>
<g opacity="0.1">
<path opacity="0.1" d="M124.235 65.8359C124.235 65.8523 124.235 65.8664 124.223 65.8828C124.203 65.9439 124.179 66.0035 124.15 66.061C124.173 65.984 124.201 65.9088 124.235 65.8359Z" fill="black"/>
<path opacity="0.1" d="M112.585 64.7985C112.62 64.6486 112.673 64.5037 112.745 64.3672C112.745 64.4024 112.721 64.4399 112.712 64.4774C112.633 64.952 112.666 65.4383 112.808 65.898C112.839 66.1455 112.963 66.3723 113.154 66.5333C113.474 66.7373 113.97 66.5591 114.231 66.8334C114.396 67.0092 114.405 67.321 114.621 67.4289C114.702 67.464 114.791 67.4738 114.878 67.457C115.449 67.3773 115.778 66.7349 116.329 66.5568C116.649 66.4746 116.988 66.5044 117.288 66.6412C117.412 66.6787 117.522 66.7493 117.608 66.8451C117.792 67.0795 117.662 67.4289 117.747 67.7149C117.865 68.1134 118.342 68.2705 118.754 68.322C119.165 68.3736 119.631 68.4041 119.906 68.7159C119.997 68.8314 120.062 68.965 120.098 69.1076C120.133 69.2503 120.137 69.3989 120.111 69.5434C120.086 69.6443 120.086 69.7496 120.111 69.8505C120.223 70.1717 120.781 70.1225 120.927 69.8693C121.035 69.6841 121.002 69.5317 121.253 69.4801C121.433 69.4671 121.613 69.4985 121.778 69.5715C122.224 69.7238 122.694 69.7945 123.165 69.7802C123.554 69.7861 123.935 69.6705 124.254 69.4496C124.394 69.3403 124.508 69.2019 124.588 69.0441C124.516 69.3312 124.35 69.5865 124.118 69.7708C123.799 69.9917 123.418 70.1073 123.029 70.1014C122.558 70.1157 122.088 70.045 121.642 69.8927C121.477 69.8196 121.297 69.7882 121.117 69.8013C120.865 69.8529 120.898 70.0052 120.793 70.1904C120.644 70.4436 120.087 70.4929 119.974 70.1717C119.951 70.0707 119.951 69.9656 119.974 69.8646C120.001 69.7201 119.997 69.5715 119.961 69.4288C119.926 69.2861 119.861 69.1526 119.769 69.037C119.494 68.7253 119.031 68.6971 118.617 68.6432C118.203 68.5893 117.728 68.4346 117.611 68.036C117.526 67.75 117.655 67.4007 117.472 67.1663C117.387 67.0708 117.277 67.0003 117.154 66.9623C116.852 66.8267 116.513 66.7969 116.192 66.8779C115.644 67.0561 115.313 67.6984 114.741 67.7782C114.655 67.795 114.566 67.7852 114.485 67.75C114.269 67.6422 114.25 67.3304 114.095 67.1546C113.834 66.8803 113.34 67.0584 113.02 66.8545C112.827 66.6943 112.703 66.4673 112.672 66.2192C112.532 65.7589 112.502 65.2724 112.585 64.7985Z" fill="black"/>
</g>
<path opacity="0.1" d="M87.0577 87.656C86.6626 88.1858 86.2134 88.6757 85.8653 89.2337C85.4872 89.7837 85.3035 90.4435 85.3432 91.1091C85.703 90.7411 85.87 90.23 86.0958 89.7682C86.4815 88.9852 87.0553 88.3217 87.5421 87.6044C87.6339 87.4661 88.2265 86.6667 87.9278 86.6338C87.6786 86.5987 87.1917 87.4755 87.0577 87.656Z" fill="black"/>
<path d="M104.291 60.6135C103.825 60.6135 103.378 60.4343 103.02 60.0939L89.2051 46.2614C88.5072 45.5626 88.5072 44.4338 89.2051 43.735C89.903 43.0362 91.0304 43.0362 91.7283 43.735L105.543 57.5675C106.241 58.2663 106.241 59.3951 105.543 60.0939C105.186 60.4522 104.738 60.6135 104.273 60.6135H104.291Z" fill="#FA5258"/>
<path d="M113.165 56.8014C112.324 56.8014 111.573 56.2101 111.411 55.3501L108.87 42.1269C108.691 41.1593 109.318 40.2097 110.284 40.0305C111.25 39.8514 112.199 40.4785 112.378 41.446L114.919 54.6692C115.098 55.6368 114.472 56.5864 113.505 56.7656C113.398 56.7835 113.273 56.8014 113.165 56.8014Z" fill="#FA5258"/>
<path d="M100.496 69.5045C100.388 69.5045 100.263 69.5045 100.156 69.4686L86.9492 66.9243C85.9828 66.7451 85.3386 65.7955 85.5354 64.8279C85.7144 63.8604 86.6628 63.2153 87.6292 63.4124L100.836 65.9568C101.802 66.1359 102.446 67.0856 102.25 68.0531C102.089 68.9132 101.337 69.5045 100.496 69.5045Z" fill="#FA5258"/>
<circle cx="147" cy="87" r="31" fill="white"/>
</g>
<defs>
<clipPath id="clip0_100_28388">
<rect width="289" height="187" fill="white" transform="translate(0.5)"/>
</clipPath>
</defs>
</svg>
