<svg width="829" height="636" viewBox="0 0 829 636" fill="none" xmlns="http://www.w3.org/2000/svg">
<path d="M804.131 0.919998H656.131V148.92H804.131V0.919998Z" fill="#A1C5B3"/>
<path d="M804.13 148.92C804.13 148.92 804.11 148.67 804.1 148.21C804.09 147.71 804.08 147.04 804.07 146.15C804.06 144.31 804.04 141.64 804.01 138.18C803.98 131.19 803.94 121.01 803.88 108.06C803.82 82.16 803.73 45.22 803.63 0.929993L804.12 1.42C761.1 1.44 710.32 1.47 656.13 1.5H656.12L656.69 0.929993C656.66 55.12 656.64 105.91 656.61 148.93L656.12 148.44C700.42 148.54 737.36 148.63 763.26 148.69C776.21 148.75 786.39 148.79 793.38 148.82C796.84 148.84 799.51 148.86 801.35 148.88C802.23 148.89 802.91 148.9 803.41 148.91C803.88 148.9 804.13 148.92 804.13 148.92C804.13 148.92 803.92 148.94 803.47 148.95C802.99 148.96 802.33 148.97 801.47 148.98C799.65 148.99 797.02 149.01 793.6 149.04C786.64 149.07 776.49 149.11 763.59 149.17C737.62 149.23 700.57 149.32 656.14 149.42H655.65V148.93C655.63 105.91 655.6 55.12 655.57 0.929993V0.360001H656.14H656.15C710.33 0.390001 761.11 0.410002 804.14 0.440002H804.63V0.929993C804.53 45.36 804.44 82.4 804.38 108.38C804.33 121.28 804.28 131.43 804.25 138.39C804.23 141.81 804.21 144.45 804.19 146.27C804.18 147.13 804.17 147.79 804.16 148.28C804.15 148.7 804.13 148.92 804.13 148.92Z" fill="#E1E1E1"/>
<path d="M711.971 70.38H777.701" stroke="#A1C5B3" stroke-width="3" stroke-miterlimit="10"/>
<path d="M711.971 115.31H773.421" stroke="#A1C5B3" stroke-width="3" stroke-miterlimit="10"/>
<path d="M803.491 38.8C803.491 39.11 770.501 39.37 729.811 39.37C689.111 39.37 656.131 39.12 656.131 38.8C656.131 38.48 689.111 38.23 729.811 38.23C770.501 38.23 803.491 38.48 803.491 38.8Z" fill="#E1E1E1"/>
<path d="M670.53 23.27C672.844 23.27 674.72 21.3941 674.72 19.08C674.72 16.7659 672.844 14.89 670.53 14.89C668.216 14.89 666.34 16.7659 666.34 19.08C666.34 21.3941 668.216 23.27 670.53 23.27Z" fill="#CCE0D6"/>
<path d="M683.331 23.27C685.645 23.27 687.521 21.3941 687.521 19.08C687.521 16.7659 685.645 14.89 683.331 14.89C681.016 14.89 679.141 16.7659 679.141 19.08C679.141 21.3941 681.016 23.27 683.331 23.27Z" fill="#CCE0D6"/>
<path d="M700.319 19.08C700.319 21.39 698.44 23.27 696.13 23.27C693.82 23.27 691.939 21.39 691.939 19.08C691.939 16.77 693.82 14.89 696.13 14.89C698.44 14.9 700.319 16.77 700.319 19.08Z" fill="#CCE0D6"/>
<path d="M686.11 82.33C692.754 82.33 698.14 76.944 698.14 70.3C698.14 63.656 692.754 58.27 686.11 58.27C679.466 58.27 674.08 63.656 674.08 70.3C674.08 76.944 679.466 82.33 686.11 82.33Z" fill="#CCE0D6"/>
<path d="M698.14 114.46C698.14 121.1 692.75 126.49 686.11 126.49C679.47 126.49 674.08 121.1 674.08 114.46C674.08 107.82 679.46 102.43 686.11 102.43C692.76 102.43 698.14 107.82 698.14 114.46Z" fill="#CCE0D6"/>
<path d="M782.041 171.4C807.805 171.4 828.691 150.514 828.691 124.75C828.691 98.9859 807.805 78.1 782.041 78.1C756.277 78.1 735.391 98.9859 735.391 124.75C735.391 150.514 756.277 171.4 782.041 171.4Z" fill="#CCE0D6"/>
<path d="M786.42 107.05H782.07V141.69H786.42V107.05Z" fill="#A1C5B3"/>
<path d="M801.57 122.2H766.93V126.55H801.57V122.2Z" fill="#A1C5B3"/>
<path d="M109.731 433.725C127.349 426.268 135.586 405.941 128.129 388.323C120.671 370.705 100.344 362.468 82.7261 369.925C65.1082 377.383 56.8715 397.71 64.3289 415.328C71.7862 432.946 92.1136 441.183 109.731 433.725Z" fill="#CCE0D6"/>
<path d="M99.48 388.68H96.25V414.4H99.48V388.68Z" fill="#A1C5B3"/>
<path d="M110.73 399.93H85.0098V403.16H110.73V399.93Z" fill="#A1C5B3"/>
<path d="M669.39 535.82H199.669C195.719 535.82 192.52 532.62 192.52 528.67V136.58C192.52 132.63 195.719 129.43 199.669 129.43H669.39C673.34 129.43 676.54 132.63 676.54 136.58V528.67C676.54 532.62 673.34 535.82 669.39 535.82Z" fill="#CCE0D6"/>
<path d="M192.52 178.33H676.54" stroke="#A1C5B3" stroke-width="1.9411" stroke-miterlimit="10"/>
<path d="M669.39 535.82H199.669C195.719 535.82 192.52 532.62 192.52 528.67V136.58C192.52 132.63 195.719 129.43 199.669 129.43H669.39C673.34 129.43 676.54 132.63 676.54 136.58V528.67C676.54 532.62 673.34 535.82 669.39 535.82Z" stroke="#CCE0D6" stroke-width="1.9411" stroke-miterlimit="10"/>
<path d="M233.439 161.19C237.206 161.19 240.259 158.137 240.259 154.37C240.259 150.603 237.206 147.55 233.439 147.55C229.673 147.55 226.619 150.603 226.619 154.37C226.619 158.137 229.673 161.19 233.439 161.19Z" fill="#CCE0D6"/>
<path d="M259.959 161.19C263.725 161.19 266.779 158.137 266.779 154.37C266.779 150.603 263.725 147.55 259.959 147.55C256.192 147.55 253.139 150.603 253.139 154.37C253.139 158.137 256.192 161.19 259.959 161.19Z" fill="#CCE0D6"/>
<path d="M286.478 161.19C290.245 161.19 293.298 158.137 293.298 154.37C293.298 150.603 290.245 147.55 286.478 147.55C282.712 147.55 279.658 150.603 279.658 154.37C279.658 158.137 282.712 161.19 286.478 161.19Z" fill="#CCE0D6"/>
<path d="M2.60938 633.07H480.869" stroke="#CCE0D6" stroke-width="5" stroke-miterlimit="10" stroke-linecap="round"/>
<path d="M630.139 633.07H712.749" stroke="#CCE0D6" stroke-width="5" stroke-miterlimit="10" stroke-linecap="round"/>
<path d="M674.488 262.81H193.148V322.67H674.488V262.81Z" fill="#A1C5B3"/>
<path d="M674.488 351.56H193.148V412.1H674.488V351.56Z" fill="#A1C5B3"/>
<path d="M674.488 441.03H193.148V497.4H674.488V441.03Z" fill="#A1C5B3"/>
<path d="M223.18 47.8H68.0703V186.57H223.18V47.8Z" fill="#CCE0D6"/>
<path d="M223.18 186.57C223.18 186.57 223.15 185.68 223.14 183.99C223.13 182.29 223.12 179.8 223.1 176.55C223.08 170.03 223.05 160.51 223.01 148.38C222.97 124.13 222.9 89.49 222.83 47.79L223.18 48.14C178.51 48.16 125.2 48.18 68.0902 48.2H68.0802L68.4902 47.79C68.4702 98.28 68.4502 145.78 68.4402 186.56L68.0802 186.2C114.35 186.28 153.08 186.34 180.27 186.38C193.87 186.42 204.58 186.45 211.91 186.48C215.56 186.5 218.37 186.51 220.29 186.52C221.23 186.53 221.95 186.54 222.45 186.54C222.92 186.56 223.18 186.57 223.18 186.57C223.18 186.57 222.95 186.58 222.48 186.59C221.98 186.59 221.28 186.6 220.36 186.61C218.46 186.62 215.68 186.63 212.05 186.65C204.74 186.67 194.06 186.71 180.49 186.75C153.25 186.79 114.44 186.86 68.0702 186.93H67.7102V186.56C67.7002 145.78 67.6802 98.28 67.6602 47.79V47.38H68.0702H68.0802C125.19 47.4 178.5 47.42 223.17 47.44H223.52V47.79C223.44 89.58 223.38 124.3 223.34 148.6C223.3 160.7 223.27 170.19 223.25 176.69C223.23 179.9 223.22 182.37 223.21 184.06C223.2 185.73 223.18 186.57 223.18 186.57Z" fill="#A1C5B3"/>
<path d="M97.8698 100.53H91.3398V107.06H97.8698V100.53Z" fill="#A1C5B3"/>
<path d="M113.96 100.53H107.43V107.06H113.96V100.53Z" fill="#A1C5B3"/>
<path d="M130.341 100.23H123.811V106.76H130.341V100.23Z" fill="#A1C5B3"/>
<path d="M146.13 100.53H139.6V107.06H146.13V100.53Z" fill="#A1C5B3"/>
<path d="M162.21 100.53H155.68V107.06H162.21V100.53Z" fill="#A1C5B3"/>
<path d="M178.299 100.53H171.77V107.06H178.299V100.53Z" fill="#A1C5B3"/>
<path d="M194.389 100.53H187.859V107.06H194.389V100.53Z" fill="#A1C5B3"/>
<path d="M97.8698 114.42H91.3398V120.95H97.8698V114.42Z" fill="#A1C5B3"/>
<path d="M113.96 114.42H107.43V120.95H113.96V114.42Z" fill="#A1C5B3"/>
<path d="M130.04 114.42H123.51V120.95H130.04V114.42Z" fill="#A1C5B3"/>
<path d="M146.13 114.42H139.6V120.95H146.13V114.42Z" fill="#A1C5B3"/>
<path d="M162.21 114.42H155.68V120.95H162.21V114.42Z" fill="#A1C5B3"/>
<path d="M178.6 114.12H172.07V120.65H178.6V114.12Z" fill="#A1C5B3"/>
<path d="M194.389 114.42H187.859V120.95H194.389V114.42Z" fill="#A1C5B3"/>
<path d="M97.8698 128.31H91.3398V134.84H97.8698V128.31Z" fill="#A1C5B3"/>
<path d="M114.251 128.01H107.721V134.54H114.251V128.01Z" fill="#A1C5B3"/>
<path d="M130.04 128.31H123.51V134.84H130.04V128.31Z" fill="#A1C5B3"/>
<path d="M146.13 128.31H139.6V134.84H146.13V128.31Z" fill="#A1C5B3"/>
<path d="M162.21 128.31H155.68V134.84H162.21V128.31Z" fill="#A1C5B3"/>
<path d="M178.299 128.31H171.77V134.84H178.299V128.31Z" fill="#A1C5B3"/>
<path d="M194.389 128.31H187.859V134.84H194.389V128.31Z" fill="#A1C5B3"/>
<path d="M97.8698 142.2H91.3398V148.73H97.8698V142.2Z" fill="#A1C5B3"/>
<path d="M113.96 142.2H107.43V148.73H113.96V142.2Z" fill="#A1C5B3"/>
<path d="M130.04 142.2H123.51V148.73H130.04V142.2Z" fill="#A1C5B3"/>
<path d="M146.43 141.91H139.9V148.44H146.43V141.91Z" fill="#A1C5B3"/>
<path d="M162.21 142.2H155.68V148.73H162.21V142.2Z" fill="#A1C5B3"/>
<path d="M178.299 142.2H171.77V148.73H178.299V142.2Z" fill="#A1C5B3"/>
<path d="M194.389 142.2H187.859V148.73H194.389V142.2Z" fill="#A1C5B3"/>
<path d="M97.8698 156.1H91.3398V162.63H97.8698V156.1Z" fill="#A1C5B3"/>
<path d="M113.96 156.1H107.43V162.63H113.96V156.1Z" fill="#A1C5B3"/>
<path d="M130.04 156.1H123.51V162.63H130.04V156.1Z" fill="#A1C5B3"/>
<path d="M146.13 156.1H139.6V162.63H146.13V156.1Z" fill="#A1C5B3"/>
<path d="M162.21 156.1H155.68V162.63H162.21V156.1Z" fill="#A1C5B3"/>
<path d="M178.6 155.8H172.07V162.33H178.6V155.8Z" fill="#A1C5B3"/>
<path d="M194.389 156.1H187.859V162.63H194.389V156.1Z" fill="#A1C5B3"/>
<path d="M240.791 205.852H245.244L255.714 231.425H256.075L266.545 205.852H270.998V236.66H267.508V213.253H267.207L257.579 236.66H254.21L244.582 213.253H244.281V236.66H240.791V205.852ZM280.283 245.325C279.682 245.325 279.145 245.275 278.674 245.174C278.202 245.084 277.876 244.994 277.696 244.904L278.598 241.775C279.461 241.995 280.223 242.076 280.885 242.015C281.547 241.955 282.134 241.659 282.645 241.128C283.167 240.606 283.643 239.759 284.074 238.586L284.736 236.78L276.192 213.554H280.043L286.421 231.967H286.662L293.04 213.554H296.891L287.083 240.03C286.642 241.223 286.095 242.211 285.443 242.993C284.791 243.785 284.034 244.372 283.172 244.753C282.319 245.134 281.356 245.325 280.283 245.325ZM312.288 209.161V205.852H335.394V209.161H325.706V236.66H321.975V209.161H312.288ZM340.67 236.66V213.554H344.22V236.66H340.67ZM342.475 209.703C341.783 209.703 341.187 209.467 340.685 208.996C340.194 208.524 339.948 207.958 339.948 207.296C339.948 206.634 340.194 206.067 340.685 205.596C341.187 205.125 341.783 204.889 342.475 204.889C343.167 204.889 343.759 205.125 344.25 205.596C344.752 206.067 345.003 206.634 345.003 207.296C345.003 207.958 344.752 208.524 344.25 208.996C343.759 209.467 343.167 209.703 342.475 209.703ZM360.11 237.141C357.944 237.141 356.078 236.63 354.514 235.607C352.949 234.584 351.746 233.175 350.903 231.38C350.061 229.585 349.64 227.534 349.64 225.227C349.64 222.88 350.071 220.81 350.933 219.014C351.806 217.209 353.019 215.8 354.574 214.787C356.138 213.764 357.964 213.253 360.05 213.253C361.674 213.253 363.138 213.554 364.442 214.155C365.746 214.757 366.814 215.6 367.646 216.683C368.479 217.766 368.995 219.029 369.196 220.474H365.646C365.375 219.421 364.773 218.488 363.84 217.676C362.918 216.853 361.674 216.442 360.11 216.442C358.726 216.442 357.512 216.803 356.469 217.525C355.436 218.237 354.629 219.245 354.047 220.549C353.476 221.843 353.19 223.362 353.19 225.107C353.19 226.892 353.471 228.446 354.032 229.77C354.604 231.094 355.406 232.122 356.439 232.854C357.482 233.586 358.706 233.952 360.11 233.952C361.032 233.952 361.87 233.792 362.622 233.471C363.374 233.15 364.011 232.689 364.532 232.087C365.054 231.485 365.425 230.763 365.646 229.921H369.196C368.995 231.285 368.499 232.513 367.707 233.606C366.924 234.689 365.886 235.552 364.593 236.194C363.309 236.825 361.815 237.141 360.11 237.141ZM377.695 228.236L377.635 223.843H378.357L388.466 213.554H392.859L382.088 224.445H381.787L377.695 228.236ZM374.386 236.66V205.852H377.936V236.66H374.386ZM389.068 236.66L380.042 225.227L382.569 222.76L393.581 236.66H389.068ZM406.164 237.141C403.938 237.141 402.017 236.65 400.403 235.667C398.798 234.674 397.56 233.29 396.687 231.515C395.825 229.73 395.393 227.654 395.393 225.287C395.393 222.921 395.825 220.835 396.687 219.029C397.56 217.214 398.773 215.8 400.328 214.787C401.892 213.764 403.717 213.253 405.803 213.253C407.007 213.253 408.195 213.453 409.368 213.855C410.542 214.256 411.61 214.908 412.573 215.81C413.535 216.703 414.303 217.886 414.874 219.36C415.446 220.835 415.732 222.65 415.732 224.806V226.31H397.921V223.242H412.121C412.121 221.938 411.861 220.774 411.339 219.752C410.828 218.729 410.096 217.921 409.143 217.33C408.2 216.738 407.087 216.442 405.803 216.442C404.389 216.442 403.166 216.793 402.133 217.495C401.11 218.187 400.323 219.09 399.771 220.203C399.219 221.316 398.944 222.509 398.944 223.783V225.829C398.944 227.574 399.244 229.053 399.846 230.267C400.458 231.47 401.305 232.388 402.388 233.02C403.472 233.641 404.73 233.952 406.164 233.952C407.097 233.952 407.939 233.822 408.692 233.561C409.454 233.29 410.111 232.889 410.662 232.358C411.214 231.816 411.64 231.144 411.941 230.342L415.371 231.305C415.01 232.468 414.403 233.491 413.55 234.373C412.698 235.246 411.645 235.928 410.391 236.419C409.138 236.901 407.729 237.141 406.164 237.141ZM431.181 213.554V216.562H419.207V213.554H431.181ZM422.697 208.018H426.247V230.041C426.247 231.044 426.392 231.796 426.683 232.297C426.984 232.789 427.365 233.12 427.826 233.29C428.298 233.451 428.794 233.531 429.316 233.531C429.707 233.531 430.028 233.511 430.278 233.471C430.529 233.421 430.73 233.381 430.88 233.351L431.602 236.54C431.362 236.63 431.026 236.72 430.594 236.81C430.163 236.911 429.617 236.961 428.955 236.961C427.952 236.961 426.969 236.745 426.006 236.314C425.054 235.883 424.261 235.226 423.629 234.343C423.008 233.461 422.697 232.348 422.697 231.004V208.018Z" fill="#A1C5B3"/>
<path d="M89.2988 70.09H135.159" stroke="#A1C5B3" stroke-width="2" stroke-miterlimit="10"/>
<path d="M89.2988 83.09H192.939" stroke="#A1C5B3" stroke-width="2" stroke-miterlimit="10"/>
<path d="M260.549 282.74H468.749" stroke="#CCE0E0" stroke-width="5" stroke-miterlimit="10" stroke-linecap="round"/>
<path d="M260.549 302.74H371.529" stroke="#CCE0E0" stroke-width="5" stroke-miterlimit="10" stroke-linecap="round"/>
<path d="M260.549 371.83H468.749" stroke="#CCE0E0" stroke-width="5" stroke-miterlimit="10" stroke-linecap="round"/>
<path d="M260.549 391.83H371.529" stroke="#CCE0E0" stroke-width="5" stroke-miterlimit="10" stroke-linecap="round"/>
<path d="M260.549 459.22H468.749" stroke="#CCE0E0" stroke-width="5" stroke-miterlimit="10" stroke-linecap="round"/>
<path d="M260.549 479.22H371.529" stroke="#CCE0E0" stroke-width="5" stroke-miterlimit="10" stroke-linecap="round"/>
<path d="M227.25 299.5C231.806 299.5 235.5 295.806 235.5 291.25C235.5 286.694 231.806 283 227.25 283C222.694 283 219 286.694 219 291.25C219 295.806 222.694 299.5 227.25 299.5Z" fill="#CCE0D6" stroke="#CCE0E0" stroke-width="2" stroke-miterlimit="10" stroke-linecap="round"/>
<path d="M227.25 388.59C231.806 388.59 235.5 384.896 235.5 380.34C235.5 375.784 231.806 372.09 227.25 372.09C222.694 372.09 219 375.784 219 380.34C219 384.896 222.694 388.59 227.25 388.59Z" fill="#CCE0D6" stroke="#CCE0E0" stroke-width="2" stroke-miterlimit="10" stroke-linecap="round"/>
<path d="M227.25 475.98C231.806 475.98 235.5 472.286 235.5 467.73C235.5 463.174 231.806 459.48 227.25 459.48C222.694 459.48 219 463.174 219 467.73C219 472.286 222.694 475.98 227.25 475.98Z" fill="#CCE0D6" stroke="#CCE0E0" stroke-width="2" stroke-miterlimit="10" stroke-linecap="round"/>
<path d="M639.16 302.37H587.8C585.52 302.37 583.67 300.52 583.67 298.24V287.23C583.67 284.95 585.52 283.1 587.8 283.1H639.16C641.44 283.1 643.29 284.95 643.29 287.23V298.24C643.29 300.53 641.44 302.37 639.16 302.37Z" fill="#CCE0D6" stroke="#98B8A8" stroke-width="2" stroke-miterlimit="10" stroke-linecap="round"/>
<path d="M639.16 391.46H587.8C585.52 391.46 583.67 389.61 583.67 387.33V376.32C583.67 374.04 585.52 372.19 587.8 372.19H639.16C641.44 372.19 643.29 374.04 643.29 376.32V387.33C643.29 389.61 641.44 391.46 639.16 391.46Z" fill="#CCE0D6" stroke="#98B8A8" stroke-width="2" stroke-miterlimit="10" stroke-linecap="round"/>
<path d="M639.16 478.85H587.8C585.52 478.85 583.67 477 583.67 474.72V463.71C583.67 461.43 585.52 459.58 587.8 459.58H639.16C641.44 459.58 643.29 461.43 643.29 463.71V474.72C643.29 477 641.44 478.85 639.16 478.85Z" fill="#CCE0D6" stroke="#98B8A8" stroke-width="2" stroke-miterlimit="10" stroke-linecap="round"/>
</svg>
