<svg width="605" height="430" viewBox="0 0 605 430" fill="none" xmlns="http://www.w3.org/2000/svg">
<path d="M100.342 299.225L58.2813 320.719L70.396 326.51L55.3506 344.255L67.0904 353.745L81.6246 334.681L91.3708 344.986L100.342 299.225Z" fill="#006230" fill-opacity="0.3"/>
<path d="M564.37 342.599H164.195C160.83 342.599 158.104 339.909 158.104 336.589V7.01006C158.104 3.68982 160.83 1 164.195 1H564.37C567.736 1 570.462 3.68982 570.462 7.01006V336.589C570.462 339.909 567.736 342.599 564.37 342.599Z" fill="#E0EEE7"/>
<path d="M564.37 342.099H164.195C161.099 342.099 158.604 339.626 158.604 336.589V7.01006C158.604 3.97227 161.099 1.5 164.195 1.5H564.37C567.466 1.5 569.962 3.97228 569.962 7.01006V336.589C569.962 339.626 567.466 342.099 564.37 342.099Z" stroke="#006230" stroke-opacity="0.6"/>
<path d="M158.104 42.1038H570.462" stroke="#006230" stroke-opacity="0.6" stroke-width="1.9411" stroke-miterlimit="10"/>
<path d="M564.37 342.599H164.195C160.83 342.599 158.104 339.909 158.104 336.589V7.01006C158.104 3.68981 160.83 1 164.195 1H564.37C567.736 1 570.462 3.68981 570.462 7.01006V336.589C570.462 339.909 567.736 342.599 564.37 342.599Z" stroke="#006230" stroke-opacity="0.6" stroke-width="1.9411" stroke-miterlimit="10"/>
<path d="M192.965 27.6965C196.174 27.6965 198.775 25.1299 198.775 21.9638C198.775 18.7977 196.174 16.2311 192.965 16.2311C189.756 16.2311 187.155 18.7977 187.155 21.9638C187.155 25.1299 189.756 27.6965 192.965 27.6965Z" fill="#006230" fill-opacity="0.6"/>
<path d="M215.559 27.6965C218.768 27.6965 221.369 25.1299 221.369 21.9638C221.369 18.7977 218.768 16.2311 215.559 16.2311C212.35 16.2311 209.749 18.7977 209.749 21.9638C209.749 25.1299 212.35 27.6965 215.559 27.6965Z" fill="#006230" fill-opacity="0.6"/>
<path d="M238.152 27.6965C241.361 27.6965 243.962 25.1299 243.962 21.9638C243.962 18.7977 241.361 16.2311 238.152 16.2311C234.943 16.2311 232.342 18.7977 232.342 21.9638C232.342 25.1299 234.943 27.6965 238.152 27.6965Z" fill="#006230" fill-opacity="0.6"/>
<path d="M246.902 281.035H30.9763C26.1032 281.035 22.1587 277.135 22.1587 272.336V189.388C22.1587 184.58 26.1117 180.688 30.9763 180.688H246.91C251.783 180.688 255.728 184.589 255.728 189.388V272.336C255.728 277.135 251.775 281.035 246.902 281.035Z" fill="#E0EEE7" stroke="#64A081" stroke-miterlimit="10"/>
<path d="M50.4775 199.315C50.4775 201.728 48.501 203.678 46.0559 203.678C43.6108 203.678 41.6343 201.728 41.6343 199.315C41.6343 196.903 43.6108 194.953 46.0559 194.953C48.501 194.953 50.4775 196.903 50.4775 199.315Z" stroke="#8F9D96" stroke-width="1.4768" stroke-miterlimit="10"/>
<path d="M63.2483 203.678C65.6902 203.678 67.6699 201.725 67.6699 199.315C67.6699 196.906 65.6902 194.953 63.2483 194.953C60.8063 194.953 58.8267 196.906 58.8267 199.315C58.8267 201.725 60.8063 203.678 63.2483 203.678Z" stroke="#8F9D96" stroke-width="1.4768" stroke-miterlimit="10"/>
<path d="M80.4318 203.678C82.8738 203.678 84.8534 201.725 84.8534 199.315C84.8534 196.906 82.8738 194.953 80.4318 194.953C77.9899 194.953 76.0103 196.906 76.0103 199.315C76.0103 201.725 77.9899 203.678 80.4318 203.678Z" stroke="#8F9D96" stroke-width="1.4768" stroke-miterlimit="10"/>
<path d="M22.1504 215.833H255.728" stroke="#64A081" stroke-width="1.4768" stroke-miterlimit="10"/>
<path d="M514.202 268.78H225.387C216.681 268.78 209.629 263.515 209.629 257.014V93.9397C209.629 87.4391 216.681 82.1737 225.387 82.1737H514.202C522.908 82.1737 529.96 87.4391 529.96 93.9397V257.023C529.96 263.515 522.908 268.78 514.202 268.78Z" fill="#CEE1D8" stroke="#64A081" stroke-miterlimit="10"/>
<path d="M86 257.318C84.2879 257.318 82.8295 256.852 81.625 255.92C80.4205 254.981 79.5 253.621 78.8636 251.841C78.2273 250.053 77.9091 247.894 77.9091 245.364C77.9091 242.848 78.2273 240.701 78.8636 238.92C79.5076 237.133 80.4318 235.769 81.6364 234.83C82.8485 233.883 84.303 233.409 86 233.409C87.697 233.409 89.1477 233.883 90.3523 234.83C91.5644 235.769 92.4886 237.133 93.125 238.92C93.7689 240.701 94.0909 242.848 94.0909 245.364C94.0909 247.894 93.7727 250.053 93.1364 251.841C92.5 253.621 91.5795 254.981 90.375 255.92C89.1705 256.852 87.7121 257.318 86 257.318ZM86 254.818C87.697 254.818 89.0152 254 89.9545 252.364C90.8939 250.727 91.3636 248.394 91.3636 245.364C91.3636 243.348 91.1477 241.633 90.7159 240.216C90.2917 238.799 89.678 237.72 88.875 236.977C88.0795 236.235 87.1212 235.864 86 235.864C84.3182 235.864 83.0038 236.693 82.0568 238.352C81.1098 240.004 80.6364 242.341 80.6364 245.364C80.6364 247.379 80.8485 249.091 81.2727 250.5C81.697 251.909 82.3068 252.981 83.1023 253.716C83.9053 254.451 84.8712 254.818 86 254.818ZM106 257.318C104.288 257.318 102.83 256.852 101.625 255.92C100.42 254.981 99.5 253.621 98.8636 251.841C98.2273 250.053 97.9091 247.894 97.9091 245.364C97.9091 242.848 98.2273 240.701 98.8636 238.92C99.5076 237.133 100.432 235.769 101.636 234.83C102.848 233.883 104.303 233.409 106 233.409C107.697 233.409 109.148 233.883 110.352 234.83C111.564 235.769 112.489 237.133 113.125 238.92C113.769 240.701 114.091 242.848 114.091 245.364C114.091 247.894 113.773 250.053 113.136 251.841C112.5 253.621 111.58 254.981 110.375 255.92C109.17 256.852 107.712 257.318 106 257.318ZM106 254.818C107.697 254.818 109.015 254 109.955 252.364C110.894 250.727 111.364 248.394 111.364 245.364C111.364 243.348 111.148 241.633 110.716 240.216C110.292 238.799 109.678 237.72 108.875 236.977C108.08 236.235 107.121 235.864 106 235.864C104.318 235.864 103.004 236.693 102.057 238.352C101.11 240.004 100.636 242.341 100.636 245.364C100.636 247.379 100.848 249.091 101.273 250.5C101.697 251.909 102.307 252.981 103.102 253.716C103.905 254.451 104.871 254.818 106 254.818ZM126 257.318C124.288 257.318 122.83 256.852 121.625 255.92C120.42 254.981 119.5 253.621 118.864 251.841C118.227 250.053 117.909 247.894 117.909 245.364C117.909 242.848 118.227 240.701 118.864 238.92C119.508 237.133 120.432 235.769 121.636 234.83C122.848 233.883 124.303 233.409 126 233.409C127.697 233.409 129.148 233.883 130.352 234.83C131.564 235.769 132.489 237.133 133.125 238.92C133.769 240.701 134.091 242.848 134.091 245.364C134.091 247.894 133.773 250.053 133.136 251.841C132.5 253.621 131.58 254.981 130.375 255.92C129.17 256.852 127.712 257.318 126 257.318ZM126 254.818C127.697 254.818 129.015 254 129.955 252.364C130.894 250.727 131.364 248.394 131.364 245.364C131.364 243.348 131.148 241.633 130.716 240.216C130.292 238.799 129.678 237.72 128.875 236.977C128.08 236.235 127.121 235.864 126 235.864C124.318 235.864 123.004 236.693 122.057 238.352C121.11 240.004 120.636 242.341 120.636 245.364C120.636 247.379 120.848 249.091 121.273 250.5C121.697 251.909 122.307 252.981 123.102 253.716C123.905 254.451 124.871 254.818 126 254.818ZM146 257.318C144.288 257.318 142.83 256.852 141.625 255.92C140.42 254.981 139.5 253.621 138.864 251.841C138.227 250.053 137.909 247.894 137.909 245.364C137.909 242.848 138.227 240.701 138.864 238.92C139.508 237.133 140.432 235.769 141.636 234.83C142.848 233.883 144.303 233.409 146 233.409C147.697 233.409 149.148 233.883 150.352 234.83C151.564 235.769 152.489 237.133 153.125 238.92C153.769 240.701 154.091 242.848 154.091 245.364C154.091 247.894 153.773 250.053 153.136 251.841C152.5 253.621 151.58 254.981 150.375 255.92C149.17 256.852 147.712 257.318 146 257.318ZM146 254.818C147.697 254.818 149.015 254 149.955 252.364C150.894 250.727 151.364 248.394 151.364 245.364C151.364 243.348 151.148 241.633 150.716 240.216C150.292 238.799 149.678 237.72 148.875 236.977C148.08 236.235 147.121 235.864 146 235.864C144.318 235.864 143.004 236.693 142.057 238.352C141.11 240.004 140.636 242.341 140.636 245.364C140.636 247.379 140.848 249.091 141.273 250.5C141.697 251.909 142.307 252.981 143.102 253.716C143.905 254.451 144.871 254.818 146 254.818ZM166 257.318C164.288 257.318 162.83 256.852 161.625 255.92C160.42 254.981 159.5 253.621 158.864 251.841C158.227 250.053 157.909 247.894 157.909 245.364C157.909 242.848 158.227 240.701 158.864 238.92C159.508 237.133 160.432 235.769 161.636 234.83C162.848 233.883 164.303 233.409 166 233.409C167.697 233.409 169.148 233.883 170.352 234.83C171.564 235.769 172.489 237.133 173.125 238.92C173.769 240.701 174.091 242.848 174.091 245.364C174.091 247.894 173.773 250.053 173.136 251.841C172.5 253.621 171.58 254.981 170.375 255.92C169.17 256.852 167.712 257.318 166 257.318ZM166 254.818C167.697 254.818 169.015 254 169.955 252.364C170.894 250.727 171.364 248.394 171.364 245.364C171.364 243.348 171.148 241.633 170.716 240.216C170.292 238.799 169.678 237.72 168.875 236.977C168.08 236.235 167.121 235.864 166 235.864C164.318 235.864 163.004 236.693 162.057 238.352C161.11 240.004 160.636 242.341 160.636 245.364C160.636 247.379 160.848 249.091 161.273 250.5C161.697 251.909 162.307 252.981 163.102 253.716C163.905 254.451 164.871 254.818 166 254.818Z" fill="#C7DDD2"/>
<path d="M352.205 263.665C308.642 263.665 273.193 228.69 273.193 185.709C273.193 142.727 308.642 107.752 352.205 107.752C395.767 107.752 431.216 142.727 431.216 185.709C431.184 228.69 395.767 263.665 352.205 263.665ZM352.205 125.428C318.506 125.428 291.108 152.46 291.108 185.709C291.108 218.957 318.506 245.989 352.205 245.989C385.903 245.989 413.301 218.957 413.301 185.709C413.301 152.46 385.871 125.428 352.205 125.428Z" fill="#006230"/>
<path d="M407.955 228.438L395.287 240.937L418.62 263.959L431.288 251.46L407.955 228.438Z" fill="#006230"/>
<path d="M440.921 245.832L491.802 296.034C495.398 299.582 495.398 305.328 491.802 308.875L476.814 323.663C473.219 327.211 467.395 327.211 463.8 323.663L412.918 273.461C409.322 269.913 409.322 264.167 412.918 260.62L427.906 245.832C431.501 242.284 437.357 242.284 440.921 245.832Z" fill="#006230"/>
<path d="M373.722 164.935L331.125 206.971" stroke="#E93C3C" stroke-width="11" stroke-miterlimit="10" stroke-linecap="round"/>
<path d="M373.722 206.971L331.125 164.935" stroke="#E93C3C" stroke-width="11" stroke-miterlimit="10" stroke-linecap="round"/>
<path d="M59.355 424.344H466.806" stroke="#006230" stroke-width="5" stroke-miterlimit="10" stroke-linecap="round"/>
<path d="M513.041 424.344H583.42" stroke="#006230" stroke-width="5" stroke-miterlimit="10" stroke-linecap="round"/>
<path d="M31 16H53" stroke="#CCE0D6" stroke-width="2" stroke-linecap="round" stroke-linejoin="round"/>
<path d="M42 5V27" stroke="#CCE0D6" stroke-width="2" stroke-linecap="round" stroke-linejoin="round"/>
<path d="M75 70C81.6274 70 87 64.6274 87 58C87 51.3726 81.6274 46 75 46C68.3726 46 63 51.3726 63 58C63 64.6274 68.3726 70 75 70Z" stroke="#CCE0D6" stroke-width="2" stroke-linecap="round" stroke-linejoin="round"/>
<path d="M75 65C78.866 65 82 61.866 82 58C82 54.134 78.866 51 75 51C71.134 51 68 54.134 68 58C68 61.866 71.134 65 75 65Z" stroke="#CCE0D6" stroke-width="2" stroke-linecap="round" stroke-linejoin="round"/>
<circle cx="80" cy="16" r="2.5" stroke="#CCE0D6"/>
<circle cx="30" cy="61" r="2.5" stroke="#CCE0D6"/>
</svg>
