<svg width="35" height="45" viewBox="0 0 35 45" fill="none" xmlns="http://www.w3.org/2000/svg">
<path d="M34.7565 10.3887L25.3923 0.738281C25.2663 0.606445 25.0899 0.527344 24.9052 0.527344H7.62959C5.01767 0.527344 2.90127 2.86523 2.90127 5.74805V25.0137H0.600098V38.0742H2.90127V39.252C2.90127 42.126 5.02607 44.4727 7.62959 44.4727H30.255C32.8669 44.4727 34.9833 42.1348 34.9833 39.252V10.96C34.9833 10.749 34.9077 10.5381 34.7565 10.3887ZM24.67 2.14453L32.8165 10.5469H28.3821C26.3329 10.5469 24.67 8.83301 24.67 6.73242V2.14453ZM33.5556 39.252C33.5556 41.2646 32.0774 42.8994 30.255 42.8994H7.62959C5.80713 42.8994 4.329 41.2646 4.329 39.252V38.0742H20.0341C23.0995 38.0742 25.5771 35.1475 25.5771 31.5439C25.5771 27.9404 23.0911 25.0137 20.0341 25.0137H4.329V5.74805C4.329 3.73535 5.80713 2.10059 7.62959 2.10059H23.2423V6.73242C23.2423 9.70312 25.5435 12.1201 28.3821 12.1201H33.5556V39.252ZM5.01768 34.8398V28.248H7.42803C8.1251 28.248 8.67099 28.4326 9.05732 28.8105C9.44365 29.1885 9.64521 29.6807 9.64521 30.2959C9.64521 30.9111 9.45205 31.4121 9.05732 31.7812C8.6626 32.1504 8.1167 32.3438 7.42803 32.3438H6.06748V34.8398H5.01768ZM10.9218 34.8398V28.248H13.0046C13.8024 28.248 14.4491 28.5117 14.953 29.0303C15.4569 29.5488 15.7005 30.2256 15.7005 31.043V32.0449C15.7005 32.8711 15.4485 33.5391 14.953 34.0576C14.4491 34.5762 13.8024 34.8398 13.0046 34.8398H10.9218ZM20.7144 31.1484V32.0273H18.178V34.8398H17.1198V28.248H21.1511V29.127H18.1696V31.1396H20.7144V31.1484Z" fill="#ED1C24"/>
<path d="M8.30976 31.1318C8.50292 30.9121 8.60371 30.6396 8.60371 30.3057C8.60371 29.9717 8.50292 29.6904 8.30976 29.4707C8.1166 29.251 7.82265 29.1367 7.42793 29.1367H6.06738V31.4658H7.42793C7.82265 31.457 8.1082 31.3516 8.30976 31.1318Z" fill="#ED1C24"/>
<path d="M13.0047 29.1367H11.9717V33.9707H13.0047C13.5086 33.9707 13.9117 33.7949 14.2057 33.4346C14.4996 33.0742 14.6508 32.6172 14.6508 32.0547V31.0439C14.6508 30.4902 14.4996 30.0332 14.2057 29.6729C13.9117 29.3125 13.5086 29.1367 13.0047 29.1367Z" fill="#ED1C24"/>
</svg>
