<svg width="347" height="23" viewBox="0 0 347 23" fill="none" xmlns="http://www.w3.org/2000/svg">
<rect width="250" height="10" rx="5" fill="#F48023"/>
<path d="M275.695 3.5625V15H274.25V5.36719L271.336 6.42969V5.125L275.469 3.5625H275.695ZM287.886 8.40625V10.1406C287.886 11.0729 287.803 11.8594 287.636 12.5C287.469 13.1406 287.23 13.6562 286.917 14.0469C286.605 14.4375 286.227 14.7214 285.784 14.8984C285.347 15.0703 284.852 15.1562 284.3 15.1562C283.863 15.1562 283.459 15.1016 283.089 14.9922C282.719 14.8828 282.386 14.7083 282.089 14.4688C281.797 14.224 281.547 13.9062 281.339 13.5156C281.131 13.125 280.972 12.651 280.863 12.0938C280.753 11.5365 280.698 10.8854 280.698 10.1406V8.40625C280.698 7.47396 280.782 6.69271 280.948 6.0625C281.12 5.43229 281.363 4.92708 281.675 4.54688C281.988 4.16146 282.363 3.88542 282.8 3.71875C283.243 3.55208 283.738 3.46875 284.284 3.46875C284.727 3.46875 285.133 3.52344 285.503 3.63281C285.878 3.73698 286.211 3.90625 286.503 4.14062C286.795 4.36979 287.042 4.67708 287.245 5.0625C287.454 5.44271 287.613 5.90885 287.722 6.46094C287.831 7.01302 287.886 7.66146 287.886 8.40625ZM286.433 10.375V8.16406C286.433 7.65365 286.402 7.20573 286.339 6.82031C286.282 6.42969 286.196 6.09635 286.081 5.82031C285.967 5.54427 285.821 5.32031 285.644 5.14844C285.472 4.97656 285.271 4.85156 285.042 4.77344C284.818 4.6901 284.566 4.64844 284.284 4.64844C283.941 4.64844 283.636 4.71354 283.37 4.84375C283.105 4.96875 282.881 5.16927 282.698 5.44531C282.521 5.72135 282.386 6.08333 282.292 6.53125C282.198 6.97917 282.152 7.52344 282.152 8.16406V10.375C282.152 10.8854 282.18 11.3359 282.238 11.7266C282.3 12.1172 282.391 12.4557 282.511 12.7422C282.631 13.0234 282.777 13.2552 282.948 13.4375C283.12 13.6198 283.318 13.7552 283.542 13.8438C283.771 13.9271 284.024 13.9688 284.3 13.9688C284.654 13.9688 284.964 13.901 285.23 13.7656C285.495 13.6302 285.717 13.4193 285.894 13.1328C286.076 12.8411 286.211 12.4688 286.3 12.0156C286.389 11.5573 286.433 11.0104 286.433 10.375ZM297.686 8.40625V10.1406C297.686 11.0729 297.603 11.8594 297.436 12.5C297.269 13.1406 297.03 13.6562 296.717 14.0469C296.405 14.4375 296.027 14.7214 295.584 14.8984C295.147 15.0703 294.652 15.1562 294.1 15.1562C293.663 15.1562 293.259 15.1016 292.889 14.9922C292.519 14.8828 292.186 14.7083 291.889 14.4688C291.597 14.224 291.347 13.9062 291.139 13.5156C290.931 13.125 290.772 12.651 290.663 12.0938C290.553 11.5365 290.498 10.8854 290.498 10.1406V8.40625C290.498 7.47396 290.582 6.69271 290.748 6.0625C290.92 5.43229 291.163 4.92708 291.475 4.54688C291.788 4.16146 292.163 3.88542 292.6 3.71875C293.043 3.55208 293.538 3.46875 294.084 3.46875C294.527 3.46875 294.933 3.52344 295.303 3.63281C295.678 3.73698 296.011 3.90625 296.303 4.14062C296.595 4.36979 296.842 4.67708 297.045 5.0625C297.254 5.44271 297.413 5.90885 297.522 6.46094C297.631 7.01302 297.686 7.66146 297.686 8.40625ZM296.233 10.375V8.16406C296.233 7.65365 296.202 7.20573 296.139 6.82031C296.082 6.42969 295.996 6.09635 295.881 5.82031C295.767 5.54427 295.621 5.32031 295.444 5.14844C295.272 4.97656 295.071 4.85156 294.842 4.77344C294.618 4.6901 294.366 4.64844 294.084 4.64844C293.741 4.64844 293.436 4.71354 293.17 4.84375C292.905 4.96875 292.681 5.16927 292.498 5.44531C292.321 5.72135 292.186 6.08333 292.092 6.53125C291.998 6.97917 291.952 7.52344 291.952 8.16406V10.375C291.952 10.8854 291.98 11.3359 292.038 11.7266C292.1 12.1172 292.191 12.4557 292.311 12.7422C292.431 13.0234 292.577 13.2552 292.748 13.4375C292.92 13.6198 293.118 13.7552 293.342 13.8438C293.571 13.9271 293.824 13.9688 294.1 13.9688C294.454 13.9688 294.764 13.901 295.03 13.7656C295.295 13.6302 295.517 13.4193 295.694 13.1328C295.876 12.8411 296.011 12.4688 296.1 12.0156C296.189 11.5573 296.233 11.0104 296.233 10.375ZM307.841 13.6953L310.153 6.54688H311.63L308.591 15H307.622L307.841 13.6953ZM305.911 6.54688L308.294 13.7344L308.458 15H307.489L304.427 6.54688H305.911ZM313.312 10.8672V10.6875C313.312 10.0781 313.401 9.51302 313.578 8.99219C313.755 8.46615 314.01 8.01042 314.344 7.625C314.677 7.23438 315.081 6.93229 315.555 6.71875C316.029 6.5 316.56 6.39062 317.148 6.39062C317.742 6.39062 318.276 6.5 318.75 6.71875C319.229 6.93229 319.635 7.23438 319.969 7.625C320.307 8.01042 320.565 8.46615 320.742 8.99219C320.919 9.51302 321.008 10.0781 321.008 10.6875V10.8672C321.008 11.4766 320.919 12.0417 320.742 12.5625C320.565 13.0833 320.307 13.5391 319.969 13.9297C319.635 14.3151 319.232 14.6172 318.758 14.8359C318.289 15.0495 317.758 15.1562 317.164 15.1562C316.57 15.1562 316.036 15.0495 315.562 14.8359C315.089 14.6172 314.682 14.3151 314.344 13.9297C314.01 13.5391 313.755 13.0833 313.578 12.5625C313.401 12.0417 313.312 11.4766 313.312 10.8672ZM314.758 10.6875V10.8672C314.758 11.2891 314.807 11.6875 314.906 12.0625C315.005 12.4323 315.154 12.7604 315.352 13.0469C315.555 13.3333 315.807 13.5599 316.109 13.7266C316.411 13.888 316.763 13.9688 317.164 13.9688C317.56 13.9688 317.906 13.888 318.203 13.7266C318.505 13.5599 318.755 13.3333 318.953 13.0469C319.151 12.7604 319.299 12.4323 319.398 12.0625C319.503 11.6875 319.555 11.2891 319.555 10.8672V10.6875C319.555 10.2708 319.503 9.8776 319.398 9.50781C319.299 9.13281 319.148 8.80208 318.945 8.51562C318.747 8.22396 318.497 7.99479 318.195 7.82812C317.898 7.66146 317.549 7.57812 317.148 7.57812C316.753 7.57812 316.404 7.66146 316.102 7.82812C315.805 7.99479 315.555 8.22396 315.352 8.51562C315.154 8.80208 315.005 9.13281 314.906 9.50781C314.807 9.8776 314.758 10.2708 314.758 10.6875ZM327.159 6.54688V7.65625H322.589V6.54688H327.159ZM324.136 4.49219H325.581V12.9062C325.581 13.1927 325.626 13.4089 325.714 13.5547C325.803 13.7005 325.917 13.7969 326.058 13.8438C326.198 13.8906 326.349 13.9141 326.511 13.9141C326.631 13.9141 326.756 13.9036 326.886 13.8828C327.021 13.8568 327.123 13.8359 327.191 13.8203L327.198 15C327.084 15.0365 326.933 15.0703 326.745 15.1016C326.563 15.138 326.342 15.1562 326.081 15.1562C325.727 15.1562 325.402 15.0859 325.105 14.9453C324.808 14.8047 324.571 14.5703 324.394 14.2422C324.222 13.9089 324.136 13.4609 324.136 12.8984V4.49219ZM333.162 15.1562C332.574 15.1562 332.04 15.0573 331.561 14.8594C331.087 14.6562 330.678 14.3724 330.334 14.0078C329.996 13.6432 329.735 13.2109 329.553 12.7109C329.371 12.2109 329.28 11.6641 329.28 11.0703V10.7422C329.28 10.0547 329.381 9.44271 329.584 8.90625C329.787 8.36458 330.064 7.90625 330.412 7.53125C330.761 7.15625 331.157 6.8724 331.6 6.67969C332.043 6.48698 332.501 6.39062 332.975 6.39062C333.579 6.39062 334.1 6.49479 334.537 6.70312C334.98 6.91146 335.342 7.20312 335.623 7.57812C335.905 7.94792 336.113 8.38542 336.248 8.89062C336.384 9.39062 336.452 9.9375 336.452 10.5312V11.1797H330.139V10H335.006V9.89062C334.985 9.51562 334.907 9.15104 334.772 8.79688C334.642 8.44271 334.433 8.15104 334.147 7.92188C333.86 7.69271 333.47 7.57812 332.975 7.57812C332.647 7.57812 332.345 7.64844 332.069 7.78906C331.793 7.92448 331.556 8.1276 331.358 8.39844C331.16 8.66927 331.006 9 330.897 9.39062C330.787 9.78125 330.733 10.2318 330.733 10.7422V11.0703C330.733 11.4714 330.787 11.849 330.897 12.2031C331.011 12.5521 331.176 12.8594 331.389 13.125C331.608 13.3906 331.871 13.599 332.178 13.75C332.491 13.901 332.845 13.9766 333.241 13.9766C333.751 13.9766 334.183 13.8724 334.537 13.6641C334.892 13.4557 335.202 13.1771 335.467 12.8281L336.342 13.5234C336.16 13.7995 335.928 14.0625 335.647 14.3125C335.366 14.5625 335.019 14.7656 334.608 14.9219C334.202 15.0781 333.72 15.1562 333.162 15.1562ZM343.861 12.7578C343.861 12.5495 343.814 12.3568 343.72 12.1797C343.632 11.9974 343.447 11.8333 343.166 11.6875C342.89 11.5365 342.473 11.4062 341.916 11.2969C341.447 11.1979 341.022 11.0807 340.642 10.9453C340.267 10.8099 339.947 10.6458 339.681 10.4531C339.421 10.2604 339.22 10.0339 339.08 9.77344C338.939 9.51302 338.869 9.20833 338.869 8.85938C338.869 8.52604 338.942 8.21094 339.088 7.91406C339.239 7.61719 339.449 7.35417 339.72 7.125C339.996 6.89583 340.327 6.71615 340.713 6.58594C341.098 6.45573 341.528 6.39062 342.002 6.39062C342.679 6.39062 343.257 6.51042 343.736 6.75C344.215 6.98958 344.582 7.3099 344.838 7.71094C345.093 8.10677 345.22 8.54688 345.22 9.03125H343.775C343.775 8.79688 343.705 8.57031 343.564 8.35156C343.429 8.1276 343.228 7.94271 342.963 7.79688C342.702 7.65104 342.382 7.57812 342.002 7.57812C341.601 7.57812 341.275 7.64062 341.025 7.76562C340.78 7.88542 340.601 8.03906 340.486 8.22656C340.377 8.41406 340.322 8.61198 340.322 8.82031C340.322 8.97656 340.348 9.11719 340.4 9.24219C340.457 9.36198 340.556 9.47396 340.697 9.57812C340.838 9.67708 341.035 9.77083 341.291 9.85938C341.546 9.94792 341.871 10.0365 342.267 10.125C342.96 10.2812 343.53 10.4688 343.978 10.6875C344.426 10.9062 344.759 11.1745 344.978 11.4922C345.197 11.8099 345.306 12.1953 345.306 12.6484C345.306 13.0182 345.228 13.3568 345.072 13.6641C344.921 13.9714 344.699 14.237 344.408 14.4609C344.121 14.6797 343.778 14.8516 343.377 14.9766C342.981 15.0964 342.535 15.1562 342.041 15.1562C341.296 15.1562 340.666 15.0234 340.15 14.7578C339.634 14.4922 339.244 14.1484 338.978 13.7266C338.713 13.3047 338.58 12.8594 338.58 12.3906H340.033C340.054 12.7865 340.168 13.1016 340.377 13.3359C340.585 13.5651 340.84 13.7292 341.142 13.8281C341.444 13.9219 341.744 13.9688 342.041 13.9688C342.436 13.9688 342.767 13.9167 343.033 13.8125C343.304 13.7083 343.509 13.5651 343.65 13.3828C343.791 13.2005 343.861 12.9922 343.861 12.7578Z" fill="black"/>
</svg>
