<svg width="84" height="84" viewBox="0 0 84 84" fill="none" xmlns="http://www.w3.org/2000/svg">
<path d="M63 36.9049V14.658L48.3367 0H0V84H63V83.8451C74.8099 82.5326 83.9947 72.534 84 60.375C83.9947 48.2108 74.8099 38.2095 63 36.9049ZM47.2447 6.33413L56.6633 15.75H47.2447V6.33413V6.33413ZM5.25 78.75V5.24475H42V20.9974H57.75V36.9049C53.151 37.4141 48.951 39.2411 45.5385 42H10.5V47.25H40.7321C39.6506 48.867 38.7817 50.6336 38.1229 52.5H10.5V57.75H36.9049C36.8078 58.6136 36.75 59.4851 36.75 60.375C36.75 67.8011 40.1835 74.4214 45.5411 78.75H5.25ZM60.375 78.4429C50.3974 78.4192 42.3255 70.3474 42.3019 60.375C42.3255 50.3974 50.3974 42.3255 60.375 42.3019C70.3474 42.3255 78.4192 50.3974 78.4429 60.375C78.4192 70.3474 70.3474 78.4192 60.375 78.4429ZM52.5 31.5H10.5V36.75H52.5V31.5Z" fill="#006230"/>
<path d="M57.75 70.875H49.875V63L57.75 70.875Z" fill="#006230"/>
<path d="M60.376 68.2498L73.5007 55.125L65.6251 47.2494L52.5004 60.3742L60.376 68.2498Z" fill="#006230"/>
</svg>
