<svg width="56" height="56" viewBox="0 0 56 56" fill="none" xmlns="http://www.w3.org/2000/svg">
<path d="M21.7484 3C11.4124 3 3.00002 11.4124 3 21.7484C3.00002 32.0844 11.4124 40.4967 21.7484 40.4967C26.3556 40.4967 30.5763 38.822 33.8445 36.0538L50.3103 52.5196C50.4543 52.6696 50.6267 52.7893 50.8176 52.8718C51.0084 52.9542 51.2137 52.9978 51.4216 52.9999C51.6294 53.002 51.8356 52.9626 52.0281 52.8841C52.2205 52.8055 52.3954 52.6893 52.5423 52.5423C52.6893 52.3954 52.8055 52.2205 52.8841 52.0281C52.9626 51.8356 53.002 51.6294 52.9999 51.4216C52.9978 51.2137 52.9542 51.0084 52.8718 50.8176C52.7893 50.6267 52.6696 50.4543 52.5196 50.3103L36.0538 33.8445C38.822 30.5763 40.4967 26.3556 40.4967 21.7484C40.4967 11.4124 32.0843 3 21.7484 3ZM21.7484 6.12473C30.3956 6.12473 37.372 13.101 37.372 21.7484C37.372 30.3954 30.3956 37.372 21.7484 37.372C13.1012 37.372 6.12474 30.3954 6.12473 21.7484C6.12474 13.101 13.1012 6.12473 21.7484 6.12473Z" fill="#006230"/>
</svg>
