<svg width="41" height="15" viewBox="0 0 41 15" fill="none" xmlns="http://www.w3.org/2000/svg">
<path d="M22.6274 12H21.4468V4.17334L19.0791 5.04297V3.97656L22.4434 2.71338H22.6274V12ZM32.5135 12H26.4579V11.1558L29.6571 7.60107C30.131 7.06364 30.4569 6.62777 30.6346 6.29346C30.8166 5.95492 30.9076 5.60579 30.9076 5.24609C30.9076 4.76367 30.7616 4.368 30.4696 4.05908C30.1776 3.75016 29.7883 3.5957 29.3016 3.5957C28.7176 3.5957 28.2627 3.76286 27.9369 4.09717C27.6153 4.42725 27.4545 4.88851 27.4545 5.48096H26.2801C26.2801 4.63037 26.5531 3.94271 27.099 3.41797C27.6491 2.89323 28.3833 2.63086 29.3016 2.63086C30.1607 2.63086 30.8399 2.85726 31.3392 3.31006C31.8386 3.75863 32.0882 4.35742 32.0882 5.10645C32.0882 6.01628 31.5085 7.09961 30.349 8.35645L27.8734 11.0415H32.5135V12ZM34.6872 7.36621L35.157 2.75781H39.8923V3.84326H36.1535L35.8742 6.36328C36.327 6.09668 36.8412 5.96338 37.4167 5.96338C38.2588 5.96338 38.9275 6.24268 39.4226 6.80127C39.9177 7.35563 40.1653 8.10677 40.1653 9.05469C40.1653 10.0068 39.9071 10.758 39.3908 11.3081C38.8788 11.854 38.1615 12.127 37.239 12.127C36.4223 12.127 35.7557 11.9006 35.2395 11.4478C34.7232 10.995 34.4291 10.3687 34.3571 9.56885H35.468C35.5399 10.0978 35.7282 10.4977 36.0329 10.7686C36.3376 11.0352 36.7396 11.1685 37.239 11.1685C37.7849 11.1685 38.2123 10.9823 38.5212 10.6099C38.8344 10.2375 38.9909 9.72331 38.9909 9.06738C38.9909 8.44954 38.8217 7.95443 38.4831 7.58203C38.1488 7.2054 37.7024 7.01709 37.1438 7.01709C36.6317 7.01709 36.2297 7.12923 35.9377 7.35352L35.6267 7.60742L34.6872 7.36621Z" fill="#808080"/>
<path d="M0.625 7.5C0.625 7.5 3.125 2.5 7.5 2.5C11.875 2.5 14.375 7.5 14.375 7.5C14.375 7.5 11.875 12.5 7.5 12.5C3.125 12.5 0.625 7.5 0.625 7.5Z" stroke="#808080" stroke-linecap="round" stroke-linejoin="round"/>
<path d="M7.5 9.375C8.53553 9.375 9.375 8.53553 9.375 7.5C9.375 6.46447 8.53553 5.625 7.5 5.625C6.46447 5.625 5.625 6.46447 5.625 7.5C5.625 8.53553 6.46447 9.375 7.5 9.375Z" stroke="#808080" stroke-linecap="round" stroke-linejoin="round"/>
</svg>
