<svg width="710" height="673" viewBox="0 0 710 673" fill="none" xmlns="http://www.w3.org/2000/svg">
<path d="M159.9 205.6C160 205.5 161 206.4 162.6 207.9C164.2 209.4 166.4 211.5 168.7 213.9H168.1L168.2 213.8C170.5 211.3 172.6 209.1 174.2 207.5C175.8 205.9 176.8 205 176.9 205.1C177 205.2 176.1 206.2 174.7 207.9C173.2 209.6 171.2 211.8 168.9 214.3L168.8 214.4L168.5 214.7L168.2 214.4C165.8 212 163.7 209.8 162.2 208.2C160.7 206.7 159.8 205.6 159.9 205.6Z" fill="#E1E1E1"/>
<path d="M168.4 213.8C168.4 213.8 168.4 213.7 168.4 213.4C168.4 213.1 168.4 212.7 168.4 212.2C168.4 211.1 168.4 209.5 168.3 207.5C168.3 203.4 168.2 197.4 168.2 189.8C168.2 174.6 168.1 153 168.1 127.6L168.5 128C149.7 128 128.4 128 106 128C92.1002 128 78.6002 128 66.1002 128H65.7002V127.6C65.8002 96.2 65.8002 69 65.8002 49.6C65.8002 40 65.9002 32.2999 65.9002 26.8999C65.9002 24.2999 65.9002 22.3 66.0002 20.8C66.0002 20.1 66.0002 19.6 66.0002 19.2C66.0002 18.8 66.0002 18.7 66.0002 18.7C66.0002 18.7 66.0002 18.9 66.0002 19.2C66.0002 19.6 66.0002 20.1 66.0002 20.8C66.0002 22.2 66.0002 24.1999 66.1002 26.8999C66.1002 32.1999 66.2002 39.9 66.2002 49.6C66.2002 69 66.3002 96.2 66.3002 127.6L65.9002 127.2C78.4002 127.2 91.9002 127.2 105.8 127.2C128.2 127.2 149.4 127.2 168.3 127.2H168.7V127.6C168.6 153.1 168.6 174.6 168.6 189.8C168.6 197.4 168.5 203.3 168.5 207.5C168.5 209.5 168.5 211.1 168.4 212.2C168.4 212.7 168.4 213.1 168.4 213.4C168.4 213.7 168.4 213.8 168.4 213.8Z" fill="#E1E1E1"/>
<path d="M131.1 334C131.1 334.2 104.3 334.4 71.4001 334.4C38.4001 334.4 11.6001 334.2 11.6001 334C11.6001 333.8 38.3001 333.6 71.4001 333.6C104.3 333.6 131.1 333.8 131.1 334Z" fill="#E1E1E1"/>
<path d="M122.5 342.6C122.4 342.5 123.3 341.5 124.8 339.9C126.3 338.3 128.4 336.1 130.8 333.8V334.4L130.7 334.3C128.2 332 126 329.9 124.4 328.3C122.8 326.7 121.9 325.7 122 325.6C122.1 325.5 123.1 326.4 124.8 327.8C126.5 329.3 128.7 331.3 131.2 333.6L131.3 333.7L131.6 334L131.3 334.3C128.9 336.7 126.7 338.8 125.1 340.3C123.6 341.8 122.5 342.6 122.5 342.6Z" fill="#E1E1E1"/>
<path d="M122.5 430.9C122.4 430.8 123.3 429.8 124.8 428.2C126.3 426.6 128.4 424.4 130.8 422.1V422.7L130.7 422.6C128.2 420.3 126 418.2 124.4 416.6C122.8 415 121.9 414 122 413.9C122.1 413.8 123.1 414.7 124.8 416.1C126.5 417.6 128.7 419.6 131.2 421.9L131.3 422L131.6 422.3L131.3 422.6C128.9 425 126.7 427.1 125.1 428.6C123.6 430.1 122.5 431 122.5 430.9Z" fill="#E1E1E1"/>
<path d="M132.5 525.3C132.5 525.3 132.3 525.3 131.9 525.3C131.5 525.3 130.9 525.3 130.2 525.3C128.7 525.3 126.5 525.3 123.7 525.4C118 525.4 109.8 525.5 99.6 525.5C79.2 525.5 51.2 525.6 20.2 525.6C17.3 525.6 14.4 525.6 11.7 525.6L12.1 525.2C12.1 554.3 12 580.2 12 599C11.9 608.3 11.9 615.8 11.9 621.1C11.9 623.7 11.8 625.7 11.8 627.1C11.8 627.8 11.8 628.3 11.8 628.6C11.8 628.9 11.8 629.1 11.8 629.1C11.8 629.1 11.8 628.9 11.8 628.6C11.8 628.2 11.8 627.7 11.8 627.1C11.8 625.7 11.8 623.7 11.7 621.1C11.7 615.9 11.6 608.3 11.6 599C11.6 580.3 11.5 554.3 11.5 525.2V524.8H11.9C14.6 524.8 17.5 524.8 20.4 524.8C51.4 524.8 79.5 524.9 99.8 524.9C109.9 525 118.2 525 123.9 525C126.7 525 128.9 525.1 130.4 525.1C131.1 525.1 131.7 525.1 132.1 525.1C132.3 525.2 132.5 525.2 132.5 525.3Z" fill="#E1E1E1"/>
<path d="M123.8 516.7C123.9 516.6 124.9 517.5 126.5 519C128.1 520.5 130.3 522.6 132.7 525L133 525.3L132.7 525.6L132.6 525.7C130.1 528 127.8 530.1 126.2 531.5C124.5 533 123.5 533.8 123.4 533.7C123.3 533.6 124.3 532.6 125.8 531C127.4 529.4 129.6 527.3 132.1 525L132.2 524.9V525.5C129.8 523.1 127.7 521 126.2 519.4C124.6 517.8 123.8 516.8 123.8 516.7Z" fill="#E1E1E1"/>
<path d="M121 584.2C121.1 584.1 122.1 585 123.7 586.5C125.3 588 127.5 590.1 129.9 592.5L130.2 592.8L129.9 593.1L129.8 593.2C127.3 595.5 125 597.6 123.4 599C121.7 600.5 120.7 601.3 120.6 601.2C120.5 601.1 121.5 600.1 123 598.5C124.6 596.9 126.8 594.8 129.3 592.5L129.4 592.4V593C127 590.6 124.9 588.5 123.4 586.9C121.8 585.3 120.9 584.3 121 584.2Z" fill="#E1E1E1"/>
<path d="M0.100098 104.7C0.100098 104.7 0.200122 104.7 0.500122 104.7C0.800122 104.7 1.20011 104.7 1.80011 104.7C3.00011 104.7 4.60013 104.7 6.70013 104.6C11.0001 104.6 17.3001 104.5 25.3001 104.5H25.5001V104.7C25.5001 129.6 25.6001 171 25.7001 217.7C25.7001 229.6 25.7001 241.1 25.7001 252L25.3001 251.6C55.2001 251.7 81.2001 251.7 99.8001 251.7C109 251.7 116.4 251.8 121.5 251.8C124 251.8 126 251.8 127.3 251.9C127.9 251.9 128.4 251.9 128.8 251.9C129.1 251.9 129.3 251.9 129.3 251.9C129.3 251.9 129.1 251.9 128.8 251.9C128.4 251.9 127.9 251.9 127.3 251.9C125.9 251.9 124 251.9 121.5 252C116.4 252 109 252.1 99.8001 252.1C81.3001 252.1 55.3001 252.2 25.3001 252.2H24.9001V251.8C24.9001 241 24.9001 229.4 24.9001 217.5C25.0001 170.7 25.0001 129.4 25.1001 104.5L25.3001 104.7C17.4001 104.7 11.1001 104.6 6.70013 104.6C4.60013 104.6 2.90011 104.6 1.80011 104.5C1.30011 104.5 0.800122 104.5 0.500122 104.5C0.200122 104.8 0.100098 104.7 0.100098 104.7Z" fill="#E1E1E1"/>
<path d="M0.100098 422.4C0.100098 422.2 29.4001 422 65.6001 422C101.8 422 131.1 422.2 131.1 422.4C131.1 422.6 101.8 422.8 65.6001 422.8C29.4001 422.8 0.100098 422.7 0.100098 422.4Z" fill="#E1E1E1"/>
<path d="M66.1003 673C66.1003 673 66.1003 672.9 66.1003 672.6C66.1003 672.3 66.1003 671.9 66.1003 671.5C66.1003 670.5 66.1003 669.1 66.0003 667.3C66.0003 663.6 65.9003 658.3 65.9003 651.9C65.9003 638.8 65.8003 620.9 65.8003 601.1C65.8003 598.2 65.8003 595.4 65.8003 592.7V592.3H66.2003C84.1003 592.4 99.9003 592.4 111.4 592.4C117.1 592.5 121.6 592.5 124.8 592.5C126.3 592.5 127.5 592.6 128.4 592.6C129.2 592.6 129.7 592.6 129.7 592.7C129.7 592.7 129.3 592.8 128.4 592.8C127.5 592.8 126.3 592.8 124.8 592.9C121.6 592.9 117 593 111.4 593C99.9003 593 84.1003 593.1 66.2003 593.1L66.6003 592.7C66.6003 595.4 66.6003 598.2 66.6003 601.1C66.6003 620.9 66.5003 638.9 66.5003 651.9C66.4003 658.4 66.4003 663.6 66.4003 667.3C66.4003 669.1 66.3003 670.5 66.3003 671.5C66.3003 671.9 66.3003 672.3 66.3003 672.6C66.1003 672.9 66.1003 673 66.1003 673Z" fill="#E1E1E1"/>
<path d="M120.6 260.7C120.5 260.6 121.4 259.6 122.9 258C124.4 256.4 126.5 254.2 128.9 251.9V252.5L128.8 252.4C126.3 250.1 124.1 248 122.5 246.4C120.9 244.8 120 243.8 120.1 243.7C120.2 243.6 121.2 244.5 122.9 245.9C124.6 247.4 126.8 249.4 129.3 251.7L129.4 251.8L129.7 252.1L129.4 252.4C127 254.8 124.8 256.9 123.2 258.4C121.7 259.9 120.7 260.8 120.6 260.7Z" fill="#E1E1E1"/>
<path d="M536.2 205.6C536.3 205.7 535.4 206.7 533.9 208.3C532.4 209.9 530.3 212.1 527.9 214.5L527.6 214.8L527.3 214.5L527.2 214.4C524.9 211.9 522.8 209.6 521.4 208C519.9 206.3 519.1 205.3 519.2 205.2C519.3 205.1 520.3 206.1 521.9 207.6C523.5 209.2 525.6 211.4 527.9 213.9L528 214H527.4C529.8 211.6 531.9 209.5 533.5 208C535.1 206.4 536.1 205.5 536.2 205.6Z" fill="#E1E1E1"/>
<path d="M527.7 213.9C527.7 213.9 527.7 213.8 527.7 213.5C527.7 213.2 527.7 212.8 527.7 212.3C527.7 211.2 527.7 209.7 527.6 207.6C527.6 203.5 527.5 197.5 527.5 190C527.5 174.8 527.4 153.3 527.4 127.6V127.2H527.8C549 127.2 573.4 127.2 599.2 127.2C609.8 127.2 620.1 127.2 630.1 127.2L629.7 127.6C629.8 91.4999 629.8 59.7999 629.8 37.1999C629.8 25.8999 629.9 16.8999 629.9 10.5999C629.9 7.49991 630 5.0999 630 3.3999C630 2.5999 630 1.99991 630 1.49991C630 1.09991 630 0.899902 630 0.899902C630 0.899902 630 1.09991 630 1.49991C630 1.89991 630 2.5999 630 3.3999C630 5.0999 630 7.49991 630.1 10.5999C630.1 16.8999 630.2 25.8999 630.2 37.1999C630.2 59.8999 630.3 91.4999 630.3 127.6V128H629.9C619.9 128 609.6 128 599 128C573.2 128 548.8 128 527.6 128L528 127.6C527.9 153.2 527.9 174.8 527.9 190C527.9 197.5 527.8 203.5 527.8 207.6C527.8 209.6 527.8 211.2 527.7 212.3C527.7 212.8 527.7 213.2 527.7 213.5C527.7 213.7 527.7 213.9 527.7 213.9Z" fill="#E1E1E1"/>
<path d="M565 334C565 333.8 594 333.6 629.8 333.6C665.6 333.6 694.6 333.8 694.6 334C694.6 334.2 665.6 334.4 629.8 334.4C594.1 334.4 565 334.3 565 334Z" fill="#E1E1E1"/>
<path d="M573.7 342.6C573.6 342.7 572.6 341.8 571 340.3C569.4 338.8 567.2 336.7 564.8 334.3L564.5 334L564.8 333.7L564.9 333.6C567.4 331.3 569.7 329.2 571.3 327.8C573 326.3 574 325.5 574.1 325.6C574.2 325.7 573.2 326.7 571.7 328.3C570.1 329.9 567.9 332 565.4 334.3L565.3 334.4V333.8C567.7 336.2 569.8 338.3 571.3 339.9C572.8 341.5 573.7 342.5 573.7 342.6Z" fill="#E1E1E1"/>
<path d="M573.7 431C573.6 431.1 572.6 430.2 571 428.7C569.4 427.2 567.2 425.1 564.8 422.7L564.5 422.4L564.8 422.1L564.9 422C567.4 419.7 569.7 417.6 571.3 416.2C573 414.7 574 413.9 574.1 414C574.2 414.1 573.2 415.1 571.7 416.7C570.1 418.3 567.9 420.4 565.4 422.7L565.3 422.8V422.2C567.7 424.6 569.8 426.7 571.3 428.3C572.8 429.9 573.7 430.9 573.7 431Z" fill="#E1E1E1"/>
<path d="M563.7 525.3C563.7 525.3 563.9 525.3 564.2 525.3C564.6 525.3 565.1 525.3 565.8 525.3C567.2 525.3 569.3 525.3 571.9 525.2C577.2 525.2 584.9 525.1 594.5 525.1C613.7 525.1 640.5 525 670.9 525H671.3V525.4C671.3 531.1 671.3 537.2 671.3 543.3C671.3 576.7 671.2 607 671.2 629.3L670.9 629C682.9 629.1 692.7 629.1 699.5 629.1C702.8 629.1 705.5 629.2 707.3 629.2C708.2 629.2 708.8 629.2 709.3 629.2C709.8 629.2 710 629.2 710 629.2C710 629.2 709.8 629.2 709.3 629.2C708.8 629.2 708.1 629.2 707.3 629.2C705.5 629.2 702.9 629.2 699.5 629.3C692.7 629.3 682.9 629.4 670.9 629.4H670.6V629.1C670.6 606.8 670.5 576.5 670.5 543.1C670.5 537 670.5 531 670.5 525.2L670.9 525.6C640.6 525.5 613.8 525.5 594.5 525.5C584.9 525.5 577.2 525.4 571.9 525.4C569.3 525.4 567.2 525.3 565.8 525.3C565.1 525.3 564.6 525.3 564.2 525.3C563.8 525.3 563.7 525.3 563.7 525.3Z" fill="#E1E1E1"/>
<path d="M572.3 516.7C572.4 516.8 571.5 517.8 570 519.4C568.5 521 566.4 523.2 564 525.5V524.9L564.1 525C566.6 527.3 568.8 529.4 570.4 531C572 532.6 572.9 533.6 572.8 533.7C572.7 533.8 571.7 532.9 570 531.5C568.3 530 566.1 528 563.6 525.7L563.5 525.6L563.2 525.3L563.5 525C565.9 522.6 568.1 520.5 569.7 519C571.2 517.5 572.2 516.7 572.3 516.7Z" fill="#E1E1E1"/>
<path d="M575.1 584.3C575.2 584.4 574.3 585.4 572.8 587C571.3 588.6 569.2 590.8 566.8 593.1V592.5L566.9 592.6C569.4 594.9 571.6 597 573.2 598.6C574.8 600.2 575.7 601.2 575.6 601.3C575.5 601.4 574.5 600.5 572.8 599.1C571.1 597.6 568.9 595.6 566.4 593.3L566.3 593.2L566 592.9L566.3 592.6C568.7 590.2 570.9 588.1 572.5 586.6C574 585.1 575 584.2 575.1 584.3Z" fill="#E1E1E1"/>
<path d="M709.9 104.8C709.9 104.8 709.7 104.8 709.2 104.8C708.7 104.8 708.1 104.8 707.2 104.8C705.4 104.8 702.8 104.8 699.5 104.9C692.7 104.9 683 105 670.8 105L671.1 104.7C671.1 130.9 671.2 168.8 671.2 210.8C671.2 225.2 671.2 239.1 671.2 252V252.4H670.8C640.7 252.3 614.7 252.3 596.2 252.3C587 252.3 579.7 252.2 574.6 252.2C572.1 252.2 570.2 252.2 568.8 252.1C568.2 252.1 567.7 252.1 567.3 252.1C567 252.1 566.8 252.1 566.8 252.1C566.8 252.1 567 252.1 567.3 252.1C567.7 252.1 568.2 252.1 568.8 252.1C570.1 252.1 572.1 252.1 574.6 252C579.7 252 587 251.9 596.2 251.9C614.7 251.9 640.7 251.8 670.8 251.8L670.4 252.2C670.4 239.3 670.4 225.4 670.4 211C670.4 169 670.5 131.1 670.5 104.9V104.6H670.8C683 104.7 692.7 104.7 699.5 104.7C702.8 104.7 705.4 104.8 707.2 104.8C708.1 104.8 708.7 104.8 709.2 104.8C709.7 104.7 709.9 104.8 709.9 104.8Z" fill="#E1E1E1"/>
<path d="M709.9 422.5C709.9 422.7 677.5 422.9 637.4 422.9C597.4 422.9 564.9 422.7 564.9 422.5C564.9 422.3 597.3 422.1 637.4 422.1C677.5 422.1 709.9 422.3 709.9 422.5Z" fill="#E1E1E1"/>
<path d="M630 673C630 673 630 672.9 630 672.6C630 672.3 630 671.9 630 671.5C630 670.5 630 669.1 629.9 667.3C629.9 663.6 629.8 658.3 629.8 651.9C629.8 638.8 629.7 620.9 629.7 601.1C629.7 598.2 629.7 595.4 629.7 592.7L630.1 593.1C612.2 593 596.4 593 584.9 593C579.2 592.9 574.7 592.9 571.5 592.9C570 592.9 568.8 592.8 567.9 592.8C567.1 592.8 566.6 592.8 566.6 592.7C566.6 592.7 567 592.7 567.9 592.6C568.8 592.6 570 592.6 571.5 592.5C574.7 592.5 579.3 592.4 584.9 592.4C596.4 592.4 612.2 592.3 630.1 592.3H630.5V592.7C630.5 595.4 630.5 598.2 630.5 601.1C630.5 620.9 630.4 638.9 630.4 651.9C630.3 658.4 630.3 663.6 630.3 667.3C630.3 669.1 630.2 670.5 630.2 671.5C630.2 671.9 630.2 672.3 630.2 672.6C630.1 672.9 630 673 630 673Z" fill="#E1E1E1"/>
<path d="M575.5 260.7C575.4 260.8 574.4 259.9 572.8 258.4C571.2 256.9 569 254.8 566.6 252.4L566.3 252.1L566.6 251.8L566.7 251.7C569.2 249.4 571.5 247.3 573.1 245.9C574.8 244.4 575.8 243.6 575.9 243.7C576 243.8 575 244.8 573.5 246.3C571.9 247.9 569.7 250 567.2 252.3L567.1 252.4V251.8C569.5 254.2 571.6 256.3 573.1 257.9C574.7 259.6 575.6 260.7 575.5 260.7Z" fill="#E1E1E1"/>
<path d="M100.5 361.7C100.7 361.7 101.4 366.3 103.8 371.5C106.2 376.7 109.2 380.3 109 380.5C108.9 380.6 108.1 379.7 106.9 378.2C105.7 376.7 104.3 374.5 103.1 371.8C101.9 369.1 101.2 366.6 100.8 364.7C100.4 362.9 100.4 361.7 100.5 361.7Z" fill="#375A64"/>
<path d="M97.5 362.3C97.7 362.2 99 367 101.9 372.2C104.8 377.4 108.1 381 108 381.2C107.9 381.3 107 380.5 105.7 379C104.4 377.5 102.8 375.3 101.3 372.6C99.8 369.9 98.8 367.4 98.2 365.5C97.7 363.5 97.5 362.3 97.5 362.3Z" fill="#375A64"/>
<path d="M104.7 365.2C104.9 365.2 105 368.3 106 371.9C107 375.5 108.6 378.2 108.4 378.3C108.3 378.4 106.3 375.8 105.3 372.1C104.2 368.3 104.5 365.1 104.7 365.2Z" fill="#375A64"/>
<path d="M123.9 480.2C124.1 480.1 124.8 483.9 127.2 487.7C129.6 491.6 132.6 493.9 132.4 494.1C132.3 494.3 129 492.1 126.6 488.1C124.2 484 123.8 480.1 123.9 480.2Z" fill="#375A64"/>
<path d="M122.2 480.5C122.4 480.4 123.6 483.9 125.2 488.1C126.8 492.3 128.2 495.7 128 495.8C127.8 495.9 126.1 492.6 124.5 488.4C122.9 484.2 122 480.6 122.2 480.5Z" fill="#375A64"/>
<path d="M157 437.4L155.2 444.2C151.2 443.2 146.8 443.8 143.3 446C141.9 446.9 140.6 448 139.6 449.3C144 450 147.9 452.8 149.6 456.7C150.8 459.6 150.6 463.1 149 466C147.6 468.7 145.1 470.5 142.4 471.1C138.2 471.9 133.5 469.7 131.2 465.7C130.3 464.2 129.7 462.4 129.5 460.6C129.4 460.8 129.2 460.9 129.1 461.1C124.6 467 124.3 476.1 128.5 482.2L122.7 486.1C116.8 477.4 117.1 465.1 123.5 456.8C125.6 454.1 128.1 452 130.8 450.7C132.5 446.3 135.7 442.5 139.7 440C144.8 436.8 151.2 435.9 157 437.4ZM136.3 458.2C136.3 459.7 136.6 461 137.2 462.1C138.1 463.5 139.8 464.5 141.1 464.2C142.1 464 142.7 463.1 142.9 462.7C143.5 461.6 143.6 460.3 143.2 459.4C142.3 457.3 139.5 455.9 136.8 456.2C136.7 456.2 136.6 456.2 136.5 456.2C136.4 456.9 136.3 457.6 136.3 458.2Z" fill="#1A2E35"/>
<path d="M158.2 397.9C138.6 400.4 115.6 393.9 104.6 378.2L107.6 374.5C107.6 374.5 119.2 394 158.3 392.6" fill="#1A2E35"/>
<path d="M112.5 379.8C112.6 379.9 111.8 380.7 110.9 381.8C110 382.8 109.1 383.6 109.1 383.6C109 383.5 109.8 382.7 110.7 381.6C111.6 380.6 112.4 379.8 112.5 379.8Z" fill="#375A64"/>
<path d="M117.1 383.4C117.2 383.5 116.5 384.4 115.6 385.5C114.7 386.6 113.9 387.5 113.9 387.4C113.8 387.3 114.5 386.4 115.4 385.3C116.2 384.2 117 383.4 117.1 383.4Z" fill="#375A64"/>
<path d="M122.6 386.2C122.7 386.2 122.2 387.4 121.4 388.7C120.6 390 119.8 390.9 119.8 390.9C119.7 390.8 120.4 389.8 121.2 388.5C121.9 387.2 122.5 386.2 122.6 386.2Z" fill="#375A64"/>
<path d="M125.5 393.8C125.4 393.8 125.9 392.6 126.6 391.1C127.3 389.7 127.9 388.5 127.9 388.5C128 388.5 127.5 389.7 126.8 391.2C126.1 392.7 125.5 393.8 125.5 393.8Z" fill="#375A64"/>
<path d="M131.5 395.6C131.4 395.6 131.8 394.4 132.4 392.9C133 391.5 133.5 390.3 133.6 390.3C133.7 390.3 133.3 391.5 132.7 393C132.1 394.5 131.5 395.6 131.5 395.6Z" fill="#375A64"/>
<path d="M137.2 396.9C137.1 396.9 137.3 395.6 137.7 394.1C138.1 392.5 138.4 391.3 138.5 391.3C138.6 391.3 138.4 392.6 138 394.1C137.7 395.7 137.3 396.9 137.2 396.9Z" fill="#375A64"/>
<path d="M143 397.7C142.9 397.7 143.1 396.4 143.3 394.9C143.6 393.3 143.9 392.1 143.9 392.1C144 392.1 143.8 393.4 143.6 394.9C143.4 396.5 143.1 397.8 143 397.7Z" fill="#375A64"/>
<path d="M148.4 398C148.3 398 148.6 396.8 148.7 395.3C148.9 393.8 148.9 392.6 149 392.6C149.1 392.6 149.2 393.8 149 395.4C148.8 396.9 148.4 398 148.4 398Z" fill="#375A64"/>
<path d="M126.7 478.9C126.7 479 125.3 479.6 123.6 480.3C121.8 481 120.4 481.5 120.3 481.4C120.3 481.3 121.7 480.7 123.4 480C125.2 479.3 126.6 478.8 126.7 478.9Z" fill="#375A64"/>
<path d="M125.6 474.6C125.6 474.7 124.1 475 122.2 475.4C120.3 475.7 118.8 475.9 118.7 475.9C118.7 475.8 120.2 475.5 122.1 475.1C124.1 474.8 125.6 474.6 125.6 474.6Z" fill="#375A64"/>
<path d="M125.7 470C125.7 470.1 124.1 470.1 122.2 470C120.3 469.9 118.7 469.8 118.7 469.7C118.7 469.6 120.3 469.6 122.2 469.7C124.1 469.8 125.7 469.9 125.7 470Z" fill="#375A64"/>
<path d="M126.3 466C126.3 466.1 124.9 465.6 123.2 464.8C121.5 464.1 120.2 463.4 120.2 463.3C120.2 463.2 121.6 463.7 123.3 464.5C125 465.3 126.4 465.9 126.3 466Z" fill="#375A64"/>
<path d="M128.7 460.8C128.7 460.9 127.4 460.2 126.1 459.1C124.8 458 123.9 456.9 124 456.8C124.1 456.7 125 457.8 126.3 458.9C127.5 460 128.7 460.7 128.7 460.8Z" fill="#375A64"/>
<path d="M129.6 461.5C129.6 461.5 129.5 460.9 129.5 459.9C129.5 458.9 129.5 457.6 129.7 456.1C129.9 454.6 130.2 453.3 130.4 452.4C130.7 451.5 130.9 450.9 130.9 450.9C130.9 450.9 130.8 451.5 130.6 452.4C130.4 453.3 130.2 454.7 130 456.1C129.8 457.6 129.8 458.9 129.7 459.9C129.7 460.9 129.6 461.5 129.6 461.5Z" fill="#375A64"/>
<path d="M140.5 448.6C140.6 448.7 139.1 450.1 137.9 452.4C136.8 454.7 136.5 456.7 136.4 456.7C136.4 456.7 136.4 456.2 136.5 455.3C136.7 454.5 137 453.4 137.6 452.2C138.2 451.1 138.9 450.1 139.4 449.5C140 448.9 140.4 448.6 140.5 448.6Z" fill="#375A64"/>
<path d="M129.8 454.8C129.7 454.8 129.4 454.3 129 453.6C128.6 452.9 128.4 452.3 128.5 452.3C128.6 452.3 128.9 452.8 129.3 453.5C129.7 454.2 129.9 454.8 129.8 454.8Z" fill="#375A64"/>
<path d="M137.2 462.2C137.2 462.3 135.7 462.6 134 463.4C132.3 464.2 131.1 465.1 131 465C130.9 464.9 132.1 463.9 133.9 463.1C135.6 462.2 137.2 462.1 137.2 462.2Z" fill="#375A64"/>
<path d="M135.8 470.1C135.7 470.1 136.4 468.6 137.4 466.9C138.4 465.2 139.2 463.8 139.3 463.9C139.4 463.9 138.7 465.4 137.7 467.1C136.7 468.8 135.9 470.2 135.8 470.1Z" fill="#375A64"/>
<path d="M143.2 470.8C143.1 470.8 142.8 469.3 142.4 467.4C142 465.5 141.6 464 141.7 464C141.8 464 142.3 465.4 142.7 467.3C143.1 469.2 143.3 470.8 143.2 470.8Z" fill="#375A64"/>
<path d="M149.8 463.9C149.8 464 148.3 463.6 146.6 462.9C144.8 462.3 143.4 461.7 143.5 461.6C143.5 461.5 145 461.9 146.7 462.6C148.4 463.3 149.8 463.9 149.8 463.9Z" fill="#375A64"/>
<path d="M149.4 456.1C149.4 456.2 147.9 456.6 146.1 457.3C144.3 458 142.9 458.7 142.9 458.6C142.9 458.5 144.2 457.7 146 457C147.8 456.3 149.4 456 149.4 456.1Z" fill="#375A64"/>
<path d="M142.9 450.1C143 450.2 142.2 451.5 141.3 453.3C140.5 455.1 140 456.6 139.9 456.5C139.8 456.5 140.2 454.9 141 453.1C141.8 451.3 142.8 450 142.9 450.1Z" fill="#375A64"/>
<path d="M136.1 456.8C136.1 456.9 134.7 456.9 133 457.2C131.3 457.4 130 457.7 129.9 457.6C129.9 457.5 131.2 457.1 132.9 456.9C134.7 456.6 136.1 456.7 136.1 456.8Z" fill="#375A64"/>
<path d="M137.9 451.5C137.9 451.6 136.4 451.2 134.5 451.1C132.6 450.9 131.1 451 131.1 450.9C131.1 450.8 132.6 450.6 134.5 450.8C136.4 451 137.9 451.5 137.9 451.5Z" fill="#375A64"/>
<path d="M142.3 446.9C142.3 447 140.7 446.1 138.7 445.4C136.7 444.7 134.9 444.5 134.9 444.4C134.9 444.4 135.3 444.4 136.1 444.5C136.8 444.6 137.8 444.8 138.8 445.2C139.8 445.6 140.7 446 141.4 446.3C142 446.6 142.3 446.9 142.3 446.9Z" fill="#375A64"/>
<path d="M145.9 444.8C145.8 444.8 145.4 443.3 144.4 441.6C143.5 439.9 142.4 438.8 142.5 438.7C142.6 438.6 143.7 439.7 144.7 441.5C145.6 443.2 146 444.8 145.9 444.8Z" fill="#375A64"/>
<path d="M150.7 436.7C150.8 436.7 151.5 438.1 151.7 440.1C151.9 442.1 151.5 443.7 151.4 443.7C151.3 443.7 151.6 442.1 151.4 440.2C151.2 438.2 150.6 436.7 150.7 436.7Z" fill="#375A64"/>
<path d="M569 372.9C568.8 373 568.1 369.2 565.6 365.4C563.2 361.5 560.2 359.2 560.4 359C560.5 358.8 563.8 361 566.2 365C568.8 369 569.2 372.9 569 372.9Z" fill="#375A64"/>
<path d="M570.8 372.5C570.6 372.6 569.4 369.1 567.8 364.9C566.2 360.7 564.8 357.3 565 357.2C565.2 357.1 566.9 360.4 568.5 364.6C570.1 368.9 571 372.5 570.8 372.5Z" fill="#375A64"/>
<path d="M535.9 415.7L537.7 408.9C541.7 409.9 546.1 409.3 549.6 407.1C551 406.2 552.3 405.1 553.3 403.8C548.9 403.1 545 400.3 543.3 396.4C542.1 393.5 542.3 390 543.9 387.1C545.3 384.4 547.8 382.6 550.5 382C554.7 381.2 559.4 383.4 561.7 387.4C562.6 388.9 563.2 390.7 563.4 392.5C563.5 392.3 563.7 392.2 563.8 392C568.3 386.1 568.6 377 564.4 370.9L570.2 367C576.1 375.7 575.8 388 569.4 396.3C567.3 399 564.8 401.1 562.1 402.4C560.4 406.8 557.2 410.6 553.2 413.1C548.2 416.2 541.7 417.2 535.9 415.7ZM556.7 394.8C556.7 393.3 556.4 392 555.8 390.9C554.9 389.5 553.2 388.5 551.9 388.8C550.9 389 550.3 389.9 550.1 390.3C549.5 391.4 549.4 392.7 549.8 393.6C550.7 395.7 553.5 397.1 556.2 396.8C556.3 396.8 556.4 396.8 556.5 396.8C556.6 396.2 556.7 395.5 556.7 394.8Z" fill="#1A2E35"/>
<path d="M566.3 374.2C566.3 374.1 567.7 373.5 569.4 372.8C571.2 372.1 572.6 371.6 572.7 371.7C572.7 371.8 571.3 372.4 569.6 373.1C567.8 373.7 566.4 374.2 566.3 374.2Z" fill="#375A64"/>
<path d="M567.3 378.4C567.3 378.3 568.8 378 570.7 377.6C572.6 377.3 574.1 377.1 574.2 377.1C574.2 377.2 572.7 377.5 570.8 377.9C568.9 378.3 567.3 378.5 567.3 378.4Z" fill="#375A64"/>
<path d="M567.3 383.1C567.3 383 568.9 383 570.8 383.1C572.7 383.2 574.3 383.3 574.3 383.4C574.3 383.5 572.7 383.5 570.8 383.4C568.8 383.3 567.3 383.1 567.3 383.1Z" fill="#375A64"/>
<path d="M566.6 387.1C566.6 387 568 387.5 569.7 388.3C571.4 389 572.7 389.7 572.7 389.8C572.7 389.9 571.3 389.4 569.6 388.6C567.9 387.8 566.6 387.2 566.6 387.1Z" fill="#375A64"/>
<path d="M564.3 392.3C564.3 392.2 565.6 392.9 566.9 394C568.2 395.1 569.1 396.2 569 396.3C568.9 396.4 568 395.3 566.7 394.2C565.4 393.1 564.3 392.3 564.3 392.3Z" fill="#375A64"/>
<path d="M563.4 391.6C563.4 391.6 563.5 392.2 563.5 393.2C563.5 394.2 563.5 395.5 563.3 397C563.1 398.5 562.8 399.8 562.6 400.7C562.3 401.6 562.1 402.2 562.1 402.2C562.1 402.2 562.2 401.6 562.4 400.7C562.6 399.8 562.8 398.4 563 397C563.2 395.5 563.2 394.2 563.3 393.2C563.3 392.2 563.3 391.6 563.4 391.6Z" fill="#375A64"/>
<path d="M552.5 404.4C552.4 404.3 553.9 402.9 555.1 400.6C556.2 398.3 556.5 396.3 556.6 396.3C556.6 396.3 556.6 396.8 556.5 397.7C556.3 398.5 556 399.6 555.4 400.8C554.8 401.9 554.1 402.9 553.6 403.5C552.9 404.2 552.5 404.5 552.5 404.4Z" fill="#375A64"/>
<path d="M563.1 398.3C563.2 398.3 563.5 398.8 563.9 399.5C564.3 400.2 564.5 400.8 564.4 400.8C564.3 400.8 564 400.3 563.6 399.6C563.3 398.9 563.1 398.3 563.1 398.3Z" fill="#375A64"/>
<path d="M555.8 390.9C555.8 390.8 557.3 390.5 559 389.7C560.7 388.9 561.9 388 562 388.1C562.1 388.2 560.9 389.2 559.1 390C557.4 390.8 555.8 391 555.8 390.9Z" fill="#375A64"/>
<path d="M557.2 383C557.3 383 556.6 384.5 555.6 386.2C554.6 387.9 553.8 389.3 553.7 389.2C553.6 389.2 554.3 387.7 555.3 386C556.3 384.3 557.1 382.9 557.2 383Z" fill="#375A64"/>
<path d="M549.8 382.3C549.9 382.3 550.2 383.8 550.6 385.7C551 387.6 551.4 389.1 551.3 389.1C551.2 389.1 550.7 387.7 550.3 385.8C549.8 383.9 549.7 382.3 549.8 382.3Z" fill="#375A64"/>
<path d="M543.2 389.1C543.2 389 544.7 389.4 546.4 390.1C548.2 390.7 549.6 391.3 549.5 391.4C549.5 391.5 548 391.1 546.3 390.4C544.5 389.8 543.1 389.2 543.2 389.1Z" fill="#375A64"/>
<path d="M543.6 397C543.6 396.9 545.1 396.5 546.9 395.8C548.7 395.1 550.1 394.4 550.1 394.5C550.1 394.6 548.8 395.4 547 396.1C545.2 396.7 543.6 397 543.6 397Z" fill="#375A64"/>
<path d="M550.1 403C550 402.9 550.8 401.6 551.7 399.8C552.5 398 553 396.5 553.1 396.6C553.2 396.6 552.8 398.2 552 400C551.1 401.8 550.2 403 550.1 403Z" fill="#375A64"/>
<path d="M556.9 396.3C556.9 396.2 558.3 396.2 560 395.9C561.7 395.7 563 395.4 563.1 395.5C563.1 395.6 561.8 396 560.1 396.2C558.3 396.5 556.9 396.4 556.9 396.3Z" fill="#375A64"/>
<path d="M555.1 401.5C555.1 401.4 556.6 401.8 558.5 401.9C560.4 402.1 561.9 402 561.9 402.1C561.9 402.2 560.4 402.4 558.5 402.2C556.5 402.1 555.1 401.6 555.1 401.5Z" fill="#375A64"/>
<path d="M550.7 406.1C550.7 406 552.3 406.9 554.3 407.6C556.3 408.3 558.1 408.5 558.1 408.6C558.1 408.6 557.7 408.6 556.9 408.5C556.2 408.4 555.2 408.2 554.2 407.8C553.2 407.4 552.3 407 551.6 406.7C551 406.4 550.7 406.2 550.7 406.1Z" fill="#375A64"/>
<path d="M547.1 408.3C547.2 408.3 547.6 409.8 548.6 411.5C549.5 413.2 550.6 414.3 550.5 414.4C550.4 414.5 549.3 413.4 548.3 411.6C547.3 409.9 547 408.3 547.1 408.3Z" fill="#375A64"/>
<path d="M542.3 416.4C542.2 416.4 541.5 415 541.3 413C541.1 411 541.5 409.4 541.6 409.4C541.7 409.4 541.4 411 541.6 412.9C541.7 414.8 542.4 416.3 542.3 416.4Z" fill="#375A64"/>
<path d="M576.428 291.555L560.836 303.1L566.073 310.173L581.665 298.628L576.428 291.555Z" fill="#E1E1E1"/>
<path d="M560.7 303.1C560.8 303.1 561.3 303.8 562.3 305C563.3 306.2 564.6 307.9 566.2 310L565.7 309.9C569.7 306.8 575.1 302.7 581.2 298.3C581.3 297.7 581.1 299.1 581.1 299V298.9L581 298.8L580.8 298.6L580.5 298.1L579.8 297.2C579.4 296.6 578.9 296 578.5 295.4C577.6 294.2 576.8 293.1 576 292L576.6 292.1C572.1 295.4 568.2 298.1 565.4 300.1C564.1 301 563 301.8 562.1 302.4C561.3 302.8 560.8 303.1 560.7 303.1C560.6 303.1 561 302.8 561.7 302.2C562.6 301.5 563.6 300.7 564.8 299.7C567.5 297.6 571.4 294.6 576 291.1L576.4 290.8L576.7 291.2C577.5 292.3 578.4 293.4 579.2 294.6C579.6 295.2 580.1 295.8 580.5 296.4L581.2 297.3L581.5 297.8L581.7 298L581.8 298.1V298.2C581.8 298.1 581.6 299.5 581.7 298.9C575.6 303.4 570.1 307.4 566 310.3L565.7 310.5L565.5 310.2C563.9 307.9 562.6 306.1 561.8 304.8C561.1 303.8 560.7 303.1 560.7 303.1Z" fill="#1A2E35"/>
<path d="M585.3 290.1C582.6 286.5 577.6 285.8 574 288.4L583.6 301.4C587.2 298.7 587.9 293.6 585.3 290.1Z" fill="#E1E1E1"/>
<path d="M585.3 290.1C585.3 290.1 585.6 290.3 585.9 290.8C586.2 291.3 586.7 292.1 587 293.3C587.3 294.4 587.4 295.9 586.9 297.4C586.5 299 585.5 300.6 583.9 301.8L583.5 302.1L583.2 301.7C581.7 299.7 580.1 297.5 578.4 295.2C576.7 292.9 575.1 290.7 573.6 288.7L573.3 288.3L573.7 288C575.3 286.9 577.2 286.4 578.8 286.4C580.4 286.4 581.8 286.9 582.8 287.5C583.8 288.1 584.5 288.8 584.8 289.2C585.1 289.7 585.3 290 585.3 290.1C585.2 290.2 584.5 289 582.5 288C581.5 287.5 580.3 287.1 578.8 287.2C577.3 287.2 575.7 287.7 574.3 288.8L574.4 288.2C575.9 290.2 577.5 292.4 579.2 294.7C580.9 297 582.5 299.2 584 301.2L583.4 301.1C584.8 300 585.8 298.6 586.2 297.2C586.7 295.8 586.7 294.5 586.5 293.4C586 291.2 585.1 290.1 585.3 290.1Z" fill="#1A2E35"/>
<path d="M583.2 294.2C584.5 292.8 585 290.6 584.2 288.9L583.2 294.2Z" fill="#E1E1E1"/>
<path d="M584.3 288.9C584.5 288.8 585.4 290.1 585 291.8C584.7 293.6 583.4 294.4 583.2 294.2C583 294 583.8 293 584 291.6C584.4 290.2 584 289 584.3 288.9Z" fill="#1A2E35"/>
<path d="M573.8 293C574 292.9 575.2 294.6 576.7 296.5C578.2 298.5 579.6 300 579.4 300.2C579.2 300.4 577.5 299.1 575.9 297.1C574.3 295.1 573.5 293.1 573.8 293Z" fill="#1A2E35"/>
<path d="M571.9 294.4C572.1 294.3 573.3 296 574.8 297.9C576.3 299.9 577.7 301.4 577.5 301.6C577.3 301.8 575.6 300.5 574 298.5C572.5 296.5 571.7 294.5 571.9 294.4Z" fill="#1A2E35"/>
<path d="M570.1 295.7C570.3 295.6 571.5 297.3 573 299.3C574.5 301.3 575.9 302.8 575.7 303C575.5 303.2 573.8 301.9 572.2 299.9C570.7 297.8 569.9 295.8 570.1 295.7Z" fill="#1A2E35"/>
<path d="M568.3 297.1C568.5 297 569.7 298.7 571.2 300.7C572.7 302.7 574.1 304.2 573.9 304.4C573.7 304.6 572 303.3 570.4 301.3C568.8 299.2 568 297.2 568.3 297.1Z" fill="#1A2E35"/>
<path d="M566.4 298.4C566.6 298.3 567.8 300 569.3 302C570.8 304 572.2 305.5 572 305.7C571.8 305.9 570.1 304.6 568.5 302.6C567 300.5 566.2 298.5 566.4 298.4Z" fill="#1A2E35"/>
<path d="M564.6 299.8C564.8 299.7 566 301.4 567.5 303.4C569 305.4 570.4 306.9 570.2 307.1C570 307.3 568.3 306 566.7 304C565.2 301.9 564.4 299.9 564.6 299.8Z" fill="#1A2E35"/>
<path d="M562.8 301.1C563 301 564.2 302.7 565.7 304.7C567.2 306.7 568.6 308.2 568.4 308.4C568.2 308.6 566.5 307.3 564.9 305.3C563.4 303.2 562.6 301.3 562.8 301.1Z" fill="#1A2E35"/>
<path d="M83.4202 436.074L69.7471 449.837L75.9898 456.039L89.6629 442.277L83.4202 436.074Z" fill="#E1E1E1"/>
<path d="M89.5999 442.3C89.4999 442.3 88.8999 441.7 87.6999 440.7C86.5999 439.7 84.9999 438.2 83.0999 436.4H83.5999C80.0999 440 75.2999 444.9 69.9999 450.2C69.9999 450.8 69.9999 449.4 69.9999 449.5L70.0999 449.6L70.1999 449.7L70.3999 449.9L70.7999 450.3L71.5999 451.1C72.0999 451.6 72.6999 452.2 73.1999 452.7C74.1999 453.7 75.1999 454.7 76.1999 455.7H75.4999C79.3999 451.8 82.8999 448.5 85.3999 446.1C86.5999 445 87.4999 444.1 88.3999 443.3C89.1999 442.7 89.5999 442.3 89.5999 442.3C89.6999 442.3 89.2999 442.7 88.6999 443.3C87.8999 444.1 87.0999 445.1 85.9999 446.2C83.6999 448.7 80.2999 452.2 76.1999 456.3L75.8999 456.6L75.5999 456.3C74.5999 455.3 73.5999 454.3 72.5999 453.3C72.0999 452.8 71.4999 452.3 70.9999 451.7L70.1999 450.9L69.7999 450.5L69.5999 450.3L69.4999 450.2L69.3999 450.1C69.3999 450.2 69.3999 448.8 69.3999 449.4C74.6999 444.1 79.5999 439.2 83.1999 435.7L83.4999 435.5L83.6999 435.7C85.5999 437.7 87.1999 439.3 88.1999 440.4C89.1999 441.7 89.6999 442.3 89.5999 442.3Z" fill="#1A2E35"/>
<path d="M67.4 458.9C70.6 462 75.6999 462 78.7999 458.9L67.2999 447.5C64.1999 450.6 64.2 455.8 67.4 458.9Z" fill="#E1E1E1"/>
<path d="M67.4 458.9C67.4 458.9 67.1 458.7 66.7 458.3C66.3 457.8 65.7 457.1 65.3 456C64.9 454.9 64.6 453.5 64.8 451.9C65 450.3 65.7 448.5 67.1 447.1L67.4 446.8L67.7 447.1C69.5 448.9 71.4 450.8 73.5 452.8C75.5 454.8 77.4 456.7 79.2 458.5L79.5 458.8L79.2 459.1C77.8 460.5 76 461.2 74.4 461.4C72.8 461.6 71.4 461.3 70.3 460.9C69.2 460.5 68.5 459.9 68 459.5C67.6 459.2 67.4 459 67.4 458.9C67.5 458.8 68.4 459.8 70.5 460.5C71.5 460.8 72.9 461 74.3 460.8C75.8 460.6 77.3 459.8 78.5 458.6V459.2C76.7 457.4 74.8 455.5 72.7 453.5C70.7 451.5 68.8 449.6 67 447.8H67.6C66.4 449.1 65.6 450.6 65.4 452.1C65.1 453.6 65.4 454.9 65.7 455.9C66.5 457.9 67.5 458.8 67.4 458.9Z" fill="#1A2E35"/>
<path d="M68.7997 454.5C67.6997 456.1 67.5997 458.3 68.5997 459.9L68.7997 454.5Z" fill="#E1E1E1"/>
<path d="M68.4998 459.9C68.2998 460.1 67.2998 458.9 67.2998 457.1C67.3998 455.3 68.4998 454.2 68.6998 454.4C68.8998 454.6 68.2998 455.7 68.2998 457.1C68.2998 458.7 68.7998 459.8 68.4998 459.9Z" fill="#1A2E35"/>
<path d="M78.3 454.3C78.1 454.5 76.7001 453 74.9001 451.2C73.1001 449.5 71.5001 448.1 71.7001 447.9C71.8001 447.7 73.7 448.7 75.6 450.5C77.4 452.3 78.5 454.1 78.3 454.3Z" fill="#1A2E35"/>
<path d="M79.9002 452.6C79.7002 452.8 78.3002 451.3 76.5002 449.5C74.7002 447.8 73.1002 446.4 73.3002 446.2C73.4002 446 75.3002 447 77.2002 448.8C79.0002 450.7 80.1002 452.5 79.9002 452.6Z" fill="#1A2E35"/>
<path d="M81.4997 451C81.2997 451.2 79.8997 449.7 78.0997 447.9C76.2997 446.2 74.6998 444.8 74.8998 444.6C74.9998 444.4 76.8997 445.4 78.7997 447.2C80.5997 449.1 81.6997 450.9 81.4997 451Z" fill="#1A2E35"/>
<path d="M83.0998 449.4C82.8998 449.6 81.4999 448.1 79.6999 446.3C77.8999 444.6 76.2999 443.2 76.4999 443C76.5999 442.8 78.4999 443.8 80.3999 445.6C82.1999 447.4 83.2998 449.3 83.0998 449.4Z" fill="#1A2E35"/>
<path d="M84.7 447.8C84.5 448 83.1 446.5 81.3 444.7C79.5 443 77.9 441.6 78.1 441.4C78.2 441.2 80.1 442.2 82 444C83.9 445.8 84.9 447.7 84.7 447.8Z" fill="#1A2E35"/>
<path d="M86.3 446.2C86.1 446.4 84.7001 444.9 82.9001 443.1C81.1001 441.4 79.5001 440 79.7001 439.8C79.8001 439.6 81.7 440.6 83.6 442.4C85.5 444.2 86.5 446 86.3 446.2Z" fill="#1A2E35"/>
<path d="M87.9002 444.6C87.7002 444.8 86.3002 443.3 84.5002 441.5C82.7002 439.8 81.1002 438.4 81.3002 438.2C81.4002 438 83.3002 439 85.2002 440.8C87.1002 442.6 88.1002 444.4 87.9002 444.6Z" fill="#1A2E35"/>
<path d="M417.8 191.3C410.1 190 404 184.9 401.2 177.6C398.5 170.3 399.8 162.4 404.7 156.4L483.6 60.5998C488.6 54.5998 496.1 51.7998 503.8 52.9998C503.8 52.9998 503.8 52.9998 503.9 52.9998C511.6 54.2998 517.7 59.3998 520.5 66.6998L564 183C566.7 190.3 565.4 198.2 560.5 204.2C555.5 210.2 548 213 540.3 211.8L417.8 191.3C417.9 191.3 417.9 191.3 417.8 191.3Z" fill="#7D7D7D"/>
<path d="M417.8 191.3C417.8 191.3 418.2 191.3 419.1 191.5C420 191.6 421.2 191.8 422.9 192.1C426.3 192.6 431.2 193.4 437.5 194.5C450.2 196.6 468.5 199.6 491.2 203.3C502.5 205.2 515 207.2 528.3 209.4C531.6 210 535 210.5 538.5 211.1C540.2 211.4 541.9 211.7 543.7 211.7C545.4 211.7 547.2 211.5 548.9 211.1C555.8 209.5 561.9 204 564.1 196.8C565.2 193.2 565.4 189.3 564.5 185.6C564.1 183.7 563.3 182 562.6 180.1C561.9 178.3 561.2 176.4 560.5 174.5C557.7 167.1 554.9 159.5 552 151.7C546.2 136.2 540.2 120.2 534 103.8C530.9 95.5998 527.9 87.4998 524.9 79.4998C523.4 75.4998 521.9 71.4998 520.4 67.5998C519 63.6998 516.7 60.0998 513.5 57.5998C507.1 52.4998 498 51.5998 491 55.0998C489.2 55.9998 487.6 57.0998 486.2 58.3998C484.8 59.6998 483.6 61.1999 482.3 62.6999C479.8 65.6999 477.4 68.6998 475 71.5998C455.7 94.9998 438.3 116.1 423.6 133.9C416.3 142.8 409.6 150.7 403.9 157.8C401.3 161.5 400.1 165.7 400 169.6C399.9 173.5 400.9 177 402.4 179.8C403.8 182.7 405.7 184.8 407.6 186.4C409.5 188 411.3 189 412.9 189.7C414.4 190.4 415.7 190.7 416.5 190.9C417.4 191.2 417.8 191.3 417.8 191.3C417.8 191.3 417.4 191.2 416.5 191.1C415.7 190.9 414.4 190.6 412.8 189.9C411.2 189.2 409.4 188.3 407.4 186.7C405.5 185.1 403.5 182.9 402.1 180C400.6 177.1 399.6 173.6 399.6 169.6C399.6 165.7 400.9 161.4 403.5 157.6C409.2 150.4 415.9 142.5 423.1 133.6C437.7 115.8 455.1 94.6999 474.3 71.1999C476.7 68.2999 479.2 65.2998 481.6 62.2998C482.8 60.7998 484 59.1998 485.5 57.8998C487 56.5998 488.7 55.3998 490.5 54.4998C497.8 50.7998 507.3 51.6998 513.8 57.0998C517.1 59.6998 519.6 63.3998 521 67.3998C522.5 71.2998 524 75.2998 525.5 79.2998C528.5 87.2998 531.5 95.3998 534.6 103.6C540.7 120 546.7 136 552.5 151.5C555.4 159.2 558.2 166.8 561 174.3C561.7 176.2 562.4 178 563.1 179.9C563.8 181.7 564.6 183.6 565 185.5C565.9 189.3 565.8 193.4 564.6 197.1C562.3 204.5 556 210.2 548.8 211.8C547 212.2 545.2 212.4 543.4 212.4C541.6 212.4 539.8 212.1 538.1 211.8C534.7 211.2 531.3 210.7 527.9 210.1C514.6 207.9 502.2 205.8 490.8 203.9C468.2 200.1 449.8 197 437.1 194.8C430.8 193.7 425.9 192.9 422.5 192.3C420.8 192 419.6 191.8 418.7 191.6C418.3 191.4 417.8 191.3 417.8 191.3Z" fill="#1A2E35"/>
<path d="M502.9 59.2998C497.5 58.3998 492.2 60.3998 488.7 64.5998L409.8 160.4C406.3 164.6 405.4 170.2 407.3 175.3C409.2 180.4 413.6 184 418.9 184.9L541.4 205.3C546.8 206.2 552.1 204.2 555.6 200C559.1 195.8 560 190.2 558.1 185.1L514.6 68.7998C512.6 63.7998 508.3 60.1998 502.9 59.2998Z" fill="white"/>
<path d="M476.1 165.8C476.8 161.4 480.8 158.5 485.6 159.3C490.3 160.1 493.1 164.1 492.3 168.4C491.6 172.8 487.7 175.8 483 175C478.2 174.3 475.4 170.2 476.1 165.8ZM487.2 102.1L502.2 104.5L491.9 151.6L481.9 150L487.2 102.1Z" fill="#FF4F5B"/>
<path d="M467.3 199.5L454.5 262.9H481.9L493.1 203.8L467.3 199.5Z" fill="#375A64"/>
<path d="M492.8 586.9H195.5V653.4H492.8V586.9Z" fill="#7FB097"/>
<path d="M541.5 669.1H157.1C154.9 669.1 153 667.3 153 665V657.5C153 655.3 154.8 653.4 157.1 653.4H541.5C543.7 653.4 545.6 655.2 545.6 657.5V665C545.6 667.3 543.7 669.1 541.5 669.1Z" fill="#7FB097"/>
<path d="M535.3 234.4H159.6C157.7 234.4 156.2 235.9 156.2 237.8V583.5C156.2 585.4 157.7 586.9 159.6 586.9H535.3C537.2 586.9 538.7 585.4 538.7 583.5V237.8C538.6 235.9 537.1 234.4 535.3 234.4Z" fill="#E1E1E1"/>
<path d="M516 260.3H176.2V570.1H516V260.3Z" fill="#7FB097"/>
<path d="M500.2 374.1H184.6V452.4H500.2V374.1Z" fill="#CEE1D8"/>
<path d="M260.7 390.2H198.6V399.8H260.7V390.2Z" fill="#006230"/>
<path d="M260.7 406.6H198.6V416.2H260.7V406.6Z" fill="#006230"/>
<path d="M260.7 423.6H198.6V433.2H260.7V423.6Z" fill="#006230"/>
<path d="M285.3 396C285.3 398 283.7 399.6 281.7 399.6C279.7 399.6 278.1 398 278.1 396C278.1 394 279.7 392.4 281.7 392.4C283.7 392.4 285.3 394 285.3 396Z" fill="#1A2E35"/>
<path d="M301 396C301 398 299.4 399.6 297.4 399.6C295.4 399.6 293.8 398 293.8 396C293.8 394 295.4 392.4 297.4 392.4C299.4 392.4 301 394 301 396Z" fill="#1A2E35"/>
<path d="M316.8 396C316.8 398 315.2 399.6 313.2 399.6C311.2 399.6 309.6 398 309.6 396C309.6 394 311.2 392.4 313.2 392.4C315.2 392.4 316.8 394 316.8 396Z" fill="#1A2E35"/>
<path d="M332.5 396C332.5 398 330.9 399.6 328.9 399.6C326.9 399.6 325.3 398 325.3 396C325.3 394 326.9 392.4 328.9 392.4C330.9 392.4 332.5 394 332.5 396Z" fill="#1A2E35"/>
<path d="M454.4 396C454.4 398 452.8 399.6 450.8 399.6C448.8 399.6 447.2 398 447.2 396C447.2 394 448.8 392.4 450.8 392.4C452.8 392.4 454.4 394 454.4 396Z" fill="#1A2E35"/>
<path d="M470.4 396C470.4 398 468.8 399.6 466.8 399.6C464.8 399.6 463.2 398 463.2 396C463.2 394 464.8 392.4 466.8 392.4C468.8 392.4 470.4 394 470.4 396Z" fill="#1A2E35"/>
<path d="M348.2 396C348.2 398 346.6 399.6 344.6 399.6C342.6 399.6 341 398 341 396C341 394 342.6 392.4 344.6 392.4C346.6 392.4 348.2 394 348.2 396Z" fill="#1A2E35"/>
<path d="M425.5 396C425.5 398 423.9 399.6 421.9 399.6C419.9 399.6 418.3 398 418.3 396C418.3 394 419.9 392.4 421.9 392.4C423.9 392.4 425.5 394 425.5 396Z" fill="#1A2E35"/>
<path d="M363.9 396C363.9 398 362.3 399.6 360.3 399.6C358.3 399.6 356.7 398 356.7 396C356.7 394 358.3 392.4 360.3 392.4C362.3 392.4 363.9 394 363.9 396Z" fill="#F5F5F5"/>
<path d="M379.7 396C379.7 398 378.1 399.6 376.1 399.6C374.1 399.6 372.5 398 372.5 396C372.5 394 374.1 392.4 376.1 392.4C378.1 392.4 379.7 394 379.7 396Z" fill="#F5F5F5"/>
<path d="M411.6 396C411.6 398 410 399.6 408 399.6C406 399.6 404.4 398 404.4 396C404.4 394 406 392.4 408 392.4C410 392.4 411.6 394 411.6 396Z" fill="#F5F5F5"/>
<path d="M483.5 396C483.5 398 481.9 399.6 479.9 399.6C477.9 399.6 476.3 398 476.3 396C476.3 394 477.9 392.4 479.9 392.4C481.9 392.4 483.5 394 483.5 396Z" fill="#F5F5F5"/>
<path d="M395.4 396C395.4 398 393.8 399.6 391.8 399.6C389.8 399.6 388.2 398 388.2 396C388.2 394 389.8 392.4 391.8 392.4C393.8 392.4 395.4 394 395.4 396Z" fill="#7D7D7D"/>
<path d="M441.6 396C441.6 398 440 399.6 438 399.6C436 399.6 434.4 398 434.4 396C434.4 394 436 392.4 438 392.4C440 392.4 441.6 394 441.6 396Z" fill="#7D7D7D"/>
<path d="M476.3 413.1C476.3 411.1 477.9 409.5 479.9 409.5C481.9 409.5 483.5 411.1 483.5 413.1C483.5 415.1 481.9 416.7 479.9 416.7C477.9 416.7 476.3 415.1 476.3 413.1Z" fill="#1A2E35"/>
<path d="M460.6 413.1C460.6 411.1 462.2 409.5 464.2 409.5C466.2 409.5 467.8 411.1 467.8 413.1C467.8 415.1 466.2 416.7 464.2 416.7C462.2 416.7 460.6 415.1 460.6 413.1Z" fill="#1A2E35"/>
<path d="M444.9 413.1C444.9 411.1 446.5 409.5 448.5 409.5C450.5 409.5 452.1 411.1 452.1 413.1C452.1 415.1 450.5 416.7 448.5 416.7C446.5 416.7 444.9 415.1 444.9 413.1Z" fill="#1A2E35"/>
<path d="M429.1 413.1C429.1 411.1 430.7 409.5 432.7 409.5C434.7 409.5 436.3 411.1 436.3 413.1C436.3 415.1 434.7 416.7 432.7 416.7C430.7 416.7 429.1 415.1 429.1 413.1Z" fill="#1A2E35"/>
<path d="M307.3 413.1C307.3 411.1 308.9 409.5 310.9 409.5C312.9 409.5 314.5 411.1 314.5 413.1C314.5 415.1 312.9 416.7 310.9 416.7C308.9 416.7 307.3 415.1 307.3 413.1Z" fill="#1A2E35"/>
<path d="M291.2 413.1C291.2 411.1 292.8 409.5 294.8 409.5C296.8 409.5 298.4 411.1 298.4 413.1C298.4 415.1 296.8 416.7 294.8 416.7C292.8 416.7 291.2 415.1 291.2 413.1Z" fill="#1A2E35"/>
<path d="M413.4 413.1C413.4 411.1 415 409.5 417 409.5C419 409.5 420.6 411.1 420.6 413.1C420.6 415.1 419 416.7 417 416.7C415 416.7 413.4 415.1 413.4 413.1Z" fill="#1A2E35"/>
<path d="M336.2 413.1C336.2 411.1 337.8 409.5 339.8 409.5C341.8 409.5 343.4 411.1 343.4 413.1C343.4 415.1 341.8 416.7 339.8 416.7C337.8 416.7 336.2 415.1 336.2 413.1Z" fill="#1A2E35"/>
<path d="M397.7 413.1C397.7 411.1 399.3 409.5 401.3 409.5C403.3 409.5 404.9 411.1 404.9 413.1C404.9 415.1 403.3 416.7 401.3 416.7C399.3 416.7 397.7 415.1 397.7 413.1Z" fill="#F5F5F5"/>
<path d="M382 413.1C382 411.1 383.6 409.5 385.6 409.5C387.6 409.5 389.2 411.1 389.2 413.1C389.2 415.1 387.6 416.7 385.6 416.7C383.6 416.7 382 415.1 382 413.1Z" fill="#F5F5F5"/>
<path d="M350 413.1C350 411.1 351.6 409.5 353.6 409.5C355.6 409.5 357.2 411.1 357.2 413.1C357.2 415.1 355.6 416.7 353.6 416.7C351.6 416.7 350 415.1 350 413.1Z" fill="#F5F5F5"/>
<path d="M278.2 413.1C278.2 411.1 279.8 409.5 281.8 409.5C283.8 409.5 285.4 411.1 285.4 413.1C285.4 415.1 283.8 416.7 281.8 416.7C279.8 416.7 278.2 415.1 278.2 413.1Z" fill="#F5F5F5"/>
<path d="M366.2 413.1C366.2 411.1 367.8 409.5 369.8 409.5C371.8 409.5 373.4 411.1 373.4 413.1C373.4 415.1 371.8 416.7 369.8 416.7C367.8 416.7 366.2 415.1 366.2 413.1Z" fill="#7D7D7D"/>
<path d="M321.2 413.1C321.2 411.1 322.8 409.5 324.8 409.5C326.8 409.5 328.4 411.1 328.4 413.1C328.4 415.1 326.8 416.7 324.8 416.7C322.8 416.7 321.2 415.1 321.2 413.1Z" fill="#7D7D7D"/>
<path d="M285.3 428.4C285.3 430.4 283.7 432 281.7 432C279.7 432 278.1 430.4 278.1 428.4C278.1 426.4 279.7 424.8 281.7 424.8C283.7 424.9 285.3 426.5 285.3 428.4Z" fill="#1A2E35"/>
<path d="M297.5 432C299.489 432 301.1 430.388 301.1 428.4C301.1 426.412 299.489 424.8 297.5 424.8C295.512 424.8 293.9 426.412 293.9 428.4C293.9 430.388 295.512 432 297.5 432Z" fill="#1A2E35"/>
<path d="M313.2 432C315.188 432 316.8 430.388 316.8 428.4C316.8 426.412 315.188 424.8 313.2 424.8C311.212 424.8 309.6 426.412 309.6 428.4C309.6 430.388 311.212 432 313.2 432Z" fill="#1A2E35"/>
<path d="M332.5 428.4C332.5 430.4 330.9 432 328.9 432C326.9 432 325.3 430.4 325.3 428.4C325.3 426.4 326.9 424.8 328.9 424.8C330.9 424.8 332.5 426.5 332.5 428.4Z" fill="#1A2E35"/>
<path d="M450.8 432C452.789 432 454.4 430.388 454.4 428.4C454.4 426.412 452.789 424.8 450.8 424.8C448.812 424.8 447.2 426.412 447.2 428.4C447.2 430.388 448.812 432 450.8 432Z" fill="#1A2E35"/>
<path d="M466.8 432C468.789 432 470.4 430.388 470.4 428.4C470.4 426.412 468.789 424.8 466.8 424.8C464.812 424.8 463.2 426.412 463.2 428.4C463.2 430.388 464.812 432 466.8 432Z" fill="#1A2E35"/>
<path d="M348.2 428.4C348.2 430.4 346.6 432 344.6 432C342.6 432 341 430.4 341 428.4C341 426.4 342.6 424.8 344.6 424.8C346.6 424.9 348.2 426.5 348.2 428.4Z" fill="#1A2E35"/>
<path d="M425.5 428.4C425.5 430.4 423.9 432 421.9 432C419.9 432 418.3 430.4 418.3 428.4C418.3 426.4 419.9 424.8 421.9 424.8C423.9 424.8 425.5 426.5 425.5 428.4Z" fill="#1A2E35"/>
<path d="M360.4 432C362.389 432 364 430.388 364 428.4C364 426.412 362.389 424.8 360.4 424.8C358.412 424.8 356.8 426.412 356.8 428.4C356.8 430.388 358.412 432 360.4 432Z" fill="#F5F5F5"/>
<path d="M379.7 428.4C379.7 430.4 378.1 432 376.1 432C374.1 432 372.5 430.4 372.5 428.4C372.5 426.4 374.1 424.8 376.1 424.8C378.1 424.9 379.7 426.5 379.7 428.4Z" fill="#F5F5F5"/>
<path d="M411.6 428.4C411.6 430.4 410 432 408 432C406 432 404.4 430.4 404.4 428.4C404.4 426.4 406 424.8 408 424.8C410 424.9 411.6 426.5 411.6 428.4Z" fill="#F5F5F5"/>
<path d="M483.5 428.4C483.5 430.4 481.9 432 479.9 432C477.9 432 476.3 430.4 476.3 428.4C476.3 426.4 477.9 424.8 479.9 424.8C481.9 424.9 483.5 426.5 483.5 428.4Z" fill="#F5F5F5"/>
<path d="M395.4 428.4C395.4 430.4 393.8 432 391.8 432C389.8 432 388.2 430.4 388.2 428.4C388.2 426.4 389.8 424.8 391.8 424.8C393.8 424.8 395.4 426.5 395.4 428.4Z" fill="#7D7D7D"/>
<path d="M436.9 432C438.888 432 440.5 430.388 440.5 428.4C440.5 426.412 438.888 424.8 436.9 424.8C434.912 424.8 433.3 426.412 433.3 428.4C433.3 430.388 434.912 432 436.9 432Z" fill="#7D7D7D"/>
<path d="M500.2 470.7H184.6V549H500.2V470.7Z" fill="#CEE1D8"/>
<path d="M284.5 491.8C284.5 493.8 282.9 495.4 280.9 495.4C278.9 495.4 277.3 493.8 277.3 491.8C277.3 489.8 278.9 488.2 280.9 488.2C282.9 488.2 284.5 489.8 284.5 491.8Z" fill="#1A2E35"/>
<path d="M300.201 491.8C300.201 493.8 298.6 495.4 296.6 495.4C294.6 495.4 293 493.8 293 491.8C293 489.8 294.6 488.2 296.6 488.2C298.6 488.2 300.201 489.8 300.201 491.8Z" fill="#1A2E35"/>
<path d="M316 491.8C316 493.8 314.4 495.4 312.4 495.4C310.4 495.4 308.8 493.8 308.8 491.8C308.8 489.8 310.4 488.2 312.4 488.2C314.4 488.2 316 489.8 316 491.8Z" fill="#1A2E35"/>
<path d="M331.701 491.8C331.701 493.8 330.1 495.4 328.1 495.4C326.1 495.4 324.5 493.8 324.5 491.8C324.5 489.8 326.1 488.2 328.1 488.2C330.1 488.2 331.701 489.8 331.701 491.8Z" fill="#1A2E35"/>
<path d="M453.6 491.8C453.6 493.8 452 495.4 450 495.4C448 495.4 446.4 493.8 446.4 491.8C446.4 489.8 448 488.2 450 488.2C452 488.2 453.6 489.8 453.6 491.8Z" fill="#1A2E35"/>
<path d="M469.6 491.8C469.6 493.8 468 495.4 466 495.4C464 495.4 462.4 493.8 462.4 491.8C462.4 489.8 464 488.2 466 488.2C468 488.2 469.6 489.8 469.6 491.8Z" fill="#1A2E35"/>
<path d="M347.4 491.8C347.4 493.8 345.8 495.4 343.8 495.4C341.8 495.4 340.2 493.8 340.2 491.8C340.2 489.8 341.8 488.2 343.8 488.2C345.8 488.2 347.4 489.8 347.4 491.8Z" fill="#1A2E35"/>
<path d="M424.7 491.8C424.7 493.8 423.1 495.4 421.1 495.4C419.1 495.4 417.5 493.8 417.5 491.8C417.5 489.8 419.1 488.2 421.1 488.2C423.1 488.2 424.7 489.8 424.7 491.8Z" fill="#1A2E35"/>
<path d="M363.201 491.8C363.201 493.8 361.6 495.4 359.6 495.4C357.6 495.4 356 493.8 356 491.8C356 489.8 357.6 488.2 359.6 488.2C361.6 488.2 363.201 489.8 363.201 491.8Z" fill="#F5F5F5"/>
<path d="M378.9 491.8C378.9 493.8 377.3 495.4 375.3 495.4C373.3 495.4 371.7 493.8 371.7 491.8C371.7 489.8 373.3 488.2 375.3 488.2C377.3 488.2 378.9 489.8 378.9 491.8Z" fill="#F5F5F5"/>
<path d="M410.8 491.8C410.8 493.8 409.2 495.4 407.2 495.4C405.2 495.4 403.6 493.8 403.6 491.8C403.6 489.8 405.2 488.2 407.2 488.2C409.2 488.2 410.8 489.8 410.8 491.8Z" fill="#F5F5F5"/>
<path d="M482.7 491.8C482.7 493.8 481.1 495.4 479.1 495.4C477.1 495.4 475.5 493.8 475.5 491.8C475.5 489.8 477.1 488.2 479.1 488.2C481.1 488.2 482.7 489.8 482.7 491.8Z" fill="#F5F5F5"/>
<path d="M394.6 491.8C394.6 493.8 393 495.4 391 495.4C389 495.4 387.4 493.8 387.4 491.8C387.4 489.8 389 488.2 391 488.2C393 488.2 394.6 489.8 394.6 491.8Z" fill="#7D7D7D"/>
<path d="M439.7 491.8C439.7 493.8 438.1 495.4 436.1 495.4C434.1 495.4 432.5 493.8 432.5 491.8C432.5 489.8 434.1 488.2 436.1 488.2C438.1 488.2 439.7 489.8 439.7 491.8Z" fill="#7D7D7D"/>
<path d="M475.601 509C475.601 507 477.201 505.4 479.201 505.4C481.201 505.4 482.801 507 482.801 509C482.801 511 481.201 512.6 479.201 512.6C477.201 512.6 475.601 510.9 475.601 509Z" fill="#1A2E35"/>
<path d="M463.4 512.6C465.388 512.6 467 510.988 467 509C467 507.012 465.388 505.4 463.4 505.4C461.412 505.4 459.8 507.012 459.8 509C459.8 510.988 461.412 512.6 463.4 512.6Z" fill="#1A2E35"/>
<path d="M444.101 509C444.101 507 445.701 505.4 447.701 505.4C449.701 505.4 451.301 507 451.301 509C451.301 511 449.701 512.6 447.701 512.6C445.701 512.5 444.101 510.9 444.101 509Z" fill="#1A2E35"/>
<path d="M428.4 509C428.4 507 430 505.4 432 505.4C434 505.4 435.6 507 435.6 509C435.6 511 434 512.6 432 512.6C430 512.5 428.4 510.9 428.4 509Z" fill="#1A2E35"/>
<path d="M306.5 509C306.5 507 308.1 505.4 310.1 505.4C312.1 505.4 313.701 507 313.701 509C313.701 511 312.1 512.6 310.1 512.6C308.1 512.5 306.5 510.9 306.5 509Z" fill="#1A2E35"/>
<path d="M290.4 509C290.4 507 292 505.4 294 505.4C296 505.4 297.6 507 297.6 509C297.6 511 296 512.6 294 512.6C292 512.6 290.4 510.9 290.4 509Z" fill="#1A2E35"/>
<path d="M416.201 512.6C418.189 512.6 419.801 510.988 419.801 509C419.801 507.012 418.189 505.4 416.201 505.4C414.212 505.4 412.601 507.012 412.601 509C412.601 510.988 414.212 512.6 416.201 512.6Z" fill="#1A2E35"/>
<path d="M335.4 509C335.4 507 337 505.4 339 505.4C341 505.4 342.6 507 342.6 509C342.6 511 341 512.6 339 512.6C337 512.5 335.4 510.9 335.4 509Z" fill="#1A2E35"/>
<path d="M396.9 509C396.9 507 398.5 505.4 400.5 505.4C402.5 505.4 404.1 507 404.1 509C404.1 511 402.5 512.6 400.5 512.6C398.5 512.5 396.9 510.9 396.9 509Z" fill="#F5F5F5"/>
<path d="M381.2 509C381.2 507 382.8 505.4 384.8 505.4C386.8 505.4 388.4 507 388.4 509C388.4 511 386.8 512.6 384.8 512.6C382.8 512.5 381.2 510.9 381.2 509Z" fill="#F5F5F5"/>
<path d="M352.8 512.6C354.788 512.6 356.4 510.988 356.4 509C356.4 507.012 354.788 505.4 352.8 505.4C350.812 505.4 349.2 507.012 349.2 509C349.2 510.988 350.812 512.6 352.8 512.6Z" fill="#F5F5F5"/>
<path d="M277.4 509C277.4 507 279 505.4 281 505.4C283 505.4 284.6 507 284.6 509C284.6 511 283 512.6 281 512.6C279 512.6 277.4 510.9 277.4 509Z" fill="#F5F5F5"/>
<path d="M365.5 509C365.5 507 367.1 505.4 369.1 505.4C371.1 505.4 372.701 507 372.701 509C372.701 511 371.1 512.6 369.1 512.6C367 512.5 365.5 510.9 365.5 509Z" fill="#7D7D7D"/>
<path d="M320.4 509C320.4 507 322 505.4 324 505.4C326 505.4 327.6 507 327.6 509C327.6 511 326 512.6 324 512.6C322 512.5 320.4 510.9 320.4 509Z" fill="#7D7D7D"/>
<path d="M284.5 524.3C284.5 526.3 282.9 527.9 280.9 527.9C278.9 527.9 277.3 526.3 277.3 524.3C277.3 522.3 278.9 520.7 280.9 520.7C282.9 520.7 284.5 522.3 284.5 524.3Z" fill="#1A2E35"/>
<path d="M300.201 524.3C300.201 526.3 298.6 527.9 296.6 527.9C294.6 527.9 293 526.3 293 524.3C293 522.3 294.6 520.7 296.6 520.7C298.6 520.7 300.201 522.3 300.201 524.3Z" fill="#1A2E35"/>
<path d="M316 524.3C316 526.3 314.4 527.9 312.4 527.9C310.4 527.9 308.8 526.3 308.8 524.3C308.8 522.3 310.4 520.7 312.4 520.7C314.4 520.7 316 522.3 316 524.3Z" fill="#1A2E35"/>
<path d="M331.701 524.3C331.701 526.3 330.1 527.9 328.1 527.9C326.1 527.9 324.5 526.3 324.5 524.3C324.5 522.3 326.1 520.7 328.1 520.7C330.1 520.7 331.701 522.3 331.701 524.3Z" fill="#1A2E35"/>
<path d="M453.6 524.3C453.6 526.3 452 527.9 450 527.9C448 527.9 446.4 526.3 446.4 524.3C446.4 522.3 448 520.7 450 520.7C452 520.7 453.6 522.3 453.6 524.3Z" fill="#1A2E35"/>
<path d="M469.6 524.3C469.6 526.3 468 527.9 466 527.9C464 527.9 462.4 526.3 462.4 524.3C462.4 522.3 464 520.7 466 520.7C468 520.7 469.6 522.3 469.6 524.3Z" fill="#1A2E35"/>
<path d="M347.4 524.3C347.4 526.3 345.8 527.9 343.8 527.9C341.8 527.9 340.2 526.3 340.2 524.3C340.2 522.3 341.8 520.7 343.8 520.7C345.8 520.7 347.4 522.3 347.4 524.3Z" fill="#1A2E35"/>
<path d="M424.7 524.3C424.7 526.3 423.1 527.9 421.1 527.9C419.1 527.9 417.5 526.3 417.5 524.3C417.5 522.3 419.1 520.7 421.1 520.7C423.1 520.7 424.7 522.3 424.7 524.3Z" fill="#1A2E35"/>
<path d="M363.201 524.3C363.201 526.3 361.6 527.9 359.6 527.9C357.6 527.9 356 526.3 356 524.3C356 522.3 357.6 520.7 359.6 520.7C361.6 520.7 363.201 522.3 363.201 524.3Z" fill="#F5F5F5"/>
<path d="M378.9 524.3C378.9 526.3 377.3 527.9 375.3 527.9C373.3 527.9 371.7 526.3 371.7 524.3C371.7 522.3 373.3 520.7 375.3 520.7C377.3 520.7 378.9 522.3 378.9 524.3Z" fill="#F5F5F5"/>
<path d="M410.8 524.3C410.8 526.3 409.2 527.9 407.2 527.9C405.2 527.9 403.6 526.3 403.6 524.3C403.6 522.3 405.2 520.7 407.2 520.7C409.2 520.7 410.8 522.3 410.8 524.3Z" fill="#F5F5F5"/>
<path d="M482.7 524.3C482.7 526.3 481.1 527.9 479.1 527.9C477.1 527.9 475.5 526.3 475.5 524.3C475.5 522.3 477.1 520.7 479.1 520.7C481.1 520.7 482.7 522.3 482.7 524.3Z" fill="#F5F5F5"/>
<path d="M394.6 524.3C394.6 526.3 393 527.9 391 527.9C389 527.9 387.4 526.3 387.4 524.3C387.4 522.3 389 520.7 391 520.7C393 520.7 394.6 522.3 394.6 524.3Z" fill="#7D7D7D"/>
<path d="M439.7 524.3C439.7 526.3 438.1 527.9 436.1 527.9C434.1 527.9 432.5 526.3 432.5 524.3C432.5 522.3 434.1 520.7 436.1 520.7C438.1 520.7 439.7 522.3 439.7 524.3Z" fill="#7D7D7D"/>
<path d="M260.7 486.8H198.6V496.4H260.7V486.8Z" fill="#006230"/>
<path d="M260.7 503.2H198.6V512.8H260.7V503.2Z" fill="#006230"/>
<path d="M260.7 520.3H198.6V529.9H260.7V520.3Z" fill="#006230"/>
<path d="M263 327.7H200.9V337.3H263V327.7Z" fill="#1A2E35"/>
<path d="M502.5 278.1H186.9V356.4H502.5V278.1Z" fill="#CEE1D8"/>
<path d="M263 294.3H200.9V303.9H263V294.3Z" fill="#006230"/>
<path d="M263 310.7H200.9V320.3H263V310.7Z" fill="#006230"/>
<path d="M287.6 300C287.6 302 286 303.6 284 303.6C282 303.6 280.4 302 280.4 300C280.4 298 282 296.4 284 296.4C286 296.5 287.6 298.1 287.6 300Z" fill="#1A2E35"/>
<path d="M303.301 300C303.301 302 301.701 303.6 299.701 303.6C297.701 303.6 296.101 302 296.101 300C296.101 298 297.701 296.4 299.701 296.4C301.701 296.5 303.301 298.1 303.301 300Z" fill="#1A2E35"/>
<path d="M319 300C319 302 317.4 303.6 315.4 303.6C313.4 303.6 311.8 302 311.8 300C311.8 298 313.4 296.4 315.4 296.4C317.4 296.5 319 298.1 319 300Z" fill="#1A2E35"/>
<path d="M334.801 300C334.801 302 333.201 303.6 331.201 303.6C329.201 303.6 327.601 302 327.601 300C327.601 298 329.201 296.4 331.201 296.4C333.201 296.5 334.801 298.1 334.801 300Z" fill="#1A2E35"/>
<path d="M456.7 300C456.7 302 455.1 303.6 453.1 303.6C451.1 303.6 449.5 302 449.5 300C449.5 298 451.1 296.4 453.1 296.4C455.1 296.5 456.7 298.1 456.7 300Z" fill="#1A2E35"/>
<path d="M472.7 300C472.7 302 471.1 303.6 469.1 303.6C467.1 303.6 465.5 302 465.5 300C465.5 298 467.1 296.4 469.1 296.4C471.1 296.5 472.7 298.1 472.7 300Z" fill="#1A2E35"/>
<path d="M350.5 300C350.5 302 348.9 303.6 346.9 303.6C344.9 303.6 343.3 302 343.3 300C343.3 298 344.9 296.4 346.9 296.4C348.9 296.5 350.5 298.1 350.5 300Z" fill="#1A2E35"/>
<path d="M427.7 300C427.7 302 426.1 303.6 424.1 303.6C422.1 303.6 420.5 302 420.5 300C420.5 298 422.1 296.4 424.1 296.4C426.2 296.5 427.7 298.1 427.7 300Z" fill="#1A2E35"/>
<path d="M366.201 300C366.201 302 364.6 303.6 362.6 303.6C360.6 303.6 359 302 359 300C359 298 360.6 296.4 362.6 296.4C364.6 296.5 366.201 298.1 366.201 300Z" fill="#F5F5F5"/>
<path d="M382 300C382 302 380.4 303.6 378.4 303.6C376.4 303.6 374.8 302 374.8 300C374.8 298 376.4 296.4 378.4 296.4C380.4 296.5 382 298.1 382 300Z" fill="#F5F5F5"/>
<path d="M413.9 300C413.9 302 412.3 303.6 410.3 303.6C408.3 303.6 406.7 302 406.7 300C406.7 298 408.3 296.4 410.3 296.4C412.3 296.5 413.9 298.1 413.9 300Z" fill="#F5F5F5"/>
<path d="M485.7 300C485.7 302 484.1 303.6 482.1 303.6C480.1 303.6 478.5 302 478.5 300C478.5 298 480.1 296.4 482.1 296.4C484.2 296.5 485.7 298.1 485.7 300Z" fill="#F5F5F5"/>
<path d="M398.801 300C398.801 302 397.201 303.6 395.201 303.6C393.201 303.6 391.601 302 391.601 300C391.601 298 393.201 296.4 395.201 296.4C397.201 296.4 398.801 298.1 398.801 300Z" fill="#7D7D7D"/>
<path d="M443.9 300C443.9 302 442.3 303.6 440.3 303.6C438.3 303.6 436.7 302 436.7 300C436.7 298 438.3 296.4 440.3 296.4C442.3 296.5 443.9 298.1 443.9 300Z" fill="#7D7D7D"/>
<path d="M478.601 317.2C478.601 315.2 480.201 313.6 482.201 313.6C484.201 313.6 485.801 315.2 485.801 317.2C485.801 319.2 484.201 320.8 482.201 320.8C480.201 320.8 478.601 319.2 478.601 317.2Z" fill="#1A2E35"/>
<path d="M462.9 317.2C462.9 315.2 464.5 313.6 466.5 313.6C468.5 313.6 470.1 315.2 470.1 317.2C470.1 319.2 468.5 320.8 466.5 320.8C464.5 320.8 462.9 319.2 462.9 317.2Z" fill="#1A2E35"/>
<path d="M447.2 317.2C447.2 315.2 448.8 313.6 450.8 313.6C452.8 313.6 454.4 315.2 454.4 317.2C454.4 319.2 452.8 320.8 450.8 320.8C448.8 320.8 447.2 319.2 447.2 317.2Z" fill="#1A2E35"/>
<path d="M431.4 317.2C431.4 315.2 433 313.6 435 313.6C437 313.6 438.6 315.2 438.6 317.2C438.6 319.2 437 320.8 435 320.8C433 320.8 431.4 319.2 431.4 317.2Z" fill="#1A2E35"/>
<path d="M309.5 317.2C309.5 315.2 311.1 313.6 313.1 313.6C315.1 313.6 316.701 315.2 316.701 317.2C316.701 319.2 315.1 320.8 313.1 320.8C311.1 320.8 309.5 319.2 309.5 317.2Z" fill="#1A2E35"/>
<path d="M293.5 317.2C293.5 315.2 295.1 313.6 297.1 313.6C299.1 313.6 300.701 315.2 300.701 317.2C300.701 319.2 299.1 320.8 297.1 320.8C295.1 320.8 293.5 319.2 293.5 317.2Z" fill="#1A2E35"/>
<path d="M415.701 317.2C415.701 315.2 417.301 313.6 419.301 313.6C421.301 313.6 422.901 315.2 422.901 317.2C422.901 319.2 421.301 320.8 419.301 320.8C417.301 320.8 415.701 319.2 415.701 317.2Z" fill="#1A2E35"/>
<path d="M342 320.8C343.989 320.8 345.6 319.188 345.6 317.2C345.6 315.212 343.989 313.6 342 313.6C340.012 313.6 338.4 315.212 338.4 317.2C338.4 319.188 340.012 320.8 342 320.8Z" fill="#1A2E35"/>
<path d="M400 317.2C400 315.2 401.6 313.6 403.6 313.6C405.6 313.6 407.201 315.2 407.201 317.2C407.201 319.2 405.6 320.8 403.6 320.8C401.6 320.8 400 319.2 400 317.2Z" fill="#F5F5F5"/>
<path d="M387.801 320.8C389.789 320.8 391.401 319.188 391.401 317.2C391.401 315.212 389.789 313.6 387.801 313.6C385.812 313.6 384.201 315.212 384.201 317.2C384.201 319.188 385.812 320.8 387.801 320.8Z" fill="#F5F5F5"/>
<path d="M352.3 317.2C352.3 315.2 353.9 313.6 355.9 313.6C357.9 313.6 359.5 315.2 359.5 317.2C359.5 319.2 357.9 320.8 355.9 320.8C353.9 320.8 352.3 319.2 352.3 317.2Z" fill="#F5F5F5"/>
<path d="M280.5 317.2C280.5 315.2 282.1 313.6 284.1 313.6C286.1 313.6 287.701 315.2 287.701 317.2C287.701 319.2 286.1 320.8 284.1 320.8C282.1 320.8 280.5 319.2 280.5 317.2Z" fill="#F5F5F5"/>
<path d="M369.701 317.2C369.701 315.2 370.201 313.6 372.101 313.6C374.101 313.6 375.701 315.2 375.701 317.2C375.701 319.2 374.101 320.8 372.101 320.8C370.101 320.8 369.701 319.2 369.701 317.2Z" fill="#7D7D7D"/>
<path d="M324.601 317.2C324.601 315.2 326.201 313.6 328.201 313.6C330.201 313.6 331.801 315.2 331.801 317.2C331.801 319.2 330.201 320.8 328.201 320.8C326.201 320.8 324.601 319.2 324.601 317.2Z" fill="#7D7D7D"/>
<path d="M287.6 332.5C287.6 334.5 286 336.1 284 336.1C282 336.1 280.4 334.5 280.4 332.5C280.4 330.5 282 328.9 284 328.9C286 328.9 287.6 330.5 287.6 332.5Z" fill="#1A2E35"/>
<path d="M303.301 332.5C303.301 334.5 301.701 336.1 299.701 336.1C297.701 336.1 296.101 334.5 296.101 332.5C296.101 330.5 297.701 328.9 299.701 328.9C301.701 328.9 303.301 330.5 303.301 332.5Z" fill="#1A2E35"/>
<path d="M319 332.5C319 334.5 317.4 336.1 315.4 336.1C313.4 336.1 311.8 334.5 311.8 332.5C311.8 330.5 313.4 328.9 315.4 328.9C317.4 328.9 319 330.5 319 332.5Z" fill="#1A2E35"/>
<path d="M331.201 336.1C333.189 336.1 334.801 334.488 334.801 332.5C334.801 330.512 333.189 328.9 331.201 328.9C329.212 328.9 327.601 330.512 327.601 332.5C327.601 334.488 329.212 336.1 331.201 336.1Z" fill="#1A2E35"/>
<path d="M456.7 332.5C456.7 334.5 455.1 336.1 453.1 336.1C451.1 336.1 449.5 334.5 449.5 332.5C449.5 330.5 451.1 328.9 453.1 328.9C455.1 328.9 456.7 330.5 456.7 332.5Z" fill="#1A2E35"/>
<path d="M472.7 332.5C472.7 334.5 471.1 336.1 469.1 336.1C467.1 336.1 465.5 334.5 465.5 332.5C465.5 330.5 467.1 328.9 469.1 328.9C471.1 328.9 472.7 330.5 472.7 332.5Z" fill="#1A2E35"/>
<path d="M350.5 332.5C350.5 334.5 348.9 336.1 346.9 336.1C344.9 336.1 343.3 334.5 343.3 332.5C343.3 330.5 344.9 328.9 346.9 328.9C348.9 328.9 350.5 330.5 350.5 332.5Z" fill="#1A2E35"/>
<path d="M427.7 332.5C427.7 334.5 426.1 336.1 424.1 336.1C422.1 336.1 420.5 334.5 420.5 332.5C420.5 330.5 422.1 328.9 424.1 328.9C426.2 328.9 427.7 330.5 427.7 332.5Z" fill="#1A2E35"/>
<path d="M366.201 332.5C366.201 334.5 364.6 336.1 362.6 336.1C360.6 336.1 359 334.5 359 332.5C359 330.5 360.6 328.9 362.6 328.9C364.6 328.9 366.201 330.5 366.201 332.5Z" fill="#F5F5F5"/>
<path d="M382 332.5C382 334.5 380.4 336.1 378.4 336.1C376.4 336.1 374.8 334.5 374.8 332.5C374.8 330.5 376.4 328.9 378.4 328.9C380.4 328.9 382 330.5 382 332.5Z" fill="#F5F5F5"/>
<path d="M410.3 336.1C412.288 336.1 413.9 334.488 413.9 332.5C413.9 330.512 412.288 328.9 410.3 328.9C408.312 328.9 406.7 330.512 406.7 332.5C406.7 334.488 408.312 336.1 410.3 336.1Z" fill="#F5F5F5"/>
<path d="M485.7 332.5C485.7 334.5 484.1 336.1 482.1 336.1C480.1 336.1 478.5 334.5 478.5 332.5C478.5 330.5 480.1 328.9 482.1 328.9C484.2 328.9 485.7 330.5 485.7 332.5Z" fill="#F5F5F5"/>
<path d="M397.7 332.5C397.7 334.5 396.1 336.1 394.1 336.1C392.1 336.1 391.7 334.5 391.7 332.5C391.7 330.5 392.2 328.9 394.1 328.9C396 328.9 397.7 330.5 397.7 332.5Z" fill="#7D7D7D"/>
<path d="M443.9 332.5C443.9 334.5 442.3 336.1 440.3 336.1C438.3 336.1 436.7 334.5 436.7 332.5C436.7 330.5 438.3 328.9 440.3 328.9C442.3 328.9 443.9 330.5 443.9 332.5Z" fill="#7D7D7D"/>
<path d="M225.5 639.5C225.3 639.5 225.1 632.5 225.1 623.9C225.1 615.3 225.3 608.3 225.5 608.3C225.7 608.3 225.9 615.3 225.9 623.9C225.9 632.5 225.7 639.5 225.5 639.5Z" fill="white"/>
<path d="M234.3 639.5C234.1 639.5 233.9 632.5 233.9 623.9C233.9 615.3 234.1 608.3 234.3 608.3C234.5 608.3 234.7 615.3 234.7 623.9C234.7 632.5 234.5 639.5 234.3 639.5Z" fill="white"/>
<path d="M243.2 639.5C243 639.5 242.8 632.5 242.8 623.9C242.8 615.3 243 608.3 243.2 608.3C243.4 608.3 243.6 615.3 243.6 623.9C243.5 632.5 243.4 639.5 243.2 639.5Z" fill="white"/>
<path d="M252 639.5C251.8 639.5 251.6 632.5 251.6 623.9C251.6 615.3 251.8 608.3 252 608.3C252.2 608.3 252.4 615.3 252.4 623.9C252.4 632.5 252.2 639.5 252 639.5Z" fill="white"/>
<path d="M260.8 639.5C260.6 639.5 260.4 632.5 260.4 623.9C260.4 615.3 260.6 608.3 260.8 608.3C261 608.3 261.2 615.3 261.2 623.9C261.2 632.5 261 639.5 260.8 639.5Z" fill="white"/>
<path d="M269.7 639.5C269.5 639.5 269.3 632.5 269.3 623.9C269.3 615.3 269.5 608.3 269.7 608.3C269.9 608.3 270.1 615.3 270.1 623.9C270.1 632.5 269.9 639.5 269.7 639.5Z" fill="white"/>
<path d="M278.5 639.5C278.3 639.5 278.1 632.5 278.1 623.9C278.1 615.3 278.3 608.3 278.5 608.3C278.7 608.3 278.9 615.3 278.9 623.9C278.9 632.5 278.7 639.5 278.5 639.5Z" fill="white"/>
<path d="M287.3 639.5C287.1 639.5 286.9 632.5 286.9 623.9C286.9 615.3 287.1 608.3 287.3 608.3C287.5 608.3 287.7 615.3 287.7 623.9C287.7 632.5 287.6 639.5 287.3 639.5Z" fill="white"/>
<path d="M296.2 639.5C296 639.5 295.8 632.5 295.8 623.9C295.8 615.3 296 608.3 296.2 608.3C296.4 608.3 296.6 615.3 296.6 623.9C296.6 632.5 296.4 639.5 296.2 639.5Z" fill="white"/>
<path d="M305 639.5C304.8 639.5 304.6 632.5 304.6 623.9C304.6 615.3 304.8 608.3 305 608.3C305.2 608.3 305.4 615.3 305.4 623.9C305.4 632.5 305.2 639.5 305 639.5Z" fill="white"/>
<path d="M313.9 639.5C313.7 639.5 313.5 632.5 313.5 623.9C313.5 615.3 313.7 608.3 313.9 608.3C314.1 608.3 314.3 615.3 314.3 623.9C314.3 632.5 314.1 639.5 313.9 639.5Z" fill="white"/>
<path d="M322.7 639.5C322.5 639.5 322.3 632.5 322.3 623.9C322.3 615.3 322.5 608.3 322.7 608.3C322.9 608.3 323.1 615.3 323.1 623.9C323.1 632.5 322.9 639.5 322.7 639.5Z" fill="white"/>
<path d="M331.5 639.5C331.3 639.5 331.1 632.5 331.1 623.9C331.1 615.3 331.3 608.3 331.5 608.3C331.7 608.3 331.9 615.3 331.9 623.9C331.9 632.5 331.8 639.5 331.5 639.5Z" fill="white"/>
<path d="M340.4 639.5C340.2 639.5 340 632.5 340 623.9C340 615.3 340.2 608.3 340.4 608.3C340.6 608.3 340.8 615.3 340.8 623.9C340.8 632.5 340.6 639.5 340.4 639.5Z" fill="white"/>
<path d="M349.2 639.5C349 639.5 348.8 632.5 348.8 623.9C348.8 615.3 349 608.3 349.2 608.3C349.4 608.3 349.6 615.3 349.6 623.9C349.6 632.5 349.4 639.5 349.2 639.5Z" fill="white"/>
<path d="M358.1 639.5C357.9 639.5 357.7 632.5 357.7 623.9C357.7 615.3 357.9 608.3 358.1 608.3C358.3 608.3 358.5 615.3 358.5 623.9C358.5 632.5 358.3 639.5 358.1 639.5Z" fill="white"/>
<path d="M366.9 639.5C366.7 639.5 366.5 632.5 366.5 623.9C366.5 615.3 366.7 608.3 366.9 608.3C367.1 608.3 367.3 615.3 367.3 623.9C367.3 632.5 367.1 639.5 366.9 639.5Z" fill="white"/>
<path d="M375.7 639.5C375.5 639.5 375.3 632.5 375.3 623.9C375.3 615.3 375.5 608.3 375.7 608.3C375.9 608.3 376.1 615.3 376.1 623.9C376.1 632.5 376 639.5 375.7 639.5Z" fill="white"/>
<path d="M384.6 639.5C384.4 639.5 384.2 632.5 384.2 623.9C384.2 615.3 384.4 608.3 384.6 608.3C384.8 608.3 385 615.3 385 623.9C385 632.5 384.8 639.5 384.6 639.5Z" fill="white"/>
<path d="M393.4 639.5C393.2 639.5 393 632.5 393 623.9C393 615.3 393.2 608.3 393.4 608.3C393.6 608.3 393.8 615.3 393.8 623.9C393.8 632.5 393.6 639.5 393.4 639.5Z" fill="white"/>
<path d="M402.3 639.5C402.1 639.5 401.9 632.5 401.9 623.9C401.9 615.3 402.1 608.3 402.3 608.3C402.5 608.3 402.7 615.3 402.7 623.9C402.7 632.5 402.5 639.5 402.3 639.5Z" fill="white"/>
<path d="M411.1 639.5C410.9 639.5 410.7 632.5 410.7 623.9C410.7 615.3 410.9 608.3 411.1 608.3C411.3 608.3 411.5 615.3 411.5 623.9C411.5 632.5 411.3 639.5 411.1 639.5Z" fill="white"/>
<path d="M419.9 639.5C419.7 639.5 419.5 632.5 419.5 623.9C419.5 615.3 419.7 608.3 419.9 608.3C420.1 608.3 420.3 615.3 420.3 623.9C420.3 632.5 420.2 639.5 419.9 639.5Z" fill="white"/>
<path d="M428.8 639.5C428.6 639.5 428.4 632.5 428.4 623.9C428.4 615.3 428.6 608.3 428.8 608.3C429 608.3 429.2 615.3 429.2 623.9C429.2 632.5 429 639.5 428.8 639.5Z" fill="white"/>
<path d="M437.6 639.5C437.4 639.5 437.2 632.5 437.2 623.9C437.2 615.3 437.4 608.3 437.6 608.3C437.8 608.3 438 615.3 438 623.9C438 632.5 437.8 639.5 437.6 639.5Z" fill="white"/>
<path d="M446.5 639.5C446.3 639.5 446.1 632.5 446.1 623.9C446.1 615.3 446.3 608.3 446.5 608.3C446.7 608.3 446.9 615.3 446.9 623.9C446.9 632.5 446.7 639.5 446.5 639.5Z" fill="white"/>
<path d="M455.3 639.5C455.1 639.5 454.9 632.5 454.9 623.9C454.9 615.3 455.1 608.3 455.3 608.3C455.5 608.3 455.7 615.3 455.7 623.9C455.7 632.5 455.5 639.5 455.3 639.5Z" fill="white"/>
<path d="M464.1 639.5C463.9 639.5 463.7 632.5 463.7 623.9C463.7 615.3 463.9 608.3 464.1 608.3C464.3 608.3 464.5 615.3 464.5 623.9C464.5 632.5 464.4 639.5 464.1 639.5Z" fill="white"/>
<path d="M533.5 586.9C533.5 587.1 450 587.3 346.9 587.3C243.8 587.3 160.3 587.1 160.3 586.9C160.3 586.7 243.8 586.5 346.9 586.5C450 586.5 533.5 586.7 533.5 586.9Z" fill="#1A2E35"/>
<path d="M537.8 653.4C537.8 653.6 452.6 653.8 347.5 653.8C242.4 653.8 157.1 653.6 157.1 653.4C157.1 653.2 242.3 653 347.5 653C452.5 653 537.8 653.2 537.8 653.4Z" fill="#006230"/>
<path d="M529 581.7C529 578.8 528.9 447.1 528.7 244.5L529 244.8C424.4 244.8 300.1 244.8 167 244.9L167.4 244.5C167.4 367.5 167.4 483 167.4 581.7L167.1 581.4C383.5 581.6 526.1 581.7 529 581.7C526 581.7 383.5 581.8 167 582H166.7V581.7C166.7 483 166.7 367.5 166.7 244.5V244.1H167.1C300.1 244.1 424.5 244.1 529.1 244.2H529.4V244.5C529.2 447.1 529 578.9 529 581.7Z" fill="#006230"/>
<path d="M414.9 356.2C414.9 356.2 414.7 356.4 414.4 356.7C414 357 413.6 357.5 413 358.1C411.7 359.4 409.8 361.2 407.4 363.5C402.5 368.2 395.4 375 386.7 383.3C369.2 400 345 423.2 318.5 449C292 474.8 268.1 498.2 250.9 515.3C242.3 523.8 235.3 530.7 230.5 535.5C228.1 537.9 226.2 539.7 224.9 541C224.3 541.6 223.8 542.1 223.4 542.4C223.1 542.7 222.9 542.9 222.9 542.9C222.9 542.9 223 542.7 223.4 542.4C223.7 542 224.2 541.6 224.8 540.9C226.1 539.6 227.9 537.7 230.3 535.3C235.1 530.5 242 523.5 250.5 515C267.6 497.9 291.4 474.3 318 448.6C344.5 422.8 368.7 399.7 386.3 383.1C395.1 374.8 402.2 368.1 407.2 363.5C409.7 361.2 411.6 359.4 412.9 358.2C413.5 357.6 414 357.2 414.4 356.8C414.8 356.3 414.9 356.2 414.9 356.2Z" fill="white"/>
<path d="M397.1 342.1C397.1 342.1 397 342.3 396.7 342.5C396.4 342.8 396 343.2 395.5 343.7C394.4 344.7 392.9 346.2 390.9 348.1C386.9 352 381.2 357.5 374.1 364.3C360 378 340.5 397 319.1 418C297.7 439.1 278.3 458.1 264.2 471.8C257.1 478.6 251.4 484.1 247.3 487.8C245.3 489.7 243.7 491.1 242.5 492C241.9 492.5 241.5 492.8 241.2 493C241 493.1 240.9 493.2 240.8 493.2C240.7 493.2 240.7 493.1 240.7 493.1C240.6 493.4 241.4 492.9 242.4 492C243.5 491.1 245.1 489.6 247.1 487.7C251.1 483.9 256.8 478.4 263.8 471.5C277.8 457.7 297.2 438.6 318.6 417.5C340 396.4 359.5 377.5 373.7 363.9C380.8 357.1 386.6 351.6 390.6 347.9C392.6 346.1 394.2 344.6 395.3 343.6C395.8 343.1 396.2 342.8 396.5 342.5C397 342.2 397.1 342.1 397.1 342.1Z" fill="white"/>
<path d="M417.9 290.6C417.9 290.6 417.8 290.8 417.5 291C417.2 291.3 416.8 291.7 416.3 292.2C415.2 293.2 413.7 294.7 411.7 296.6C407.7 300.5 402 306 394.9 312.8C380.8 326.5 361.3 345.5 339.9 366.5C318.5 387.6 299.1 406.6 285 420.3C277.9 427.1 272.2 432.6 268.1 436.3C266.1 438.2 264.5 439.6 263.3 440.5C262.7 441 262.3 441.3 262 441.5C261.8 441.6 261.7 441.7 261.6 441.7C261.5 441.7 261.5 441.6 261.5 441.6C261.4 441.9 262.2 441.4 263.2 440.5C264.3 439.6 265.9 438.1 267.9 436.2C271.9 432.4 277.6 426.9 284.6 420C298.6 406.2 318 387.1 339.4 366C360.8 344.9 380.3 326 394.5 312.4C401.6 305.6 407.4 300.1 411.4 296.4C413.4 294.6 415 293.1 416.1 292.1C416.6 291.6 417 291.3 417.3 291C417.8 290.7 417.9 290.6 417.9 290.6Z" fill="white"/>
<path d="M169.7 287.1H164.4V333.3H169.7V287.1Z" fill="#006230"/>
<path d="M169.7 485.9H164.4V532.1H169.7V485.9Z" fill="#006230"/>
<path d="M332.1 181.1C332.1 181.1 332.3 181.1 332.6 181.3C332.9 181.5 333.4 181.8 333.7 182.5C334.1 183.1 334.3 184 334.3 185C334.3 186 333.9 187.1 333.2 188.2C332.6 189.3 331.8 190.4 331 191.6C330.3 192.8 329.6 194.2 329.8 195.7C329.9 197.2 330.9 198.6 332 199.9C333.2 201.2 334.6 202.3 335.8 203.9C337 205.4 337.8 207.4 337.2 209.3C336.7 211.2 335.2 212.4 333.9 213.3C332.6 214.3 331.3 215.1 330.2 216C329.1 216.9 328.4 218 328 219.1C327.3 221.4 327.7 223.4 328.3 224.6C328.8 225.8 329.4 226.4 329.4 226.4C329.4 226.4 329.2 226.3 329 226C328.8 225.7 328.4 225.3 328.1 224.7C327.4 223.5 326.9 221.4 327.6 218.9C327.8 218.3 328.1 217.7 328.4 217.1C328.8 216.5 329.3 216 329.8 215.5C330.9 214.5 332.2 213.7 333.5 212.7C334.8 211.8 336.1 210.6 336.5 209C337 207.4 336.3 205.7 335.2 204.2C334.1 202.7 332.7 201.6 331.5 200.2C330.3 198.9 329.2 197.3 329.1 195.5C328.9 193.7 329.7 192.2 330.5 191C331.3 189.8 332.1 188.7 332.8 187.7C333.4 186.7 333.8 185.7 333.9 184.7C334 183.8 333.8 183 333.5 182.4C332.9 181.4 332.1 181.1 332.1 181.1Z" fill="#1A2E35"/>
<path d="M348 181.1C348 181.1 348.2 181.1 348.5 181.3C348.8 181.5 349.3 181.8 349.6 182.5C350 183.1 350.2 184 350.2 185C350.2 186 349.8 187.1 349.1 188.2C348.5 189.3 347.7 190.4 346.9 191.6C346.2 192.8 345.5 194.2 345.7 195.7C345.8 197.2 346.8 198.6 347.9 199.9C349.1 201.2 350.5 202.3 351.7 203.9C352.9 205.4 353.7 207.4 353.1 209.3C352.6 211.2 351.1 212.4 349.8 213.3C348.5 214.3 347.2 215.1 346.1 216C345 216.9 344.3 218 343.9 219.1C343.2 221.4 343.6 223.4 344.2 224.6C344.7 225.8 345.3 226.4 345.3 226.4C345.3 226.4 345.1 226.3 344.9 226C344.7 225.7 344.3 225.3 344 224.7C343.3 223.5 342.8 221.4 343.5 218.9C343.7 218.3 344 217.7 344.3 217.1C344.7 216.5 345.2 216 345.7 215.5C346.8 214.5 348.1 213.7 349.4 212.7C350.7 211.8 352 210.6 352.4 209C352.9 207.4 352.2 205.7 351.1 204.2C350 202.7 348.6 201.6 347.4 200.2C346.2 198.9 345.1 197.3 345 195.5C344.8 193.7 345.6 192.2 346.4 191C347.2 189.8 348 188.7 348.7 187.7C349.3 186.7 349.7 185.7 349.8 184.7C349.9 183.8 349.7 183 349.4 182.4C348.8 181.4 347.9 181.1 348 181.1Z" fill="#1A2E35"/>
<path d="M363.8 181.1C363.8 181.1 364 181.1 364.3 181.3C364.6 181.5 365.1 181.8 365.4 182.5C365.8 183.1 366 184 366 185C366 186 365.6 187.1 364.9 188.2C364.3 189.3 363.5 190.4 362.7 191.6C362 192.8 361.3 194.2 361.5 195.7C361.6 197.2 362.6 198.6 363.7 199.9C364.9 201.2 366.3 202.3 367.5 203.9C368.7 205.4 369.5 207.4 368.9 209.3C368.4 211.2 366.9 212.4 365.6 213.3C364.3 214.3 363 215.1 361.9 216C360.8 216.9 360.1 218 359.7 219.1C359 221.4 359.4 223.4 360 224.6C360.5 225.8 361.1 226.4 361.1 226.4C361.1 226.4 360.9 226.3 360.7 226C360.5 225.7 360.1 225.3 359.8 224.7C359.1 223.5 358.6 221.4 359.3 218.9C359.5 218.3 359.8 217.7 360.1 217.1C360.5 216.5 361 216 361.5 215.5C362.6 214.5 363.9 213.7 365.2 212.7C366.5 211.8 367.8 210.6 368.2 209C368.7 207.4 368 205.7 366.9 204.2C365.8 202.7 364.4 201.6 363.2 200.2C362 198.9 360.9 197.3 360.8 195.5C360.6 193.7 361.4 192.2 362.2 191C363 189.8 363.8 188.7 364.5 187.7C365.1 186.7 365.5 185.7 365.6 184.7C365.7 183.8 365.5 183 365.2 182.4C364.6 181.4 363.8 181.1 363.8 181.1Z" fill="#1A2E35"/>
<path d="M589.7 669.1C589.7 669.3 482.3 669.5 349.9 669.5C217.4 669.5 110 669.3 110 669.1C110 668.9 217.4 668.7 349.9 668.7C482.3 668.7 589.7 668.9 589.7 669.1Z" fill="#006230"/>
</svg>
