<svg width="18" height="18" viewBox="0 0 18 18" fill="none" xmlns="http://www.w3.org/2000/svg">
<path d="M14.1426 7.07227C14.1426 6.89816 14.079 6.74749 13.9518 6.62026L9.4518 2.12026C9.32457 1.99302 9.1739 1.92941 8.99979 1.92941C8.82568 1.92941 8.67501 1.99302 8.54778 2.12026L4.04778 6.62026C3.92055 6.74749 3.85693 6.89816 3.85693 7.07227C3.85693 7.24637 3.92055 7.39704 4.04778 7.52427C4.17501 7.65151 4.32568 7.71512 4.49979 7.71512H13.4998C13.6739 7.71512 13.8246 7.65151 13.9518 7.52427C14.079 7.39704 14.1426 7.24637 14.1426 7.07227ZM14.1426 10.9294C14.1426 10.7553 14.079 10.6046 13.9518 10.4774C13.8246 10.3502 13.6739 10.2866 13.4998 10.2866H4.49979C4.32568 10.2866 4.17501 10.3502 4.04778 10.4774C3.92055 10.6046 3.85693 10.7553 3.85693 10.9294C3.85693 11.1035 3.92055 11.2542 4.04778 11.3814L8.54778 15.8814C8.67501 16.0086 8.82568 16.0723 8.99979 16.0723C9.1739 16.0723 9.32457 16.0086 9.4518 15.8814L13.9518 11.3814C14.079 11.2542 14.1426 11.1035 14.1426 10.9294Z" fill="#6A6A6A"/>
</svg>
