<svg width="37" height="37" viewBox="0 0 37 37" fill="none" xmlns="http://www.w3.org/2000/svg">
<g clip-path="url(#clip0_4181_9640)">
<path d="M15.8636 5.95103L2.80565 27.7502C2.53643 28.2164 2.39398 28.745 2.39247 29.2834C2.39096 29.8218 2.53045 30.3512 2.79706 30.8189C3.06367 31.2867 3.4481 31.6764 3.91212 31.9495C4.37613 32.2225 4.90355 32.3693 5.4419 32.3752H31.5577C32.0961 32.3693 32.6235 32.2225 33.0875 31.9495C33.5515 31.6764 33.936 31.2867 34.2026 30.8189C34.4692 30.3512 34.6087 29.8218 34.6072 29.2834C34.6057 28.745 34.4632 28.2164 34.194 27.7502L21.1361 5.95103C20.8612 5.49794 20.4743 5.12334 20.0125 4.86336C19.5507 4.60338 19.0297 4.4668 18.4998 4.4668C17.9699 4.4668 17.4489 4.60338 16.9871 4.86336C16.5254 5.12334 16.1384 5.49794 15.8636 5.95103V5.95103Z" stroke="#FA5258" stroke-width="2" stroke-linecap="round" stroke-linejoin="round"/>
<path d="M18.5 13.875V20.0417" stroke="#FA5258" stroke-width="2" stroke-linecap="round" stroke-linejoin="round"/>
<path d="M18.5 25.7383V28.5535" stroke="#FA5258" stroke-width="2" stroke-linecap="round" stroke-linejoin="round"/>
</g>
<defs>
<clipPath id="clip0_4181_9640">
<rect width="37" height="37" fill="white"/>
</clipPath>
</defs>
</svg>
