<svg width="24" height="14" viewBox="0 0 24 14" fill="none" xmlns="http://www.w3.org/2000/svg">
<path fill-rule="evenodd" clip-rule="evenodd" d="M4.13794 13.6208C1.85266 13.6208 0 11.7681 0 9.48286C0 7.282 1.71836 5.48235 3.88654 5.35249C4.54048 2.50398 7.09106 0.379395 10.1379 0.379395C11.9076 0.379395 13.5098 1.09613 14.6702 2.25513C15.1341 2.11179 15.6269 2.03457 16.1379 2.03457C18.8802 2.03457 21.1034 4.2578 21.1034 7.00009C21.1034 7.14141 21.0975 7.28125 21.0859 7.41962C22.7117 7.51752 24 8.86695 24 10.5173C24 11.85 23.16 12.9866 21.9805 13.4263C21.7142 13.551 21.4169 13.6208 21.1034 13.6208L4.13794 13.6208Z" fill="#6A6A6A"/>
</svg>